<svg width="185" height="61" viewBox="0 0 185 61" fill="none" xmlns="http://www.w3.org/2000/svg">
<path d="M177.062 0H7.93766C3.57081 0 0 3.33229 0 7.40745V53.5926C0 57.6677 3.57081 61 7.93766 61H177.062C181.429 61 185 57.6677 185 53.5926V7.40745C185.023 3.33229 181.429 0 177.062 0Z" fill="white"/>
<path d="M7.8107 46.1216H8.5578L10.2105 49.0292C10.2558 49.0929 10.2784 49.1565 10.3237 49.2202C10.369 49.2839 10.3916 49.3475 10.4369 49.4112C10.4822 49.4749 10.5048 49.5386 10.5274 49.6022C10.5501 49.6659 10.5954 49.7296 10.618 49.772C10.6859 49.8994 10.7538 50.0267 10.8217 50.154C10.8217 50.1116 10.7991 50.0479 10.7991 49.9418C10.7991 49.8569 10.7765 49.7296 10.7765 49.6022C10.7765 49.4749 10.7538 49.3263 10.7538 49.1565C10.7538 48.9867 10.7538 48.817 10.7538 48.6259V46.1003H11.3877V51.003H10.7086L9.10115 48.2227C9.03323 48.0529 8.94267 47.9043 8.85212 47.7558C8.76156 47.6072 8.69364 47.4586 8.62572 47.3313C8.53516 47.1827 8.46724 47.0554 8.39933 46.9281C8.39933 46.9493 8.39933 46.9917 8.39933 47.0342C8.39933 47.0766 8.39933 47.1615 8.42197 47.2252C8.42197 47.3101 8.42197 47.3738 8.4446 47.4799C8.4446 47.5648 8.4446 47.6709 8.46724 47.777C8.46724 47.8831 8.46724 47.9892 8.48988 48.0954C8.48988 48.2015 8.48988 48.3076 8.48988 48.3925V51.0242H7.8107V46.1216Z" fill="#26A9E0"/>
<path d="M12.7236 46.1213H15.7573L15.6215 46.6307H13.3575V48.1801H15.214V48.7106H13.3575V50.4935H15.7573V51.024H12.7236V46.1213Z" fill="#26A9E0"/>
<path d="M16.2547 46.1852L16.9112 46.0791L17.5904 49.0719C17.6131 49.1356 17.6131 49.1992 17.6357 49.2841C17.6584 49.3478 17.6584 49.4327 17.681 49.4964C17.7036 49.5813 17.7036 49.645 17.7263 49.7299C17.7489 49.8148 17.7489 49.8785 17.7716 49.9421C17.7942 50.1119 17.8168 50.2605 17.8395 50.4303C17.8395 50.3879 17.8621 50.303 17.8847 50.1968C17.9074 50.0907 17.93 49.9846 17.9753 49.8572C17.9979 49.7299 18.0432 49.6025 18.0659 49.4752C18.0885 49.3478 18.1338 49.2205 18.1564 49.0931L18.8583 46.164H19.5601L20.2619 49.0931C20.3072 49.2841 20.3525 49.4539 20.3751 49.6237C20.4204 49.7935 20.443 49.9209 20.4657 50.0483C20.4883 50.1968 20.5336 50.3242 20.5562 50.4515C20.5562 50.4091 20.5789 50.3454 20.5789 50.2393C20.6015 50.1544 20.6242 50.0483 20.6242 49.9209C20.6468 49.7936 20.6694 49.6662 20.6921 49.5388C20.7147 49.3903 20.76 49.2417 20.7826 49.0931L21.4392 46.164H22.0731L20.9185 51.0671H20.0808L19.3563 48.138C19.3111 47.9894 19.2884 47.862 19.2658 47.7347C19.2431 47.6073 19.2205 47.5012 19.1979 47.3951C19.1752 47.289 19.1526 47.1828 19.1526 47.0767C19.1299 47.1616 19.1073 47.289 19.0847 47.48C19.062 47.671 19.0167 47.8833 18.9488 48.138L18.247 51.0883H17.432L16.2547 46.1852Z" fill="#26A9E0"/>
<path d="M23.9987 46.1213H25.3798C25.5156 46.1213 25.6741 46.1213 25.8099 46.1426C25.9458 46.1638 26.1042 46.185 26.2174 46.2062C26.3533 46.2275 26.4665 46.2911 26.6023 46.3336C26.7155 46.3972 26.8287 46.4609 26.9193 46.5458C27.0098 46.6307 27.0778 46.7368 27.123 46.8642C27.1683 46.9915 27.191 47.1401 27.191 47.3099C27.191 47.4372 27.1683 47.5433 27.123 47.6495C27.0778 47.7556 27.0325 47.8617 26.9419 47.9678C26.874 48.0739 26.7834 48.1588 26.6702 48.2225C26.557 48.3074 26.4438 48.3498 26.308 48.4135C26.4891 48.456 26.625 48.4984 26.7834 48.5621C26.9193 48.6258 27.0551 48.7106 27.1457 48.8168C27.2362 48.9229 27.3268 49.029 27.3721 49.1776C27.4173 49.3049 27.4626 49.4747 27.4626 49.6445C27.4626 49.8992 27.4173 50.1114 27.3268 50.2812C27.2362 50.451 27.1004 50.5996 26.9419 50.7057C26.7834 50.8118 26.6023 50.8967 26.3759 50.9392C26.1722 50.9816 25.9458 51.024 25.6967 51.024H23.9987V46.1213ZM24.6553 46.6307V48.2013H25.5382C25.6741 48.2013 25.8099 48.1801 25.9231 48.1588C26.0363 48.1376 26.1495 48.0952 26.2401 48.0315C26.3306 47.9678 26.3986 47.8829 26.4438 47.7768C26.4891 47.6707 26.5118 47.5433 26.5118 47.3948C26.5118 47.225 26.4891 47.0976 26.4212 46.9915C26.3759 46.8854 26.2854 46.8217 26.1948 46.7581C26.1042 46.6944 25.991 46.6732 25.8778 46.6519C25.7646 46.6307 25.6288 46.6307 25.5156 46.6307H24.6553ZM24.6553 48.7319V50.5359H25.742C25.9231 50.5359 26.1042 50.5147 26.2174 50.4722C26.3533 50.4298 26.4665 50.3661 26.5344 50.2812C26.625 50.1963 26.6702 50.1114 26.7155 49.9841C26.7608 49.878 26.7834 49.7294 26.7834 49.6021C26.7834 49.4323 26.7608 49.2837 26.6929 49.1776C26.625 49.0715 26.5344 48.9866 26.4212 48.9229C26.308 48.8592 26.1722 48.8168 26.0137 48.7955C25.8552 48.7743 25.6967 48.7531 25.5156 48.7531H24.6553V48.7319Z" fill="#ED1C24"/>
<path d="M28.5496 46.1213H29.1835V49.6234C29.1835 49.7719 29.2061 49.8993 29.2288 50.0266C29.2514 50.154 29.3193 50.2601 29.4099 50.345C29.5004 50.4299 29.6136 50.4936 29.7495 50.536C29.8853 50.5785 30.0664 50.5997 30.2928 50.5997C30.4966 50.5997 30.6777 50.5785 30.8135 50.536C30.9494 50.4936 31.0626 50.4299 31.1531 50.345C31.2437 50.2601 31.289 50.154 31.3342 50.0266C31.3795 49.8993 31.3795 49.7719 31.3795 49.6234V46.1426H32.0134V49.6234C32.0134 49.8993 31.9682 50.1327 31.9002 50.3238C31.8323 50.5148 31.7191 50.6634 31.5606 50.7907C31.4248 50.9181 31.221 51.0029 31.0173 51.0454C30.7909 51.0878 30.5419 51.1303 30.2475 51.1303C29.9985 51.1303 29.7721 51.1091 29.5683 51.0454C29.3646 51.0029 29.1835 50.9181 29.0476 50.7907C28.8892 50.6846 28.776 50.5148 28.708 50.345C28.6175 50.154 28.5722 49.9417 28.5722 49.6658V46.1213H28.5496Z" fill="#ED1C24"/>
<path d="M34.7974 46.0579C34.9332 46.0579 35.0691 46.0579 35.2049 46.0791C35.3407 46.1004 35.4539 46.1216 35.5898 46.164C35.703 46.2065 35.8388 46.2489 35.952 46.3126C36.0652 46.3763 36.1784 46.44 36.2916 46.5249L36.0199 46.9282C35.9294 46.8645 35.8162 46.8008 35.7256 46.7584C35.6351 46.7159 35.5445 46.6734 35.4313 46.631C35.3407 46.5885 35.2275 46.5673 35.137 46.5461C35.0464 46.5249 34.9332 46.5249 34.82 46.5249C34.6615 46.5249 34.5257 46.5461 34.3899 46.5673C34.2767 46.6098 34.1635 46.6522 34.0729 46.7159C33.9823 46.7796 33.9144 46.8645 33.8691 46.9494C33.8239 47.0343 33.8012 47.1404 33.8012 47.2678C33.8012 47.3739 33.8239 47.48 33.8465 47.5649C33.8691 47.6498 33.9144 47.7135 33.9823 47.7772C34.0503 47.8408 34.1408 47.8833 34.2314 47.947C34.3446 47.9894 34.4578 48.0531 34.6163 48.0955L35.2955 48.3078C35.4766 48.3715 35.6351 48.4351 35.7709 48.4988C35.9067 48.5837 36.0426 48.6686 36.1331 48.7747C36.2237 48.8809 36.3143 48.987 36.3595 49.1356C36.4048 49.2629 36.4275 49.4327 36.4275 49.6237C36.4275 49.836 36.3822 50.0482 36.2916 50.218C36.2011 50.3878 36.0652 50.5576 35.9067 50.685C35.7483 50.8123 35.5445 50.9185 35.3181 50.9821C35.0917 51.0458 34.8427 51.0883 34.5936 51.0883C34.4351 51.0883 34.2767 51.067 34.1408 51.0458C34.005 51.0246 33.8691 51.0034 33.7333 50.9609C33.5975 50.9185 33.4843 50.876 33.3484 50.8123C33.2352 50.7487 33.0994 50.685 32.9862 50.6213L33.2579 50.1756C33.3711 50.2393 33.4843 50.3029 33.5748 50.3454C33.688 50.3878 33.7786 50.4303 33.8918 50.4727C34.005 50.494 34.1182 50.5364 34.2314 50.5364C34.3446 50.5576 34.4578 50.5576 34.571 50.5576C34.7068 50.5576 34.8427 50.5364 34.9785 50.5152C35.1143 50.4727 35.2275 50.4303 35.3407 50.3666C35.4539 50.3029 35.5445 50.1968 35.6124 50.0907C35.6803 49.9846 35.703 49.836 35.703 49.6874C35.703 49.5601 35.6803 49.4752 35.6577 49.3903C35.6351 49.3054 35.5898 49.2205 35.5219 49.1568C35.4539 49.0931 35.3634 49.0294 35.2502 48.9658C35.137 48.9021 35.0011 48.8596 34.82 48.796L34.254 48.6262C34.1182 48.5837 33.9823 48.52 33.8239 48.4564C33.688 48.3927 33.5522 48.3078 33.439 48.2229C33.3258 48.1168 33.2352 48.0106 33.1673 47.8833C33.0994 47.7559 33.0541 47.5861 33.0541 47.4163C33.0541 47.2041 33.0994 47.0131 33.1673 46.8432C33.2352 46.6734 33.3484 46.5249 33.5069 46.4187C33.6427 46.2914 33.8239 46.2065 34.0276 46.1428C34.2993 46.1004 34.5257 46.0579 34.7974 46.0579Z" fill="#ED1C24"/>
<path d="M37.6272 46.1213H38.2613V51.0241H37.6272V46.1213Z" fill="#ED1C24"/>
<path d="M39.665 46.1216H40.4121L42.0648 49.0292C42.1101 49.0929 42.1327 49.1565 42.178 49.2202C42.2233 49.2839 42.2459 49.3475 42.2912 49.4112C42.3365 49.4749 42.3591 49.5386 42.3818 49.6022C42.4044 49.6659 42.4497 49.7296 42.4723 49.772C42.5402 49.8994 42.6082 50.0267 42.6761 50.154C42.6761 50.1116 42.6534 50.0479 42.6534 49.9418C42.6534 49.8569 42.6308 49.7296 42.6308 49.6022C42.6308 49.4749 42.6082 49.3263 42.6082 49.1565C42.6082 48.9867 42.6082 48.817 42.6082 48.6259V46.1003H43.2421V51.003H42.5629L40.9554 48.2227C40.8875 48.0529 40.797 47.9043 40.7064 47.7558C40.6159 47.6072 40.5479 47.4586 40.48 47.3313C40.3895 47.1827 40.3215 47.0554 40.2536 46.9281C40.2536 46.9493 40.2536 46.9917 40.2536 47.0342C40.2536 47.0766 40.2536 47.1615 40.2763 47.2252C40.2763 47.3101 40.2763 47.3738 40.2989 47.4799C40.2989 47.5648 40.3215 47.6709 40.3215 47.777C40.3215 47.8831 40.3215 47.9892 40.3442 48.0954C40.3442 48.2015 40.3442 48.3076 40.3442 48.3925V51.0242H39.7103V46.1216H39.665Z" fill="#ED1C24"/>
<path d="M44.5773 46.1213H47.611L47.4752 46.6307H45.2339V48.1801H47.0903V48.7106H45.2339V50.4935H47.6337V51.024H44.5999L44.5773 46.1213Z" fill="#ED1C24"/>
<path d="M49.9656 46.0579C50.1015 46.0579 50.2373 46.0579 50.3732 46.0791C50.509 46.1004 50.6222 46.1216 50.758 46.164C50.8712 46.2065 51.0071 46.2489 51.1203 46.3126C51.2335 46.3763 51.3467 46.44 51.4599 46.5249L51.1882 46.9282C51.0976 46.8645 50.9844 46.8008 50.8939 46.7584C50.8033 46.7159 50.7128 46.6734 50.5996 46.631C50.509 46.5885 50.3958 46.5673 50.3052 46.5461C50.2147 46.5249 50.1015 46.5249 49.9883 46.5249C49.8298 46.5249 49.694 46.5461 49.5581 46.5673C49.4449 46.6098 49.3317 46.6522 49.2412 46.7159C49.1506 46.7796 49.0827 46.8645 49.0374 46.9494C48.9921 47.0343 48.9695 47.1404 48.9695 47.2678C48.9695 47.3739 48.9921 47.48 49.0148 47.5649C49.0374 47.6498 49.0827 47.7135 49.1506 47.7772C49.2185 47.8408 49.3091 47.8833 49.3997 47.947C49.5129 47.9894 49.6261 48.0531 49.7845 48.0955L50.4637 48.3078C50.6448 48.3715 50.8033 48.4351 50.9392 48.4988C51.075 48.5837 51.2108 48.6686 51.3014 48.7747C51.3919 48.8809 51.4825 48.987 51.5278 49.1356C51.5731 49.2629 51.5957 49.4327 51.5957 49.6237C51.5957 49.836 51.5504 50.0482 51.4599 50.218C51.3693 50.3878 51.2335 50.5576 51.075 50.685C50.9165 50.8123 50.7128 50.9185 50.4864 50.9821C50.26 51.0458 50.0109 51.0883 49.7619 51.0883C49.6034 51.0883 49.4449 51.067 49.3091 51.0458C49.1733 51.0246 49.0374 51.0034 48.9016 50.9609C48.7657 50.9185 48.6526 50.876 48.5167 50.8123C48.4035 50.7487 48.2677 50.685 48.1545 50.6213L48.4262 50.1756C48.5394 50.2393 48.6526 50.3029 48.7431 50.3454C48.8563 50.3878 48.9469 50.4303 49.0601 50.4727C49.1733 50.494 49.2865 50.5364 49.3997 50.5364C49.5129 50.5576 49.6261 50.5576 49.7393 50.5576C49.8751 50.5576 50.0109 50.5364 50.1468 50.5152C50.2826 50.4727 50.3958 50.4303 50.509 50.3666C50.6222 50.3029 50.7128 50.1968 50.7807 50.0907C50.8486 49.9846 50.8712 49.836 50.8712 49.6874C50.8712 49.5601 50.8486 49.4752 50.826 49.3903C50.8033 49.3054 50.758 49.2205 50.6901 49.1568C50.6222 49.0931 50.5316 49.0294 50.4184 48.9658C50.3052 48.9021 50.1694 48.8596 49.9883 48.796L49.4223 48.6262C49.2865 48.5837 49.1506 48.52 48.9921 48.4564C48.8563 48.3927 48.7205 48.3078 48.6073 48.2229C48.4941 48.1168 48.4035 48.0106 48.3356 47.8833C48.2677 47.7559 48.2224 47.5861 48.2224 47.4163C48.2224 47.2041 48.2677 47.0131 48.3356 46.8432C48.4035 46.6734 48.5167 46.5249 48.6752 46.4187C48.811 46.2914 48.9921 46.2065 49.1959 46.1428C49.4902 46.1004 49.7166 46.0579 49.9656 46.0579Z" fill="#ED1C24"/>
<path d="M54.2225 46.0579C54.3584 46.0579 54.4942 46.0579 54.6301 46.0791C54.7659 46.1004 54.8791 46.1216 55.0149 46.164C55.1281 46.2065 55.264 46.2489 55.3772 46.3126C55.4904 46.3763 55.6036 46.44 55.7168 46.5249L55.4451 46.9282C55.3545 46.8645 55.2413 46.8008 55.1508 46.7584C55.0602 46.7159 54.9697 46.6734 54.8565 46.631C54.7659 46.5885 54.6527 46.5673 54.5621 46.5461C54.4716 46.5249 54.3584 46.5249 54.2452 46.5249C54.0867 46.5249 53.9509 46.5461 53.815 46.5673C53.7018 46.6098 53.5886 46.6522 53.4981 46.7159C53.4075 46.7796 53.3396 46.8645 53.2943 46.9494C53.249 47.0343 53.2264 47.1404 53.2264 47.2678C53.2264 47.3739 53.249 47.48 53.2717 47.5649C53.2943 47.6498 53.3396 47.7135 53.4075 47.7772C53.4754 47.8408 53.566 47.8833 53.6566 47.947C53.7698 47.9894 53.883 48.0531 54.0414 48.0955L54.7206 48.3078C54.9017 48.3715 55.0602 48.4351 55.1961 48.4988C55.3319 48.5837 55.4677 48.6686 55.5583 48.7747C55.6488 48.8809 55.7394 48.987 55.7847 49.1356C55.83 49.2629 55.8526 49.4327 55.8526 49.6237C55.8526 49.836 55.8073 50.0482 55.7168 50.218C55.6262 50.3878 55.4904 50.5576 55.3319 50.685C55.1734 50.8123 54.9697 50.9185 54.7433 50.9821C54.5169 51.0458 54.2678 51.0883 54.0188 51.0883C53.8603 51.0883 53.7018 51.067 53.566 51.0458C53.4302 51.0246 53.2943 51.0034 53.1585 50.9609C53.0226 50.9185 52.9094 50.876 52.7736 50.8123C52.6604 50.7487 52.5246 50.685 52.4114 50.6213L52.6831 50.1756C52.7963 50.2393 52.9094 50.3029 53 50.3454C53.1132 50.3878 53.2038 50.4303 53.317 50.4727C53.4302 50.494 53.5434 50.5364 53.6566 50.5364C53.7698 50.5576 53.883 50.5576 53.9962 50.5576C54.132 50.5576 54.2678 50.5364 54.4263 50.5152C54.5621 50.4727 54.6753 50.4303 54.7885 50.3666C54.9017 50.3029 54.9923 50.1968 55.0602 50.0907C55.1281 49.9846 55.1508 49.836 55.1508 49.6874C55.1508 49.5601 55.1281 49.4752 55.1055 49.3903C55.0829 49.3054 55.0376 49.2205 54.9697 49.1568C54.9017 49.0931 54.8112 49.0294 54.698 48.9658C54.5848 48.9021 54.4489 48.8596 54.2678 48.796L53.7018 48.6262C53.566 48.5837 53.4302 48.52 53.2717 48.4564C53.1358 48.3927 53 48.3078 52.8868 48.2229C52.7736 48.1168 52.6831 48.0106 52.6151 47.8833C52.5472 47.7559 52.5019 47.5861 52.5019 47.4163C52.5019 47.2041 52.5472 47.0131 52.6151 46.8432C52.6831 46.6734 52.7963 46.5249 52.9547 46.4187C53.0906 46.2914 53.2717 46.2065 53.4754 46.1428C53.7471 46.1004 53.9735 46.0579 54.2225 46.0579Z" fill="#ED1C24"/>
<path d="M58.5914 46.1213H59.8819C60.2894 46.1213 60.629 46.185 60.9233 46.2911C61.2176 46.3972 61.4667 46.567 61.6478 46.758C61.8289 46.9703 61.9874 47.225 62.0553 47.5221C62.1232 47.8192 62.1911 48.18 62.1911 48.562C62.1911 48.7955 62.1685 49.0077 62.1458 49.1987C62.1232 49.411 62.0553 49.602 61.9874 49.7718C61.9194 49.9628 61.8289 50.1113 61.7157 50.2599C61.6025 50.4085 61.4667 50.5358 61.3082 50.6419C61.1497 50.748 60.9686 50.8329 60.7422 50.8966C60.5384 50.9603 60.2894 50.9815 60.0177 50.9815H58.5914V46.1213ZM59.248 46.6307V50.5358H59.8592C60.1762 50.5358 60.4479 50.4934 60.6516 50.4085C60.8554 50.3236 61.0365 50.1962 61.1497 50.0477C61.2855 49.8779 61.3761 49.6869 61.4214 49.4534C61.4667 49.22 61.5119 48.9653 61.5119 48.6681C61.5119 48.4984 61.5119 48.3074 61.4893 48.1376C61.4667 47.9678 61.444 47.8192 61.3987 47.6494C61.3535 47.5009 61.2855 47.3735 61.195 47.2462C61.1044 47.1188 61.0139 47.0127 60.878 46.9278C60.7648 46.8429 60.6064 46.758 60.4479 46.7156C60.2894 46.6731 60.0856 46.6307 59.8592 46.6307H59.248Z" fill="#14B1E7"/>
<path d="M63.4366 46.1216H64.1838L65.8365 49.0292C65.8817 49.0929 65.9044 49.1565 65.9497 49.2202C65.9949 49.2839 66.0176 49.3475 66.0629 49.4112C66.1081 49.4749 66.1308 49.5386 66.1534 49.6022C66.1761 49.6659 66.2213 49.7296 66.244 49.772C66.3119 49.8994 66.3798 50.0267 66.4477 50.154C66.4477 50.1116 66.4251 50.0479 66.4251 49.9418C66.4251 49.8569 66.4025 49.7296 66.4025 49.6022C66.4025 49.4749 66.3798 49.3263 66.3798 49.1565C66.3798 48.9867 66.3798 48.817 66.3798 48.6259V46.1003H67.0137V51.003H66.3345L64.7271 48.2227C64.6592 48.0529 64.5686 47.9043 64.4781 47.7558C64.3875 47.6072 64.3196 47.4586 64.2517 47.3313C64.1611 47.1827 64.0932 47.0554 64.0253 46.9281C64.0253 46.9493 64.0253 46.9917 64.0253 47.0342C64.0253 47.0766 64.0253 47.1615 64.0479 47.2252C64.0479 47.3101 64.0479 47.3738 64.0706 47.4799C64.0706 47.5648 64.0706 47.6709 64.0932 47.777C64.0932 47.8831 64.0932 47.9892 64.1158 48.0954C64.1158 48.2015 64.1158 48.3076 64.1158 48.3925V51.0242H63.4819V46.1216H63.4366Z" fill="#14B1E7"/>
<path d="M70.2964 46.1213L72.0397 51.024H71.2925L70.7718 49.4323H68.87L68.3493 51.024H67.6927L69.436 46.1213H70.2964ZM70.636 48.9441L69.8662 46.6732L69.0512 48.9441H70.636Z" fill="#14B1E7"/>
<path d="M8.01508 41.6643H8.71692C8.94332 41.6643 9.12444 41.6855 9.28292 41.7492C9.4414 41.8129 9.57724 41.8978 9.6678 42.0039C9.781 42.11 9.84892 42.2586 9.8942 42.4284C9.93948 42.5982 9.96212 42.7892 9.96212 43.0014C9.96212 43.1287 9.96212 43.2349 9.93948 43.3622C9.91684 43.4683 9.8942 43.5744 9.84892 43.6806C9.80364 43.7867 9.75836 43.8716 9.69044 43.9565C9.62252 44.0414 9.5546 44.105 9.46404 44.1687C9.37348 44.2324 9.28292 44.2748 9.16972 44.296C9.05652 44.3173 8.94332 44.3385 8.78484 44.3385H8.01508V41.6643ZM8.35468 41.9402V44.0626H8.69428C8.8754 44.0626 9.01124 44.0414 9.12444 43.9989C9.23764 43.9565 9.3282 43.8928 9.39612 43.8079C9.46404 43.723 9.50932 43.6169 9.5546 43.4895C9.57724 43.3622 9.59988 43.2136 9.59988 43.0651C9.59988 42.959 9.59988 42.8741 9.57724 42.7892C9.57724 42.7043 9.5546 42.6194 9.53196 42.5345C9.50932 42.4496 9.46404 42.3859 9.41876 42.301C9.37348 42.2373 9.3282 42.1737 9.26028 42.1312C9.19236 42.0888 9.12444 42.0463 9.03388 42.0251C8.94332 42.0039 8.83012 41.9827 8.71692 41.9827H8.35468V41.9402Z" fill="#522E91"/>
<path d="M11.0482 41.6643H11.3878V42.7892H12.6104V41.6643H12.95V44.3385H12.633V43.0651H11.4105V44.3385H11.0482V41.6643Z" fill="#522E91"/>
<path d="M14.1496 41.6643H14.4892V43.5745C14.4892 43.6594 14.4892 43.723 14.5119 43.7867C14.5345 43.8504 14.5571 43.914 14.6024 43.9565C14.6477 43.9989 14.7156 44.0414 14.7835 44.0626C14.8514 44.0838 14.9646 44.1051 15.0778 44.1051C15.191 44.1051 15.2816 44.0838 15.3495 44.0626C15.4174 44.0414 15.4854 43.9989 15.5306 43.9565C15.5759 43.914 15.6212 43.8504 15.6212 43.7867C15.6438 43.723 15.6438 43.6381 15.6438 43.5745V41.6855H15.9834V43.5745C15.9834 43.723 15.9608 43.8504 15.9155 43.9565C15.8702 44.0626 15.825 44.1475 15.7344 44.2112C15.6438 44.2748 15.5533 44.3173 15.4401 44.3597C15.3269 44.381 15.1684 44.4022 15.0099 44.4022C14.8741 44.4022 14.7382 44.381 14.625 44.3597C14.5119 44.3385 14.4213 44.2961 14.3307 44.2324C14.2402 44.1687 14.1949 44.0838 14.1496 43.9777C14.1043 43.8716 14.0817 43.7442 14.0817 43.6169V41.6643H14.1496Z" fill="#522E91"/>
<path d="M17.2064 41.6643H17.9535C18.0214 41.6643 18.112 41.6643 18.1799 41.6855C18.2478 41.6855 18.3384 41.7068 18.4063 41.728C18.4742 41.7492 18.5421 41.7704 18.5874 41.8129C18.6553 41.8553 18.7006 41.8978 18.7459 41.9402C18.7912 42.0039 18.8138 42.0676 18.8365 42.1313C18.8591 42.1949 18.8817 42.2798 18.8817 42.386C18.8817 42.4921 18.8591 42.5982 18.8365 42.6831C18.7912 42.768 18.7459 42.8529 18.678 42.9166C18.6101 42.9803 18.5195 43.0227 18.429 43.0652C18.3384 43.1076 18.2252 43.1288 18.112 43.1288C18.1346 43.1501 18.1573 43.1713 18.1799 43.1925C18.2026 43.2137 18.2252 43.235 18.2478 43.2562C18.2705 43.2774 18.2931 43.2986 18.3158 43.3411C18.3384 43.3623 18.361 43.3835 18.361 43.4048C18.3837 43.426 18.3837 43.4472 18.429 43.4897C18.4516 43.5321 18.4742 43.5533 18.5195 43.617C18.5422 43.6595 18.5874 43.7019 18.6101 43.7656C18.6553 43.808 18.678 43.8717 18.7233 43.9142L18.9949 44.275L18.6101 44.3599C18.5874 44.3174 18.5648 44.2538 18.5195 44.1901C18.4742 44.1264 18.429 44.0415 18.361 43.9354C18.2931 43.8505 18.2252 43.7444 18.1346 43.6382C18.0441 43.5321 17.9762 43.426 17.8856 43.3199C17.8403 43.2562 17.7724 43.2137 17.7271 43.1925C17.6818 43.1713 17.6139 43.1501 17.5687 43.1501V44.3387H17.2064V41.6643ZM17.546 41.9402V42.9166H17.8856C17.9762 42.9166 18.0667 42.9166 18.1346 42.8954C18.2026 42.8741 18.2705 42.8529 18.3384 42.8105C18.3837 42.768 18.429 42.7256 18.4516 42.6407C18.4742 42.577 18.4969 42.4921 18.4969 42.386C18.4969 42.3011 18.4742 42.2374 18.4516 42.1737C18.429 42.11 18.3837 42.0676 18.3384 42.0251C18.2931 41.9827 18.2252 41.9615 18.1573 41.9402C18.0894 41.919 18.0214 41.919 17.9309 41.919H17.546V41.9402Z" fill="#522E91"/>
<path d="M20.987 41.6643L21.9379 44.3385H21.5304L21.2587 43.4683H20.2173L19.923 44.3385H19.5834L20.5342 41.6643H20.987ZM21.1682 43.1924L20.738 41.9614L20.3079 43.1924H21.1682Z" fill="#522E91"/>
<path d="M22.7078 41.6643H23.0474V44.3386H22.7078V41.6643ZM24.1114 41.6643H24.5642L23.4775 42.8741L24.6774 44.2749L24.3152 44.381L23.07 42.8741L24.1114 41.6643Z" fill="#522E91"/>
<path d="M25.5151 41.6643H25.8547V44.3385H25.5151V41.6643Z" fill="#522E91"/>
<path d="M27.0543 41.6643H27.3939V43.893C27.3939 44.0204 27.3939 44.1477 27.3712 44.2326C27.3486 44.3387 27.3033 44.4236 27.258 44.5085C27.2127 44.5934 27.1222 44.6571 27.0316 44.6996C26.9411 44.7633 26.8279 44.8057 26.6694 44.8269L26.5109 44.5935C26.6015 44.5722 26.692 44.5298 26.7599 44.5085C26.8279 44.4661 26.8731 44.4236 26.9184 44.36C26.9637 44.2963 26.9863 44.2326 27.009 44.1477C27.0316 44.0628 27.0316 43.9779 27.0316 43.8506V41.6643H27.0543Z" fill="#522E91"/>
<path d="M30.1112 41.6643H30.9489C31.0847 41.6643 31.1979 41.6855 31.3111 41.7068C31.4243 41.728 31.5375 41.7704 31.6054 41.8341C31.696 41.8978 31.7639 41.9827 31.8092 42.0676C31.8545 42.1737 31.8771 42.2798 31.8771 42.4284C31.8771 42.5557 31.8545 42.683 31.8092 42.7892C31.7639 42.8953 31.7186 42.9802 31.6281 43.0438C31.5602 43.1075 31.447 43.1712 31.3338 43.2136C31.2206 43.2561 31.0847 43.2773 30.9489 43.2773H30.4282V44.3385H30.1112V41.6643ZM30.4735 41.9402V43.0014H30.9715C31.0621 43.0014 31.13 42.9802 31.1979 42.959C31.2658 42.9377 31.3338 42.8953 31.379 42.8528C31.4243 42.8104 31.4696 42.7467 31.4922 42.683C31.5149 42.6194 31.5375 42.5345 31.5375 42.4496C31.5375 42.3435 31.5149 42.2586 31.4922 42.1949C31.4696 42.1312 31.4243 42.0676 31.3564 42.0251C31.2885 41.9827 31.2206 41.9614 31.13 41.9402C31.0394 41.919 30.9489 41.919 30.8357 41.919H30.4735V41.9402Z" fill="#522E91"/>
<path d="M32.7827 41.6643H33.1223V43.5745C33.1223 43.6594 33.1223 43.723 33.1449 43.7867C33.1676 43.8504 33.1902 43.914 33.2355 43.9565C33.2808 43.9989 33.3487 44.0414 33.4166 44.0626C33.4845 44.0838 33.5977 44.1051 33.7109 44.1051C33.8241 44.1051 33.9147 44.0838 33.9826 44.0626C34.0505 44.0414 34.1184 43.9989 34.1637 43.9565C34.209 43.914 34.2543 43.8504 34.2543 43.7867C34.2769 43.723 34.2769 43.6381 34.2769 43.5745V41.6855H34.6165V43.5745C34.6165 43.723 34.5939 43.8504 34.5486 43.9565C34.5033 44.0626 34.458 44.1475 34.3675 44.2112C34.2769 44.2748 34.1864 44.3173 34.0732 44.3597C33.96 44.381 33.8015 44.4022 33.643 44.4022C33.5072 44.4022 33.3713 44.381 33.2581 44.3597C33.1449 44.3385 33.0544 44.2961 32.9638 44.2324C32.8733 44.1687 32.828 44.0838 32.7827 43.9777C32.7374 43.8716 32.7148 43.7442 32.7148 43.6169V41.6643H32.7827Z" fill="#522E91"/>
<path d="M35.8391 41.6643H36.2466L37.1522 43.2561C37.1748 43.2985 37.1975 43.3198 37.1975 43.3622C37.2201 43.4047 37.2428 43.4259 37.2654 43.4683C37.288 43.5108 37.3107 43.532 37.3107 43.5744C37.3333 43.6169 37.356 43.6381 37.356 43.6806C37.4012 43.7442 37.4239 43.8291 37.4692 43.8928C37.4692 43.8716 37.4692 43.8291 37.4465 43.7867C37.4465 43.7442 37.4465 43.6806 37.4239 43.5957C37.4239 43.532 37.4239 43.4471 37.4012 43.341C37.4012 43.2561 37.4012 43.15 37.4012 43.0438V41.6643H37.7408V44.3385H37.3786L36.4957 42.8316C36.4504 42.7467 36.4051 42.6618 36.3598 42.5769C36.3145 42.492 36.2693 42.4071 36.2466 42.3435C36.2013 42.2586 36.1561 42.1949 36.1108 42.11C36.1108 42.11 36.1108 42.1312 36.1108 42.1737C36.1108 42.1949 36.1108 42.2373 36.1108 42.2798C36.1108 42.3222 36.1108 42.3647 36.1108 42.4071C36.1108 42.4496 36.1108 42.5133 36.1108 42.5769C36.1108 42.6406 36.1108 42.683 36.1108 42.7467C36.1108 42.8104 36.1108 42.8528 36.1108 42.9165V44.3385H35.7712V41.6643H35.8391Z" fill="#522E91"/>
<path d="M38.9409 41.6643H39.6427C39.8691 41.6643 40.0502 41.6855 40.2087 41.7492C40.3672 41.8129 40.503 41.8978 40.5936 42.0039C40.7068 42.11 40.7747 42.2586 40.82 42.4284C40.8653 42.5982 40.8879 42.7892 40.8879 43.0014C40.8879 43.1287 40.8879 43.2349 40.8652 43.3622C40.8426 43.4683 40.82 43.5744 40.7747 43.6806C40.7294 43.7867 40.6841 43.8716 40.6162 43.9565C40.5483 44.0414 40.4804 44.105 40.3898 44.1687C40.2993 44.2324 40.2087 44.2748 40.0955 44.296C39.9823 44.3385 39.8465 44.3385 39.7106 44.3385H38.9409V41.6643ZM39.2805 41.9402V44.0626H39.6201C39.8012 44.0626 39.937 44.0414 40.0502 43.9989C40.1634 43.9565 40.254 43.8928 40.3219 43.8079C40.3898 43.723 40.4351 43.6169 40.4804 43.4895C40.503 43.3622 40.5257 43.2136 40.5257 43.0651C40.5257 42.959 40.5257 42.8741 40.503 42.7892C40.503 42.7043 40.4804 42.6194 40.4577 42.5345C40.4351 42.4496 40.3898 42.3859 40.3445 42.301C40.2993 42.2373 40.254 42.1737 40.1861 42.1312C40.1182 42.0888 40.0502 42.0463 39.9597 42.0251C39.8691 42.0039 39.7559 41.9827 39.6427 41.9827H39.2805V41.9402Z" fill="#522E91"/>
<path d="M41.9738 41.6643H42.3134V44.3385H41.9738V41.6643Z" fill="#522E91"/>
<path d="M43.2426 41.6643H45.1896L45.099 41.9402H44.3746V44.3385H44.035V41.9402H43.2426V41.6643Z" fill="#522E91"/>
<path d="M47.5883 41.6643H47.9279V43.5745C47.9279 43.6594 47.9279 43.723 47.9505 43.7867C47.9732 43.8504 47.9958 43.914 48.0411 43.9565C48.0864 43.9989 48.1543 44.0414 48.2222 44.0626C48.2901 44.0838 48.4033 44.1051 48.5165 44.1051C48.6297 44.1051 48.7203 44.0838 48.7882 44.0626C48.8561 44.0414 48.924 43.9989 48.9693 43.9565C49.0146 43.914 49.0599 43.8504 49.0599 43.7867C49.0825 43.723 49.0825 43.6381 49.0825 43.5745V41.6855H49.4221V43.5745C49.4221 43.723 49.3995 43.8504 49.3542 43.9565C49.3089 44.0626 49.2636 44.1475 49.1731 44.2112C49.0825 44.2748 48.992 44.3173 48.8788 44.3597C48.7656 44.381 48.6071 44.4022 48.4486 44.4022C48.3128 44.4022 48.1769 44.381 48.0637 44.3597C47.9505 44.3385 47.86 44.2961 47.7694 44.2324C47.6789 44.1687 47.6336 44.0838 47.5883 43.9777C47.543 43.8716 47.5204 43.7442 47.5204 43.6169V41.6643H47.5883Z" fill="#522E91"/>
<path d="M50.6452 41.6643H51.0527L51.9583 43.2561C51.981 43.2985 52.0036 43.3198 52.0036 43.3622C52.0262 43.4047 52.0489 43.4259 52.0715 43.4683C52.0942 43.5108 52.1168 43.532 52.1168 43.5744C52.1394 43.6169 52.1621 43.6381 52.1621 43.6806C52.2074 43.7442 52.23 43.8291 52.2753 43.8928C52.2753 43.8716 52.2753 43.8291 52.2526 43.7867C52.2526 43.7442 52.2526 43.6806 52.23 43.5957C52.23 43.532 52.23 43.4471 52.2073 43.341C52.2073 43.2561 52.2073 43.15 52.2073 43.0438V41.6643H52.5469V44.3385H52.1847L51.3018 42.8316C51.2565 42.7467 51.2112 42.6618 51.1659 42.5769C51.1207 42.492 51.0754 42.4071 51.0527 42.3435C51.0075 42.2586 50.9622 42.1949 50.9169 42.11C50.9169 42.11 50.9169 42.1312 50.9169 42.1737C50.9169 42.1949 50.9169 42.2373 50.9169 42.2798C50.9169 42.3222 50.9169 42.3647 50.9169 42.4071C50.9169 42.4496 50.9169 42.5133 50.9169 42.5769C50.9169 42.6406 50.9169 42.683 50.9169 42.7467C50.9169 42.8104 50.9169 42.8528 50.9169 42.9165V44.3385H50.5773V41.6643H50.6452Z" fill="#522E91"/>
<path d="M53.7468 41.6643H54.0864V44.3385H53.7468V41.6643Z" fill="#522E91"/>
<path d="M54.9471 41.7065L55.2867 41.6216L55.8754 43.2772C55.898 43.3408 55.9206 43.4045 55.9433 43.4682C55.9659 43.5318 55.9886 43.5955 56.0112 43.6592C56.0338 43.7229 56.0338 43.7653 56.0565 43.829C56.0791 43.8714 56.0791 43.9139 56.0791 43.9351C56.0791 43.9139 56.1018 43.8714 56.1018 43.829C56.1244 43.7865 56.1244 43.7229 56.147 43.6804C56.1697 43.6167 56.1923 43.5531 56.2149 43.4894C56.2376 43.4257 56.2602 43.362 56.2829 43.2984L56.8715 41.6641H57.2337L56.2602 44.3384H55.9206L54.9471 41.7065Z" fill="#522E91"/>
<path d="M58.0941 41.6643H59.7468L59.6563 41.9402H58.4337V42.7892H59.4525V43.0651H58.4337V44.0414H59.7242V44.3173H58.0715V41.6643H58.0941Z" fill="#522E91"/>
<path d="M60.6754 41.6643H61.4225C61.4904 41.6643 61.581 41.6643 61.6489 41.6855C61.7168 41.6855 61.8074 41.7068 61.8753 41.728C61.9432 41.7492 62.0112 41.7704 62.0564 41.8129C62.1244 41.8553 62.1696 41.8978 62.2149 41.9402C62.2602 42.0039 62.2828 42.0676 62.3055 42.1312C62.3281 42.1949 62.3508 42.2798 62.3508 42.3859C62.3508 42.492 62.3281 42.5982 62.3055 42.683C62.2602 42.7679 62.2149 42.8528 62.147 42.9165C62.0791 42.9802 61.9885 43.0226 61.898 43.0651C61.8074 43.1075 61.6942 43.1075 61.581 43.1075C61.6036 43.1287 61.6263 43.15 61.6489 43.1712C61.6716 43.1924 61.6942 43.2136 61.7168 43.2349C61.7395 43.2561 61.7621 43.2773 61.7848 43.3198C61.8074 43.341 61.83 43.3622 61.83 43.3834C61.8527 43.4047 61.8527 43.4259 61.898 43.4683C61.9206 43.5108 61.9432 43.532 61.9885 43.5957C62.0112 43.6381 62.0564 43.6806 62.0791 43.7442C62.1244 43.7867 62.147 43.8503 62.1923 43.8928L62.464 44.2536L62.0791 44.3385C62.0564 44.296 62.0338 44.2324 61.9885 44.1687C61.9432 44.105 61.898 44.0201 61.83 43.914C61.7621 43.8291 61.6942 43.723 61.6036 43.6169C61.5131 43.5108 61.4452 43.4046 61.3546 43.2985C61.3093 43.2349 61.2414 43.1924 61.1961 43.1712C61.1508 43.15 61.0829 43.1287 61.0829 43.1287L61.015 44.3173H60.6754V41.6643ZM61.0376 41.9402V42.9165H61.3772C61.4678 42.9165 61.5584 42.9165 61.6263 42.8953C61.6942 42.8741 61.7621 42.8528 61.83 42.8104C61.8753 42.7679 61.9206 42.7255 61.9432 42.6406C61.9659 42.5769 61.9885 42.492 61.9885 42.3859C61.9885 42.301 61.9659 42.2373 61.9432 42.1737C61.9206 42.11 61.8753 42.0676 61.83 42.0251C61.7848 41.9827 61.7168 41.9614 61.6489 41.9402C61.581 41.919 61.5131 41.919 61.4225 41.919H61.0376V41.9402Z" fill="#522E91"/>
<path d="M64.1838 41.6216C64.2517 41.6216 64.3423 41.6216 64.4102 41.6429C64.4781 41.6641 64.5461 41.6641 64.614 41.6853C64.6819 41.7065 64.7498 41.7278 64.8177 41.7702C64.8856 41.8127 64.9536 41.8339 64.9988 41.8976L64.863 42.131C64.8177 42.0886 64.7498 42.0673 64.7045 42.0249C64.6593 42.0037 64.5913 41.9824 64.5461 41.9612C64.5008 41.94 64.4329 41.9188 64.3876 41.9188C64.3423 41.9188 64.2744 41.8976 64.2744 41.8976C64.1159 41.8976 64.048 41.8976 63.9801 41.9188C63.9121 41.94 63.8669 41.9612 63.799 42.0037C63.7537 42.0461 63.7084 42.0886 63.6858 42.131C63.6631 42.1735 63.6405 42.2371 63.6405 42.3008C63.6405 42.3645 63.6405 42.4069 63.6631 42.4494C63.6858 42.4918 63.7084 42.5343 63.731 42.5555C63.7763 42.5979 63.8216 42.6192 63.8669 42.6404C63.9348 42.6616 64.0027 42.6828 64.0706 42.7253L64.4329 42.8526C64.5234 42.8739 64.614 42.9163 64.7045 42.9587C64.7724 43.0012 64.8404 43.0436 64.9083 43.1073C64.9536 43.171 64.9988 43.2347 65.0215 43.2983C65.0441 43.3832 65.0668 43.4681 65.0668 43.553C65.0668 43.6804 65.0441 43.7865 64.9988 43.8714C64.9536 43.9775 64.8856 44.0624 64.7951 44.1261C64.7045 44.1897 64.5913 44.2534 64.4781 44.2959C64.3649 44.3383 64.2291 44.3595 64.0706 44.3595C63.9801 44.3595 63.9121 44.3595 63.8216 44.3383C63.7537 44.3171 63.6631 44.3171 63.5952 44.2959C63.5273 44.2746 63.4594 44.2534 63.3914 44.211C63.3235 44.1897 63.2556 44.1473 63.1877 44.1048L63.3235 43.8714C63.3914 43.9138 63.4367 43.935 63.5046 43.9775C63.5726 43.9987 63.6178 44.0199 63.6858 44.0412C63.7537 44.0624 63.7989 44.0624 63.8669 44.0836C63.9348 44.0836 63.9801 44.1048 64.048 44.1048C64.1159 44.1048 64.2065 44.1048 64.2744 44.0836C64.3423 44.0624 64.4102 44.0412 64.4781 43.9987C64.5461 43.9563 64.5913 43.9138 64.614 43.8502C64.6593 43.7865 64.6593 43.7228 64.6593 43.6167C64.6593 43.553 64.6593 43.4893 64.6366 43.4469C64.614 43.4045 64.5913 43.362 64.5687 43.3196C64.5234 43.2771 64.4781 43.2559 64.4329 43.2134C64.3649 43.1922 64.297 43.1498 64.1838 43.1285L63.8895 43.0224C63.8216 43.0012 63.731 42.9587 63.6631 42.9375C63.5952 42.8951 63.5046 42.8526 63.4594 42.8102C63.3914 42.7677 63.3462 42.7041 63.3009 42.6192C63.2556 42.5555 63.233 42.4706 63.233 42.3645C63.233 42.2584 63.2556 42.1522 63.3009 42.0673C63.3462 41.9824 63.4141 41.8976 63.482 41.8339C63.5499 41.7702 63.6631 41.7278 63.7763 41.6853C63.9121 41.6429 64.0253 41.6216 64.1838 41.6216Z" fill="#522E91"/>
<path d="M66.1532 41.6643H66.4928V44.3385H66.1532V41.6643Z" fill="#522E91"/>
<path d="M67.3985 41.6643H69.3455L69.2549 41.9402H68.5305V44.3385H68.1909V41.9402H67.3985V41.6643Z" fill="#522E91"/>
<path d="M69.8666 41.7065L70.2288 41.6216L70.7269 42.5343C70.7269 42.5555 70.7496 42.5768 70.7496 42.598C70.7722 42.6192 70.7722 42.6404 70.7948 42.6617C70.8175 42.6829 70.8175 42.7041 70.8401 42.7253C70.8628 42.7466 70.8628 42.7678 70.8854 42.789C70.908 42.8315 70.9307 42.8951 70.9533 42.9376C70.976 42.8951 70.9986 42.8315 71.0439 42.789C71.0439 42.7678 71.0665 42.7466 71.0891 42.7253C71.1118 42.7041 71.1118 42.6829 71.1344 42.6617C71.1571 42.6404 71.1571 42.6192 71.1797 42.598C71.2023 42.5768 71.2023 42.5555 71.225 42.5343L71.7004 41.6429H72.1079L71.1797 43.2772V44.3172H70.8175V43.256L69.8666 41.7065Z" fill="#522E91"/>
<path d="M24.519 22.5191C22.4588 21.0121 19.9684 20.2905 17.0478 20.3754L9.62199 20.5027L7.26745 20.3754L6.8373 20.3329L6.85994 20.6938L7.19953 20.715C8.51264 20.8211 9.1692 21.3942 9.1692 22.3918V36.1243C9.1692 36.7186 9.01072 37.1431 8.69376 37.3766C8.3768 37.6101 7.87873 37.7374 7.19953 37.8011L6.85994 37.8223L6.8373 38.2044L9.62199 38.0346L17.0478 38.0982C19.9684 38.1195 22.4814 37.2917 24.5869 35.6149C26.783 33.8532 27.8697 31.6459 27.8697 28.9503C27.8697 26.2547 26.7603 24.111 24.519 22.5191ZM22.7304 34.9357C21.123 36.5913 19.4929 37.419 17.0252 37.419C15.4857 37.419 14.4669 37.3341 13.9236 37.1431C12.95 36.8035 12.4746 36.0606 12.4746 34.9145V21.2668L17.0252 21.1607C19.4477 21.097 21.0324 21.8399 22.6399 23.3681C24.2473 24.8963 25.0623 26.7853 25.0623 29.0564C25.0397 31.3487 24.2699 33.3226 22.7304 34.9357ZM42.8346 21.3517C41.6347 20.6938 40.1631 20.3542 38.4651 20.3542C37.9444 20.3542 37.152 20.3754 36.1106 20.4178C35.0691 20.4603 33.0315 20.4815 32.5108 20.4815C32.3524 20.4815 31.56 20.4391 30.1563 20.3329L29.7261 20.3117L29.7488 20.6725L30.0884 20.6938C31.4015 20.7999 32.058 21.373 32.058 22.3705V36.1031C32.058 36.6974 31.8996 37.1219 31.5826 37.3554C31.2656 37.5888 30.7676 37.7162 30.0884 37.7799L29.7488 37.8011L29.7261 38.2044L32.5108 38.0346H34.9106L37.2652 38.1831L37.6727 38.2044L37.6501 37.8435L37.3105 37.8223C35.9974 37.7162 35.3408 37.1431 35.3408 36.1455V22.413C35.3408 21.7338 35.5446 21.3093 35.9521 21.1395C36.1332 21.0758 36.6766 21.0334 37.6048 21.0334C39.1443 21.0334 39.982 21.3942 40.9781 22.1371C42.0875 22.9436 42.6308 24.0473 42.6308 25.4482C42.6308 26.8915 42.0422 28.7168 40.8423 29.6082C39.665 30.4997 38.6915 30.9242 37.1293 30.8605L36.3822 30.8393V31.094L37.401 31.1789C39.3933 31.1789 41.1139 30.6907 42.5629 29.7356C44.2156 28.6531 45.0306 26.9127 45.0306 25.1298C45.0533 23.6016 44.3062 22.1371 42.8346 21.3517ZM64.2518 21.097C63.2557 22.1371 63.2783 24.1959 63.2783 24.1959V30.5846C63.2783 35.2965 62.0784 37.4615 58.1844 37.4615C54.4262 37.4615 53.2489 35.1692 53.2489 31.3911V23.7077C53.2489 21.0121 51.8905 20.4603 49.6944 20.5664L46.8192 20.4815L46.7739 20.9909L47.3852 21.0334C49.1058 21.0334 49.7171 22.1158 49.7171 23.7289V30.6058C49.7171 35.8484 52.6602 38.544 58.2296 38.544C62.6218 38.544 65.497 35.8484 65.497 30.6058C65.497 30.6058 65.497 25.1722 65.497 23.071C65.497 20.9697 66.38 20.2693 66.38 20.2693C66.38 20.2693 65.1801 20.1419 64.2518 21.097Z" fill="#522E91"/>
<path d="M67.9873 17.4043C67.9194 17.3194 67.8062 17.2345 67.7156 17.1496C67.7383 17.1708 66.7195 17.3406 66.8779 17.383C67.0364 17.4467 67.3534 17.6165 67.4439 17.7439C67.7383 18.1684 67.1949 18.3169 65.2932 18.6141C64.1838 18.8263 63.8442 19.4631 63.6857 20.4818C63.6857 20.6092 64.0027 19.5692 65.0668 19.4206C67.1496 19.1871 68.9608 18.4655 68.1458 17.5104L67.9873 17.4043ZM68.9834 5.90051C69.4589 6.26133 70.5909 8.214 71.338 9.04176C71.338 9.04176 71.8361 9.63605 72.0625 9.86952C73.6699 11.5038 74.3038 10.5275 74.0548 9.38135C74.0321 9.27523 74.0321 9.12666 74.0095 9.02053C73.9868 8.91441 73.9642 8.76584 73.9416 8.68094C73.9868 8.85074 73.9868 8.93564 73.9868 8.97809C73.9868 9.19033 73.9189 10.9944 71.4512 8.15032C70.4324 7.02542 70.0249 5.98541 69.5721 5.62459C69.1872 5.30622 68.4854 5.22132 67.9647 5.39112L67.7835 5.4548C67.6703 5.49724 67.5345 5.56092 67.4439 5.62459C67.8288 5.4548 68.4174 5.4548 68.9834 5.90051ZM67.2855 6.5797C67.9194 7.34379 69.0514 9.48748 70.2965 10.8459C70.2965 10.8459 70.9757 11.6524 71.2927 11.9708C73.8057 14.5814 74.8019 12.9259 74.8472 11.8646C74.8472 11.6948 74.8245 11.4826 74.8245 11.3128C74.8019 11.143 74.7792 10.952 74.7566 10.7822C74.8019 11.0369 74.7792 11.1642 74.7792 11.2067C74.7566 11.525 74.417 14.1781 71.021 10.103C69.4815 8.34135 68.8702 6.62215 68.1231 6.02786C67.4666 5.49724 66.2893 5.34867 65.3611 5.66704L65.0441 5.79439C64.863 5.87929 64.614 6.00664 64.4102 6.09153C65.0668 5.79439 66.7195 5.87929 67.2855 6.5797ZM70.1381 17.1283C69.2098 16.9161 68.6891 16.2369 67.8741 15.1545C67.4213 14.5177 67.127 13.9659 67.127 13.9659C64.3649 8.46869 61.784 8.27767 61.1727 10.0181L61.0822 10.3365C61.0369 10.5275 60.9916 10.7822 60.9463 10.9944C60.969 10.9308 60.969 10.8459 61.0142 10.7397C61.4897 9.36013 63.6178 10.485 65.8592 14.3691C65.9724 14.5389 66.561 15.4304 66.7874 15.7063C67.8741 17.0434 68.4854 17.3194 69.4362 17.6165C69.7079 17.7014 70.9984 17.8712 72.1077 17.1283L72.3341 16.9585C72.5379 16.7888 72.7869 16.5553 72.968 16.3855C72.0851 17.192 70.7493 17.2557 70.1381 17.1283ZM72.3794 15.0908C71.338 14.8785 70.6361 14.1144 69.7306 12.9471L69.5494 12.6924C68.9608 11.9708 67.5345 8.57482 65.9271 7.25889C65.0894 6.5797 63.6631 6.4948 62.7801 7.34379L62.4632 7.68338C62.3273 7.83195 62.1689 8.06543 62.0557 8.23522C62.6217 7.42869 63.7084 7.28011 64.9309 8.214C66.2667 9.23278 67.0138 11.2279 68.1684 12.9046L68.6438 13.5626C70.0928 15.3667 70.7041 16.0034 71.8134 16.0883C72.1304 16.1096 73.4435 16.0247 74.1453 14.7724L74.3264 14.3904C74.417 14.1993 74.5075 13.9234 74.5755 13.7324C74.1453 14.8573 73.0133 15.2181 72.3794 15.0908Z" fill="#1896D3"/>
<path d="M67.4438 7.08897C67.6929 7.25877 68.4174 7.57714 69.572 7.72572H69.5946C73.3528 8.12899 73.9188 8.06531 74.0773 9.38125C74.0547 9.27513 74.0547 9.12655 74.032 9.02043C74.0094 8.91431 73.9868 8.76573 73.9641 8.68083C73.9641 8.63838 73.9415 8.59593 73.9188 8.55348C73.5566 7.5347 72.968 7.47102 70.1833 7.17387C67.9872 6.9404 66.7646 5.90039 67.9872 5.39099L67.8061 5.45467C67.6929 5.49712 67.557 5.56079 67.4212 5.64569C66.8778 5.98529 66.7873 6.62203 67.4438 7.08897ZM64.5233 8.68083C64.9535 8.97798 66.2666 9.5935 68.0098 9.65717H68.0551C73.9415 10.0604 74.8018 9.86942 74.8697 11.8646C74.8697 11.6948 74.8697 11.4825 74.8471 11.3127C74.8244 11.1641 74.8018 10.9519 74.7791 10.7821C74.7791 10.7184 74.7565 10.6547 74.7339 10.6123C74.2584 8.93553 73.3302 9.02043 68.9381 8.70206C65.2704 8.42614 63.1876 6.62203 65.361 5.68814L65.044 5.81549C64.8176 5.90039 64.5686 6.02774 64.3422 6.15508C63.3913 6.74938 63.346 7.89552 64.5233 8.68083ZM65.2251 13.5838C62.5536 13.3078 60.7198 11.9707 61.1726 10.018L61.082 10.3364C61.0368 10.5486 60.9688 10.8458 60.9462 11.0792C60.8556 12.6074 61.7839 13.5625 62.282 13.9234C62.848 14.3266 63.6177 14.6025 64.9535 14.7087L65.61 14.7511C66.5835 14.7936 74.2584 15.1332 72.2208 17.001C72.1756 17.0434 72.1303 17.0646 72.085 17.1071L72.3114 16.9373C72.5152 16.7675 72.7642 16.534 72.9453 16.3642C72.968 16.3218 73.0132 16.2793 73.0585 16.2369C74.8697 13.9234 67.5344 13.8172 65.2251 13.5838ZM66.7646 10.9731C63.9573 10.9731 61.1273 9.29635 62.78 7.34367L62.4631 7.68327C62.3272 7.85307 62.1914 7.98042 62.0556 8.23511C61.2179 9.69962 62.1461 10.9307 62.848 11.3552C63.3234 11.6311 64.2969 12.1405 66.2439 12.2254H66.2892C72.402 12.4801 75.0961 12.6923 74.1452 14.7511L74.3264 14.3691C74.3943 14.1781 74.5075 13.9021 74.5754 13.7111C74.598 13.6687 74.598 13.605 74.6207 13.5413C74.8697 12.5225 75.164 10.9731 66.7646 10.9731ZM64.4101 16.0034C63.1423 15.7699 62.1461 15.1119 61.8518 14.1144C61.7612 13.8385 61.6933 13.5838 61.6933 13.5838C61.6707 13.6899 61.6933 13.9234 61.6933 14.0507C61.7612 15.1544 62.3499 15.7911 62.5989 16.0034C62.848 16.2156 63.3007 16.5765 64.1158 16.8099L64.1837 16.8312C66.2439 17.2769 69.3682 17.6801 67.874 18.6353C67.8514 18.6565 67.8061 18.6777 67.7834 18.6989L67.9193 18.614C68.0325 18.5504 68.3947 18.2957 68.3947 18.2957C70.7493 16.7038 66.1987 16.4491 64.4101 16.0034Z" fill="#522E91"/>
<path d="M86.6429 40.1157L87.3447 40.2855C87.1862 40.8161 86.9372 41.2406 86.5523 41.5165C86.1674 41.7924 85.692 41.941 85.1486 41.941C84.5826 41.941 84.1072 41.8349 83.745 41.6226C83.3827 41.4104 83.1111 41.092 82.9299 40.6675C82.7488 40.2642 82.6583 39.8185 82.6583 39.3304C82.6583 38.821 82.7715 38.354 82.9752 37.972C83.179 37.5899 83.4959 37.2928 83.8808 37.1018C84.2657 36.9107 84.6958 36.8046 85.1713 36.8046C85.692 36.8046 86.1448 36.932 86.507 37.1867C86.8693 37.4414 87.1183 37.8022 87.2541 38.2479L86.5523 38.3965C86.4391 38.0357 86.258 37.781 86.009 37.6112C85.7826 37.4414 85.4882 37.3565 85.126 37.3565C84.7185 37.3565 84.3789 37.4414 84.1072 37.6324C83.8355 37.8234 83.6318 38.0569 83.5412 38.3752C83.428 38.6936 83.3827 39.012 83.3827 39.3304C83.3827 39.7548 83.4507 40.1157 83.5865 40.434C83.7223 40.7524 83.9261 40.9859 84.1978 41.1344C84.4694 41.283 84.7864 41.3679 85.1034 41.3679C85.4882 41.3679 85.8278 41.2618 86.0995 41.0495C86.3712 40.8585 86.5523 40.5402 86.6429 40.1157Z" fill="#5B1A16"/>
<path d="M87.9112 40.0521C87.9112 39.3941 88.115 38.8847 88.4998 38.5664C88.8394 38.2904 89.2243 38.1631 89.6998 38.1631C90.2205 38.1631 90.6507 38.3329 90.9903 38.6513C91.3299 38.9696 91.4883 39.4154 91.4883 39.9884C91.4883 40.4554 91.4204 40.8162 91.2619 41.0921C91.1035 41.3681 90.8997 41.5591 90.6054 41.7077C90.3111 41.8562 90.0167 41.9199 89.6771 41.9199C89.1338 41.9199 88.7036 41.7501 88.364 41.4317C88.0697 41.1346 87.9112 40.6676 87.9112 40.0521ZM88.5678 40.0521C88.5678 40.5191 88.681 40.8587 88.8847 41.0921C89.0885 41.3256 89.3602 41.4317 89.6998 41.4317C90.0167 41.4317 90.2884 41.3256 90.5148 41.0921C90.7412 40.8587 90.8318 40.5191 90.8318 40.0309C90.8318 39.5852 90.7186 39.2456 90.5148 39.0121C90.2884 38.7786 90.0394 38.6725 89.6998 38.6725C89.3828 38.6725 89.1111 38.7786 88.8847 39.0121C88.681 39.2456 88.5678 39.6064 88.5678 40.0521Z" fill="#5B1A16"/>
<path d="M92.2124 41.8567V36.89H92.869V41.8567H92.2124Z" fill="#5B1A16"/>
<path d="M93.7743 41.8567V36.89H94.4309V41.8567H93.7743Z" fill="#5B1A16"/>
<path d="M98.0079 40.71L98.6871 40.7949C98.5739 41.1558 98.3928 41.4529 98.0985 41.6439C97.8042 41.8562 97.4419 41.9411 96.9891 41.9411C96.4231 41.9411 95.9703 41.7713 95.6534 41.4529C95.3138 41.1345 95.1553 40.6676 95.1553 40.0945C95.1553 39.479 95.3138 39.0121 95.6534 38.6725C95.993 38.3329 96.4231 38.1631 96.9438 38.1631C97.4646 38.1631 97.8721 38.3329 98.2117 38.6513C98.5286 38.9696 98.7097 39.4366 98.7097 40.0309C98.7097 40.0733 98.7097 40.1158 98.7097 40.2007H95.8345C95.8571 40.6039 95.9703 40.9011 96.1967 41.1133C96.4005 41.3256 96.6722 41.4317 96.9891 41.4317C97.2382 41.4317 97.4419 41.368 97.6004 41.2619C97.7815 41.1558 97.9174 40.9647 98.0079 40.71ZM95.8798 39.7125H98.0306C98.0079 39.4153 97.9174 39.1819 97.7815 39.0333C97.5778 38.7998 97.3061 38.6725 96.9665 38.6725C96.6722 38.6725 96.4231 38.7574 96.2194 38.9484C96.0156 39.1394 95.9024 39.3941 95.8798 39.7125Z" fill="#5B1A16"/>
<path d="M99.3441 42.1533L99.978 42.2382C100.001 42.4292 100.069 42.5565 100.204 42.6414C100.363 42.7475 100.589 42.8112 100.861 42.8112C101.155 42.8112 101.404 42.7475 101.563 42.6414C101.721 42.5353 101.834 42.3655 101.902 42.1745C101.925 42.0471 101.948 41.7924 101.948 41.3892C101.653 41.7075 101.314 41.8561 100.884 41.8561C100.363 41.8561 99.9553 41.6863 99.661 41.3255C99.3667 40.9647 99.2309 40.5402 99.2309 40.0308C99.2309 39.6912 99.2988 39.3729 99.4346 39.0757C99.5705 38.7786 99.7516 38.5663 100.023 38.3966C100.272 38.248 100.567 38.1631 100.906 38.1631C101.359 38.1631 101.744 38.3329 102.038 38.6725V38.248H102.649V41.368C102.649 41.9198 102.582 42.3231 102.468 42.5565C102.355 42.79 102.151 42.981 101.88 43.1084C101.608 43.2357 101.291 43.3206 100.906 43.3206C100.453 43.3206 100.069 43.2145 99.7969 43.0235C99.4799 42.8324 99.3441 42.5565 99.3441 42.1533ZM99.8874 39.9884C99.8874 40.4553 99.978 40.8161 100.182 41.0284C100.385 41.2406 100.635 41.3467 100.929 41.3467C101.223 41.3467 101.472 41.2406 101.676 41.0284C101.88 40.8161 101.97 40.4765 101.97 40.0096C101.97 39.5639 101.857 39.2455 101.653 39.0121C101.45 38.7786 101.201 38.6725 100.906 38.6725C100.612 38.6725 100.363 38.7786 100.159 39.0121C100.001 39.2243 99.8874 39.5639 99.8874 39.9884Z" fill="#5B1A16"/>
<path d="M106.181 40.71L106.86 40.7949C106.747 41.1558 106.566 41.4529 106.271 41.6439C105.977 41.8562 105.615 41.9411 105.162 41.9411C104.596 41.9411 104.143 41.7713 103.826 41.4529C103.487 41.1345 103.328 40.6676 103.328 40.0945C103.328 39.479 103.487 39.0121 103.826 38.6725C104.166 38.3329 104.596 38.1631 105.117 38.1631C105.637 38.1631 106.045 38.3329 106.385 38.6513C106.702 38.9696 106.883 39.4366 106.883 40.0309C106.883 40.0733 106.883 40.1158 106.883 40.2007H104.007C104.03 40.6039 104.143 40.9011 104.37 41.1133C104.573 41.3256 104.845 41.4317 105.162 41.4317C105.411 41.4317 105.615 41.368 105.773 41.2619C105.954 41.1558 106.068 40.9647 106.181 40.71ZM104.03 39.7125H106.181C106.158 39.4153 106.068 39.1819 105.932 39.0333C105.728 38.7998 105.456 38.6725 105.117 38.6725C104.822 38.6725 104.573 38.7574 104.37 38.9484C104.166 39.1394 104.053 39.3941 104.03 39.7125Z" fill="#5B1A16"/>
<path d="M109.487 40.0521C109.487 39.3941 109.691 38.8847 110.075 38.5664C110.415 38.2904 110.8 38.1631 111.275 38.1631C111.796 38.1631 112.226 38.3329 112.566 38.6513C112.905 38.9696 113.064 39.4154 113.064 39.9884C113.064 40.4554 112.996 40.8162 112.837 41.0921C112.679 41.3681 112.475 41.5591 112.181 41.7077C111.887 41.8562 111.592 41.9199 111.253 41.9199C110.709 41.9199 110.279 41.7501 109.94 41.4317C109.645 41.1346 109.487 40.6676 109.487 40.0521ZM110.166 40.0521C110.166 40.5191 110.279 40.8587 110.483 41.0921C110.687 41.3256 110.958 41.4317 111.298 41.4317C111.615 41.4317 111.887 41.3256 112.113 41.0921C112.339 40.8587 112.43 40.5191 112.43 40.0309C112.43 39.5852 112.317 39.2456 112.113 39.0121C111.887 38.7786 111.638 38.6725 111.298 38.6725C110.981 38.6725 110.709 38.7786 110.483 39.0121C110.257 39.2456 110.166 39.6064 110.166 40.0521Z" fill="#5B1A16"/>
<path d="M113.902 41.8573V38.7372H113.336V38.2703H113.902V37.8882C113.902 37.6547 113.924 37.4637 113.97 37.3576C114.038 37.209 114.151 37.0604 114.309 36.9755C114.468 36.8694 114.694 36.827 114.966 36.827C115.147 36.827 115.351 36.8482 115.577 36.8906L115.464 37.4C115.328 37.3788 115.192 37.3576 115.079 37.3576C114.875 37.3576 114.739 37.4 114.649 37.4849C114.558 37.5698 114.536 37.7184 114.536 37.9307V38.2703H115.283V38.7372H114.536V41.8573H113.902Z" fill="#5B1A16"/>
<path d="M118.067 41.8567V36.89H118.768V41.8567H118.067Z" fill="#5B1A16"/>
<path d="M119.856 41.8562V38.248H120.444V38.7574C120.716 38.3541 121.124 38.1631 121.667 38.1631C121.893 38.1631 122.12 38.2055 122.301 38.2904C122.505 38.3753 122.64 38.4815 122.731 38.5876C122.822 38.7149 122.889 38.8635 122.935 39.0333C122.957 39.1394 122.98 39.3517 122.98 39.6276V41.835H122.323V39.6488C122.323 39.3941 122.301 39.2243 122.256 39.097C122.21 38.9696 122.12 38.8847 121.984 38.7998C121.848 38.7362 121.712 38.6937 121.531 38.6937C121.259 38.6937 121.01 38.7786 120.807 38.9484C120.603 39.1182 120.512 39.4366 120.512 39.8823V41.8562H119.856V41.8562Z" fill="#5B1A16"/>
<path d="M123.885 41.8562V38.248H124.474V38.7574C124.745 38.3541 125.153 38.1631 125.696 38.1631C125.923 38.1631 126.149 38.2055 126.33 38.2904C126.534 38.3753 126.67 38.4815 126.76 38.5876C126.851 38.7149 126.919 38.8635 126.964 39.0333C126.987 39.1394 127.009 39.3517 127.009 39.6276V41.835H126.353V39.6488C126.353 39.3941 126.33 39.2243 126.285 39.097C126.24 38.9696 126.149 38.8847 126.013 38.7998C125.877 38.7362 125.742 38.6937 125.56 38.6937C125.289 38.6937 125.04 38.7786 124.836 38.9484C124.632 39.1182 124.542 39.4366 124.542 39.8823V41.8562H123.885Z" fill="#5B1A16"/>
<path d="M127.711 40.0521C127.711 39.3941 127.914 38.8847 128.299 38.5664C128.639 38.2904 129.024 38.1631 129.499 38.1631C130.02 38.1631 130.45 38.3329 130.79 38.6513C131.129 38.9696 131.288 39.4154 131.288 39.9884C131.288 40.4554 131.22 40.8162 131.061 41.0921C130.903 41.3681 130.699 41.5591 130.405 41.7077C130.111 41.8562 129.816 41.9199 129.477 41.9199C128.933 41.9199 128.503 41.7501 128.164 41.4317C127.869 41.1346 127.711 40.6676 127.711 40.0521ZM128.367 40.0521C128.367 40.5191 128.48 40.8587 128.684 41.0921C128.888 41.3256 129.16 41.4317 129.499 41.4317C129.816 41.4317 130.088 41.3256 130.314 41.0921C130.518 40.8587 130.631 40.5191 130.631 40.0309C130.631 39.5852 130.518 39.2456 130.314 39.0121C130.088 38.7786 129.839 38.6725 129.499 38.6725C129.182 38.6725 128.911 38.7786 128.684 39.0121C128.48 39.2456 128.367 39.6064 128.367 40.0521Z" fill="#5B1A16"/>
<path d="M132.964 41.8558L131.492 38.2477H132.171L132.987 40.4126C133.077 40.646 133.168 40.8795 133.236 41.1342C133.303 40.9432 133.371 40.7097 133.485 40.455L134.345 38.2477H135.024L133.575 41.8558H132.964Z" fill="#5B1A16"/>
<path d="M137.944 41.4104C137.695 41.6015 137.469 41.7288 137.243 41.8137C137.016 41.8986 136.79 41.9411 136.518 41.9411C136.088 41.9411 135.771 41.8349 135.545 41.6439C135.318 41.4529 135.205 41.1982 135.205 40.9011C135.205 40.7313 135.25 40.5615 135.341 40.4129C135.431 40.2643 135.545 40.1582 135.681 40.0521C135.816 39.9672 135.975 39.9035 136.156 39.8611C136.292 39.8399 136.473 39.7974 136.745 39.7762C137.265 39.7125 137.65 39.6488 137.899 39.5639C137.899 39.479 137.899 39.4366 137.899 39.3941C137.899 39.1394 137.831 38.9697 137.718 38.8635C137.56 38.7362 137.311 38.6513 136.971 38.6513C136.654 38.6513 136.428 38.6937 136.292 38.7999C136.156 38.906 136.043 39.0758 135.975 39.3305L135.341 39.2456C135.409 38.9909 135.499 38.7786 135.635 38.6301C135.771 38.4815 135.952 38.3542 136.201 38.2693C136.45 38.1844 136.745 38.1419 137.084 38.1419C137.401 38.1419 137.673 38.1844 137.877 38.248C138.08 38.3117 138.239 38.4178 138.329 38.5239C138.42 38.6301 138.488 38.7786 138.533 38.9484C138.556 39.0546 138.556 39.2456 138.556 39.5215V40.328C138.556 40.9011 138.578 41.2619 138.601 41.4104C138.624 41.559 138.692 41.7076 138.76 41.8349H138.08C138.012 41.7288 137.967 41.5802 137.944 41.4104ZM137.899 40.0521C137.673 40.137 137.311 40.2219 136.835 40.2856C136.563 40.328 136.382 40.3705 136.269 40.4129C136.156 40.4554 136.065 40.519 136.02 40.6039C135.952 40.6888 135.93 40.7949 135.93 40.9011C135.93 41.0709 135.997 41.1982 136.133 41.3043C136.269 41.4104 136.45 41.4741 136.722 41.4741C136.971 41.4741 137.197 41.4317 137.401 41.3255C137.605 41.2194 137.741 41.0921 137.831 40.9011C137.899 40.7737 137.944 40.5615 137.944 40.2856V40.0521H137.899Z" fill="#5B1A16"/>
<path d="M140.865 41.3257L140.955 41.8563C140.774 41.8987 140.616 41.92 140.457 41.92C140.231 41.92 140.027 41.8775 139.914 41.8138C139.778 41.7502 139.688 41.644 139.642 41.5379C139.597 41.4318 139.552 41.1771 139.552 40.8163V38.7363H139.076V38.2693H139.552V37.3567L140.208 36.9958V38.2481H140.865V38.715H140.208V40.8163C140.208 40.9861 140.208 41.0922 140.254 41.1559C140.276 41.1983 140.322 41.2408 140.367 41.2832C140.412 41.3044 140.503 41.3257 140.593 41.3257C140.661 41.3469 140.752 41.3257 140.865 41.3257Z" fill="#5B1A16"/>
<path d="M141.476 37.5904V36.89H142.133V37.5904H141.476ZM141.476 41.8567V38.2484H142.133V41.8567H141.476Z" fill="#5B1A16"/>
<path d="M144.125 41.8558L142.654 38.2477H143.333L144.148 40.4126C144.239 40.646 144.329 40.8795 144.397 41.1342C144.465 40.9432 144.533 40.7097 144.646 40.455L145.506 38.2477H146.186L144.737 41.8558H144.125Z" fill="#5B1A16"/>
<path d="M149.219 40.71L149.898 40.7949C149.785 41.1558 149.604 41.4529 149.31 41.6439C149.015 41.8562 148.653 41.9411 148.2 41.9411C147.634 41.9411 147.182 41.7713 146.865 41.4529C146.525 41.1345 146.367 40.6676 146.367 40.0945C146.367 39.479 146.525 39.0121 146.865 38.6725C147.204 38.3329 147.634 38.1631 148.155 38.1631C148.676 38.1631 149.083 38.3329 149.423 38.6513C149.74 38.9696 149.921 39.4366 149.921 40.0309C149.921 40.0733 149.921 40.1158 149.921 40.2007H147.046C147.068 40.6039 147.182 40.9011 147.408 41.1133C147.612 41.3256 147.883 41.4317 148.2 41.4317C148.449 41.4317 148.653 41.368 148.812 41.2619C148.97 41.1558 149.106 40.9647 149.219 40.71ZM147.068 39.7125H149.219C149.197 39.4153 149.106 39.1819 148.97 39.0333C148.766 38.7998 148.495 38.6725 148.155 38.6725C147.861 38.6725 147.612 38.7574 147.408 38.9484C147.204 39.1394 147.091 39.3941 147.068 39.7125Z" fill="#5B1A16"/>
<path d="M84.6506 50.1123V45.7187H82.9073V45.1245H87.1183V45.7187H85.3524V50.1123H84.6506Z" fill="#5B1A16"/>
<path d="M89.676 48.9667L90.3552 49.0516C90.242 49.4125 90.0609 49.7097 89.7666 49.9007C89.4723 50.1129 89.11 50.1978 88.6572 50.1978C88.0913 50.1978 87.6385 50.028 87.3215 49.7097C86.9819 49.3913 86.8234 48.9243 86.8234 48.3512C86.8234 47.7356 86.9819 47.2687 87.3215 46.929C87.6611 46.5894 88.0913 46.4196 88.612 46.4196C89.1327 46.4196 89.5402 46.5894 89.8798 46.9078C90.1968 47.2262 90.3779 47.6932 90.3779 48.2875C90.3779 48.33 90.3779 48.3724 90.3779 48.4573H87.5026C87.5253 48.8606 87.6385 49.1578 87.8649 49.37C88.0686 49.5823 88.3403 49.6884 88.6572 49.6884C88.9063 49.6884 89.11 49.6247 89.2685 49.5186C89.427 49.4125 89.5628 49.2215 89.676 48.9667ZM87.5253 47.9691H89.676C89.6534 47.672 89.5628 47.4385 89.427 47.2899C89.2232 47.0564 88.9516 46.929 88.612 46.929C88.3177 46.929 88.0686 47.0139 87.8649 47.205C87.6611 47.4172 87.5479 47.6507 87.5253 47.9691Z" fill="#5B1A16"/>
<path d="M93.6156 48.797L94.2495 48.8819C94.1815 49.2852 94.0004 49.6248 93.7061 49.8583C93.4118 50.0918 93.0722 50.2192 92.642 50.2192C92.1213 50.2192 91.6912 50.0494 91.3742 49.731C91.0573 49.4126 90.8988 48.9456 90.8988 48.3513C90.8988 47.9692 90.9667 47.6296 91.1026 47.3324C91.2384 47.0352 91.4422 46.8229 91.7365 46.6744C92.0081 46.5258 92.3251 46.4621 92.6647 46.4621C93.0722 46.4621 93.4344 46.5682 93.6835 46.7593C93.9552 46.9503 94.1136 47.2475 94.2042 47.6083L93.5703 47.6932C93.5024 47.4597 93.4118 47.2687 93.2533 47.1413C93.0948 47.014 92.9137 46.9503 92.6873 46.9503C92.3704 46.9503 92.0987 47.0564 91.8949 47.2899C91.6912 47.5022 91.578 47.863 91.578 48.33C91.578 48.8182 91.6686 49.1579 91.8723 49.3913C92.0761 49.6036 92.3251 49.7097 92.642 49.7097C92.8911 49.7097 93.1175 49.6461 93.276 49.4975C93.4571 49.3277 93.5703 49.1154 93.6156 48.797Z" fill="#5B1A16"/>
<path d="M94.8157 50.1137V45.1472H95.4722V46.93C95.7666 46.5904 96.1514 46.4419 96.6269 46.4419C96.9212 46.4419 97.1476 46.4843 97.374 46.5904C97.5777 46.6966 97.7362 46.8451 97.8267 47.0362C97.9173 47.2272 97.9626 47.4819 97.9626 47.8427V50.135H97.306V47.8427C97.306 47.5455 97.2381 47.3121 97.1023 47.1847C96.9664 47.0362 96.7627 46.9725 96.5137 46.9725C96.3099 46.9725 96.1288 47.0149 95.9703 47.1211C95.7892 47.206 95.676 47.3333 95.6081 47.5031C95.5402 47.6729 95.4949 47.8851 95.4949 48.1611V50.135H94.8157V50.1137Z" fill="#5B1A16"/>
<path d="M98.8687 50.1125V46.5045H99.4574V47.0139C99.729 46.6106 100.137 46.4196 100.68 46.4196C100.906 46.4196 101.133 46.4621 101.314 46.547C101.518 46.6319 101.653 46.738 101.744 46.8441C101.835 46.9714 101.902 47.12 101.948 47.2898C101.97 47.3959 101.993 47.6081 101.993 47.884V50.0913H101.336V47.9053C101.336 47.6506 101.314 47.4808 101.269 47.3535C101.223 47.2261 101.133 47.1412 100.997 47.0563C100.861 46.9927 100.725 46.9502 100.544 46.9502C100.272 46.9502 100.023 47.0351 99.8196 47.2049C99.6158 47.3747 99.5253 47.693 99.5253 48.1387V50.1125H98.8687Z" fill="#5B1A16"/>
<path d="M102.694 48.3298C102.694 47.6718 102.898 47.1624 103.283 46.844C103.622 46.568 104.007 46.4407 104.483 46.4407C105.003 46.4407 105.434 46.6105 105.773 46.9289C106.113 47.2473 106.271 47.693 106.271 48.2661C106.271 48.7331 106.203 49.094 106.045 49.3699C105.886 49.6459 105.683 49.8369 105.388 49.9855C105.094 50.1341 104.8 50.1978 104.46 50.1978C103.917 50.1978 103.487 50.0279 103.147 49.7095C102.853 49.3911 102.694 48.9242 102.694 48.3298ZM103.351 48.3298C103.351 48.7968 103.464 49.1364 103.668 49.3699C103.871 49.6034 104.143 49.7095 104.483 49.7095C104.8 49.7095 105.071 49.6034 105.298 49.3699C105.501 49.1364 105.615 48.7968 105.615 48.3086C105.615 47.8628 105.501 47.5232 105.298 47.2897C105.071 47.0562 104.822 46.9501 104.483 46.9501C104.166 46.9501 103.894 47.0562 103.668 47.2897C103.464 47.5232 103.351 47.8628 103.351 48.3298Z" fill="#5B1A16"/>
<path d="M106.995 50.1138V45.1472H107.652V50.1138H106.995Z" fill="#5B1A16"/>
<path d="M108.377 48.3298C108.377 47.6718 108.58 47.1624 108.965 46.844C109.305 46.568 109.69 46.4407 110.165 46.4407C110.686 46.4407 111.116 46.6105 111.456 46.9289C111.795 47.2473 111.954 47.693 111.954 48.2661C111.954 48.7331 111.886 49.094 111.727 49.3699C111.569 49.6459 111.365 49.8369 111.071 49.9855C110.777 50.1341 110.482 50.1978 110.143 50.1978C109.599 50.1978 109.169 50.0279 108.83 49.7095C108.535 49.3911 108.377 48.9242 108.377 48.3298ZM109.056 48.3298C109.056 48.7968 109.169 49.1364 109.373 49.3699C109.577 49.6034 109.848 49.7095 110.188 49.7095C110.505 49.7095 110.777 49.6034 111.003 49.3699C111.207 49.1364 111.32 48.7968 111.32 48.3086C111.32 47.8628 111.207 47.5232 111.003 47.2897C110.777 47.0562 110.527 46.9501 110.188 46.9501C109.871 46.9501 109.599 47.0562 109.373 47.2897C109.146 47.5232 109.056 47.8628 109.056 48.3298Z" fill="#5B1A16"/>
<path d="M112.61 50.431L113.244 50.5159C113.267 50.707 113.334 50.8343 113.47 50.9192C113.629 51.0253 113.855 51.089 114.127 51.089C114.421 51.089 114.67 51.0253 114.829 50.9192C114.987 50.8131 115.1 50.6433 115.168 50.4523C115.191 50.3249 115.214 50.0702 115.214 49.6669C114.919 49.9853 114.58 50.1339 114.15 50.1339C113.629 50.1339 113.221 49.9641 112.927 49.6032C112.633 49.2424 112.497 48.8179 112.497 48.3085C112.497 47.9689 112.565 47.6505 112.701 47.3534C112.836 47.0562 113.018 46.844 113.267 46.6742C113.516 46.5256 113.81 46.4407 114.15 46.4407C114.602 46.4407 114.987 46.6105 115.281 46.9501V46.5256H115.893V49.6457C115.893 50.1976 115.825 50.6008 115.712 50.8343C115.598 51.0678 115.395 51.2588 115.123 51.3862C114.851 51.5135 114.534 51.5984 114.15 51.5984C113.697 51.5984 113.312 51.4923 113.04 51.3013C112.723 51.1102 112.587 50.8131 112.61 50.431ZM113.153 48.2661C113.153 48.733 113.244 49.0938 113.448 49.3061C113.651 49.5183 113.9 49.6245 114.195 49.6245C114.489 49.6245 114.738 49.5183 114.942 49.3061C115.146 49.0938 115.236 48.7542 115.236 48.2873C115.236 47.8415 115.123 47.5232 114.919 47.2897C114.715 47.0562 114.466 46.9501 114.172 46.9501C113.878 46.9501 113.629 47.0562 113.425 47.2897C113.244 47.5019 113.153 47.8203 113.153 48.2661Z" fill="#5B1A16"/>
<path d="M116.754 51.5135L116.686 50.9404C116.821 50.9828 116.957 51.0041 117.048 51.0041C117.184 51.0041 117.32 50.9828 117.387 50.9404C117.478 50.8979 117.546 50.8343 117.591 50.7493C117.637 50.6857 117.704 50.5371 117.795 50.3036C117.818 50.2611 117.818 50.2187 117.863 50.155L116.414 46.5466H117.116L117.908 48.6267C118.021 48.8814 118.112 49.1786 118.18 49.4545C118.248 49.1786 118.338 48.9027 118.452 48.6267L119.267 46.5253H119.923L118.452 50.1975C118.293 50.6008 118.18 50.8555 118.089 51.0253C117.976 51.2163 117.84 51.3649 117.682 51.471C117.523 51.5559 117.342 51.6196 117.138 51.6196C117.048 51.5772 116.912 51.5559 116.754 51.5135Z" fill="#5B1A16"/>
<path d="M125.063 49.6884C124.814 49.8794 124.588 50.0067 124.361 50.0916C124.135 50.1766 123.908 50.219 123.637 50.219C123.207 50.219 122.89 50.1129 122.663 49.9218C122.437 49.7308 122.324 49.4761 122.324 49.1789C122.324 49.0091 122.369 48.8393 122.46 48.6908C122.55 48.5422 122.663 48.4361 122.799 48.3299C122.935 48.245 123.093 48.1813 123.275 48.1389C123.41 48.1177 123.591 48.0752 123.863 48.054C124.384 47.9903 124.769 47.9266 125.018 47.8417C125.018 47.7568 125.018 47.7144 125.018 47.6719C125.018 47.4172 124.95 47.2474 124.837 47.1413C124.678 47.0139 124.429 46.929 124.09 46.929C123.773 46.929 123.546 46.9715 123.41 47.0776C123.275 47.1837 123.161 47.3535 123.093 47.6083L122.46 47.5233C122.527 47.2686 122.618 47.0564 122.754 46.9078C122.89 46.7592 123.071 46.6319 123.32 46.547C123.569 46.4621 123.863 46.4196 124.203 46.4196C124.52 46.4196 124.791 46.4621 124.995 46.5257C125.199 46.5894 125.357 46.6955 125.448 46.8017C125.539 46.9078 125.606 47.0564 125.652 47.2262C125.674 47.3323 125.674 47.5233 125.674 47.7993V48.6059C125.674 49.1789 125.697 49.5398 125.72 49.6884C125.742 49.8369 125.81 49.9855 125.878 50.1129H125.199C125.108 49.9855 125.063 49.8582 125.063 49.6884ZM124.995 48.3087C124.769 48.3936 124.407 48.4785 123.931 48.5422C123.659 48.5846 123.478 48.6271 123.365 48.6695C123.252 48.712 123.161 48.7757 123.116 48.8606C123.048 48.9455 123.026 49.0516 123.026 49.1577C123.026 49.3275 123.093 49.4549 123.229 49.561C123.365 49.6671 123.546 49.7308 123.818 49.7308C124.067 49.7308 124.293 49.6884 124.497 49.5822C124.701 49.4761 124.837 49.3488 124.927 49.1577C124.995 49.0304 125.04 48.8181 125.04 48.5422V48.3087H124.995Z" fill="#5B1A16"/>
<path d="M126.58 50.1125V46.5045H127.168V47.0139C127.44 46.6106 127.847 46.4196 128.391 46.4196C128.617 46.4196 128.844 46.4621 129.025 46.547C129.206 46.6319 129.364 46.738 129.455 46.8441C129.546 46.9714 129.613 47.12 129.659 47.2898C129.681 47.3959 129.704 47.6081 129.704 47.884V50.0913H129.047V47.9053C129.047 47.6506 129.025 47.4808 128.98 47.3535C128.934 47.2261 128.844 47.1412 128.708 47.0563C128.572 46.9927 128.436 46.9502 128.255 46.9502C127.983 46.9502 127.734 47.0351 127.531 47.2049C127.327 47.3747 127.236 47.693 127.236 48.1387V50.1125H126.58V50.1125Z" fill="#5B1A16"/>
<path d="M133.145 50.1138V49.668C132.896 50.0289 132.533 50.1987 132.081 50.1987C131.764 50.1987 131.492 50.1138 131.243 49.9652C130.994 49.8166 130.79 49.5831 130.654 49.3072C130.518 49.0313 130.451 48.6917 130.451 48.3309C130.451 47.9701 130.518 47.6517 130.632 47.3545C130.767 47.0574 130.949 46.8451 131.198 46.6753C131.447 46.5268 131.741 46.4419 132.058 46.4419C132.284 46.4419 132.488 46.4843 132.669 46.5692C132.85 46.6541 132.986 46.7815 133.099 46.93V45.1472H133.756V50.1138H133.145ZM131.084 48.3309C131.084 48.7978 131.198 49.1374 131.401 49.3709C131.605 49.6044 131.854 49.7105 132.126 49.7105C132.42 49.7105 132.647 49.6044 132.85 49.3921C133.054 49.1799 133.145 48.8403 133.145 48.3945C133.145 47.9064 133.054 47.5456 132.85 47.3121C132.647 47.0786 132.398 46.9725 132.103 46.9725C131.809 46.9725 131.583 47.0786 131.379 47.3121C131.175 47.5031 131.084 47.8427 131.084 48.3309Z" fill="#5B1A16"/>
<path d="M136.925 50.1137V45.1472H140.751V45.7414H137.627V47.2696H140.57V47.8427H137.627V49.5407H140.887V50.135H136.925V50.1137Z" fill="#5B1A16"/>
<path d="M141.611 50.1125V46.5045H142.2V47.0139C142.472 46.6106 142.879 46.4196 143.423 46.4196C143.649 46.4196 143.875 46.4621 144.056 46.547C144.238 46.6319 144.396 46.738 144.487 46.8441C144.577 46.9714 144.645 47.12 144.69 47.2898C144.713 47.3959 144.736 47.6081 144.736 47.884V50.0913H144.079V47.9053C144.079 47.6506 144.056 47.4808 144.011 47.3535C143.966 47.2261 143.875 47.1412 143.74 47.0563C143.604 46.9927 143.468 46.9502 143.287 46.9502C143.015 46.9502 142.766 47.0351 142.562 47.2049C142.359 47.3747 142.268 47.693 142.268 48.1387V50.1125H141.611Z" fill="#5B1A16"/>
<path d="M145.552 50.431L146.186 50.5159C146.209 50.707 146.277 50.8343 146.412 50.9192C146.571 51.0253 146.797 51.089 147.069 51.089C147.363 51.089 147.612 51.0253 147.771 50.9192C147.929 50.8131 148.042 50.6433 148.11 50.4523C148.133 50.3249 148.156 50.0702 148.156 49.6669C147.861 49.9853 147.522 50.1339 147.092 50.1339C146.571 50.1339 146.163 49.9641 145.869 49.6032C145.575 49.2424 145.439 48.8179 145.439 48.3085C145.439 47.9689 145.507 47.6505 145.643 47.3534C145.779 47.0562 145.96 46.844 146.231 46.6742C146.48 46.5256 146.775 46.4407 147.114 46.4407C147.567 46.4407 147.952 46.6105 148.246 46.9501V46.5256H148.858V49.6457C148.858 50.1976 148.79 50.6008 148.676 50.8343C148.563 51.0678 148.359 51.2588 148.088 51.3862C147.816 51.5135 147.499 51.5984 147.114 51.5984C146.661 51.5984 146.277 51.4923 146.005 51.3013C145.688 51.1102 145.552 50.8131 145.552 50.431ZM146.095 48.2661C146.095 48.733 146.186 49.0938 146.39 49.3061C146.594 49.5183 146.843 49.6245 147.137 49.6245C147.431 49.6245 147.68 49.5183 147.884 49.3061C148.088 49.0938 148.178 48.7542 148.178 48.2873C148.178 47.8415 148.065 47.5232 147.861 47.2897C147.658 47.0562 147.409 46.9501 147.114 46.9501C146.82 46.9501 146.571 47.0562 146.367 47.2897C146.209 47.5019 146.095 47.8203 146.095 48.2661Z" fill="#5B1A16"/>
<path d="M149.717 45.8476V45.1472H150.373V45.8476H149.717ZM149.717 50.1138V46.5056H150.373V50.1138H149.717Z" fill="#5B1A16"/>
<path d="M151.279 50.1125V46.5045H151.868V47.0139C152.14 46.6106 152.547 46.4196 153.091 46.4196C153.317 46.4196 153.544 46.4621 153.725 46.547C153.928 46.6319 154.064 46.738 154.155 46.8441C154.245 46.9714 154.313 47.12 154.359 47.2898C154.381 47.3959 154.404 47.6081 154.404 47.884V50.0913H153.747V47.9053C153.747 47.6506 153.725 47.4808 153.679 47.3535C153.634 47.2261 153.544 47.1412 153.408 47.0563C153.272 46.9927 153.136 46.9502 152.955 46.9502C152.683 46.9502 152.434 47.0351 152.23 47.2049C152.027 47.3747 151.936 47.693 151.936 48.1387V50.1125H151.279V50.1125Z" fill="#5B1A16"/>
<path d="M157.981 48.9667L158.66 49.0516C158.547 49.4125 158.366 49.7097 158.071 49.9007C157.777 50.1129 157.415 50.1978 156.962 50.1978C156.396 50.1978 155.943 50.028 155.626 49.7097C155.287 49.3913 155.128 48.9243 155.128 48.3512C155.128 47.7356 155.287 47.2687 155.626 46.929C155.966 46.5894 156.396 46.4196 156.917 46.4196C157.437 46.4196 157.845 46.5894 158.184 46.9078C158.501 47.2262 158.683 47.6932 158.683 48.2875C158.683 48.33 158.683 48.3724 158.683 48.4573H155.807C155.83 48.8606 155.943 49.1578 156.17 49.37C156.373 49.5823 156.645 49.6884 156.962 49.6884C157.211 49.6884 157.415 49.6247 157.573 49.5186C157.754 49.4125 157.867 49.2215 157.981 48.9667ZM155.83 47.9691H157.981C157.958 47.672 157.867 47.4385 157.732 47.2899C157.528 47.0564 157.256 46.929 156.917 46.929C156.622 46.929 156.373 47.0139 156.17 47.205C155.966 47.4172 155.853 47.6507 155.83 47.9691Z" fill="#5B1A16"/>
<path d="M162.056 48.9667L162.735 49.0516C162.622 49.4125 162.441 49.7097 162.146 49.9007C161.852 50.1129 161.49 50.1978 161.037 50.1978C160.471 50.1978 160.018 50.028 159.701 49.7097C159.362 49.3913 159.203 48.9243 159.203 48.3512C159.203 47.7356 159.362 47.2687 159.701 46.929C160.041 46.5894 160.471 46.4196 160.992 46.4196C161.512 46.4196 161.92 46.5894 162.26 46.9078C162.576 47.2262 162.758 47.6932 162.758 48.2875C162.758 48.33 162.758 48.3724 162.758 48.4573H159.882C159.905 48.8606 160.018 49.1578 160.245 49.37C160.448 49.5823 160.72 49.6884 161.037 49.6884C161.286 49.6884 161.49 49.6247 161.648 49.5186C161.807 49.4125 161.943 49.2215 162.056 48.9667ZM159.905 47.9691H162.056C162.033 47.672 161.943 47.4385 161.807 47.2899C161.603 47.0564 161.331 46.929 160.992 46.929C160.697 46.929 160.448 47.0139 160.245 47.205C160.041 47.4172 159.928 47.6507 159.905 47.9691Z" fill="#5B1A16"/>
<path d="M163.482 50.1127V46.5045H164.071V47.0564C164.229 46.8017 164.365 46.6319 164.478 46.547C164.614 46.4621 164.75 46.4196 164.886 46.4196C165.112 46.4196 165.338 46.4833 165.565 46.6106L165.338 47.1837C165.18 47.0988 165.022 47.0564 164.863 47.0564C164.727 47.0564 164.591 47.0988 164.478 47.1837C164.365 47.2686 164.274 47.3747 164.229 47.5233C164.161 47.7355 164.116 47.969 164.116 48.2449V50.1339H163.482V50.1127Z" fill="#5B1A16"/>
<path d="M165.995 45.8476V45.1472H166.652V45.8476H165.995ZM165.995 50.1138V46.5056H166.652V50.1138H165.995Z" fill="#5B1A16"/>
<path d="M167.557 50.1125V46.5045H168.146V47.0139C168.417 46.6106 168.848 46.4196 169.368 46.4196C169.595 46.4196 169.821 46.4621 170.002 46.547C170.206 46.6319 170.342 46.738 170.432 46.8441C170.523 46.9714 170.591 47.12 170.636 47.2898C170.659 47.3959 170.681 47.6081 170.681 47.884V50.0913H170.025V47.9053C170.025 47.6506 170.002 47.4808 169.957 47.3535C169.912 47.2261 169.821 47.1412 169.685 47.0563C169.549 46.9927 169.414 46.9502 169.232 46.9502C168.961 46.9502 168.712 47.0351 168.508 47.2049C168.304 47.3747 168.214 47.693 168.214 48.1387V50.1125H167.557Z" fill="#5B1A16"/>
<path d="M171.497 50.431L172.131 50.5159C172.153 50.707 172.221 50.8343 172.357 50.9192C172.515 51.0253 172.742 51.089 173.014 51.089C173.308 51.089 173.557 51.0253 173.715 50.9192C173.874 50.8131 173.987 50.6433 174.055 50.4523C174.078 50.3249 174.1 50.0702 174.1 49.6669C173.806 49.9853 173.466 50.1339 173.036 50.1339C172.515 50.1339 172.108 49.9641 171.814 49.6032C171.519 49.2424 171.383 48.8179 171.383 48.3085C171.383 47.9689 171.451 47.6505 171.587 47.3534C171.723 47.0562 171.904 46.844 172.176 46.6742C172.425 46.5256 172.719 46.4407 173.059 46.4407C173.512 46.4407 173.896 46.6105 174.191 46.9501V46.5256H174.802V49.6457C174.802 50.1976 174.734 50.6008 174.621 50.8343C174.508 51.0678 174.304 51.2588 174.032 51.3862C173.761 51.5135 173.444 51.5984 173.059 51.5984C172.606 51.5984 172.221 51.4923 171.949 51.3013C171.632 51.1102 171.497 50.8131 171.497 50.431ZM172.04 48.2661C172.04 48.733 172.131 49.0938 172.334 49.3061C172.538 49.5183 172.787 49.6245 173.081 49.6245C173.376 49.6245 173.625 49.5183 173.829 49.3061C174.032 49.0938 174.123 48.7542 174.123 48.2873C174.123 47.8415 174.01 47.5232 173.806 47.2897C173.602 47.0562 173.353 46.9501 173.059 46.9501C172.764 46.9501 172.515 47.0562 172.312 47.2897C172.153 47.5019 172.04 47.8203 172.04 48.2661Z" fill="#5B1A16"/>
<path d="M110.278 33.6169C110.007 33.8928 109.622 34.0414 109.124 34.0414H94.2267C90.6269 34.0414 87.5706 32.683 85.0575 29.9663C83.2916 27.9075 82.4087 25.5728 82.4087 22.9621V22.3042C82.4087 18.9295 83.8576 16.0641 86.7555 13.7082C88.9516 12.0527 91.442 11.2249 94.2267 11.2249H109.124C109.576 11.2249 109.961 11.3523 110.256 11.607C110.55 11.8617 110.686 12.2225 110.686 12.6894V14.3449C110.686 14.7482 110.55 15.109 110.278 15.3849C110.007 15.6609 109.622 15.8094 109.124 15.8094H97.283C94.3852 15.8094 92.6645 16.0005 92.0759 16.4037C91.3288 16.5948 90.4005 17.2103 89.2912 18.229C88.046 19.7148 87.4121 21.1793 87.4121 22.6438C87.4121 24.5752 88.3856 26.3369 90.3326 27.9287C91.6005 28.9263 93.5248 29.4357 96.0605 29.4357H109.124C109.554 29.4357 109.939 29.563 110.233 29.7965C110.527 30.0512 110.686 30.412 110.686 30.8789V32.5557C110.663 32.9802 110.527 33.341 110.278 33.6169Z" fill="#931B1D"/>
<path d="M112.788 11.6706C113.059 11.3947 113.444 11.2673 113.942 11.2673H115.708C116.138 11.2673 116.523 11.3947 116.795 11.6494C117.089 11.9041 117.225 12.2649 117.225 12.7318V32.577C117.225 32.9803 117.089 33.3411 116.84 33.617C116.591 33.893 116.206 34.0415 115.686 34.0415H113.92C113.467 34.0415 113.082 33.9142 112.788 33.6595C112.493 33.4048 112.357 33.044 112.357 32.577V12.7106C112.403 12.2861 112.539 11.9253 112.788 11.6706Z" fill="#707171"/>
<path d="M115.734 34.2371H113.968C113.448 34.2371 113.017 34.0885 112.7 33.8126C112.361 33.5367 112.202 33.1122 112.202 32.5816V12.7365C112.202 12.2483 112.361 11.845 112.655 11.5479C112.972 11.2295 113.402 11.0809 113.968 11.0809H115.734C116.232 11.0809 116.64 11.2295 116.979 11.5054C117.319 11.8026 117.477 12.2058 117.477 12.7365V32.5816C117.477 33.0485 117.342 33.4305 117.047 33.7489C116.753 34.0673 116.3 34.2371 115.734 34.2371ZM112.949 11.8026C112.723 12.036 112.61 12.3332 112.61 12.7152V32.5603C112.61 32.9848 112.723 33.3032 112.972 33.4942C113.221 33.7065 113.538 33.8126 113.968 33.8126H115.734C116.187 33.8126 116.504 33.7065 116.708 33.4518C116.934 33.1971 117.047 32.8999 117.047 32.5391V12.694C117.047 12.2695 116.934 11.9724 116.685 11.7601C116.436 11.5479 116.119 11.4418 115.734 11.4418H113.968C113.515 11.463 113.176 11.5691 112.949 11.8026Z" fill="#6E6D6E"/>
<path d="M118.786 11.6695C119.058 11.3936 119.443 11.2662 119.941 11.2662H145.071C145.524 11.2662 145.909 11.3936 146.203 11.6483C146.498 11.903 146.633 12.2638 146.633 12.7307V14.3862C146.633 14.7895 146.498 15.1503 146.226 15.4262C145.954 15.7022 145.569 15.8507 145.071 15.8507H138.053C136.4 15.8507 135.495 16.1479 135.268 16.7209C135.155 16.8907 135.064 17.1454 135.019 17.5063C134.974 17.8458 134.951 18.2703 134.951 18.7797V32.5757C134.951 32.979 134.815 33.3398 134.544 33.6157C134.272 33.8916 133.887 34.0402 133.389 34.0402H131.578C131.125 34.0402 130.74 33.9128 130.446 33.6794C130.152 33.4459 130.016 33.0639 130.016 32.5757V18.7797C130.016 17.2303 129.721 16.3814 129.11 16.1691C128.748 15.9569 128.001 15.8507 126.914 15.8507H119.896C119.466 15.8507 119.081 15.7234 118.786 15.4687C118.537 15.214 118.402 14.8532 118.402 14.3862V12.7095C118.402 12.285 118.537 11.9242 118.786 11.6695Z" fill="#707171"/>
<path d="M133.439 34.2356H131.628C131.107 34.2356 130.677 34.1082 130.36 33.8323C130.021 33.5564 129.862 33.1319 129.862 32.5801V18.7841C129.862 17.362 129.591 16.5342 129.092 16.3644L129.047 16.3432C128.821 16.2159 128.277 16.0461 126.964 16.0461H119.946C119.448 16.0461 119.04 15.8975 118.701 15.6216C118.361 15.3244 118.18 14.9212 118.18 14.3906V12.7138C118.18 12.2256 118.339 11.8224 118.633 11.5252C118.95 11.2069 119.38 11.0583 119.946 11.0583H145.076C145.597 11.0583 146.027 11.2069 146.344 11.4828C146.684 11.7799 146.842 12.1832 146.842 12.7138V14.3693C146.842 14.8363 146.684 15.2183 146.389 15.5367C146.072 15.8551 145.642 16.0249 145.076 16.0249H138.058C136.541 16.0249 135.658 16.2796 135.477 16.7677L135.454 16.8102C135.386 16.98 135.318 17.2134 135.273 17.5318C135.228 17.8714 135.205 18.2747 135.205 18.7841V32.5801C135.205 33.047 135.047 33.4291 134.752 33.7474C134.458 34.0658 134.005 34.2356 133.439 34.2356ZM129.251 15.9824C129.93 16.2159 130.27 17.1285 130.27 18.7628V32.5588C130.27 33.0046 130.383 33.3229 130.632 33.514C130.881 33.7262 131.198 33.8323 131.628 33.8323H133.439C133.892 33.8323 134.209 33.7262 134.435 33.4715C134.662 33.2168 134.775 32.9197 134.775 32.5588V18.7628C134.775 18.2534 134.798 17.8289 134.843 17.4681C134.888 17.1073 134.979 16.8314 135.115 16.6191C135.364 15.9612 136.337 15.6216 138.08 15.6216H145.099C145.552 15.6216 145.869 15.5155 146.095 15.2608C146.321 15.0061 146.435 14.7089 146.435 14.3481V12.7138C146.435 12.2893 146.321 11.9922 146.072 11.7799C145.823 11.5677 145.506 11.4616 145.099 11.4616H119.969C119.516 11.4616 119.199 11.5677 118.972 11.8012C118.746 12.0346 118.633 12.3318 118.633 12.7138V14.3693C118.633 14.7938 118.746 15.091 119.018 15.3032C119.289 15.5155 119.606 15.6216 119.991 15.6216H127.01C128.096 15.6428 128.843 15.7489 129.251 15.9824Z" fill="#6E6D6E"/>
<path d="M147.79 12.7109C147.79 12.2864 147.926 11.9255 148.198 11.6496C148.47 11.3737 148.854 11.2463 149.352 11.2463H174.483C174.935 11.2463 175.32 11.3737 175.615 11.6284C175.909 11.8831 176.045 12.2439 176.045 12.7109V14.3664C176.045 14.7697 175.909 15.1305 175.637 15.4064C175.366 15.6824 174.981 15.8309 174.483 15.8309H149.352C148.922 15.8309 148.537 15.7036 148.243 15.4489C147.949 15.1942 147.79 14.8334 147.79 14.3664V12.7109ZM147.79 21.88C147.79 21.4555 147.926 21.0947 148.198 20.84C148.47 20.5853 148.854 20.458 149.352 20.458H174.483C174.913 20.458 175.298 20.5853 175.592 20.8188C175.886 21.0523 176.045 21.4131 176.045 21.9013V23.5993C176.045 24.0025 175.909 24.3633 175.637 24.6393C175.366 24.9152 174.981 25.0638 174.483 25.0638H149.352C148.9 25.0638 148.515 24.9364 148.221 24.6817C147.926 24.427 147.79 24.0662 147.79 23.5993V21.88ZM147.79 30.9006C147.79 30.4761 147.926 30.1153 148.198 29.8606C148.47 29.5847 148.854 29.4573 149.352 29.4573H174.483C174.913 29.4573 175.298 29.5847 175.592 29.8182C175.886 30.0729 176.045 30.4337 176.045 30.9006V32.5774C176.045 32.9807 175.909 33.3415 175.637 33.6174C175.366 33.8933 174.981 34.0419 174.483 34.0419H149.352C148.9 34.0419 148.515 33.9146 148.221 33.6599C147.926 33.4052 147.79 33.0444 147.79 32.5774V30.9006Z" fill="#931B1D"/>
<path d="M174.485 34.2356H149.355C148.834 34.2356 148.404 34.087 148.087 33.8111C147.747 33.5352 147.589 33.1107 147.589 32.5801V30.9033C147.589 30.4152 147.747 30.0331 148.042 29.7147C148.358 29.3964 148.789 29.2478 149.355 29.2478H174.485C174.983 29.2478 175.39 29.3964 175.73 29.6723C176.07 29.9694 176.251 30.3727 176.251 30.9033V32.5801C176.251 33.047 176.092 33.4291 175.798 33.7474C175.504 34.0658 175.074 34.2356 174.485 34.2356ZM149.355 29.6511C148.902 29.6511 148.562 29.7572 148.336 29.9907C148.109 30.2241 147.996 30.5213 147.996 30.9033V32.5801C147.996 33.0046 148.109 33.3017 148.358 33.514C148.608 33.7262 148.924 33.8323 149.355 33.8323H174.485C174.938 33.8323 175.255 33.7262 175.481 33.4715C175.707 33.2168 175.821 32.9409 175.821 32.5588V30.8821C175.821 30.4576 175.707 30.1605 175.436 29.9482C175.164 29.736 174.847 29.6298 174.462 29.6298H149.355V29.6511ZM174.485 25.2576H149.355C148.834 25.2576 148.404 25.109 148.087 24.8331C147.747 24.5359 147.589 24.1327 147.589 23.602V21.9041C147.589 21.4159 147.747 21.0126 148.042 20.7155C148.358 20.4184 148.789 20.2698 149.355 20.2698H174.485C174.983 20.2698 175.39 20.3971 175.73 20.673C176.07 20.949 176.251 21.3735 176.251 21.9041V23.602C176.251 24.069 176.092 24.451 175.798 24.7694C175.504 25.0878 175.074 25.2576 174.485 25.2576ZM149.355 20.6518C148.902 20.6518 148.562 20.7579 148.336 20.9914C148.109 21.2249 147.996 21.5008 147.996 21.9041V23.602C147.996 24.0265 148.109 24.3449 148.358 24.5359C148.608 24.7482 148.924 24.8543 149.355 24.8543H174.485C174.938 24.8543 175.255 24.7482 175.481 24.4935C175.707 24.2388 175.821 23.9416 175.821 23.5808V21.8829C175.821 21.4584 175.707 21.1612 175.436 20.9702C175.164 20.7579 174.847 20.6518 174.462 20.6518H149.355ZM174.485 16.0461H149.355C148.857 16.0461 148.449 15.8975 148.109 15.6216C147.77 15.3244 147.589 14.9212 147.589 14.3906V12.7138C147.589 12.2256 147.747 11.8224 148.042 11.5252C148.358 11.2069 148.789 11.0583 149.355 11.0583H174.485C175.006 11.0583 175.436 11.2069 175.753 11.4828C176.092 11.7799 176.251 12.1832 176.251 12.7138V14.3693C176.251 14.8363 176.092 15.2183 175.798 15.5367C175.504 15.8763 175.074 16.0461 174.485 16.0461ZM149.355 11.4616C148.902 11.4616 148.585 11.5677 148.358 11.8012C148.132 12.0346 148.019 12.3318 148.019 12.7138V14.3693C148.019 14.7938 148.132 15.091 148.404 15.3032C148.675 15.5155 148.992 15.6216 149.377 15.6216H174.508C174.96 15.6216 175.277 15.5155 175.504 15.2608C175.73 15.0061 175.843 14.7089 175.843 14.3481V12.7138C175.843 12.2893 175.73 11.9922 175.481 11.7799C175.232 11.5677 174.915 11.4616 174.508 11.4616H149.355Z" fill="#931B1D"/>
<path d="M120.896 14.3904C128.594 14.3904 136.314 14.3904 144.012 14.3904C145.144 14.3904 145.144 12.7349 144.012 12.7349C136.314 12.7349 128.594 12.7349 120.896 12.7349C119.764 12.7349 119.764 14.3904 120.896 14.3904Z" fill="white"/>
<path d="M131.696 13.5629C131.65 19.612 131.605 25.6611 131.56 31.7102C131.56 32.7714 133.326 32.7714 133.326 31.7102C133.371 25.6611 133.416 19.612 133.462 13.5629C133.484 12.4804 131.718 12.4804 131.696 13.5629Z" fill="white"/>
<path d="M113.946 13.5629C113.946 19.612 113.946 25.6611 113.946 31.7102C113.946 32.7714 115.712 32.7714 115.712 31.7102C115.712 25.6611 115.712 19.612 115.712 13.5629C115.712 12.4804 113.946 12.4804 113.946 13.5629Z" fill="white"/>
<path d="M150.827 14.3904C158.366 14.3904 165.882 14.3904 173.399 14.3904C174.53 14.3904 174.53 12.7349 173.399 12.7349C165.882 12.7349 158.343 12.7349 150.827 12.7349C149.695 12.7349 149.695 14.3904 150.827 14.3904Z" fill="#931B1D"/>
<path d="M150.827 23.6872C158.366 23.6872 165.882 23.6872 173.399 23.6872C174.53 23.6872 174.53 22.032 173.399 22.032C165.882 22.032 158.343 22.032 150.827 22.032C149.695 22.032 149.695 23.6872 150.827 23.6872Z" fill="#931B1D"/>
<path d="M150.827 32.5379C158.343 32.5379 165.882 32.5379 173.399 32.5379C174.53 32.5379 174.53 30.8826 173.399 30.8826C165.882 30.8826 158.343 30.8826 150.827 30.8826C149.695 30.8826 149.695 32.5379 150.827 32.5379Z" fill="#931B1D"/>
<path d="M131.718 15.9193C131.809 14.2426 129.205 14.2213 129.205 14.2213L129.228 13.3936L132.012 13.6695L131.718 15.9193Z" fill="white"/>
<path d="M133.371 15.8979C133.281 14.2212 135.884 14.2 135.884 14.2V13.3723L133.1 13.6482L133.371 15.8979Z" fill="white"/>
<path d="M78.5832 6.55847H77.7455V52.3403H78.5832V6.55847Z" fill="#931B1D"/>
</svg>
