<svg width="291" height="77" viewBox="0 0 291 77" fill="none" xmlns="http://www.w3.org/2000/svg">
<path d="M137.088 1V65" stroke="white" stroke-width="2" stroke-linecap="round" stroke-linejoin="round"/>
<g filter="url(#filter0_d)">
<path d="M185.108 25.5242H191.757C193.04 25.5242 194.034 25.579 194.72 25.7069C195.407 25.8165 196.112 26.1453 196.798 26.6567C197.503 27.1682 198.045 27.8623 198.443 28.7573C198.84 29.6523 199.039 30.6387 199.039 31.7529C199.039 34.3466 198.045 36.1732 196.057 37.2326L199.942 46.3108H194.883L192.046 38.0911H189.715V46.3108H185.072V25.5242H185.108ZM189.751 28.8851V34.712H191.793C193.618 34.712 194.522 33.7073 194.522 31.7164C194.522 31.0223 194.395 30.456 194.124 30.0176C193.853 29.5792 193.546 29.2687 193.184 29.1226C192.823 28.9582 192.299 28.8851 191.612 28.8851H189.751Z" fill="#80C142"/>
<path d="M217.288 35.8989C217.288 43.0408 214.723 46.6209 209.609 46.6209C207.061 46.6209 205.146 45.7076 203.863 43.881C202.562 42.0544 201.93 39.4059 201.93 35.8989C201.93 28.7752 204.496 25.1951 209.609 25.1951C212.103 25.1951 214.018 26.0901 215.337 27.8801C216.638 29.6702 217.288 32.337 217.288 35.8989ZM212.392 35.8989C212.392 33.1042 212.175 31.2411 211.723 30.3095C211.271 29.3779 210.567 28.9213 209.591 28.9213C208.633 28.9213 207.929 29.3962 207.477 30.3278C207.025 31.2593 206.808 33.1224 206.808 35.9171C206.808 38.657 207.025 40.5018 207.477 41.4699C207.911 42.438 208.615 42.9129 209.591 42.9129C210.549 42.9129 211.253 42.4563 211.705 41.5247C212.175 40.5932 212.392 38.7301 212.392 35.8989Z" fill="#80C142"/>
<path d="M220.939 25.5238H228.166C229.865 25.5238 231.147 25.6517 231.997 25.9257C232.864 26.1814 233.587 26.7659 234.165 27.6609C234.743 28.5559 235.032 29.6702 235.032 30.9853C235.032 33.3051 234.02 34.8029 232.015 35.4604C234.418 36.3007 235.61 37.9994 235.61 40.5566C235.61 41.9083 235.285 43.0407 234.635 43.9723C233.984 44.9039 233.171 45.5249 232.232 45.8354C231.274 46.1459 229.919 46.2921 228.166 46.2921H220.939V25.5238ZM225.402 33.9078H226.901C228.401 33.9078 229.341 33.6521 229.738 33.1224C230.118 32.5927 230.316 31.9899 230.316 31.3141C230.316 30.693 230.118 30.1268 229.738 29.6336C229.359 29.1404 228.527 28.903 227.245 28.903H225.402V33.9078ZM225.402 42.7302H227.678C229.81 42.7302 230.894 41.8169 230.894 40.0086C230.894 39.004 230.623 38.2916 230.099 37.8715C229.575 37.4514 228.762 37.2505 227.696 37.2505H225.42V42.7302H225.402Z" fill="#80C142"/>
<path d="M253.698 35.8989C253.698 43.0408 251.132 46.6209 246.018 46.6209C243.471 46.6209 241.555 45.7076 240.272 43.881C238.971 42.0544 238.339 39.4059 238.339 35.8989C238.339 28.7752 240.905 25.1951 246.018 25.1951C248.512 25.1951 250.427 26.0901 251.746 27.8801C253.047 29.6702 253.698 32.337 253.698 35.8989ZM248.801 35.8989C248.801 33.1042 248.584 31.2411 248.132 30.3095C247.681 29.3779 246.976 28.9213 246 28.9213C245.043 28.9213 244.338 29.3962 243.886 30.3278C243.434 31.2593 243.218 33.1224 243.218 35.9171C243.218 38.657 243.434 40.5018 243.868 41.4699C244.302 42.438 245.006 42.9129 245.982 42.9129C246.94 42.9129 247.644 42.4563 248.096 41.5247C248.584 40.5932 248.801 38.7301 248.801 35.8989Z" fill="#80C142"/>
<path d="M255.269 25.5238H268.459V29.4144H264.141V46.2921H259.497V29.4144H255.287V25.5238H255.269Z" fill="#80C142"/>
<g opacity="0.38">
<path opacity="0.38" d="M185.108 25.5242H191.757C193.04 25.5242 194.034 25.579 194.72 25.7069C195.407 25.8165 196.112 26.1453 196.798 26.6567C197.503 27.1682 198.045 27.8623 198.443 28.7573C198.84 29.6523 199.039 30.6387 199.039 31.7529C199.039 34.3466 198.045 36.1732 196.057 37.2326L199.942 46.3108H194.883L192.046 38.0911H189.715V46.3108H185.072V25.5242H185.108ZM189.751 28.8851V34.712H191.793C193.618 34.712 194.522 33.7073 194.522 31.7164C194.522 31.0223 194.395 30.456 194.124 30.0176C193.853 29.5792 193.546 29.2687 193.184 29.1226C192.823 28.9582 192.299 28.8851 191.612 28.8851H189.751Z" fill="url(#paint0_linear)"/>
<path opacity="0.38" d="M217.288 35.8989C217.288 43.0408 214.723 46.6209 209.609 46.6209C207.061 46.6209 205.146 45.7076 203.863 43.881C202.562 42.0544 201.93 39.4059 201.93 35.8989C201.93 28.7752 204.496 25.1951 209.609 25.1951C212.103 25.1951 214.018 26.0901 215.337 27.8801C216.638 29.6702 217.288 32.337 217.288 35.8989ZM212.392 35.8989C212.392 33.1042 212.175 31.2411 211.723 30.3095C211.271 29.3779 210.567 28.9213 209.591 28.9213C208.633 28.9213 207.929 29.3962 207.477 30.3278C207.025 31.2593 206.808 33.1224 206.808 35.9171C206.808 38.657 207.025 40.5018 207.477 41.4699C207.911 42.438 208.615 42.9129 209.591 42.9129C210.549 42.9129 211.253 42.4563 211.705 41.5247C212.175 40.5932 212.392 38.7301 212.392 35.8989Z" fill="url(#paint1_linear)"/>
<path opacity="0.38" d="M220.939 25.5238H228.166C229.865 25.5238 231.147 25.6517 231.997 25.9257C232.864 26.1814 233.587 26.7659 234.165 27.6609C234.743 28.5559 235.032 29.6702 235.032 30.9853C235.032 33.3051 234.02 34.8029 232.015 35.4604C234.418 36.3007 235.61 37.9994 235.61 40.5566C235.61 41.9083 235.285 43.0407 234.635 43.9723C233.984 44.9039 233.171 45.5249 232.232 45.8354C231.274 46.1459 229.919 46.2921 228.166 46.2921H220.939V25.5238ZM225.402 33.9078H226.901C228.401 33.9078 229.341 33.6521 229.738 33.1224C230.118 32.5927 230.316 31.9899 230.316 31.3141C230.316 30.693 230.118 30.1268 229.738 29.6336C229.359 29.1404 228.527 28.903 227.245 28.903H225.402V33.9078ZM225.402 42.7302H227.678C229.81 42.7302 230.894 41.8169 230.894 40.0086C230.894 39.004 230.623 38.2916 230.099 37.8715C229.575 37.4514 228.762 37.2505 227.696 37.2505H225.42V42.7302H225.402Z" fill="url(#paint2_linear)"/>
<path opacity="0.38" d="M253.698 35.8989C253.698 43.0408 251.132 46.6209 246.018 46.6209C243.471 46.6209 241.555 45.7076 240.272 43.881C238.971 42.0544 238.339 39.4059 238.339 35.8989C238.339 28.7752 240.905 25.1951 246.018 25.1951C248.512 25.1951 250.427 26.0901 251.746 27.8801C253.047 29.6702 253.698 32.337 253.698 35.8989ZM248.801 35.8989C248.801 33.1042 248.584 31.2411 248.132 30.3095C247.681 29.3779 246.976 28.9213 246 28.9213C245.043 28.9213 244.338 29.3962 243.886 30.3278C243.434 31.2593 243.218 33.1224 243.218 35.9171C243.218 38.657 243.434 40.5018 243.868 41.4699C244.302 42.438 245.006 42.9129 245.982 42.9129C246.94 42.9129 247.644 42.4563 248.096 41.5247C248.584 40.5932 248.801 38.7301 248.801 35.8989Z" fill="url(#paint3_linear)"/>
<path opacity="0.38" d="M255.269 25.5238H268.459V29.4144H264.141V46.2921H259.497V29.4144H255.287V25.5238H255.269Z" fill="url(#paint4_linear)"/>
</g>
<path d="M177.519 31.4235L177.501 22.5281L171.285 19.4777V19.7699V28.7202L177.447 32.0446L177.519 32.008V31.4235Z" fill="#249CC2"/>
<path opacity="0.38" d="M177.519 31.4235L177.501 22.5281L171.285 19.4777V19.7699V28.7202L177.447 32.0446L177.519 32.008V31.4235Z" fill="url(#paint5_linear)"/>
<path d="M177.446 32.0447L171.285 28.7203L163.009 32.41V33.5425V39.278L168.267 36.666L177.483 32.0813L177.446 32.0447Z" fill="#EF6738"/>
<path opacity="0.38" d="M177.446 32.0447L171.285 28.7203L163.009 32.41V33.5425V39.278L168.267 36.666L177.483 32.0813L177.446 32.0447Z" fill="url(#paint6_linear)"/>
<path d="M163.678 15.441L157.083 12.0984L157.029 12.0618V12.1532L156.902 12.0984L156.83 12.0618L156.812 54.329H157.01H159.414H159.612L163.1 51.8997L163.678 51.4978V15.441Z" fill="#80C142"/>
<path opacity="0.38" d="M163.678 15.441L157.083 12.0984L157.029 12.0618V12.1532L156.902 12.0984L156.83 12.0618L156.812 54.329H157.01H159.414H159.612L163.1 51.8997L163.678 51.4978V15.441Z" fill="url(#paint7_linear)"/>
<path d="M177.465 15.4228V15.3497L168.249 10.7284L163.66 8.5H156.342V9.08451L156.36 12.0618L156.414 12.0984V12.1714L160.624 14.2537L163.009 15.441L171.285 19.4778L177.501 22.5282L177.519 22.5464V15.4593L177.465 15.4228Z" fill="#FAED45"/>
<path opacity="0.38" d="M177.465 15.4228V15.3497L168.249 10.7284L163.66 8.5H156.342V9.08451L156.36 12.0618L156.414 12.0984V12.1714L160.624 14.2537L163.009 15.441L171.285 19.4778L177.501 22.5282L177.519 22.5464V15.4593L177.465 15.4228Z" fill="url(#paint8_linear)"/>
</g>
<path d="M15.2237 37.77C13.9637 37.77 12.8237 37.5 11.8037 36.96C10.7957 36.408 9.99768 35.634 9.40968 34.638C8.83368 33.642 8.54568 32.502 8.54568 31.218C8.54568 29.934 8.83368 28.794 9.40968 27.798C9.99768 26.802 10.7957 26.028 11.8037 25.476C12.8237 24.924 13.9637 24.648 15.2237 24.648C16.4717 24.648 17.5997 24.924 18.6077 25.476C19.6277 26.028 20.4257 26.802 21.0017 27.798C21.5897 28.794 21.8837 29.934 21.8837 31.218C21.8837 32.502 21.5897 33.642 21.0017 34.638C20.4257 35.622 19.6277 36.39 18.6077 36.942C17.5997 37.494 16.4717 37.77 15.2237 37.77ZM15.2237 35.7C16.0277 35.7 16.7597 35.52 17.4197 35.16C18.0797 34.788 18.6017 34.266 18.9857 33.594C19.3817 32.91 19.5797 32.118 19.5797 31.218C19.5797 30.33 19.3877 29.55 19.0037 28.878C18.6197 28.194 18.0977 27.666 17.4377 27.294C16.7777 26.922 16.0397 26.736 15.2237 26.736C14.4077 26.736 13.6637 26.922 12.9917 27.294C12.3317 27.666 11.8097 28.194 11.4257 28.878C11.0417 29.55 10.8497 30.33 10.8497 31.218C10.8497 32.118 11.0417 32.91 11.4257 33.594C11.8217 34.266 12.3497 34.788 13.0097 35.16C13.6817 35.52 14.4197 35.7 15.2237 35.7ZM23.6889 28.86H25.8849V30.246C26.2329 29.778 26.7249 29.43 27.3609 29.202C28.0089 28.974 28.7469 28.86 29.5749 28.86V30.588C28.6989 30.588 27.9369 30.726 27.2889 31.002C26.6529 31.266 26.2089 31.686 25.9569 32.262V37.5H23.6889V28.86ZM34.8703 41.64C34.2943 41.64 33.7183 41.586 33.1423 41.478C32.5663 41.37 32.0863 41.226 31.7023 41.046V39.246C32.6383 39.654 33.6943 39.858 34.8703 39.858C35.9263 39.858 36.6823 39.636 37.1383 39.192C37.6063 38.748 37.8403 38.088 37.8403 37.212V36.654C37.4323 37.026 36.9463 37.308 36.3823 37.5C35.8183 37.68 35.2123 37.77 34.5643 37.77C33.6883 37.77 32.8963 37.578 32.1883 37.194C31.4803 36.798 30.9283 36.252 30.5323 35.556C30.1363 34.86 29.9383 34.062 29.9383 33.162C29.9383 32.25 30.1303 31.452 30.5143 30.768C30.9103 30.072 31.4503 29.538 32.1343 29.166C32.8303 28.782 33.6163 28.59 34.4923 28.59C35.2243 28.59 35.8543 28.692 36.3823 28.896C36.9103 29.088 37.4203 29.412 37.9123 29.868V28.86H40.1083V36.978C40.1083 38.466 39.6763 39.612 38.8123 40.416C37.9603 41.232 36.6463 41.64 34.8703 41.64ZM35.0503 35.988C35.6983 35.988 36.2743 35.814 36.7783 35.466C37.2943 35.106 37.6483 34.632 37.8403 34.044V32.298C37.6363 31.71 37.2823 31.242 36.7783 30.894C36.2743 30.546 35.6983 30.372 35.0503 30.372C34.2343 30.372 33.5623 30.63 33.0343 31.146C32.5063 31.662 32.2423 32.334 32.2423 33.162C32.2423 33.99 32.5063 34.668 33.0343 35.196C33.5623 35.724 34.2343 35.988 35.0503 35.988ZM45.437 37.77C44.405 37.77 43.559 37.5 42.899 36.96C42.239 36.408 41.909 35.67 41.909 34.746C41.909 33.786 42.221 33.036 42.845 32.496C43.469 31.956 44.345 31.686 45.473 31.686C46.565 31.686 47.507 31.908 48.299 32.352V32.118C48.299 31.506 48.107 31.062 47.723 30.786C47.351 30.51 46.745 30.372 45.905 30.372C45.377 30.372 44.855 30.426 44.339 30.534C43.823 30.63 43.367 30.768 42.971 30.948V29.166C43.331 28.998 43.811 28.86 44.411 28.752C45.023 28.644 45.611 28.59 46.175 28.59C47.675 28.59 48.785 28.914 49.505 29.562C50.225 30.198 50.585 31.086 50.585 32.226V37.5H48.443V36.654C48.071 37.014 47.645 37.29 47.165 37.482C46.697 37.674 46.121 37.77 45.437 37.77ZM45.995 36.114C46.499 36.114 46.955 36.018 47.363 35.826C47.771 35.622 48.083 35.346 48.299 34.998V34.044C47.639 33.576 46.883 33.342 46.031 33.342C44.819 33.342 44.213 33.81 44.213 34.746C44.213 35.202 44.363 35.544 44.663 35.772C44.975 36 45.419 36.114 45.995 36.114ZM52.6576 28.86H54.8536V30.03C55.2616 29.538 55.7476 29.178 56.3116 28.95C56.8756 28.71 57.4696 28.59 58.0936 28.59C59.2576 28.59 60.1276 28.908 60.7036 29.544C61.2796 30.168 61.5676 31.002 61.5676 32.046V37.5H59.2996V32.262C59.2996 31.002 58.7116 30.372 57.5356 30.372C57.0196 30.372 56.5336 30.498 56.0776 30.75C55.6216 30.99 55.2376 31.356 54.9256 31.848V37.5H52.6576V28.86ZM64.922 27.348C64.562 27.348 64.256 27.228 64.004 26.988C63.764 26.748 63.644 26.448 63.644 26.088C63.644 25.728 63.764 25.428 64.004 25.188C64.256 24.936 64.562 24.81 64.922 24.81C65.282 24.81 65.588 24.936 65.84 25.188C66.092 25.428 66.218 25.728 66.218 26.088C66.218 26.448 66.092 26.748 65.84 26.988C65.588 27.228 65.282 27.348 64.922 27.348ZM63.77 28.86H66.074V37.5H63.77V28.86ZM68.0125 36.078L72.6025 30.588H68.1385V28.86H75.4465V30.282L70.8745 35.772H75.5905V37.5H68.0125V36.078ZM82.2501 37.77C80.6421 37.77 79.3701 37.368 78.4341 36.564C77.4981 35.76 77.0301 34.638 77.0301 33.198C77.0301 31.782 77.4441 30.66 78.2721 29.832C79.1001 29.004 80.2821 28.59 81.8181 28.59C82.8261 28.59 83.6841 28.782 84.3921 29.166C85.1121 29.55 85.6521 30.078 86.0121 30.75C86.3721 31.41 86.5521 32.166 86.5521 33.018V34.062H79.1901C79.3461 35.346 80.4621 35.988 82.5381 35.988C83.0901 35.988 83.6541 35.94 84.2301 35.844C84.8061 35.748 85.3101 35.616 85.7421 35.448V37.194C85.3341 37.362 84.8061 37.5 84.1581 37.608C83.5221 37.716 82.8861 37.77 82.2501 37.77ZM84.4101 32.514C84.3861 31.83 84.1401 31.302 83.6721 30.93C83.2161 30.558 82.5861 30.372 81.7821 30.372C80.9901 30.372 80.3661 30.564 79.9101 30.948C79.4541 31.332 79.2141 31.854 79.1901 32.514H84.4101ZM100.461 37.77C99.7291 37.77 99.0991 37.674 98.5711 37.482C98.0431 37.278 97.5331 36.948 97.0411 36.492V37.5H94.8451V24.198H97.1131V29.706C97.5211 29.334 98.0131 29.058 98.5891 28.878C99.1771 28.686 99.8011 28.59 100.461 28.59C101.337 28.59 102.117 28.788 102.801 29.184C103.497 29.568 104.037 30.108 104.421 30.804C104.817 31.5 105.015 32.298 105.015 33.198C105.015 34.11 104.817 34.914 104.421 35.61C104.037 36.294 103.497 36.828 102.801 37.212C102.117 37.584 101.337 37.77 100.461 37.77ZM99.9031 35.988C100.719 35.988 101.391 35.73 101.919 35.214C102.447 34.698 102.711 34.026 102.711 33.198C102.711 32.37 102.447 31.692 101.919 31.164C101.391 30.636 100.719 30.372 99.9031 30.372C99.2551 30.372 98.6731 30.552 98.1571 30.912C97.6531 31.26 97.3051 31.728 97.1131 32.316V34.062C97.3171 34.65 97.6711 35.118 98.1751 35.466C98.6791 35.814 99.2551 35.988 99.9031 35.988ZM107.708 41.064C107.396 41.064 107.066 41.04 106.718 40.992C106.382 40.956 106.118 40.902 105.926 40.83V39.102C106.226 39.222 106.598 39.282 107.042 39.282C107.498 39.282 107.84 39.18 108.068 38.976C108.296 38.772 108.494 38.448 108.662 38.004L109.004 37.104L105.278 28.86H107.564L110.228 35.16L112.73 28.86H114.998L111.218 38.274C110.834 39.222 110.366 39.924 109.814 40.38C109.274 40.836 108.572 41.064 107.708 41.064Z" fill="#424242"/>
<defs>
<filter id="filter0_d" x="148.342" y="0.5" width="142.117" height="75.829" filterUnits="userSpaceOnUse" color-interpolation-filters="sRGB">
<feFlood flood-opacity="0" result="BackgroundImageFix"/>
<feColorMatrix in="SourceAlpha" type="matrix" values="0 0 0 0 0 0 0 0 0 0 0 0 0 0 0 0 0 0 127 0"/>
<feOffset dx="7" dy="7"/>
<feGaussianBlur stdDeviation="7.5"/>
<feColorMatrix type="matrix" values="0 0 0 0 0.0431373 0 0 0 0 0.286275 0 0 0 0 0.145098 0 0 0 1 0"/>
<feBlend mode="normal" in2="BackgroundImageFix" result="effect1_dropShadow"/>
<feBlend mode="normal" in="SourceGraphic" in2="effect1_dropShadow" result="shape"/>
</filter>
<linearGradient id="paint0_linear" x1="192.533" y1="51.8431" x2="192.533" y2="22.8757" gradientUnits="userSpaceOnUse">
<stop stop-color="white" stop-opacity="0"/>
<stop offset="1"/>
</linearGradient>
<linearGradient id="paint1_linear" x1="209.61" y1="51.8428" x2="209.61" y2="22.8753" gradientUnits="userSpaceOnUse">
<stop stop-color="white" stop-opacity="0"/>
<stop offset="1"/>
</linearGradient>
<linearGradient id="paint2_linear" x1="228.283" y1="51.8427" x2="228.283" y2="22.8753" gradientUnits="userSpaceOnUse">
<stop stop-color="white" stop-opacity="0"/>
<stop offset="1"/>
</linearGradient>
<linearGradient id="paint3_linear" x1="246.026" y1="51.8428" x2="246.026" y2="22.8753" gradientUnits="userSpaceOnUse">
<stop stop-color="white" stop-opacity="0"/>
<stop offset="1"/>
</linearGradient>
<linearGradient id="paint4_linear" x1="261.86" y1="51.8427" x2="261.86" y2="22.8753" gradientUnits="userSpaceOnUse">
<stop stop-color="white" stop-opacity="0"/>
<stop offset="1"/>
</linearGradient>
<linearGradient id="paint5_linear" x1="176.265" y1="36.078" x2="173.167" y2="19.1894" gradientUnits="userSpaceOnUse">
<stop stop-color="white" stop-opacity="0"/>
<stop offset="1"/>
</linearGradient>
<linearGradient id="paint6_linear" x1="163.017" y1="33.9946" x2="177.487" y2="33.9946" gradientUnits="userSpaceOnUse">
<stop stop-color="white" stop-opacity="0"/>
<stop offset="1"/>
</linearGradient>
<linearGradient id="paint7_linear" x1="160.247" y1="42.6959" x2="160.247" y2="4.29172" gradientUnits="userSpaceOnUse">
<stop stop-color="white" stop-opacity="0"/>
<stop offset="1"/>
</linearGradient>
<linearGradient id="paint8_linear" x1="182.209" y1="25.8337" x2="152.662" y2="2.97369" gradientUnits="userSpaceOnUse">
<stop stop-color="white" stop-opacity="0"/>
<stop offset="1" stop-color="#EF7323"/>
</linearGradient>
</defs>
</svg>
