<svg width="239" height="61" viewBox="0 0 239 61" fill="none" xmlns="http://www.w3.org/2000/svg">
<rect x="0.0883789" width="238" height="61" rx="8" fill="white"/>
<path d="M39.043 19.4475C38.8633 19.3717 38.7036 19.3148 38.5239 19.258C38.0647 19.675 37.6054 20.1111 37.1662 20.5471C37.9249 20.9642 38.5239 21.6277 38.9232 22.5187C40.261 25.4952 40.0613 28.4337 38.2843 31.2015C37.246 32.8319 35.5489 33.23 33.6721 32.9457C31.8751 32.6613 30.8169 31.5049 30.2978 29.9503C29.9584 28.9645 29.8585 27.9028 29.599 26.6706C29.9184 25.3814 30.1381 23.9406 30.6572 22.5946C31.356 20.8125 32.8934 19.9973 34.8701 19.9973C35.2295 19.9973 35.5689 20.0352 35.8883 20.0921C36.3076 19.675 36.7269 19.2769 37.1462 18.8788C36.6271 18.784 36.088 18.7082 35.5689 18.6892C35.2694 19.0115 34.9899 19.3338 34.7103 19.6561C34.2112 20.2248 33.3526 19.4096 33.8518 18.8409C33.8717 18.8219 33.8917 18.784 33.9316 18.765C33.2528 18.8409 32.5739 18.9736 31.9151 19.1442C31.8152 19.258 31.7154 19.3717 31.6156 19.4665C31.376 19.7509 31.0365 19.694 30.8169 19.4854C25.2264 21.6656 24.9868 28.0924 27.4626 31.3532C29.1797 33.5902 31.6555 34.2727 34.0115 34.3107C38.9432 34.3107 42.2775 32.0357 43.2559 28.3199C44.2342 24.6231 42.4972 20.8883 39.043 19.4475Z" fill="black"/>
<path d="M199.911 26.7465C201.548 29.2111 203.126 31.5998 204.803 34.1401C203.405 34.1401 202.167 34.1781 200.929 34.1212C200.71 34.1022 200.47 33.761 200.33 33.5145C199.112 31.505 197.894 29.4765 196.677 27.4669C196.637 27.41 196.557 27.3721 196.337 27.1825C196.337 29.5713 196.337 31.8083 196.337 34.0833C195.159 34.0833 194.101 34.0833 192.983 34.0833C192.983 29.1921 192.983 24.282 192.983 19.3339C193.063 19.296 193.162 19.2202 193.262 19.2202C195.479 19.2391 197.715 19.2012 199.931 19.296C201.908 19.3908 203.146 20.4903 203.425 22.1587C203.705 23.9407 202.726 25.609 201.009 26.2915C200.69 26.4432 200.37 26.5569 199.911 26.7465ZM196.337 23.2961C196.317 24.0734 196.277 24.8697 196.357 25.6469C196.377 25.8744 196.677 26.2157 196.896 26.2536C197.894 26.4242 199.092 25.8365 199.532 24.9644C200.091 23.8649 200.151 22.6705 199.652 21.5899C199.432 21.116 198.733 20.7747 198.194 20.5093C197.835 20.3387 197.355 20.4335 196.936 20.3766C196.457 20.3197 196.337 20.5283 196.357 20.9453C196.357 21.7226 196.337 22.4999 196.337 23.2961Z" fill="black"/>
<path d="M120.924 19.3528C123.52 19.3528 126.056 19.277 128.591 19.3907C129.929 19.4476 131.127 20.6799 131.327 21.8553C131.626 23.5046 131.187 24.9265 129.65 25.8934C129.13 26.2156 128.551 26.4242 127.853 26.7465C129.45 29.1541 131.047 31.5429 132.724 34.0832C131.327 34.0832 130.069 34.1211 128.831 34.0453C128.631 34.0264 128.392 33.6662 128.252 33.4197C127.014 31.3533 125.776 29.2868 124.358 27.2583C124.358 29.4954 124.358 31.7324 124.358 34.0264C123.161 34.0264 122.102 34.0264 120.944 34.0264C120.924 29.1541 120.924 24.244 120.924 19.3528ZM124.299 20.2439C124.299 22.0828 124.339 23.7511 124.279 25.4194C124.259 26.1588 124.578 26.2915 125.237 26.2346C126.435 26.1209 127.353 25.59 127.653 24.4905C127.992 23.2771 128.172 22.0259 127.194 20.9453C126.994 20.7368 126.695 20.5661 126.395 20.5093C125.776 20.3766 125.137 20.3386 124.299 20.2439Z" fill="black"/>
<path d="M213.169 25.8176C214.147 24.718 215.145 23.6185 216.124 22.5189C216.862 21.6658 217.621 20.8127 218.32 19.9406C218.699 19.4667 219.099 19.2202 219.758 19.315C220.217 19.3908 220.696 19.3339 221.375 19.3339C220.476 20.2439 219.678 21.0402 218.899 21.8364C217.901 22.8601 216.902 23.9218 215.884 24.9266C215.465 25.3247 215.525 25.6091 215.844 26.0261C217.621 28.4338 219.378 30.8794 221.135 33.306C221.295 33.5146 221.415 33.761 221.654 34.1402C220.416 34.1402 219.358 34.1781 218.3 34.1212C218.1 34.1023 217.861 33.8179 217.701 33.6094C216.283 31.7515 214.886 29.8746 213.488 27.9978C213.388 27.8461 213.249 27.7324 212.969 27.4101C212.969 29.7609 212.969 31.9031 212.969 34.1023C211.791 34.1023 210.713 34.1023 209.575 34.1023C209.575 29.2111 209.575 24.301 209.575 19.3529C210.673 19.3529 211.751 19.3529 212.949 19.3529C212.949 21.4952 212.949 23.6185 212.949 25.7607C213.029 25.7607 213.089 25.7986 213.169 25.8176Z" fill="black"/>
<path d="M163.952 27.7135C163.952 29.8178 163.952 31.9032 163.952 34.0455C162.794 34.0455 161.716 34.0455 160.578 34.0455C160.578 29.1543 160.578 24.2442 160.578 19.3151C160.738 19.2772 160.877 19.2203 160.997 19.2203C162.954 19.2203 164.93 19.2013 166.887 19.2203C167.426 19.2203 167.985 19.2961 168.484 19.4478C170.341 19.9976 171.2 21.2109 171.14 23.0498C171.06 25.1352 169.862 26.6898 167.885 27.1068C166.648 27.3533 165.37 27.486 163.952 27.7135ZM163.992 26.3864C164.611 26.2916 165.17 26.3106 165.649 26.14C167.346 25.5712 168.045 23.7702 167.366 21.8744C166.947 20.6611 165.649 19.9786 164.371 20.3388C164.212 20.3767 164.012 20.68 164.012 20.8507C163.992 22.6138 163.992 24.4148 163.992 26.3864Z" fill="black"/>
<path d="M103.594 34.0077C102.875 34.0077 102.236 34.0077 101.477 34.0077C101.976 32.8702 102.436 31.7706 102.895 30.709C104.492 27.069 106.089 23.4291 107.687 19.7891C107.846 19.41 107.906 18.955 108.585 19.0119C109.224 19.0687 109.783 18.936 110.123 19.7512C111.98 24.3391 113.916 28.908 115.833 33.4769C115.913 33.6475 115.933 33.8371 116.013 34.1025C114.815 34.1025 113.697 34.1214 112.559 34.0835C112.359 34.0646 112.099 33.7423 111.999 33.5148C111.56 32.3773 111.201 31.2019 110.722 30.0644C110.642 29.8369 110.242 29.6094 110.003 29.5905C108.605 29.5525 107.208 29.5905 105.81 29.5715C105.331 29.5715 105.091 29.7421 104.951 30.1592C104.532 31.4294 104.053 32.6996 103.594 34.0077ZM108.146 23.4291C108.066 23.4291 107.986 23.4291 107.906 23.4291C107.247 24.9837 106.569 26.5382 105.87 28.1876C107.307 28.1876 108.605 28.1876 110.043 28.1876C109.384 26.5193 108.765 24.9647 108.146 23.4291Z" fill="black"/>
<path d="M146.142 19.2391C146.142 19.8647 146.142 20.3766 146.142 20.9832C145.044 20.9074 143.986 20.8126 142.907 20.7557C140.931 20.661 140.931 20.661 140.931 22.4999C140.931 23.4478 140.931 24.3957 140.931 25.4005C142.628 25.4005 144.265 25.4005 145.962 25.4005C145.962 25.8744 145.962 26.3863 145.962 26.8602C144.724 26.8602 143.446 26.8602 142.189 26.8602C140.911 26.8602 140.911 26.8413 140.911 28.0167C140.911 29.2869 140.911 30.5571 140.891 31.8273C140.871 32.3391 141.07 32.4908 141.59 32.4529C142.788 32.3581 143.986 32.3012 145.164 32.2443C145.463 32.2254 145.763 32.2064 146.102 32.1875C146.102 32.7941 146.102 33.3249 146.102 33.9316C143.267 33.9316 140.432 33.9316 137.497 33.9316C137.477 33.6851 137.457 33.4197 137.457 33.1733C137.457 28.794 137.477 24.4147 137.477 20.0164C137.477 19.3908 137.656 19.1822 138.335 19.2012C140.671 19.2391 143.007 19.2201 145.343 19.2201C145.603 19.2012 145.862 19.2201 146.142 19.2391Z" fill="black"/>
<path d="M12.0884 33.2491C12.328 32.3391 12.5476 31.467 12.7672 30.595C12.8471 30.595 12.927 30.576 12.9869 30.576C13.1666 30.8793 13.3463 31.2016 13.526 31.5049C14.3246 32.813 15.9818 33.3818 17.4393 32.851C18.258 32.5476 18.817 32.0168 18.9568 31.1447C19.1165 30.1968 18.7771 29.4006 17.9784 28.8698C17.2397 28.3769 16.3811 28.0356 15.5825 27.6375C15.1233 27.3531 14.6041 27.1256 14.1449 26.8033C12.4278 25.6469 11.8488 24.0165 12.3679 21.9501C12.7672 20.3766 14.3046 19.1443 16.1415 18.822C17.619 18.5755 19.0167 18.7272 20.3943 19.296C20.9534 19.5234 21.193 19.8268 20.8935 20.4145C20.6739 20.8695 20.5341 21.3434 20.2945 22.007C20.0549 21.6657 19.8952 21.4761 19.7754 21.2865C18.9967 20.0543 17.4393 19.5993 16.0617 20.168C14.9635 20.642 14.4843 22.1397 15.243 23.0686C15.6424 23.5615 16.2414 23.9407 16.8004 24.2819C17.6789 24.7938 18.6373 25.154 19.4959 25.6848C22.8103 27.7323 22.5906 31.8272 19.0766 33.5714C17.02 34.5951 13.8254 34.4624 12.0884 33.2491Z" fill="black"/>
<path d="M57.2323 25.3436C57.2323 25.8555 57.2323 26.3674 57.2323 26.8224C56.0143 26.8224 54.8363 26.8034 53.6583 26.8224C52.0211 26.8413 52.1409 26.5759 52.1409 28.2442C52.1409 29.8936 52.1409 31.5429 52.1409 33.1923C52.1409 33.4577 52.1009 33.7231 52.1009 33.9885C50.9828 33.9885 49.9446 33.9885 48.8265 33.9885C48.8265 29.0594 48.8265 24.1303 48.8265 19.2012C51.6817 19.2012 54.4969 19.2012 57.3521 19.2012C57.3521 19.7889 57.3521 20.3008 57.3521 20.9454C56.2739 20.8695 55.2157 20.7748 54.1575 20.7179C51.6817 20.5852 52.2407 20.4335 52.1808 22.4241C52.1608 23.391 52.1808 24.3578 52.1808 25.3436C53.8979 25.3436 55.5351 25.3436 57.2323 25.3436Z" fill="black"/>
<path d="M73.3247 19.2202C73.3247 19.8079 73.3247 20.3198 73.3247 20.9264C72.0069 20.8316 70.749 20.7558 69.3114 20.642C69.3114 25.1541 69.3114 29.5713 69.3114 34.0075C68.1135 34.0075 67.0552 34.0075 65.8772 34.0075C65.8772 29.5902 65.8772 25.1541 65.8772 20.5852C64.3598 20.6989 62.9821 20.7937 61.5645 20.9075C61.5645 20.3008 61.5645 19.77 61.5645 19.2012C65.4979 19.2202 69.3913 19.2202 73.3247 19.2202Z" fill="black"/>
<path d="M100.319 16.8315L93.5908 33.1923L99.1015 26.2158L102.775 16.9074L100.319 16.8315Z" fill="black"/>
<path d="M181.582 18.8223C181.582 18.8223 180.204 18.9171 180.004 18.8791L173.276 33.9129C173.276 33.9129 174.713 33.5337 175.272 33.9129L177.01 29.4009H182.48L184.217 33.9508C184.217 33.9508 187.851 33.6664 188.151 33.9508L181.582 18.8223ZM177.589 27.979L179.685 23.2774L180.044 23.0878L182.041 27.9411L177.589 27.979Z" fill="black"/>
<path d="M222.912 36.9271H101.617V47.9228H222.912V36.9271Z" fill="#0D6534"/>
<path d="M109.104 39.695V45.8184H107.307V39.695H105.271V38.33H111.141V39.695H109.104Z" fill="white"/>
<path d="M120.265 45.8374V38.3489H122.042V41.3443H125.656V38.3489H127.433V45.8374H125.656V42.7093H122.042V45.8374H120.265Z" fill="white"/>
<path d="M136.298 45.8374L139.473 38.3489H141.509L144.724 45.8374H142.687L142.009 44.2449H138.774L138.195 45.8374H136.298ZM141.609 42.9747L140.671 40.5481C140.651 40.4722 140.611 40.3585 140.571 40.1879C140.531 40.0172 140.491 39.8087 140.431 39.5433C140.391 39.7898 140.331 39.9983 140.292 40.1879C140.252 40.3775 140.212 40.5102 140.192 40.567L139.293 42.9557H141.609V42.9747Z" fill="white"/>
<path d="M153.609 45.8374V38.3489H155.386V45.8374H153.609Z" fill="white"/>
<path d="M165.269 45.8374V38.3489H167.046V44.4724H169.902V45.8374H165.269Z" fill="white"/>
<path d="M178.008 45.8374L181.183 38.3489H183.219L186.434 45.8374H184.397L183.718 44.2449H180.484L179.905 45.8374H178.008ZM183.319 42.9747L182.381 40.5481C182.361 40.4722 182.321 40.3585 182.281 40.1879C182.241 40.0172 182.201 39.8087 182.141 39.5433C182.101 39.7898 182.041 39.9983 182.001 40.1879C181.961 40.3775 181.921 40.5102 181.901 40.567L181.003 42.9557H183.319V42.9747Z" fill="white"/>
<path d="M195.279 45.8374V38.3489H197.136L200.829 42.7093C200.929 42.823 201.049 43.0126 201.189 43.2212C201.308 43.4487 201.448 43.7141 201.588 44.0174C201.548 43.7899 201.508 43.5814 201.488 43.3539C201.468 43.1453 201.468 42.861 201.468 42.5387V38.3489H203.165V45.8374H201.408L197.615 41.4012C197.515 41.2874 197.395 41.0979 197.275 40.8893C197.156 40.6618 197.016 40.3964 196.876 40.0931C196.916 40.3016 196.956 40.5291 196.976 40.7377C196.996 40.9651 196.996 41.2306 196.996 41.5718V45.8374H195.279Z" fill="white"/>
<path d="M212.989 45.8374V38.3489H215.265C216.164 38.3489 216.863 38.4058 217.382 38.5196C217.901 38.6333 218.36 38.8229 218.739 39.0883C219.239 39.4295 219.638 39.8466 219.897 40.3585C220.157 40.8704 220.297 41.4581 220.297 42.1026C220.297 42.7662 220.157 43.3539 219.897 43.8657C219.638 44.3776 219.239 44.7947 218.719 45.1359C218.34 45.3824 217.921 45.553 217.442 45.6667C216.982 45.7805 216.284 45.8184 215.405 45.8184H214.766H212.989V45.8374ZM214.786 44.4724H215.784C216.723 44.4724 217.402 44.2828 217.821 43.9036C218.24 43.5245 218.46 42.9178 218.46 42.0837C218.46 41.2495 218.24 40.6618 217.821 40.2637C217.402 39.8845 216.703 39.695 215.784 39.695H214.786V44.4724Z" fill="white"/>
<path d="M76.2998 16.9074L81.531 33.3061L88.0799 20.9076L92.0931 33.4388L94.1297 29.7041L89.5774 14.386L86.7022 16.9074L87.8004 19.808L83.1682 28.2064L79.0951 14.386H78.2365L76.2998 16.9074Z" fill="black"/>
<path d="M76.24 16.8126L78.7758 14.3101L72.4864 14.2911L69.9307 16.8126L76.2999 16.8315L76.3199 16.8126H76.24Z" fill="#106433"/>
<path d="M71.9671 14.2911H70.1102L67.5745 16.8126L69.4314 16.8315L71.9671 14.2911Z" fill="#106433"/>
<path d="M69.1922 14.2911H67.3553L64.7996 16.8126L66.6365 16.8315L69.1922 14.2911Z" fill="#106433"/>
<path d="M66.4365 14.2911H64.8792L62.3035 16.8126L63.8809 16.8315L66.4365 14.2911Z" fill="#106433"/>
<path d="M62.483 14.2911L59.9073 16.8126L60.9656 16.8315L63.5412 14.2911H62.483Z" fill="#106433"/>
<path d="M59.608 14.2911L57.0523 16.8126L58.1105 16.8315L60.6862 14.2911H59.608Z" fill="#106433"/>
<path d="M57.192 14.2911L54.6364 16.8126L55.6746 16.8315L58.2503 14.2911H57.192Z" fill="#106433"/>
<path d="M54.6168 14.2911L52.0411 16.8126L52.6601 16.8315L55.2358 14.2911H54.6168Z" fill="#106433"/>
<path d="M51.7814 14.2911L49.2057 16.8126L49.8447 16.8315L52.4003 14.2911H51.7814Z" fill="#106433"/>
<path d="M48.9459 14.2911L46.3902 16.8126L47.0092 16.8315L49.5648 14.2911H48.9459Z" fill="#106433"/>
<path d="M46.1112 14.2911L43.5555 16.8126L44.1744 16.8315L46.7501 14.2911H46.1112Z" fill="#106433"/>
<path d="M43.2758 14.2911L40.7201 16.8126L41.339 16.8315L43.9147 14.2911H43.2758Z" fill="#106433"/>
<path d="M40.4405 14.2911L37.8848 16.8126L38.5038 16.8315L41.0794 14.2911H40.4405Z" fill="#106433"/>
<path d="M37.6052 14.2911L35.0495 16.8126L35.6685 16.8315L38.2441 14.2911H37.6052Z" fill="#106433"/>
<path d="M34.7898 14.2911L32.2141 16.8126L32.8331 16.8315L35.4087 14.2911H34.7898Z" fill="#106433"/>
<path d="M31.955 14.2911L29.3794 16.8126L29.9983 16.8315L32.574 14.2911H31.955Z" fill="#106433"/>
<path d="M29.1197 14.2911L26.5441 16.8126L27.163 16.8315L29.7387 14.2911H29.1197Z" fill="#106433"/>
<path d="M26.2844 14.2911L23.7087 16.8126L24.3477 16.8315L26.9033 14.2911H26.2844Z" fill="#106433"/>
<path d="M23.4494 14.2911L20.8937 16.8126L21.5126 16.8315L24.0683 14.2911H23.4494Z" fill="#106433"/>
<path d="M20.614 14.2911L18.0583 16.8126L18.6773 16.8315L21.253 14.2911H20.614Z" fill="#106433"/>
<path d="M17.7788 14.2911L15.2231 16.8126L15.842 16.8315L18.4177 14.2911H17.7788Z" fill="#106433"/>
<path d="M14.9437 14.2911L12.388 16.8126L13.007 16.8315L15.5826 14.2911H14.9437Z" fill="#106433"/>
<path d="M102.915 14.6893L100.319 17.0212L106.888 17.0591L109.384 14.7462L102.915 14.6893Z" fill="#106433"/>
<path d="M110.841 14.7271L108.445 17.059H110.362L112.838 14.7271H110.841Z" fill="#106433"/>
<path d="M114.256 14.7271L111.86 17.059H113.777L116.252 14.7271H114.256Z" fill="#106433"/>
<path d="M117.67 14.7271L115.274 17.059H117.191L119.667 14.7271H117.67Z" fill="#106433"/>
<path d="M121.084 14.7271L118.688 17.059H120.605L123.081 14.7271H121.084Z" fill="#106433"/>
<path d="M124.498 14.7271L122.102 17.059H123.999L126.475 14.7271H124.498Z" fill="#106433"/>
<path d="M127.913 14.7271L125.497 17.059H127.414L129.889 14.7271H127.913Z" fill="#106433"/>
<path d="M131.327 14.7271L128.911 17.059H130.828L133.304 14.7271H131.327Z" fill="#106433"/>
<path d="M134.721 14.7271L132.305 17.059H134.222L136.698 14.7271H134.721Z" fill="#106433"/>
<path d="M139.932 14.7271H138.355L135.939 17.059L137.556 17.04L139.932 14.7271Z" fill="#106433"/>
<path d="M143.267 14.7271H141.67L139.254 17.059L140.871 17.04L143.267 14.7271Z" fill="#106433"/>
<path d="M146.581 14.7271H144.984L142.588 17.059L144.185 17.04L146.581 14.7271Z" fill="#106433"/>
<path d="M149.896 14.7271H148.298L145.902 17.059L147.52 17.04L149.896 14.7271Z" fill="#106433"/>
<path d="M153.21 14.7271H151.613L149.217 17.059L150.834 17.04L153.21 14.7271Z" fill="#106433"/>
<path d="M156.524 14.7271H154.947L152.531 17.059L154.148 17.04L156.524 14.7271Z" fill="#106433"/>
<path d="M160.138 14.7271H158.541L156.125 17.059L157.742 17.04L160.138 14.7271Z" fill="#106433"/>
<path d="M163.832 14.7271H162.235L159.839 17.059L161.436 17.04L163.832 14.7271Z" fill="#106433"/>
<path d="M167.227 14.7271H165.629L163.233 17.059L164.851 17.04L167.227 14.7271Z" fill="#106433"/>
<path d="M170.341 14.7271H169.263L166.847 17.059L167.945 17.04L170.341 14.7271Z" fill="#106433"/>
<path d="M173.875 14.7271H172.797L170.401 17.059L171.499 17.04L173.875 14.7271Z" fill="#106433"/>
<path d="M177.429 14.7271H176.331L173.935 17.059L175.033 17.04L177.429 14.7271Z" fill="#106433"/>
<path d="M180.963 14.7271H179.885L177.469 17.059L178.567 17.04L180.963 14.7271Z" fill="#106433"/>
<path d="M184.497 14.7271H183.419L181.003 17.059L182.121 17.04L184.497 14.7271Z" fill="#106433"/>
<path d="M187.891 14.7271H186.813L184.397 17.059L185.495 17.04L187.891 14.7271Z" fill="#106433"/>
<path d="M191.285 14.7271H190.207L187.791 17.059L188.889 17.04L191.285 14.7271Z" fill="#106433"/>
<path d="M194.68 14.7271H193.602L191.186 17.059L192.284 17.04L194.68 14.7271Z" fill="#106433"/>
<path d="M198.074 14.7271H196.996L194.58 17.059L195.678 17.04L198.074 14.7271Z" fill="#106433"/>
<path d="M201.468 14.7271H200.39L197.974 17.059L199.072 17.04L201.468 14.7271Z" fill="#106433"/>
<path d="M204.863 14.7271H203.785L201.369 17.059L202.467 17.04L204.863 14.7271Z" fill="#106433"/>
<path d="M208.257 14.7271H207.179L204.763 17.059L205.861 17.04L208.257 14.7271Z" fill="#106433"/>
<path d="M211.651 14.7271H210.573L208.157 17.059L209.255 17.04L211.651 14.7271Z" fill="#106433"/>
<path d="M214.905 14.7271H214.087L211.691 17.059L212.509 17.04L214.905 14.7271Z" fill="#106433"/>
<path d="M218.3 14.7271H217.481L215.085 17.059L215.904 17.04L218.3 14.7271Z" fill="#106433"/>
<path d="M221.694 14.7271H220.876L218.48 17.059L219.298 17.04L221.694 14.7271Z" fill="#106433"/>
<path d="M225.088 14.7271H224.27L221.874 17.059L222.692 17.04L225.088 14.7271Z" fill="#106433"/>
</svg>
