<svg width="427" height="60" viewBox="0 0 427 60" fill="none" xmlns="http://www.w3.org/2000/svg">
<path d="M11.4289 17.1431L0.743896 23.9815L3.522 10.9458L16.9851 2.39783H28.5249L18.481 49.4118H4.5905L11.4289 17.1431Z" fill="#106634"/>
<path d="M36.218 48.1297C33.6536 46.6338 31.5166 44.7105 30.0207 41.9324C28.5248 39.368 27.8837 36.1624 27.8837 32.3159C27.8837 29.9652 28.0974 27.6145 28.5248 25.4775C30.2344 17.7843 33.4399 11.587 38.1413 7.31297C42.8427 3.03898 48.8263 0.901978 56.0921 0.901978C61.6483 0.901978 65.9223 2.39787 69.1278 5.60337C72.3333 8.80887 74.0429 13.0829 74.0429 18.6391C74.0429 20.9898 73.8292 23.3405 73.4018 25.4775C71.6922 33.1707 68.4867 39.368 63.7853 43.642C59.0839 47.9159 53.1003 50.0529 45.8345 50.0529C41.9879 50.2666 38.9961 49.4119 36.218 48.1297ZM55.0236 34.2392C56.9469 32.3159 58.2291 29.5378 58.8702 25.9049C59.2976 23.9816 59.5113 22.272 59.5113 20.7761C59.5113 18.6391 59.0839 17.1432 58.0154 15.861C56.9469 14.7925 55.451 14.1514 53.314 14.1514C50.5359 14.1514 48.3989 15.2199 46.4756 17.1432C44.5523 19.2802 43.2701 22.0583 42.629 25.6912C42.2016 27.6145 41.9879 29.324 41.9879 30.6062C41.9879 32.7432 42.4153 34.2392 43.4838 35.3077C44.5523 36.3762 46.0482 37.0172 48.1852 37.0172C50.9633 37.2309 53.314 36.1625 55.0236 34.2392Z" fill="#106634"/>
<path d="M84.5142 48.1297C81.9498 46.6338 79.8128 44.7105 78.3169 41.9324C76.821 39.368 76.1799 36.1624 76.1799 32.3159C76.1799 29.9652 76.3936 27.6145 76.821 25.4775C78.5306 17.7843 81.7361 11.587 86.4375 7.31297C91.1389 3.03898 97.1225 0.901978 104.388 0.901978C109.944 0.901978 114.218 2.39787 117.424 5.60337C120.629 8.80887 122.339 13.0829 122.339 18.6391C122.339 20.9898 122.125 23.3405 121.698 25.4775C119.988 33.1707 116.783 39.368 112.081 43.642C107.38 47.9159 101.396 50.0529 94.1307 50.0529C90.2841 50.2666 87.2923 49.4119 84.5142 48.1297ZM103.32 34.2392C105.243 32.3159 106.525 29.5378 107.166 25.9049C107.594 23.9816 107.807 22.272 107.807 20.7761C107.807 18.6391 107.38 17.1432 106.312 15.861C105.243 14.5788 103.747 14.1514 101.61 14.1514C98.8321 14.1514 96.6951 15.2199 94.7718 17.1432C92.8485 19.2802 91.5663 22.0583 90.9252 25.6912C90.4978 27.6145 90.2841 29.324 90.2841 30.6062C90.2841 32.7432 90.7115 34.2392 91.78 35.3077C92.8485 36.3762 94.3444 37.0172 96.4814 37.0172C99.2595 37.2309 101.61 36.1625 103.32 34.2392Z" fill="#106634"/>
<path d="M122.339 44.9242H136.23L125.972 59.4558H113.791L122.339 44.9242Z" fill="#106634"/>
<path d="M151.83 48.1297C149.265 46.6338 147.128 44.7105 145.633 41.9324C144.137 39.368 143.496 36.1624 143.496 32.3159C143.496 29.9652 143.709 27.6145 144.137 25.4775C145.846 17.7843 149.052 11.587 153.753 7.31297C158.455 3.03898 164.438 0.901978 171.704 0.901978C177.26 0.901978 181.534 2.39787 184.74 5.60337C187.945 8.80887 189.655 13.0829 189.655 18.6391C189.655 20.9898 189.441 23.3405 189.014 25.4775C187.304 33.1707 184.099 39.368 179.397 43.642C174.696 47.9159 168.712 50.0529 161.446 50.0529C157.6 50.2666 154.394 49.4119 151.83 48.1297ZM170.635 34.2392C172.559 32.3159 173.841 29.5378 174.482 25.9049C174.909 23.9816 175.123 22.272 175.123 20.7761C175.123 18.6391 174.696 17.1432 173.627 15.861C172.559 14.7925 171.063 14.1514 168.926 14.1514C166.148 14.1514 164.011 15.2199 162.087 17.1432C160.164 19.2802 158.882 22.0583 158.241 25.6912C157.813 27.6145 157.6 29.324 157.6 30.6062C157.6 32.7432 158.027 34.2392 159.096 35.3077C160.164 36.3762 161.66 37.0172 163.797 37.0172C166.575 37.2309 168.712 36.1625 170.635 34.2392Z" fill="#106634"/>
<path d="M200.126 48.1297C197.561 46.6338 195.424 44.7105 193.928 41.9324C192.432 39.368 191.791 36.1624 191.791 32.3159C191.791 29.9652 192.005 27.6145 192.432 25.4775C194.142 17.7843 197.348 11.587 202.049 7.31297C206.75 3.03898 212.734 0.901978 220 0.901978C225.556 0.901978 229.83 2.39787 233.035 5.60337C236.241 8.80887 237.951 13.0829 237.951 18.6391C237.951 20.9898 237.737 23.3405 237.309 25.4775C235.6 33.1707 232.394 39.368 227.693 43.642C222.992 47.9159 217.008 50.0529 209.742 50.0529C205.896 50.2666 202.69 49.4119 200.126 48.1297ZM218.931 34.2392C220.855 32.3159 222.137 29.5378 222.778 25.9049C223.205 23.9816 223.419 22.272 223.419 20.7761C223.419 18.6391 222.992 17.1432 221.923 15.861C220.855 14.7925 219.359 14.1514 217.222 14.1514C214.444 14.1514 212.307 15.2199 210.383 17.1432C208.46 19.2802 207.178 22.0583 206.537 25.6912C206.109 27.6145 205.896 29.324 205.896 30.6062C205.896 32.7432 206.323 34.2392 207.391 35.3077C208.46 36.3762 209.956 37.0172 212.093 37.0172C214.871 37.2309 217.008 36.1625 218.931 34.2392Z" fill="#106634"/>
<path d="M248.422 48.1297C245.644 46.6338 243.721 44.7105 242.225 41.9324C240.729 39.368 240.088 36.1624 240.088 32.3159C240.088 29.9652 240.301 27.6145 240.729 25.4775C242.438 17.7843 245.644 11.587 250.345 7.31297C255.047 3.03898 261.03 0.901978 268.296 0.901978C273.852 0.901978 278.126 2.39787 281.332 5.60337C284.537 8.80887 286.247 13.0829 286.247 18.6391C286.247 20.9898 286.033 23.3405 285.606 25.4775C283.896 33.1707 280.691 39.368 275.989 43.642C271.288 47.9159 265.304 50.0529 258.038 50.0529C254.192 50.2666 250.986 49.4119 248.422 48.1297ZM267.228 34.2392C269.151 32.3159 270.433 29.5378 271.074 25.9049C271.502 23.9816 271.715 22.272 271.715 20.7761C271.715 18.6391 271.288 17.1432 270.219 15.861C269.151 14.7925 267.655 14.1514 265.518 14.1514C262.74 14.1514 260.603 15.2199 258.68 17.1432C256.756 19.2802 255.474 22.0583 254.833 25.6912C254.406 27.6145 254.192 29.324 254.192 30.6062C254.192 32.7432 254.619 34.2392 255.688 35.3077C256.756 36.3762 258.252 37.0172 260.389 37.0172C263.167 37.2309 265.518 36.1625 267.228 34.2392Z" fill="#106634"/>
<path d="M318.302 48.557C315.737 47.4885 314.028 45.779 312.746 43.8557C311.463 41.9324 310.822 39.5817 310.822 37.0173C310.822 35.9488 311.036 34.6666 311.25 33.3844L315.524 13.0829H328.987L324.713 32.957C324.499 34.2392 324.285 35.094 324.285 35.9488C324.285 37.4447 324.713 38.2995 325.568 38.9406C326.422 39.5817 327.705 39.7954 329.414 39.7954C331.765 39.7954 333.474 39.368 334.543 38.2995C335.611 37.231 336.466 35.5214 337.107 32.957L341.381 13.0829H354.844L350.357 34.4529C349.502 38.0858 348.433 40.8639 346.724 43.2146C345.014 45.5653 342.664 47.2749 339.458 48.3434C336.253 49.6256 332.192 50.053 327.277 50.053C323.858 50.2667 320.866 49.6255 318.302 48.557Z" fill="#106634"/>
<path d="M367.025 28.0418C367.239 27.187 367.239 26.5459 367.239 25.6911C367.239 24.6226 366.812 23.7678 366.171 23.3404C365.53 22.913 364.247 22.6993 362.538 22.6993C360.401 22.6993 358.264 23.1267 356.127 24.1952L358.264 14.1513C359.332 13.5102 361.042 13.0828 362.965 12.6554C364.888 12.228 366.812 12.0143 368.521 12.0143C372.795 12.0143 376.001 12.8691 378.138 14.7924C380.275 16.7157 381.343 19.2801 381.343 22.6993C381.343 24.1952 381.13 25.4774 380.916 26.9733L376.215 48.9844H362.751L367.025 28.0418Z" fill="#106634"/>
<path d="M390.105 13.0828H402.927L402.286 16.502C403.996 15.0061 405.919 13.9376 408.27 13.2965C410.62 12.4417 412.757 12.0143 414.894 12.0143C418.527 12.0143 421.519 12.8691 423.442 14.7924C425.366 16.7157 426.434 19.0664 426.434 22.0582C426.434 22.913 426.22 23.9815 426.007 25.2637L421.092 48.9844H407.629L412.33 27.187C412.544 26.5459 412.544 25.9048 412.544 25.4774C412.544 24.4089 412.33 23.7678 411.689 23.3404C411.048 22.913 410.193 22.6993 408.697 22.6993C407.201 22.6993 405.919 22.913 404.637 23.5541C403.355 24.1952 402.286 25.05 401.431 26.3322L396.516 49.1981H383.053L390.105 13.0828Z" fill="#106634"/>
</svg>
