<svg width="475" height="22" viewBox="0 0 475 22" fill="none" xmlns="http://www.w3.org/2000/svg">
<path d="M0.840332 0.864746H10.9933C12.9743 0.864746 14.4601 1.36001 15.5745 2.35054C16.6888 3.34107 17.1841 4.70305 17.1841 6.43647C17.1841 7.30319 16.9364 8.04609 16.565 8.78898C16.1935 9.53188 15.6983 10.0271 14.9554 10.5224C15.9459 10.8939 16.6888 11.3891 17.0603 12.132C17.4317 12.8749 17.8031 13.7416 17.8031 14.856C17.8031 16.0941 17.5555 17.0847 16.9364 18.0752C16.3174 18.9419 15.5745 19.6848 14.5839 20.1801C13.5934 20.6753 12.6029 20.923 11.3647 20.923H0.840332V0.864746ZM9.87891 8.78898C11.3647 8.78898 12.1076 8.04609 12.1076 6.68411C12.1076 5.94121 11.86 5.32213 11.4885 5.0745C11.1171 4.82687 10.498 4.57923 9.7551 4.57923H5.91679V8.66517H9.87891V8.78898ZM10.1265 17.0847C10.9933 17.0847 11.6123 16.9609 11.9838 16.5894C12.3552 16.218 12.6029 15.7227 12.6029 14.856C12.6029 13.9893 12.3552 13.494 11.9838 13.1226C11.6123 12.7511 10.8694 12.6273 10.0027 12.6273H5.91679V17.2085H10.1265V17.0847Z" fill="#1AA94A"/>
<path d="M25.8513 13.2464L18.5461 0.864746H23.994L28.4514 8.54135L33.1564 0.864746H38.4805L30.9277 13.2464V20.7992H25.8513V13.2464Z" fill="#1AA94A"/>
<path d="M55.5672 20.9228C54.3291 20.6752 53.3385 20.3038 52.4718 19.9323V15.3511C53.4624 15.8464 54.5767 16.3416 55.6911 16.5893C56.8054 16.8369 57.9197 16.9607 58.9103 16.9607C59.9008 16.9607 60.5199 16.8369 61.0152 16.5893C61.5104 16.3416 61.758 15.8464 61.758 15.3511C61.758 14.9797 61.6342 14.6082 61.3866 14.3606C61.139 14.1129 60.7675 13.7415 60.2722 13.4939C59.777 13.2462 59.0341 12.8748 57.9197 12.5033C56.0625 11.7604 54.7005 10.8937 53.9576 9.90319C53.0909 8.91266 52.7195 7.79832 52.7195 6.43634C52.7195 5.32199 53.0909 4.33146 53.71 3.34094C54.3291 2.47422 55.1958 1.73132 56.4339 1.23606C57.5483 0.740795 58.9103 0.493164 60.3961 0.493164C61.6342 0.493164 62.7486 0.616981 63.6153 0.740797C64.482 0.864614 65.4725 1.23606 66.3392 1.60751V6.06489C64.6058 5.19818 62.9962 4.70292 61.2628 4.70292C60.3961 4.70292 59.6532 4.82673 59.0341 5.19818C58.5388 5.44581 58.1674 5.94107 58.1674 6.43634C58.1674 6.9316 58.415 7.42687 59.0341 7.79832C59.6532 8.16977 60.6437 8.66503 62.1295 9.1603C63.4915 9.65556 64.482 10.2746 65.2249 10.7699C65.9678 11.2652 66.4631 11.8843 66.8345 12.6271C67.206 13.37 67.3298 14.2368 67.3298 15.3511C67.3298 17.2083 66.7107 18.6941 65.3487 19.6847C63.9867 20.6752 62.0057 21.2943 59.4055 21.2943C58.0436 21.2943 56.8054 21.1705 55.5672 20.9228Z" fill="#1AA94A"/>
<path d="M75.3779 19.9324C73.7683 19.0657 72.5301 17.8275 71.5396 16.2179C70.5491 14.6083 70.1776 12.8749 70.1776 10.77C70.1776 8.78892 70.6729 6.93168 71.5396 5.32207C72.5301 3.71246 73.7683 2.4743 75.3779 1.60759C76.9875 0.740873 78.8448 0.245605 80.8258 0.245605C82.8069 0.245605 84.6641 0.740873 86.2737 1.60759C87.8833 2.4743 89.1215 3.71246 90.112 5.32207C91.1026 6.93168 91.474 8.66511 91.474 10.77C91.474 12.751 90.9787 14.6083 90.112 16.2179C89.1215 17.8275 87.8833 19.0657 86.2737 19.9324C84.6641 20.7991 82.8069 21.2944 80.8258 21.2944C78.8448 21.2944 76.9875 20.7991 75.3779 19.9324ZM83.5498 15.8464C84.4165 15.3512 85.0356 14.7321 85.5308 13.8654C86.0261 12.9987 86.2737 12.0081 86.2737 10.8938C86.2737 9.77946 86.0261 8.78892 85.5308 7.92221C85.0356 7.0555 84.4165 6.43642 83.5498 5.94115C82.6831 5.44589 81.8163 5.19825 80.702 5.19825C79.7115 5.19825 78.7209 5.44589 77.8542 5.94115C76.9875 6.43642 76.3684 7.0555 75.8732 7.92221C75.3779 8.78892 75.1303 9.77946 75.1303 10.8938C75.1303 12.0081 75.3779 12.9987 75.8732 13.8654C76.3684 14.7321 76.9875 15.3512 77.8542 15.8464C78.7209 16.3417 79.5876 16.5893 80.702 16.5893C81.8163 16.5893 82.8069 16.3417 83.5498 15.8464Z" fill="#1AA94A"/>
<path d="M94.9408 0.864746H109.056V5.0745H100.017V8.78898H106.703V12.7511H100.017V20.6753H94.9408V0.864746Z" fill="#1AA94A"/>
<path d="M116.485 5.19827H110.913V0.988525H127.257V5.19827H121.561V20.9229H116.485V5.19827Z" fill="#1AA94A"/>
<path d="M129.238 0.864746H134.438L137.781 12.6273L141 0.864746H144.591L147.562 12.7511L150.905 0.864746H156.106L150.658 20.7992H145.953L142.733 9.16043L139.514 20.7992H134.809L129.238 0.864746Z" fill="#1AA94A"/>
<path d="M163.906 0.864746H168.859L176.783 20.7992H171.583L169.973 16.7132H162.668L161.058 20.7992H155.982L163.906 0.864746ZM168.859 12.8749L166.382 6.18884L163.906 12.8749H168.859Z" fill="#1AA94A"/>
<path d="M180.25 0.864746H189.165C191.517 0.864746 193.374 1.48383 194.613 2.59817C195.975 3.83634 196.594 5.44595 196.594 7.67464C196.594 9.16043 196.222 10.3986 195.603 11.5129C194.984 12.5035 193.994 13.3702 192.879 13.8654L196.47 20.7992H191.27L188.05 14.6083H185.203V20.7992H180.126V0.864746H180.25ZM188.298 10.3986C189.289 10.3986 190.031 10.151 190.65 9.77951C191.146 9.40806 191.517 8.66517 191.517 7.79846C191.517 6.80793 191.27 6.18884 190.65 5.81739C190.031 5.44595 189.289 5.32213 188.298 5.32213H185.326V10.5224H188.298V10.3986Z" fill="#1AA94A"/>
<path d="M200.061 0.864746H214.176V5.0745H205.137V8.78898H211.823V12.7511H205.137V16.4656H214.176V20.6753H200.061V0.864746Z" fill="#1AA94A"/>
<path d="M228.786 0.864746H237.577C239.93 0.864746 241.787 1.48383 243.149 2.72199C244.511 3.96015 245.254 5.69358 245.254 7.79846C245.254 10.0271 244.511 11.7606 243.149 12.9987C241.787 14.2369 239.93 14.856 237.577 14.856H233.863V20.7992H228.786V0.864746ZM236.834 10.6462C237.825 10.6462 238.691 10.3986 239.187 10.0271C239.806 9.6557 240.053 8.9128 240.053 7.79846C240.053 6.68411 239.806 6.06503 239.187 5.69358C238.568 5.32213 237.825 5.0745 236.834 5.0745H233.863V10.5224H236.834V10.6462Z" fill="#1AA94A"/>
<path d="M252.93 0.864746H257.883L265.807 20.7992H260.607L258.997 16.7132H251.692L250.082 20.7992H244.882L252.93 0.864746ZM257.883 12.8749L255.406 6.18884L252.93 12.8749H257.883Z" fill="#1AA94A"/>
<path d="M269.274 0.864746H278.189C280.541 0.864746 282.398 1.48383 283.637 2.59817C284.999 3.83634 285.618 5.44595 285.618 7.67464C285.618 9.16043 285.246 10.3986 284.627 11.5129C284.008 12.5035 283.017 13.3702 281.903 13.8654L285.494 20.7992H280.293L277.074 14.6083H274.226V20.7992H269.15V0.864746H269.274ZM277.322 10.3986C278.312 10.3986 279.055 10.151 279.674 9.77951C280.17 9.40806 280.541 8.66517 280.541 7.79846C280.541 6.80793 280.293 6.18884 279.674 5.81739C279.179 5.44595 278.312 5.32213 277.322 5.32213H274.35V10.5224H277.322V10.3986Z" fill="#1AA94A"/>
<path d="M289.084 0.864746H294.161V9.16043L301.094 0.864746H307.038L298.989 10.5224L307.657 20.7992H301.713L294.284 12.0082V20.7992H289.208V0.864746H289.084Z" fill="#1AA94A"/>
<path d="M326.724 5.19827H321.153V0.988525H337.496V5.19827H331.801V20.9229H326.724V5.19827Z" fill="#1AA94A"/>
<path d="M340.344 0.864746H345.421V8.54135H353.221V0.864746H358.297V20.7992H353.221V12.7511H345.421V20.7992H340.344V0.864746Z" fill="#1AA94A"/>
<path d="M369.689 0.864746H374.642L382.566 20.7992H377.365L375.756 16.7132H368.451L366.841 20.7992H361.641L369.689 0.864746ZM374.642 12.8749L372.165 6.18884L369.689 12.8749H374.642Z" fill="#1AA94A"/>
<path d="M386.032 0.864746H391.109V20.7992H386.032V0.864746Z" fill="#1AA94A"/>
<path d="M395.071 0.864746H400.148V16.5894H408.815V20.7992H395.071V0.864746Z" fill="#1AA94A"/>
<path d="M418.596 0.864746H423.549L431.473 20.7992H426.273L424.663 16.7132H417.358L415.749 20.7992H410.548L418.596 0.864746ZM423.549 12.8749L421.073 6.18884L418.596 12.8749H423.549Z" fill="#1AA94A"/>
<path d="M434.94 0.864746H439.893L447.198 12.7511V0.864746H452.274V20.7992H447.321L440.016 8.9128V20.7992H434.94V0.864746Z" fill="#1AA94A"/>
<path d="M456.36 0.864746H463.541C465.77 0.864746 467.627 1.23619 469.237 2.10291C470.847 2.84581 472.085 4.08397 473.075 5.56976C473.942 7.05555 474.437 8.78898 474.437 10.77C474.437 14.1131 473.447 16.5894 471.59 18.3228C469.608 20.0563 467.008 20.923 463.541 20.923H456.484V0.864746H456.36ZM463.789 16.5894C465.523 16.5894 466.884 16.0941 467.751 14.9798C468.618 13.9893 469.113 12.5035 469.113 10.77C469.113 9.16043 468.618 7.79845 467.751 6.68411C466.884 5.56976 465.523 5.0745 463.913 5.0745H461.313V16.4656H463.789V16.5894Z" fill="#1AA94A"/>
</svg>
