<svg width="617" height="186" viewBox="0 0 617 186" fill="none" xmlns="http://www.w3.org/2000/svg">
<g clip-path="url(#clip0)">
<path d="M98.741 185.275C98.0424 184.996 97.4835 184.716 96.9246 184.157C96.3657 183.738 95.9465 183.179 95.6671 182.62C95.3876 182.061 95.1082 181.502 95.1082 180.944V161.103C95.1082 160.544 95.2479 159.985 95.6671 159.426C95.9465 158.867 96.3657 158.308 96.9246 157.889C97.4835 157.47 98.0424 157.051 98.741 156.771C99.4396 156.492 99.9985 156.352 100.697 156.352H134.371V164.177H105.168V177.73H134.371V185.555H100.697C100.138 185.555 99.4396 185.415 98.741 185.275Z" fill="#424242"/>
<path d="M148.763 167.53H171.258V156.492H181.318V185.694H171.258V174.656H148.763V185.694H138.702V156.492H148.763V167.53Z" fill="#424242"/>
<path d="M195.57 185.555H184.392L198.784 160.544C200.461 157.749 202.836 156.352 205.91 156.352H210.381C211.918 156.352 213.176 156.631 214.154 157.33C215.132 158.029 215.97 159.007 216.808 160.404L231.2 185.415H220.022L217.228 180.524H198.365L195.57 185.555ZM207.866 165.434L202.556 173.818H213.315L207.866 165.434Z" fill="#424242"/>
<path d="M243.496 156.492V177.87H272.419V185.694H239.025C238.326 185.694 237.767 185.554 237.069 185.275C236.37 184.996 235.811 184.716 235.252 184.157C234.693 183.738 234.274 183.179 233.995 182.62C233.715 182.061 233.436 181.502 233.436 180.943V156.492H243.496Z" fill="#424242"/>
<path d="M286.81 156.492V177.87H315.733V185.694H282.339C281.641 185.694 281.082 185.554 280.383 185.275C279.684 184.996 279.125 184.716 278.567 184.157C278.008 183.738 277.588 183.179 277.309 182.62C277.03 182.061 276.75 181.502 276.75 180.943V156.492H286.81Z" fill="#424242"/>
<path d="M323.698 185.275C322.999 184.996 322.44 184.716 321.881 184.157C321.322 183.738 320.903 183.179 320.624 182.62C320.344 182.061 320.065 181.502 320.065 180.944V161.103C320.065 160.544 320.204 159.985 320.624 159.426C320.903 158.867 321.322 158.308 321.881 157.889C322.44 157.47 322.999 157.051 323.698 156.771C324.396 156.492 324.955 156.352 325.654 156.352H359.327V164.177H330.125V167.39H359.327V174.516H330.125V177.73H359.327V185.555H325.654C325.095 185.555 324.396 185.415 323.698 185.275Z" fill="#424242"/>
<path d="M371.763 156.492C372.601 156.631 373.579 156.911 374.837 157.749C376.095 158.448 377.631 159.566 379.588 160.963C381.544 162.36 383.919 164.316 386.714 166.552C389.508 168.787 393.001 171.582 397.053 174.656V156.492H407.113V182.061C407.113 182.48 406.974 183.039 406.694 183.459C406.415 183.878 405.995 184.297 405.437 184.576C404.878 184.856 404.319 185.275 403.62 185.415C402.922 185.694 402.223 185.694 401.385 185.694H399.428C399.289 185.694 399.149 185.694 399.149 185.694C398.45 185.554 397.472 185.275 396.075 184.437C394.818 183.738 393.141 182.62 391.185 181.083C389.229 179.546 386.714 177.73 383.919 175.494C381.125 173.259 377.631 170.604 373.719 167.39V185.694H363.659V160.125C363.659 159.705 363.799 159.286 364.078 158.867C364.358 158.448 364.777 158.029 365.336 157.609C365.895 157.33 366.454 157.051 367.152 156.771C367.851 156.492 368.549 156.492 369.388 156.492H371.204C371.623 156.492 371.763 156.492 371.763 156.492Z" fill="#424242"/>
<path d="M427.932 174.656V167.53H449.171C449.869 167.53 450.428 167.67 451.127 167.949C451.825 168.229 452.384 168.648 452.943 169.067C453.502 169.486 453.921 170.045 454.201 170.604C454.48 171.163 454.76 171.722 454.76 172.281V181.083C454.76 181.642 454.62 182.201 454.201 182.76C453.921 183.319 453.502 183.878 452.943 184.297C452.384 184.716 451.825 185.135 451.127 185.415C450.428 185.694 449.869 185.834 449.171 185.834H417.034C416.335 185.834 415.776 185.694 415.078 185.415C414.379 185.135 413.82 184.856 413.261 184.297C412.702 183.878 412.283 183.319 412.004 182.76C411.724 182.201 411.445 181.642 411.445 181.083V161.242C411.445 160.683 411.585 160.125 412.004 159.566C412.283 159.007 412.702 158.448 413.261 158.029C413.82 157.609 414.379 157.19 415.078 156.911C415.776 156.631 416.335 156.492 417.034 156.492H454.76V164.316H421.505V177.87H444.699V174.656H427.932Z" fill="#424242"/>
<path d="M462.584 185.275C461.886 184.996 461.327 184.716 460.768 184.157C460.209 183.738 459.79 183.179 459.51 182.62C459.231 182.061 458.951 181.502 458.951 180.944V161.103C458.951 160.544 459.091 159.985 459.51 159.426C459.79 158.867 460.209 158.308 460.768 157.889C461.327 157.47 461.886 157.051 462.584 156.771C463.283 156.492 463.842 156.352 464.54 156.352H498.214V164.177H469.011V167.39H498.214V174.516H469.011V177.73H498.214V185.555H464.54C463.842 185.555 463.283 185.415 462.584 185.275Z" fill="#424242"/>
<path d="M293.517 53.235C290.862 57.9857 288.208 62.4569 285.553 67.0678C275.074 61.898 264.594 69.1636 264.175 79.5033C258.865 79.5033 253.556 79.5033 248.107 79.5033C247.827 74.3335 245.592 70.1417 240.981 67.3472C236.37 64.6925 231.619 64.8322 226.729 67.2075C224.074 62.5966 221.419 57.9857 218.764 53.235C223.236 50.3008 225.751 46.2488 225.89 40.7995C225.89 35.49 223.375 31.438 218.904 28.364C220.301 25.9887 221.559 23.7531 222.816 21.5175C224.074 19.2819 225.471 17.0463 226.729 14.671C231.619 16.9066 236.37 17.0463 240.841 14.3916C245.312 11.7368 247.687 7.68478 248.107 2.37524C253.416 2.37524 258.726 2.37524 264.035 2.37524C264.734 13.2738 275.772 19.7011 285.553 14.5313C286.81 16.7669 288.208 19.1422 289.465 21.3778C290.723 23.7531 292.12 25.9887 293.377 28.364C283.876 34.5119 284.435 47.5063 293.517 53.235ZM256.211 15.3696C242.098 15.3696 230.781 26.5476 230.641 40.6598C230.501 54.6323 242.098 66.2294 256.071 66.2294C270.043 66.2294 281.501 54.772 281.501 40.7995C281.501 26.8271 270.183 15.3696 256.211 15.3696Z" fill="#424242"/>
<path d="M256.211 64.6926C243.077 64.6926 232.318 54.0735 232.318 40.9394C232.318 27.6655 242.937 16.9067 256.211 16.9067C269.345 16.9067 280.104 27.8053 280.104 40.9394C279.964 53.9338 269.205 64.6926 256.211 64.6926ZM256.071 60.7803C267.109 60.7803 276.191 51.6982 276.052 40.7997C276.052 29.9011 266.969 20.819 256.211 20.819C245.172 20.819 236.23 29.9011 236.23 40.7997C236.09 51.8379 245.033 60.7803 256.071 60.7803Z" fill="#424242"/>
<path d="M474.6 55.0516C471.666 60.0817 468.872 65.1118 466.077 70.0022C454.759 64.4132 443.442 72.2378 443.022 83.4157C437.294 83.4157 431.565 83.4157 425.697 83.4157C425.277 77.8268 422.902 73.2158 418.012 70.4213C412.982 67.4871 407.952 67.6268 402.642 70.2816C399.848 65.2515 396.913 60.3612 393.979 55.1913C398.73 51.9777 401.524 47.6462 401.524 41.7778C401.524 36.0491 398.869 31.7176 393.979 28.3642C395.376 25.8492 396.774 23.3341 398.311 20.9588C399.708 18.5835 401.105 16.0684 402.642 13.5534C407.812 16.0684 412.982 16.2082 417.872 13.2739C422.762 10.3397 425.277 6.00825 425.697 0.279541C431.425 0.279541 437.154 0.279541 442.883 0.279541C443.581 12.0164 455.598 18.8629 466.077 13.4137C467.474 15.9287 469.011 18.304 470.409 20.8191C471.806 23.3341 473.203 25.8492 474.6 28.3642C464.121 34.7915 464.82 48.764 474.6 55.0516ZM434.36 14.1123C419.269 14.1123 406.974 26.2683 406.834 41.3586C406.694 56.3091 419.269 68.8844 434.36 69.0241C449.45 69.0241 461.746 56.7283 461.746 41.6381C461.746 26.5478 449.45 14.252 434.36 14.1123Z" fill="#424242"/>
<path d="M434.359 67.3474C420.107 67.3474 408.51 55.89 408.51 41.7778C408.51 27.5259 419.968 15.9287 434.22 15.9287C448.472 15.9287 459.929 27.6656 459.929 41.7778C459.929 55.7502 448.472 67.3474 434.359 67.3474ZM434.22 63.1556C446.096 63.1556 455.877 53.3749 455.877 41.638C455.877 29.9012 446.096 20.1205 434.499 20.1205C422.623 20.1205 412.982 29.9012 412.982 41.638C412.702 53.5146 422.343 63.1556 434.22 63.1556Z" fill="#424242"/>
<path d="M0.793945 146.292V115.413H19.3773V146.292H0.793945ZM0.793945 113.177V98.0867H19.3773V113.177H0.793945Z" fill="#4EB748"/>
<path d="M16.5822 110.521H0.933044V98.3647H16.5822V110.521ZM0.933044 115.551H16.5822V143.636H0.933044V115.551Z" fill="#4EB748"/>
<path d="M80.2972 146.292C80.0178 146.292 79.7383 146.292 79.3192 146.152C78.0616 146.012 76.3849 145.314 74.2891 144.056C72.3329 142.938 69.6782 141.122 66.4645 138.886C63.3906 136.651 59.4783 133.716 55.0071 130.223C51.0948 127.149 46.6236 123.656 41.5935 119.465V146.292H23.2896V105.213C23.2896 104.235 23.569 103.256 24.2677 102.418C24.8266 101.58 25.6649 100.881 26.643 100.183C27.621 99.6236 28.5991 99.0647 29.8566 98.6456C31.1142 98.2264 32.3717 98.0867 33.7689 98.0867H36.7031C36.9826 98.0867 37.4018 98.0867 37.6812 98.2264C39.0785 98.3661 40.7552 99.0647 42.851 100.183C44.8072 101.3 47.3222 102.977 50.3962 105.352C53.4701 107.588 57.2427 110.522 61.5741 114.015C65.4864 117.089 69.9576 120.722 75.2671 124.774V98.0867H93.7108V139.166C93.7108 140.144 93.4314 141.122 92.7327 142.1C92.1738 142.938 91.4752 143.637 90.4971 144.336C89.5191 144.894 88.541 145.453 87.2835 145.873C86.1657 146.292 84.7684 146.431 83.5109 146.431H80.2972V146.292Z" fill="#4EB748"/>
<path d="M35.8649 98.3663C37.1224 98.506 38.6594 99.0649 40.6155 100.183C42.5717 101.3 44.947 102.977 48.0209 105.213C51.0949 107.448 54.7277 110.383 59.1989 113.876C63.6701 117.369 68.9796 121.561 75.1275 126.591V98.3663H90.7767V138.048C90.7767 138.747 90.4972 139.445 90.078 140.144C89.6589 140.843 88.9603 141.401 88.1219 141.96C87.2836 142.519 86.4452 142.938 85.3274 143.218C84.2096 143.497 83.0918 143.777 81.974 143.777H79.0398C78.7604 143.777 78.6206 143.777 78.4809 143.637C77.3631 143.497 75.8261 142.938 73.7303 141.681C71.7741 140.563 69.2591 138.886 66.0454 136.511C62.9715 134.276 59.1989 131.341 54.7277 127.848C50.2565 124.355 45.0867 120.163 38.9388 115.273V143.637H23.4294V103.955C23.4294 103.257 23.7088 102.558 24.128 101.859C24.5472 101.161 25.2458 100.602 26.0842 100.043C26.9225 99.4841 27.9006 99.0649 28.8786 98.7855C29.9964 98.506 31.1142 98.2266 32.3718 98.2266H35.306C35.5854 98.3663 35.7252 98.3663 35.8649 98.3663Z" fill="#4EB748"/>
<path d="M154.351 146.292C154.072 146.292 153.653 146.292 153.373 146.152C152.116 146.012 150.439 145.314 148.343 144.056C146.387 142.938 143.732 141.122 140.519 138.886C137.445 136.651 133.532 133.716 129.061 130.223C125.149 127.149 120.678 123.656 115.648 119.465V146.292H97.3438V105.213C97.3438 104.235 97.6232 103.256 98.3218 102.418C98.8807 101.58 99.7191 100.881 100.697 100.183C101.675 99.6236 102.653 99.0647 103.911 98.6456C105.168 98.2264 106.426 98.0867 107.823 98.0867H110.757C111.037 98.0867 111.456 98.0867 111.735 98.2264C113.133 98.3661 114.809 99.0647 116.905 100.183C118.861 101.3 121.376 102.977 124.45 105.352C127.524 107.588 131.297 110.522 135.628 114.015C139.541 117.089 144.012 120.722 149.321 124.774V98.0867H167.765V139.166C167.765 140.144 167.486 141.122 166.787 142.1C166.228 142.938 165.529 143.637 164.551 144.336C163.573 144.894 162.595 145.453 161.338 145.873C160.22 146.292 158.823 146.431 157.565 146.431H154.351V146.292Z" fill="#4EB748"/>
<path d="M109.919 98.3663C111.176 98.506 112.713 99.0649 114.67 100.183C116.626 101.3 119.001 102.977 122.075 105.213C125.149 107.448 128.782 110.383 133.253 113.876C137.724 117.369 143.034 121.561 149.181 126.591V98.3663H164.831V138.048C164.831 138.747 164.551 139.445 164.132 140.144C163.713 140.843 163.014 141.401 162.176 141.96C161.338 142.519 160.499 142.938 159.381 143.218C158.264 143.497 157.146 143.777 156.028 143.777H153.094C152.814 143.777 152.675 143.777 152.535 143.637C151.417 143.497 149.88 142.938 147.784 141.681C145.828 140.563 143.313 138.886 140.099 136.511C137.025 134.276 133.253 131.341 128.782 127.848C124.311 124.355 119.141 120.163 112.993 115.273V143.637H97.4834V103.955C97.4834 103.257 97.7628 102.558 98.182 101.859C98.6012 101.161 99.2998 100.602 100.138 100.043C100.976 99.4841 101.955 99.0649 102.933 98.7855C104.05 98.506 105.168 98.2266 106.426 98.2266H109.36C109.639 98.3663 109.779 98.3663 109.919 98.3663Z" fill="#4EB748"/>
<path d="M181.458 146.292C180.2 146.292 179.083 146.012 177.825 145.593C176.707 145.174 175.589 144.475 174.611 143.637C173.633 142.799 172.795 141.96 172.236 140.842C171.537 139.725 171.258 138.607 171.258 137.489V106.75C171.258 105.632 171.537 104.514 172.236 103.396C172.795 102.418 173.633 101.44 174.611 100.602C175.589 99.7634 176.568 99.2045 177.825 98.7853C179.083 98.2264 180.2 98.0867 181.458 98.0867H231.479C232.737 98.0867 233.855 98.3661 235.112 98.7853C236.37 99.2045 237.348 99.9031 238.326 100.741C239.304 101.58 240.003 102.418 240.562 103.396C241.26 104.514 241.54 105.632 241.54 106.75V137.489C241.54 138.607 241.26 139.725 240.562 140.842C240.003 141.821 239.164 142.799 238.326 143.497C237.348 144.336 236.37 144.894 235.112 145.453C233.855 145.873 232.737 146.152 231.479 146.152H181.458V146.292ZM223.096 131.341V113.177H189.702V131.341H223.096Z" fill="#4EB748"/>
<path d="M233.296 98.9252C234.414 99.3444 235.252 99.9033 236.09 100.602C236.929 101.301 237.627 102.139 238.047 102.977C238.605 103.816 238.745 104.794 238.745 105.632V136.371C238.745 137.21 238.466 138.188 238.047 139.026C237.488 139.865 236.929 140.703 236.09 141.401C235.252 142.1 234.414 142.659 233.296 143.078C232.178 143.497 231.2 143.777 230.222 143.777H180.201C179.222 143.777 178.105 143.637 177.127 143.078C176.148 142.659 175.17 142.1 174.332 141.401C173.494 140.703 172.795 139.865 172.236 139.026C171.677 138.188 171.538 137.21 171.538 136.371V105.632C171.538 104.794 171.817 103.816 172.236 102.977C172.795 102.139 173.354 101.301 174.332 100.602C175.17 99.9033 176.148 99.3444 177.127 98.9252C178.105 98.506 179.222 98.2266 180.201 98.2266H230.222C231.2 98.3663 232.318 98.506 233.296 98.9252ZM187.047 110.522V131.481H223.236V110.522H187.047Z" fill="#4EB748"/>
<path d="M295.194 146.431C292.26 146.431 289.325 146.152 286.531 145.733C283.597 145.174 281.082 144.336 279.265 142.938L279.126 142.799L239.025 98.0867H261.52L288.208 127.289C288.767 127.848 289.325 128.267 290.024 128.547C290.583 128.826 291.142 128.966 291.84 128.966C292.12 128.966 292.399 128.826 292.679 128.686C292.819 128.547 292.819 128.547 292.819 128.547V98.0867H311.262V134.695C311.262 137.07 310.843 139.026 310.005 140.563C309.166 142.1 307.909 143.357 306.372 144.336C304.975 145.174 303.158 145.733 301.202 146.012C299.525 146.292 297.429 146.431 295.194 146.431Z" fill="#4EB748"/>
<path d="M307.629 138.607C306.931 140.004 305.953 140.982 304.555 141.821C303.298 142.519 301.761 143.078 299.944 143.358C298.128 143.637 296.172 143.777 293.936 143.777C291.002 143.777 288.208 143.497 285.413 143.078C282.619 142.659 280.383 141.821 278.706 140.563L240.841 98.3662H259.424L285.972 127.15C286.671 127.708 287.369 128.267 288.068 128.686C288.766 129.106 289.605 129.385 290.583 129.385C291.281 129.385 291.84 129.245 292.399 128.826C292.958 128.407 293.098 128.128 293.098 127.708V98.3662H308.747V133.437C308.747 135.533 308.328 137.349 307.629 138.607Z" fill="#4EB748"/>
<path d="M363.24 146.292V138.747H338.089L330.963 146.292H308.887L348.988 101.72L349.128 101.58C350.106 100.881 351.223 100.322 352.481 99.9031C353.738 99.4839 355.136 99.0647 356.533 98.7853C357.93 98.5058 359.467 98.3661 361.004 98.2264C362.541 98.0867 364.078 98.0867 365.475 98.0867C367.711 98.0867 369.947 98.2264 371.763 98.6456C373.719 99.0647 375.396 99.6236 376.933 100.462C378.47 101.44 379.588 102.558 380.426 104.095C381.264 105.632 381.683 107.588 381.683 109.684V146.152H363.24V146.292ZM363.24 125.054V114.854C363.24 114.854 363.1 114.854 363.1 114.714C362.96 114.574 362.821 114.434 362.401 114.434C361.843 114.434 361.284 114.574 360.725 114.993C360.026 115.552 359.188 116.111 358.629 116.67L350.525 124.914H363.24V125.054Z" fill="#4EB748"/>
<path d="M379.029 143.637H363.38V136.092H336.133L329.007 143.637H310.703L348.708 101.58C349.547 101.021 350.525 100.462 351.782 100.043C352.9 99.6237 354.297 99.3443 355.555 99.0648C356.952 98.7854 358.349 98.6457 359.886 98.5059C361.423 98.3662 362.821 98.3662 364.358 98.3662C366.593 98.3662 368.549 98.5059 370.366 98.9251C372.182 99.2046 373.719 99.7635 374.977 100.602C376.234 101.44 377.212 102.418 378.051 103.815C378.749 105.073 379.168 106.75 379.168 108.706V143.637H379.029ZM362.821 112.339C362.401 111.92 361.843 111.78 361.144 111.78C360.306 111.78 359.467 112.059 358.629 112.618C357.791 113.177 357.092 113.876 356.393 114.435L345.914 125.193H363.519V113.456C363.519 113.037 363.24 112.758 362.821 112.339Z" fill="#4EB748"/>
<path d="M410.467 146.292V113.177H385.596V98.0867H453.781V113.177H428.91V146.292H410.467Z" fill="#4EB748"/>
<path d="M385.735 98.3662H450.987V110.522H426.116V143.637H410.467V110.522H385.596V98.3662H385.735Z" fill="#4EB748"/>
<path d="M467.754 146.292C466.496 146.292 465.378 146.012 464.121 145.593C463.003 145.174 461.885 144.475 460.907 143.637C459.929 142.799 459.091 141.96 458.532 140.842C457.833 139.725 457.554 138.607 457.554 137.489V106.75C457.554 105.632 457.833 104.514 458.532 103.396C459.091 102.418 459.929 101.44 460.907 100.602C461.885 99.7634 462.863 99.2045 464.121 98.7853C465.378 98.2264 466.496 98.0867 467.754 98.0867H517.775C519.033 98.0867 520.15 98.3661 521.408 98.7853C522.666 99.2045 523.644 99.9031 524.622 100.741C525.6 101.58 526.298 102.418 526.857 103.396C527.556 104.514 527.835 105.632 527.835 106.75V137.489C527.835 138.607 527.556 139.725 526.857 140.842C526.298 141.821 525.46 142.799 524.622 143.497C523.644 144.336 522.666 144.894 521.408 145.453C520.15 145.873 519.033 146.152 517.775 146.152H467.754V146.292ZM509.392 131.341V113.177H475.998V131.341H509.392Z" fill="#4EB748"/>
<path d="M519.592 98.9252C520.71 99.3444 521.548 99.9033 522.386 100.602C523.225 101.301 523.923 102.139 524.343 102.977C524.902 103.816 525.041 104.794 525.041 105.632V136.371C525.041 137.21 524.762 138.188 524.343 139.026C523.784 139.865 523.225 140.703 522.386 141.401C521.548 142.1 520.71 142.659 519.592 143.078C518.474 143.497 517.496 143.777 516.518 143.777H466.496C465.518 143.777 464.401 143.637 463.423 143.078C462.444 142.659 461.466 142.1 460.628 141.401C459.79 140.703 459.091 139.865 458.532 139.026C457.973 138.188 457.834 137.21 457.834 136.371V105.632C457.834 104.794 458.113 103.816 458.532 102.977C459.091 102.139 459.65 101.301 460.628 100.602C461.466 99.9033 462.444 99.3444 463.423 98.9252C464.401 98.506 465.518 98.2266 466.496 98.2266H516.518C517.496 98.3663 518.614 98.506 519.592 98.9252ZM473.343 110.522V131.481H509.532V110.522H473.343Z" fill="#4EB748"/>
<path d="M595.602 164.316L564.024 129.245H550.191V146.431H531.748V115.273H579.254V113.177H531.748V98.0867H587.638C588.895 98.0867 590.013 98.3661 591.27 98.7853C592.528 99.2045 593.506 99.9031 594.484 100.741C595.462 101.58 596.161 102.418 596.72 103.396C597.418 104.514 597.698 105.632 597.698 106.75V120.303C597.698 121.421 597.418 122.538 596.72 123.656C596.161 124.634 595.322 125.612 594.484 126.311C593.506 127.149 592.528 127.708 591.27 128.267C590.013 128.686 588.895 128.966 587.638 128.966H586.38L616.98 164.037H595.602V164.316Z" fill="#4EB748"/>
<path d="M579.394 115.413V110.522H531.887V98.3662H586.38C587.358 98.3662 588.476 98.6457 589.454 99.0648C590.572 99.484 591.41 100.043 592.248 100.742C593.087 101.44 593.785 102.279 594.205 103.117C594.763 103.955 594.903 104.933 594.903 105.772V119.325C594.903 120.163 594.624 121.141 594.205 121.98C593.646 122.818 593.087 123.656 592.248 124.355C591.41 125.054 590.572 125.613 589.454 126.032C588.336 126.451 587.358 126.73 586.38 126.73H581.909L612.508 161.801H594.903L563.325 126.73H547.397V143.916H531.748V115.413H579.394Z" fill="#4EB748"/>
<path d="M207.167 90.402L168.044 46.9476H150.439V68.1857H128.223V30.4601H187.047V27.2464H128.223V9.22192H197.107C198.504 9.22192 200.041 9.50137 201.439 10.0603C202.836 10.6192 204.233 11.4575 205.351 12.2959C206.469 13.2739 207.447 14.3917 208.145 15.5095C208.844 16.7671 209.263 18.1643 209.263 19.5616V36.3285C209.263 37.7258 208.844 38.9833 208.145 40.3805C207.447 41.6381 206.469 42.7558 205.351 43.5942C204.233 44.5723 202.976 45.2709 201.439 45.8298C200.041 46.3887 198.504 46.6681 197.107 46.6681H194.872L232.737 90.1225H207.167V90.402Z" fill="#4EB748"/>
<path d="M305.534 72.517V34.7914H359.188V31.5777H305.534V13.5532H369.108C370.505 13.5532 372.042 13.8327 373.44 14.3916C374.837 14.9505 376.234 15.7888 377.352 16.6272C378.47 17.6052 379.448 18.723 380.146 19.8408C380.845 21.0984 381.264 22.4956 381.264 23.8928V34.9311C382.242 35.2105 383.081 35.49 383.919 35.9092C385.177 36.4681 386.294 37.3064 387.272 38.1448C388.25 39.1228 389.089 40.1009 389.787 41.2187C390.486 42.4762 390.766 43.7337 390.766 44.9913V61.7582C390.766 63.1555 390.346 64.413 389.648 65.8102C388.949 67.0678 387.971 68.1856 386.853 69.0239C385.735 70.002 384.478 70.7006 383.081 71.2595C381.683 71.8184 380.146 72.0979 378.749 72.0979H305.534V72.517ZM368.689 54.4925V51.2789H327.61V54.4925H368.689Z" fill="#4EB748"/>
<path d="M0.793945 146.292V115.413H19.3773V146.292H0.793945ZM0.793945 113.177V98.0867H19.3773V113.177H0.793945Z" fill="url(#paint0_linear)"/>
<path d="M16.5822 110.521H0.933044V98.3647H16.5822V110.521ZM0.933044 115.551H16.5822V143.636H0.933044V115.551Z" fill="#1AA94A"/>
<path d="M80.2972 146.292C80.0178 146.292 79.7383 146.292 79.3192 146.152C78.0616 146.012 76.3849 145.314 74.2891 144.056C72.3329 142.938 69.6782 141.122 66.4645 138.886C63.3906 136.651 59.4783 133.716 55.0071 130.223C51.0948 127.149 46.6236 123.656 41.5935 119.465V146.292H23.2896V105.213C23.2896 104.235 23.569 103.256 24.2677 102.418C24.8266 101.58 25.6649 100.881 26.643 100.183C27.621 99.6236 28.5991 99.0647 29.8566 98.6456C31.1142 98.2264 32.3717 98.0867 33.7689 98.0867H36.7031C36.9826 98.0867 37.4018 98.0867 37.6812 98.2264C39.0785 98.3661 40.7552 99.0647 42.851 100.183C44.8072 101.3 47.3222 102.977 50.3962 105.352C53.4701 107.588 57.2427 110.522 61.5741 114.015C65.4864 117.089 69.9576 120.722 75.2671 124.774V98.0867H93.7108V139.166C93.7108 140.144 93.4314 141.122 92.7327 142.1C92.1738 142.938 91.4752 143.637 90.4971 144.336C89.5191 144.894 88.541 145.453 87.2835 145.873C86.1657 146.292 84.7684 146.431 83.5109 146.431H80.2972V146.292Z" fill="url(#paint1_linear)"/>
<path d="M35.8649 98.3663C37.1224 98.506 38.6594 99.0649 40.6155 100.183C42.5717 101.3 44.947 102.977 48.0209 105.213C51.0949 107.448 54.7277 110.383 59.1989 113.876C63.6701 117.369 68.9796 121.561 75.1275 126.591V98.3663H90.7767V138.048C90.7767 138.747 90.4972 139.445 90.078 140.144C89.6589 140.843 88.9603 141.401 88.1219 141.96C87.2836 142.519 86.4452 142.938 85.3274 143.218C84.2096 143.497 83.0918 143.777 81.974 143.777H79.0398C78.7604 143.777 78.6206 143.777 78.4809 143.637C77.3631 143.497 75.8261 142.938 73.7303 141.681C71.7741 140.563 69.2591 138.886 66.0454 136.511C62.9715 134.276 59.1989 131.341 54.7277 127.848C50.2565 124.355 45.0867 120.163 38.9388 115.273V143.637H23.4294V103.955C23.4294 103.257 23.7088 102.558 24.128 101.859C24.5472 101.161 25.2458 100.602 26.0842 100.043C26.9225 99.4841 27.9006 99.0649 28.8786 98.7855C29.9964 98.506 31.1142 98.2266 32.3718 98.2266H35.306C35.5854 98.3663 35.7252 98.3663 35.8649 98.3663Z" fill="#1AA94A"/>
<path d="M154.351 146.292C154.072 146.292 153.653 146.292 153.373 146.152C152.116 146.012 150.439 145.314 148.343 144.056C146.387 142.938 143.732 141.122 140.519 138.886C137.445 136.651 133.532 133.716 129.061 130.223C125.149 127.149 120.678 123.656 115.648 119.465V146.292H97.3438V105.213C97.3438 104.235 97.6232 103.256 98.3218 102.418C98.8807 101.58 99.7191 100.881 100.697 100.183C101.675 99.6236 102.653 99.0647 103.911 98.6456C105.168 98.2264 106.426 98.0867 107.823 98.0867H110.757C111.037 98.0867 111.456 98.0867 111.735 98.2264C113.133 98.3661 114.809 99.0647 116.905 100.183C118.861 101.3 121.376 102.977 124.45 105.352C127.524 107.588 131.297 110.522 135.628 114.015C139.541 117.089 144.012 120.722 149.321 124.774V98.0867H167.765V139.166C167.765 140.144 167.486 141.122 166.787 142.1C166.228 142.938 165.529 143.637 164.551 144.336C163.573 144.894 162.595 145.453 161.338 145.873C160.22 146.292 158.823 146.431 157.565 146.431H154.351V146.292Z" fill="url(#paint2_linear)"/>
<path d="M109.919 98.3663C111.176 98.506 112.713 99.0649 114.67 100.183C116.626 101.3 119.001 102.977 122.075 105.213C125.149 107.448 128.782 110.383 133.253 113.876C137.724 117.369 143.034 121.561 149.181 126.591V98.3663H164.831V138.048C164.831 138.747 164.551 139.445 164.132 140.144C163.713 140.843 163.014 141.401 162.176 141.96C161.338 142.519 160.499 142.938 159.381 143.218C158.264 143.497 157.146 143.777 156.028 143.777H153.094C152.814 143.777 152.675 143.777 152.535 143.637C151.417 143.497 149.88 142.938 147.784 141.681C145.828 140.563 143.313 138.886 140.099 136.511C137.025 134.276 133.253 131.341 128.782 127.848C124.311 124.355 119.141 120.163 112.993 115.273V143.637H97.4834V103.955C97.4834 103.257 97.7628 102.558 98.182 101.859C98.6012 101.161 99.2998 100.602 100.138 100.043C100.976 99.4841 101.955 99.0649 102.933 98.7855C104.05 98.506 105.168 98.2266 106.426 98.2266H109.36C109.639 98.3663 109.779 98.3663 109.919 98.3663Z" fill="#1AA94A"/>
<path d="M181.458 146.292C180.2 146.292 179.083 146.012 177.825 145.593C176.707 145.174 175.589 144.475 174.611 143.637C173.633 142.799 172.795 141.96 172.236 140.842C171.537 139.725 171.258 138.607 171.258 137.489V106.75C171.258 105.632 171.537 104.514 172.236 103.396C172.795 102.418 173.633 101.44 174.611 100.602C175.589 99.7634 176.568 99.2045 177.825 98.7853C179.083 98.2264 180.2 98.0867 181.458 98.0867H231.479C232.737 98.0867 233.855 98.3661 235.112 98.7853C236.37 99.2045 237.348 99.9031 238.326 100.741C239.304 101.58 240.003 102.418 240.562 103.396C241.26 104.514 241.54 105.632 241.54 106.75V137.489C241.54 138.607 241.26 139.725 240.562 140.842C240.003 141.821 239.164 142.799 238.326 143.497C237.348 144.336 236.37 144.894 235.112 145.453C233.855 145.873 232.737 146.152 231.479 146.152H181.458V146.292ZM223.096 131.341V113.177H189.702V131.341H223.096Z" fill="url(#paint3_linear)"/>
<path d="M233.296 98.9252C234.414 99.3444 235.252 99.9033 236.09 100.602C236.929 101.301 237.627 102.139 238.047 102.977C238.605 103.816 238.745 104.794 238.745 105.632V136.371C238.745 137.21 238.466 138.188 238.047 139.026C237.488 139.865 236.929 140.703 236.09 141.401C235.252 142.1 234.414 142.659 233.296 143.078C232.178 143.497 231.2 143.777 230.222 143.777H180.201C179.222 143.777 178.105 143.637 177.127 143.078C176.148 142.659 175.17 142.1 174.332 141.401C173.494 140.703 172.795 139.865 172.236 139.026C171.677 138.188 171.538 137.21 171.538 136.371V105.632C171.538 104.794 171.817 103.816 172.236 102.977C172.795 102.139 173.354 101.301 174.332 100.602C175.17 99.9033 176.148 99.3444 177.127 98.9252C178.105 98.506 179.222 98.2266 180.201 98.2266H230.222C231.2 98.3663 232.318 98.506 233.296 98.9252ZM187.047 110.522V131.481H223.236V110.522H187.047Z" fill="#1AA94A"/>
<path d="M295.194 146.431C292.26 146.431 289.325 146.152 286.531 145.733C283.597 145.174 281.082 144.336 279.265 142.938L279.126 142.799L239.025 98.0867H261.52L288.208 127.289C288.767 127.848 289.325 128.267 290.024 128.547C290.583 128.826 291.142 128.966 291.84 128.966C292.12 128.966 292.399 128.826 292.679 128.686C292.819 128.547 292.819 128.547 292.819 128.547V98.0867H311.262V134.695C311.262 137.07 310.843 139.026 310.005 140.563C309.166 142.1 307.909 143.357 306.372 144.336C304.975 145.174 303.158 145.733 301.202 146.012C299.525 146.292 297.429 146.431 295.194 146.431Z" fill="url(#paint4_linear)"/>
<path d="M307.629 138.607C306.931 140.004 305.953 140.982 304.555 141.821C303.298 142.519 301.761 143.078 299.944 143.358C298.128 143.637 296.172 143.777 293.936 143.777C291.002 143.777 288.208 143.497 285.413 143.078C282.619 142.659 280.383 141.821 278.706 140.563L240.841 98.3662H259.424L285.972 127.15C286.671 127.708 287.369 128.267 288.068 128.686C288.766 129.106 289.605 129.385 290.583 129.385C291.281 129.385 291.84 129.245 292.399 128.826C292.958 128.407 293.098 128.128 293.098 127.708V98.3662H308.747V133.437C308.747 135.533 308.328 137.349 307.629 138.607Z" fill="#1AA94A"/>
<path d="M363.24 146.292V138.747H338.089L330.963 146.292H308.887L348.988 101.72L349.128 101.58C350.106 100.881 351.223 100.322 352.481 99.9031C353.738 99.4839 355.136 99.0647 356.533 98.7853C357.93 98.5058 359.467 98.3661 361.004 98.2264C362.541 98.0867 364.078 98.0867 365.475 98.0867C367.711 98.0867 369.947 98.2264 371.763 98.6456C373.719 99.0647 375.396 99.6236 376.933 100.462C378.47 101.44 379.588 102.558 380.426 104.095C381.264 105.632 381.683 107.588 381.683 109.684V146.152H363.24V146.292ZM363.24 125.054V114.854C363.24 114.854 363.1 114.854 363.1 114.714C362.96 114.574 362.821 114.434 362.401 114.434C361.843 114.434 361.284 114.574 360.725 114.993C360.026 115.552 359.188 116.111 358.629 116.67L350.525 124.914H363.24V125.054Z" fill="url(#paint5_linear)"/>
<path d="M379.029 143.637H363.38V136.092H336.133L329.007 143.637H310.703L348.708 101.58C349.547 101.021 350.525 100.462 351.782 100.043C352.9 99.6237 354.297 99.3443 355.555 99.0648C356.952 98.7854 358.349 98.6457 359.886 98.5059C361.423 98.3662 362.821 98.3662 364.358 98.3662C366.593 98.3662 368.549 98.5059 370.366 98.9251C372.182 99.2046 373.719 99.7635 374.977 100.602C376.234 101.44 377.212 102.418 378.051 103.815C378.749 105.073 379.168 106.75 379.168 108.706V143.637H379.029ZM362.821 112.339C362.401 111.92 361.843 111.78 361.144 111.78C360.306 111.78 359.467 112.059 358.629 112.618C357.791 113.177 357.092 113.876 356.393 114.435L345.914 125.193H363.519V113.456C363.519 113.037 363.24 112.758 362.821 112.339Z" fill="#1AA94A"/>
<path d="M410.467 146.292V113.177H385.596V98.0867H453.781V113.177H428.91V146.292H410.467Z" fill="url(#paint6_linear)"/>
<path d="M385.735 98.3662H450.987V110.522H426.116V143.637H410.467V110.522H385.596V98.3662H385.735Z" fill="#1AA94A"/>
<path d="M467.754 146.292C466.496 146.292 465.378 146.012 464.121 145.593C463.003 145.174 461.885 144.475 460.907 143.637C459.929 142.799 459.091 141.96 458.532 140.842C457.833 139.725 457.554 138.607 457.554 137.489V106.75C457.554 105.632 457.833 104.514 458.532 103.396C459.091 102.418 459.929 101.44 460.907 100.602C461.885 99.7634 462.863 99.2045 464.121 98.7853C465.378 98.2264 466.496 98.0867 467.754 98.0867H517.775C519.033 98.0867 520.15 98.3661 521.408 98.7853C522.666 99.2045 523.644 99.9031 524.622 100.741C525.6 101.58 526.298 102.418 526.857 103.396C527.556 104.514 527.835 105.632 527.835 106.75V137.489C527.835 138.607 527.556 139.725 526.857 140.842C526.298 141.821 525.46 142.799 524.622 143.497C523.644 144.336 522.666 144.894 521.408 145.453C520.15 145.873 519.033 146.152 517.775 146.152H467.754V146.292ZM509.392 131.341V113.177H475.998V131.341H509.392Z" fill="url(#paint7_linear)"/>
<path d="M519.592 98.9252C520.71 99.3444 521.548 99.9033 522.386 100.602C523.225 101.301 523.923 102.139 524.343 102.977C524.902 103.816 525.041 104.794 525.041 105.632V136.371C525.041 137.21 524.762 138.188 524.343 139.026C523.784 139.865 523.225 140.703 522.386 141.401C521.548 142.1 520.71 142.659 519.592 143.078C518.474 143.497 517.496 143.777 516.518 143.777H466.496C465.518 143.777 464.401 143.637 463.423 143.078C462.444 142.659 461.466 142.1 460.628 141.401C459.79 140.703 459.091 139.865 458.532 139.026C457.973 138.188 457.834 137.21 457.834 136.371V105.632C457.834 104.794 458.113 103.816 458.532 102.977C459.091 102.139 459.65 101.301 460.628 100.602C461.466 99.9033 462.444 99.3444 463.423 98.9252C464.401 98.506 465.518 98.2266 466.496 98.2266H516.518C517.496 98.3663 518.614 98.506 519.592 98.9252ZM473.343 110.522V131.481H509.532V110.522H473.343Z" fill="#1AA94A"/>
<path d="M595.602 164.316L564.024 129.245H550.191V146.431H531.748V115.273H579.254V113.177H531.748V98.0867H587.638C588.895 98.0867 590.013 98.3661 591.27 98.7853C592.528 99.2045 593.506 99.9031 594.484 100.741C595.462 101.58 596.161 102.418 596.72 103.396C597.418 104.514 597.698 105.632 597.698 106.75V120.303C597.698 121.421 597.418 122.538 596.72 123.656C596.161 124.634 595.322 125.612 594.484 126.311C593.506 127.149 592.528 127.708 591.27 128.267C590.013 128.686 588.895 128.966 587.638 128.966H586.38L616.98 164.037H595.602V164.316Z" fill="url(#paint8_linear)"/>
<path d="M579.394 115.413V110.522H531.887V98.3662H586.38C587.358 98.3662 588.476 98.6457 589.454 99.0648C590.572 99.484 591.41 100.043 592.248 100.742C593.087 101.44 593.785 102.279 594.205 103.117C594.763 103.955 594.903 104.933 594.903 105.772V119.325C594.903 120.163 594.624 121.141 594.205 121.98C593.646 122.818 593.087 123.656 592.248 124.355C591.41 125.054 590.572 125.613 589.454 126.032C588.336 126.451 587.358 126.73 586.38 126.73H581.909L612.508 161.801H594.903L563.325 126.73H547.397V143.916H531.748V115.413H579.394Z" fill="#1AA94A"/>
<path d="M207.167 90.402L168.044 46.9476H150.439V68.1857H128.223V30.4601H187.047V27.2464H128.223V9.22192H197.107C198.504 9.22192 200.041 9.50137 201.439 10.0603C202.836 10.6192 204.233 11.4575 205.351 12.2959C206.469 13.2739 207.447 14.3917 208.145 15.5095C208.844 16.7671 209.263 18.1643 209.263 19.5616V36.3285C209.263 37.7258 208.844 38.9833 208.145 40.3805C207.447 41.6381 206.469 42.7558 205.351 43.5942C204.233 44.5723 202.976 45.2709 201.439 45.8298C200.041 46.3887 198.504 46.6681 197.107 46.6681H194.872L232.737 90.1225H207.167V90.402Z" fill="url(#paint9_linear)"/>
<path d="M187.187 30.46V24.3121H128.363V9.36157H195.71C196.967 9.36157 198.225 9.64102 199.622 10.1999C200.88 10.7588 202.137 11.4574 203.115 12.2958C204.093 13.1341 204.932 14.1122 205.63 15.23C206.329 16.3478 206.608 17.4656 206.608 18.5834V35.3504C206.608 36.4682 206.329 37.586 205.63 38.7038C204.932 39.8216 204.233 40.7996 203.115 41.638C202.137 42.4763 201.019 43.1749 199.622 43.7338C198.365 44.2927 197.107 44.5722 195.71 44.5722H190.261L228.126 88.0266H206.329L167.206 44.5722H147.505V65.8103H128.363V30.8792H187.187V30.46Z" fill="#1AA94A"/>
<path d="M305.534 72.517V34.7914H359.188V31.5777H305.534V13.5532H369.108C370.505 13.5532 372.042 13.8327 373.44 14.3916C374.837 14.9505 376.234 15.7888 377.352 16.6272C378.47 17.6052 379.448 18.723 380.146 19.8408C380.845 21.0984 381.264 22.4956 381.264 23.8928V34.9311C382.242 35.2105 383.081 35.49 383.919 35.9092C385.177 36.4681 386.294 37.3064 387.272 38.1448C388.25 39.1228 389.089 40.1009 389.787 41.2187C390.486 42.4762 390.766 43.7337 390.766 44.9913V61.7582C390.766 63.1555 390.346 64.413 389.648 65.8102C388.949 67.0678 387.971 68.1856 386.853 69.0239C385.735 70.002 384.478 70.7006 383.081 71.2595C381.683 71.8184 380.146 72.0979 378.749 72.0979H305.534V72.517ZM368.689 54.4925V51.2789H327.61V54.4925H368.689Z" fill="url(#paint10_linear)"/>
<path d="M359.328 28.7834H305.673V13.6931H367.851C369.108 13.6931 370.366 13.9726 371.763 14.5315C373.021 15.0904 374.278 15.789 375.256 16.6273C376.234 17.4657 377.073 18.4438 377.771 19.5616C378.47 20.6794 378.749 21.7971 378.749 22.9149V35.2107C380.007 35.3504 381.125 35.7696 382.242 36.3285C383.36 36.8874 384.478 37.586 385.316 38.4244C386.155 39.2627 386.993 40.1011 387.552 41.2189C388.111 42.197 388.39 43.175 388.39 44.2928V61.0598C388.39 62.1776 388.111 63.2954 387.412 64.4132C386.714 65.531 386.015 66.5091 384.897 67.3474C383.919 68.1858 382.662 68.8844 381.404 69.4433C380.146 70.0022 378.889 70.2816 377.631 70.2816H305.813V34.9313H359.467V28.7834H359.328ZM324.955 48.6243V54.7722H368.829V48.6243H324.955Z" fill="#1AA94A"/>
<path d="M16.5829 110.523H0.933716V98.3667H16.5829V110.523ZM0.933716 115.553H16.5829V143.638H0.933716V115.553Z" fill="#1AA94A"/>
<path d="M35.8649 98.3663C37.1224 98.506 38.6594 99.0649 40.6155 100.183C42.5717 101.3 44.947 102.977 48.0209 105.213C51.0949 107.448 54.7277 110.383 59.1989 113.876C63.6701 117.369 68.9796 121.561 75.1275 126.591V98.3663H90.7767V138.048C90.7767 138.747 90.4972 139.445 90.078 140.144C89.6589 140.843 88.9603 141.401 88.1219 141.96C87.2836 142.519 86.4452 142.938 85.3274 143.218C84.2096 143.497 83.0918 143.777 81.974 143.777H79.0398C78.7604 143.777 78.6206 143.777 78.4809 143.637C77.3631 143.497 75.8261 142.938 73.7303 141.681C71.7741 140.563 69.2591 138.886 66.0454 136.511C62.9715 134.276 59.1989 131.341 54.7277 127.848C50.2565 124.355 45.0867 120.163 38.9388 115.273V143.637H23.4294V103.955C23.4294 103.257 23.7088 102.558 24.128 101.859C24.5472 101.161 25.2458 100.602 26.0842 100.043C26.9225 99.4841 27.9006 99.0649 28.8786 98.7855C29.9964 98.506 31.1142 98.2266 32.3718 98.2266H35.306C35.5854 98.3663 35.7252 98.3663 35.8649 98.3663Z" fill="#1AA94A"/>
<path d="M109.919 98.3663C111.177 98.506 112.714 99.0649 114.67 100.183C116.626 101.3 119.001 102.977 122.075 105.213C125.149 107.448 128.782 110.383 133.253 113.876C137.724 117.369 143.034 121.561 149.182 126.591V98.3663H164.831V138.048C164.831 138.747 164.551 139.445 164.132 140.144C163.713 140.843 163.014 141.401 162.176 141.96C161.338 142.519 160.499 142.938 159.382 143.218C158.264 143.497 157.146 143.777 156.028 143.777H153.094C152.814 143.777 152.675 143.777 152.535 143.637C151.417 143.497 149.88 142.938 147.784 141.681C145.828 140.563 143.313 138.886 140.1 136.511C137.026 134.276 133.253 131.341 128.782 127.848C124.311 124.355 119.141 120.163 112.993 115.273V143.637H97.4835V103.955C97.4835 103.257 97.763 102.558 98.1821 101.859C98.6013 101.161 99.2999 100.602 100.138 100.043C100.977 99.4841 101.955 99.0649 102.933 98.7855C104.051 98.506 105.168 98.2266 106.426 98.2266H109.36C109.64 98.3663 109.779 98.3663 109.919 98.3663Z" fill="#1AA94A"/>
<path d="M233.296 98.9252C234.414 99.3444 235.252 99.9033 236.09 100.602C236.929 101.301 237.627 102.139 238.047 102.977C238.605 103.816 238.745 104.794 238.745 105.632V136.371C238.745 137.21 238.466 138.188 238.047 139.026C237.488 139.865 236.929 140.703 236.09 141.401C235.252 142.1 234.414 142.659 233.296 143.078C232.178 143.497 231.2 143.777 230.222 143.777H180.2C179.222 143.777 178.105 143.637 177.127 143.078C176.148 142.659 175.17 142.1 174.332 141.401C173.494 140.703 172.795 139.865 172.236 139.026C171.677 138.188 171.538 137.21 171.538 136.371V105.632C171.538 104.794 171.817 103.816 172.236 102.977C172.795 102.139 173.354 101.301 174.332 100.602C175.17 99.9033 176.148 99.3444 177.127 98.9252C178.105 98.506 179.222 98.2266 180.2 98.2266H230.222C231.2 98.3663 232.318 98.506 233.296 98.9252ZM187.047 110.522V131.481H223.236V110.522H187.047Z" fill="#1AA94A"/>
<path d="M307.629 138.607C306.931 140.004 305.953 140.982 304.555 141.821C303.298 142.519 301.761 143.078 299.945 143.358C298.128 143.637 296.172 143.777 293.936 143.777C291.002 143.777 288.208 143.497 285.413 143.078C282.619 142.659 280.383 141.821 278.706 140.563L240.841 98.3662H259.424L285.972 127.15C286.671 127.708 287.369 128.267 288.068 128.686C288.767 129.106 289.605 129.385 290.583 129.385C291.282 129.385 291.841 129.245 292.399 128.826C292.958 128.407 293.098 128.128 293.098 127.708V98.3662H308.747V133.437C308.747 135.533 308.328 137.349 307.629 138.607Z" fill="#1AA94A"/>
<path d="M379.029 143.637H363.38V136.092H336.133L329.007 143.637H310.703L348.709 101.58C349.547 101.021 350.525 100.462 351.782 100.043C352.9 99.6237 354.298 99.3443 355.555 99.0648C356.952 98.7854 358.35 98.6457 359.887 98.5059C361.423 98.3662 362.821 98.3662 364.358 98.3662C366.593 98.3662 368.549 98.5059 370.366 98.9251C372.182 99.2046 373.719 99.7635 374.977 100.602C376.234 101.44 377.212 102.418 378.051 103.815C378.749 105.073 379.168 106.75 379.168 108.706V143.637H379.029ZM362.821 112.339C362.402 111.92 361.843 111.78 361.144 111.78C360.306 111.78 359.467 112.059 358.629 112.618C357.791 113.177 357.092 113.876 356.393 114.435L345.914 125.193H363.519V113.456C363.519 113.037 363.24 112.758 362.821 112.339Z" fill="#1AA94A"/>
<path d="M385.736 98.3662H450.987V110.522H426.116V143.637H410.467V110.522H385.596V98.3662H385.736Z" fill="#1AA94A"/>
<path d="M519.592 98.9252C520.71 99.3444 521.548 99.9033 522.386 100.602C523.225 101.301 523.923 102.139 524.343 102.977C524.902 103.816 525.041 104.794 525.041 105.632V136.371C525.041 137.21 524.762 138.188 524.343 139.026C523.784 139.865 523.225 140.703 522.386 141.401C521.548 142.1 520.71 142.659 519.592 143.078C518.474 143.497 517.496 143.777 516.518 143.777H466.496C465.518 143.777 464.401 143.637 463.423 143.078C462.444 142.659 461.466 142.1 460.628 141.401C459.79 140.703 459.091 139.865 458.532 139.026C457.973 138.188 457.834 137.21 457.834 136.371V105.632C457.834 104.794 458.113 103.816 458.532 102.977C459.091 102.139 459.65 101.301 460.628 100.602C461.466 99.9033 462.444 99.3444 463.423 98.9252C464.401 98.506 465.518 98.2266 466.496 98.2266H516.518C517.496 98.3663 518.614 98.506 519.592 98.9252ZM473.343 110.522V131.481H509.532V110.522H473.343Z" fill="#1AA94A"/>
<path d="M579.394 115.413V110.522H531.888V98.3662H586.38C587.358 98.3662 588.476 98.6457 589.454 99.0648C590.572 99.484 591.41 100.043 592.249 100.742C593.087 101.44 593.786 102.279 594.205 103.117C594.764 103.955 594.903 104.933 594.903 105.772V119.325C594.903 120.163 594.624 121.141 594.205 121.98C593.646 122.818 593.087 123.656 592.249 124.355C591.41 125.054 590.572 125.613 589.454 126.032C588.336 126.451 587.358 126.73 586.38 126.73H581.909L612.509 161.801H594.903L563.326 126.73H547.397V143.916H531.748V115.413H579.394Z" fill="#1AA94A"/>
</g>
<defs>
<linearGradient id="paint0_linear" x1="0.793945" y1="122.249" x2="19.3513" y2="122.249" gradientUnits="userSpaceOnUse">
<stop stop-color="white"/>
<stop offset="1"/>
</linearGradient>
<linearGradient id="paint1_linear" x1="23.2254" y1="122.249" x2="93.4927" y2="122.249" gradientUnits="userSpaceOnUse">
<stop stop-color="white"/>
<stop offset="1"/>
</linearGradient>
<linearGradient id="paint2_linear" x1="97.2764" y1="122.249" x2="167.544" y2="122.249" gradientUnits="userSpaceOnUse">
<stop stop-color="white"/>
<stop offset="1"/>
</linearGradient>
<linearGradient id="paint3_linear" x1="171.328" y1="122.249" x2="241.596" y2="122.249" gradientUnits="userSpaceOnUse">
<stop stop-color="white"/>
<stop offset="1"/>
</linearGradient>
<linearGradient id="paint4_linear" x1="238.996" y1="122.295" x2="311.412" y2="122.295" gradientUnits="userSpaceOnUse">
<stop stop-color="white"/>
<stop offset="1"/>
</linearGradient>
<linearGradient id="paint5_linear" x1="308.899" y1="122.249" x2="381.771" y2="122.249" gradientUnits="userSpaceOnUse">
<stop stop-color="white"/>
<stop offset="1"/>
</linearGradient>
<linearGradient id="paint6_linear" x1="385.556" y1="122.249" x2="453.751" y2="122.249" gradientUnits="userSpaceOnUse">
<stop stop-color="white"/>
<stop offset="1"/>
</linearGradient>
<linearGradient id="paint7_linear" x1="457.626" y1="122.249" x2="527.893" y2="122.249" gradientUnits="userSpaceOnUse">
<stop stop-color="white"/>
<stop offset="1"/>
</linearGradient>
<linearGradient id="paint8_linear" x1="531.678" y1="131.258" x2="617.005" y2="131.258" gradientUnits="userSpaceOnUse">
<stop stop-color="white"/>
<stop offset="1"/>
</linearGradient>
<linearGradient id="paint9_linear" x1="128.22" y1="49.7665" x2="232.662" y2="49.7665" gradientUnits="userSpaceOnUse">
<stop stop-color="white"/>
<stop offset="1"/>
</linearGradient>
<linearGradient id="paint10_linear" x1="305.5" y1="43.0133" x2="390.833" y2="43.0133" gradientUnits="userSpaceOnUse">
<stop stop-color="white"/>
<stop offset="1"/>
</linearGradient>
<clipPath id="clip0">
<rect x="0.793945" width="616.186" height="185.554" fill="white"/>
</clipPath>
</defs>
</svg>
