<svg width="725" height="97" viewBox="0 0 725 97" fill="none" xmlns="http://www.w3.org/2000/svg">
<path d="M349.377 29.7797C349.152 29.7235 349.04 29.8452 349.377 29.7797V29.7797Z" fill="#2CB44E"/>
<path d="M525.332 26.8791C525.398 26.8884 525.435 26.8697 525.5 26.8791C525.64 26.506 525.761 26.1889 525.883 25.9464L525.332 26.8791Z" fill="#2CB44E"/>
<path d="M553.611 30.2084C553.676 30.2457 553.723 30.2736 553.779 30.3109C553.77 30.0965 553.816 29.8727 553.611 30.2084Z" fill="#2CB44E"/>
<path d="M460.01 29.2574C459.767 29.2387 459.627 29.3135 459.524 29.4351C459.674 29.3603 459.814 29.2854 460.01 29.2574Z" fill="#2CB44E"/>
<path d="M297.698 33.4447C297.698 33.4447 297.772 33.4261 297.819 33.4074C297.716 33.3328 297.614 33.2862 297.511 33.193L297.698 33.4447Z" fill="#2CB44E"/>
<path d="M298.238 32.7828C298.872 33.0347 298.089 33.3145 297.818 33.4077C298.527 33.8834 299.217 33.902 299.898 33.6409C299.87 33.0626 298.564 33.2025 298.238 32.7828Z" fill="#2CB44E"/>
<path d="M203.985 39.6843L204.255 39.4326C204.144 39.5072 204.06 39.5911 203.985 39.6843Z" fill="#2CB44E"/>
<path d="M462.629 57.5354C462.489 57.5913 462.33 57.61 462.209 57.6752C462.424 57.6939 462.545 57.6286 462.629 57.5354Z" fill="#2CB44E"/>
<path d="M218.823 39.3765L218.935 38.4531C218.814 38.8355 218.795 39.1246 218.823 39.3765Z" fill="#2CB44E"/>
<path d="M525.891 25.9369L526.106 25.5826C526.031 25.6665 525.966 25.7971 525.891 25.9369Z" fill="#2CB44E"/>
<path d="M579.771 32.1392C579.762 32.419 579.808 32.6428 579.873 32.8387C579.911 32.8387 579.929 32.848 579.948 32.848L579.771 32.1392Z" fill="#2CB44E"/>
<path d="M708.999 61.6578C709.009 61.5459 709.018 61.4246 708.999 61.2941L708.356 61.835C708.645 61.8257 708.85 61.7697 708.999 61.6578Z" fill="#2CB44E"/>
<path d="M615.39 38.5746C615.427 38.472 615.521 38.3787 615.539 38.2668C614.952 37.9124 613.338 37.7259 611.268 37.6046L611.053 38.7145L615.39 38.5746Z" fill="#2CB44E"/>
<path d="M651.502 68.4382L648.042 65.7801C651.063 65.8641 653.665 66.0786 656.016 66.405C658.366 66.7594 660.474 67.1698 662.535 67.5522C666.648 68.3356 670.584 68.8952 675.779 68.7739L675.145 69.1657C675.844 69.5387 676.581 68.5128 679.071 68.4755C680.321 68.4568 682 68.69 684.322 69.4641C685.488 69.8558 686.803 70.3781 688.314 71.0776C689.069 71.432 689.862 71.8237 690.711 72.2621C691.55 72.7191 692.436 73.2414 693.369 73.8103L693.331 74.0341C693.891 74.0994 693.975 73.6611 694.973 74.4632L692.445 72.5792C694.208 72.3367 695.859 71.5533 698.107 71.8237C698.536 72.1595 698.61 72.6445 698.592 73.0082L704.104 73.6704L705.484 75.4145C707.303 74.9575 707.191 71.7678 711.229 74.4538C710.017 71.9916 713.691 73.6984 713.384 72.5139C713.551 72.8217 713.971 73.3253 714.298 73.773C716.974 74.1274 722.057 74.6683 723.549 73.8849C723.549 73.8849 721.246 72.2155 718.625 70.1729C716.004 68.1304 713.057 65.7242 711.882 64.2879C715.529 65.7148 712.936 64.2599 712.339 63.3832L711.975 63.8495C709.821 62.8236 710.091 61.4992 709.019 60.921C709 61.0236 709.009 61.1635 709.009 61.3034L709.196 61.1541C709.252 61.406 709.159 61.5552 709.009 61.6671C708.981 61.9562 708.832 62.1614 708.217 61.9562L708.366 61.8443C707.368 61.8536 705.764 61.3313 705.064 61.1075L705.269 59.9976C704.216 60.8837 701.52 59.5406 698.787 57.9085C696.055 56.267 693.266 54.3457 692.11 54.1592C690.03 52.3872 686.859 53.6835 684.079 52.5177C679.519 51.4265 682.018 50.5312 679.845 49.1975C677.047 48.041 680.237 50.5871 679.062 50.4752C679.062 50.4752 678.25 49.9529 677.439 49.4213C676.628 48.8897 675.807 48.3861 675.807 48.3861C677.849 48.5353 676.851 47.7145 676.544 47.2202C673.559 46.6327 669.064 43.9466 667.842 46.0451C663.915 44.4316 664.009 43.5456 662.274 43.2005C662.806 43.6855 663.925 44.2078 663.878 44.6554C662.367 43.4523 663.067 44.7953 663.71 45.1031C662.405 45.4389 659.308 43.9373 656.417 42.7808C653.526 41.615 650.849 40.6637 650.448 41.8575L650.494 41.4098C649.711 43.1725 650.429 45.0471 648.582 45.8586L647.519 44.9166L645.691 45.5041C644.591 44.7767 645.216 44.357 645.234 44.1331C642.296 44.6741 638.445 43.1725 635.012 42.6409L638.155 47.9664C635.376 46.5301 630.358 43.7228 629.631 45.271L628.045 43.4336C622.505 39.6937 623.848 44.4502 621.61 43.2658L618.84 41.1673L621.75 41.4657C618.915 40.2719 617.796 39.5538 615.566 38.2014C615.566 38.2201 615.538 38.2294 615.538 38.2481C615.697 38.332 615.79 38.4346 615.8 38.5465L615.389 38.5558C614.96 39.4419 613.384 39.9455 611.332 39.731C608.432 39.2553 606.044 40.4212 601.521 38.1362L600.224 39.9175L596.801 38.5372L596.904 37.0449C600.327 37.39 606.837 37.3247 611.258 37.5859L611.388 36.9144C608.767 36.7185 605.736 37.1475 604.02 36.8677C603.199 36.504 601.148 34.7972 602.789 33.9112L601.064 35.2449C592.297 34.7599 592.25 34.9092 583.213 32.6335L583.959 33.4262C582.121 33.7527 580.293 34.0698 579.855 32.8293C574.38 32.2138 568.756 31.0666 565.278 28.9775L564.41 30.6935C563.254 30.535 561.64 27.8023 560.959 30.2272L558.451 30.8801C556.874 30.6656 555.858 31.6262 554.095 30.5257C554.095 30.5163 554.086 30.5163 554.086 30.5163C553.974 30.4511 553.862 30.3764 553.75 30.2925C553.75 30.3485 553.759 30.3951 553.759 30.4417C550.206 29.5277 553.731 32.0179 549.665 30.8521C548.396 29.5557 548.117 33.0252 546.139 32.5495L544.227 29.9567C540.655 28.3712 539.947 30.8801 534.696 30.6842C532.206 29.6956 531.058 27.4945 532.793 25.6479C530.415 27.8769 531.702 27.1215 528.615 28.1381C528.176 27.1774 528.503 26.9816 529.202 26.1515C526.526 24.967 527.505 26.9629 525.462 26.851C524.819 28.623 524.054 31.4583 523.383 31.5516L524.157 32.1298C521.974 33.0252 519.605 33.4076 517.124 32.4376L517.246 31.5423L514.569 31.9247L514.476 30.7868L510.661 31.0386L511.174 31.3651C510.279 31.4863 507.332 31.8221 505.662 31.1972L505.737 30.563C501.036 28.4831 497.082 31.02 491.532 31.1319L492.278 29.8355C490.413 28.5018 491.728 31.8314 489.49 31.1412L489.406 29.5371C487.391 31.6075 486.85 29.0427 485.489 28.2313L486.095 30.3391L483.53 29.8728C480.704 29.1453 481.823 27.1961 482.252 26.1049L480.303 27.737L479.949 25.881C478.512 28.0261 478.54 25.5173 476.05 26.6551C475.854 25.9556 476.479 25.5546 475.649 25.2468L471.546 27.821L474.017 26.6831L473.691 29.3878C471.116 31.421 470.23 29.0521 468.393 29.7982L469.662 29.0054C466.677 29.6303 466.518 28.4738 464.84 27.8583C465.362 28.3619 466.155 29.1267 464.942 29.4624C464.056 29.6117 464.467 28.5111 463.627 28.2034C463.413 30.0127 461.277 30.964 459.337 30.106C459.365 29.8448 459.402 29.6023 459.533 29.4345C459.039 29.7236 458.777 30.1899 457.919 29.7516L458.432 27.7463L456.763 29.649C455.662 29.0987 454.04 30.5443 454.189 29.192L454.823 28.7909L446.448 28.2873L446.336 26.6831C445.506 28.8935 441.766 25.8344 442.046 28.5951C440.46 27.0935 435.825 29.6863 436.748 26.5712C431.236 26.3567 428.28 29.3598 421.583 27.8769C419.186 25.2562 412.658 26.1795 408.358 25.9463C399.973 27.1215 394.564 28.2127 386.012 29.2013C380.789 25.5826 373.178 30.7029 367.592 28.7443L366.109 30.2365C362.369 27.9795 356.81 30.9547 351.578 28.8282C350.328 29.4997 349.666 29.7236 349.377 29.7795C349.61 29.8448 349.974 30.1153 350.114 31.0386C348.621 30.4231 345.655 31.3184 345.814 29.4624L346.187 29.2573C346.355 27.3919 341.729 30.2459 340.041 28.679L341.001 30.6469L338.194 30.3858L338.931 29.9847C326.928 34.7786 321.229 28.6137 309.972 33.0625C311.408 30.8428 307.762 34.2843 307.528 31.9153C304.544 29.0427 302.222 32.7454 299.899 33.6314C299.899 33.7433 299.881 33.8832 299.75 34.0698L295.618 33.9485C297.959 30.8521 292.746 36.5506 294.91 33.9112C284.081 32.0832 270.157 34.9651 257.678 34.5268L258.256 35.2729C255.094 35.2729 251.224 36.4014 248.771 35.2915C246.318 34.1817 243.641 37.5113 242.718 37.6792C240.163 39.1341 237.644 36.6346 238.782 36.6999C235.994 37.2128 233.513 40.0947 229.558 39.1248C228.085 36.6532 219.094 42.2119 218.814 39.3579L218.786 39.6004C213.684 37.875 209.198 41.5777 203.714 40.0947C203.714 40.0947 203.808 39.8802 203.975 39.675L193.642 49.0669L197.382 58.4028L207.258 65.5563C207.258 65.5563 213.591 64.7542 219.924 63.9521C226.266 63.178 232.608 62.4039 232.608 62.4039L253.099 64.3905C253.099 64.3905 265.456 63.5604 277.823 62.7397C290.19 61.9749 302.557 61.2194 302.557 61.2194L306.017 58.9344C315.885 62.3386 328.215 57.6007 338.791 59.979L338.959 58.1137C341.915 57.9271 341.748 59.0836 342.484 59.3821C369.96 58.1883 398.257 55.2318 423.019 57.4049C425.407 58.6266 432.663 57.8712 434.538 59.1582C442.559 56.8266 451.074 56.9012 459.113 57.153L458.805 57.3582L462.592 57.0131C462.751 57.1624 462.769 57.3862 462.648 57.5261C466.929 55.8939 473.644 57.61 478.867 58.3282L478.559 58.524C509.01 59.2235 537.438 56.5282 567.451 60.6505C581.273 64.3625 597.781 61.2661 613.571 65.062C614.97 66.0506 623.727 67.0299 632.513 67.5988C634.714 67.7294 636.906 67.8786 638.976 68.0371C641.056 68.177 643.015 68.289 644.749 68.3729C648.209 68.5408 650.774 68.5781 651.502 68.4382Z" fill="#2CB44E"/>
<path d="M698.592 73.0081L698.471 72.9988C698.33 73.766 698.564 73.504 698.592 73.0081Z" fill="#2CB44E"/>
<path d="M634.799 42.6128C634.873 42.6221 634.939 42.6408 635.013 42.6501L634.314 41.475L634.799 42.6128Z" fill="#2CB44E"/>
<path d="M678.352 47.239C676.44 46.6794 676.319 46.8752 676.552 47.2203C677.242 47.3695 677.867 47.4162 678.352 47.239Z" fill="#2CB44E"/>
<path d="M714.064 74.6682C715.015 74.948 714.754 74.4071 714.297 73.7729C713.29 73.633 712.59 73.5304 712.59 73.5304C713.085 73.8288 713.542 74.3605 714.064 74.6682Z" fill="#2CB44E"/>
<path d="M712.329 63.3849L712.778 62.8329C712.161 62.8516 712.133 63.0762 712.329 63.3849Z" fill="#2CB44E"/>
<path d="M200.148 39.1065C199.923 39.0503 199.811 39.172 200.148 39.1065V39.1065Z" fill="#2CB44E"/>
<path d="M376.103 36.2059C376.168 36.2152 376.205 36.1965 376.271 36.2059C376.411 35.8328 376.532 35.5157 376.653 35.2732L376.103 36.2059Z" fill="#2CB44E"/>
<path d="M404.382 39.5353C404.447 39.5726 404.494 39.6005 404.55 39.6378C404.54 39.4234 404.587 39.1996 404.382 39.5353Z" fill="#2CB44E"/>
<path d="M310.782 38.5842C310.538 38.5654 310.398 38.6403 310.295 38.7619C310.445 38.6871 310.585 38.6122 310.782 38.5842Z" fill="#2CB44E"/>
<path d="M148.469 42.7716C148.469 42.7716 148.544 42.753 148.59 42.7343C148.488 42.6597 148.385 42.6131 148.283 42.5199L148.469 42.7716Z" fill="#2CB44E"/>
<path d="M149.009 42.1095C149.643 42.3613 148.86 42.6411 148.589 42.7344C149.298 43.21 149.988 43.2287 150.669 42.9675C150.641 42.3893 149.335 42.5292 149.009 42.1095Z" fill="#2CB44E"/>
<path d="M54.7561 49.011L55.0264 48.7593C54.9146 48.8339 54.8307 48.9178 54.7561 49.011Z" fill="#2CB44E"/>
<path d="M313.4 66.8624C313.26 66.9184 313.101 66.937 312.98 67.0023C313.194 67.0209 313.316 66.9557 313.4 66.8624Z" fill="#2CB44E"/>
<path d="M69.5944 48.7034L69.7063 47.78C69.5851 48.1624 69.5664 48.4515 69.5944 48.7034Z" fill="#2CB44E"/>
<path d="M376.662 35.2639L376.877 34.9097C376.802 34.9936 376.737 35.1241 376.662 35.2639Z" fill="#2CB44E"/>
<path d="M430.541 41.4661C430.532 41.7459 430.578 41.9697 430.644 42.1656C430.681 42.1656 430.7 42.1749 430.718 42.1749L430.541 41.4661Z" fill="#2CB44E"/>
<path d="M559.771 70.9846C559.78 70.8727 559.79 70.7514 559.771 70.6208L559.128 71.1618C559.417 71.1525 559.622 71.0965 559.771 70.9846Z" fill="#2CB44E"/>
<path d="M466.159 47.9012C466.197 47.7986 466.29 47.7054 466.309 47.5935C465.721 47.2391 464.108 47.0525 462.037 46.9313L461.823 48.0411L466.159 47.9012Z" fill="#2CB44E"/>
<path d="M502.273 77.7655L498.813 75.1074C501.834 75.1913 504.436 75.4058 506.787 75.7323C509.137 76.0867 511.245 76.497 513.306 76.8794C517.419 77.6629 521.355 78.2225 526.55 78.1012L525.916 78.4929C526.615 78.866 527.352 77.8401 529.842 77.8028C531.092 77.7841 532.771 78.0173 535.093 78.7914C536.259 79.1831 537.574 79.7054 539.085 80.4049C539.84 80.7593 540.633 81.151 541.482 81.5894C542.321 82.0464 543.207 82.5686 544.14 83.1376L544.102 83.3614C544.662 83.4267 544.746 82.9883 545.744 83.7904L543.216 81.9065C544.979 81.664 546.63 80.8805 548.878 81.151C549.307 81.4868 549.381 81.9717 549.363 82.3355L554.875 82.9977L556.255 84.7417C558.074 84.2847 557.962 81.095 562 83.7811C560.788 81.3189 564.462 83.0256 564.155 81.8412C564.322 82.1489 564.742 82.6526 565.069 83.1003C567.745 83.4547 572.828 83.9956 574.32 83.2122C574.32 83.2122 572.017 81.5427 569.396 79.5002C566.775 77.4577 563.828 75.0514 562.653 73.6151C566.3 75.0421 563.707 73.5872 563.11 72.7105L562.746 73.1768C560.592 72.1509 560.862 70.8265 559.79 70.2482C559.771 70.3508 559.78 70.4907 559.78 70.6306L559.967 70.4814C560.023 70.7332 559.93 70.8825 559.78 70.9944C559.752 71.2835 559.603 71.4887 558.988 71.2835L559.137 71.1716C558.139 71.1809 556.535 70.6586 555.835 70.4348L556.04 69.3249C554.987 70.2109 552.291 68.8679 549.558 67.2358C546.826 65.5943 544.037 63.673 542.881 63.4865C540.801 61.7144 537.63 63.0108 534.85 61.845C530.29 60.7538 532.789 59.8584 530.616 58.5247C527.818 57.3682 531.008 59.9144 529.833 59.8025C529.833 59.8025 529.021 59.2802 528.21 58.7486C527.398 58.217 526.578 57.7133 526.578 57.7133C528.62 57.8625 527.622 57.0418 527.315 56.5475C524.33 55.9599 519.835 53.2739 518.613 55.3724C514.686 53.7589 514.78 52.8728 513.045 52.5278C513.577 53.0127 514.696 53.535 514.649 53.9827C513.138 52.7796 513.838 54.1226 514.481 54.4304C513.176 54.7661 510.079 53.2645 507.188 52.1081C504.297 50.9422 501.62 49.9909 501.219 51.1847L501.265 50.7371C500.482 52.4998 501.2 54.3744 499.354 55.1858L498.29 54.2438L496.462 54.8314C495.362 54.1039 495.987 53.6842 496.005 53.4604C493.067 54.0014 489.216 52.4998 485.783 51.9682L488.926 57.2936C486.147 55.8573 481.129 53.05 480.402 54.5983L478.816 52.7609C473.276 49.021 474.619 53.7775 472.381 52.593L469.611 50.4946L472.521 50.793C469.686 49.5992 468.566 48.8811 466.337 47.5287C466.337 47.5474 466.309 47.5567 466.309 47.5753C466.468 47.6593 466.561 47.7619 466.571 47.8738L466.16 47.8831C465.731 48.7691 464.155 49.2728 462.103 49.0583C459.203 48.5826 456.815 49.7484 452.292 47.4634L450.995 49.2448L447.572 47.8645L447.675 46.3722C451.098 46.7173 457.608 46.652 462.029 46.9132L462.159 46.2416C459.538 46.0458 456.507 46.4748 454.791 46.195C453.97 45.8313 451.919 44.1245 453.56 43.2385L451.835 44.5722C443.068 44.0872 443.021 44.2364 433.984 41.9607L434.73 42.7535C432.892 43.0799 431.064 43.397 430.626 42.1566C425.151 41.541 419.527 40.3939 416.049 38.3047L415.181 40.0208C414.025 39.8623 412.411 37.1296 411.73 39.5545L409.221 40.2073C407.645 39.9928 406.629 40.9535 404.866 39.8529C404.866 39.8436 404.857 39.8436 404.857 39.8436C404.745 39.7783 404.633 39.7037 404.521 39.6198C404.521 39.6757 404.53 39.7224 404.53 39.769C400.977 38.855 404.502 41.3452 400.436 40.1794C399.167 38.883 398.888 42.3525 396.91 41.8768L394.998 39.284C391.426 37.6985 390.718 40.2073 385.467 40.0115C382.977 39.0229 381.829 36.8218 383.564 34.9751C381.186 37.2042 382.473 36.4487 379.386 37.4653C378.947 36.5047 379.274 36.3088 379.973 35.4788C377.297 34.2943 378.276 36.2902 376.233 36.1783C375.59 37.9503 374.825 40.7856 374.154 40.8789L374.928 41.4571C372.745 42.3525 370.376 42.7348 367.895 41.7649L368.017 40.8695L365.34 41.2519L365.247 40.1141L361.432 40.3659L361.945 40.6923C361.05 40.8136 358.103 41.1493 356.433 40.5245L356.508 39.8902C351.807 37.8104 347.853 40.3472 342.303 40.4592L343.049 39.1628C341.184 37.8291 342.499 41.1587 340.261 40.4685L340.177 38.8643C338.162 40.9348 337.621 38.37 336.26 37.5586L336.866 39.6664L334.301 39.2001C331.475 38.4726 332.594 36.5234 333.023 35.4321L331.074 37.0643L330.72 35.2083C329.283 37.3534 329.311 34.8446 326.821 35.9824C326.625 35.2829 327.25 34.8819 326.42 34.5741L322.316 37.1482L324.788 36.0104L324.462 38.7151C321.887 40.7483 321.001 38.3793 319.164 39.1255L320.433 38.3327C317.448 38.9576 317.289 37.8011 315.611 37.1855C316.133 37.6892 316.926 38.454 315.713 38.7897C314.827 38.9389 315.238 37.8384 314.398 37.5306C314.184 39.34 312.048 40.2913 310.108 39.4332C310.136 39.1721 310.173 38.9296 310.304 38.7617C309.81 39.0509 309.548 39.5172 308.69 39.0788L309.203 37.0736L307.534 38.9762C306.433 38.426 304.811 39.8716 304.96 38.5192L305.594 38.1182L297.219 37.6146L297.107 36.0104C296.277 38.2208 292.537 35.1617 292.817 37.9223C291.231 36.4208 286.596 39.0135 287.519 35.8985C282.007 35.684 279.051 38.6871 272.354 37.2042C269.957 34.5834 263.429 35.5068 259.129 35.2736C250.744 36.4487 245.335 37.5399 236.782 38.5286C231.56 34.9099 223.949 40.0301 218.363 38.0716L216.88 39.5638C213.14 37.3068 207.581 40.282 202.349 38.1555C201.099 38.827 200.437 39.0509 200.148 39.1068C200.381 39.1721 200.745 39.4426 200.885 40.3659C199.392 39.7503 196.426 40.6457 196.585 38.7897L196.958 38.5845C197.126 36.7192 192.5 39.5731 190.812 38.0063L191.772 39.9742L188.965 39.713L189.702 39.312C177.699 44.1059 172 37.941 160.743 42.3898C162.179 40.17 158.533 43.6115 158.299 41.2426C155.315 38.37 152.993 42.0727 150.67 42.9587C150.67 43.0706 150.652 43.2105 150.521 43.397L146.389 43.2758C148.73 40.1794 143.517 45.8779 145.681 43.2385C134.852 41.4105 120.928 44.2924 108.449 43.854L109.027 44.6002C105.865 44.6002 101.995 45.7287 99.542 44.6188C97.0891 43.509 94.4124 46.8385 93.489 47.0064C90.9335 48.4614 88.4154 45.9618 89.5532 46.0271C86.7646 46.5401 84.2837 49.422 80.3292 48.452C78.865 45.9992 69.8741 51.5578 69.5943 48.7039L69.5664 48.9463C64.4647 47.2209 59.9786 50.9236 54.5039 49.4313C54.5039 49.4313 54.5972 49.2168 54.7651 49.0116L44.4126 58.3942L48.1526 67.7301L58.0294 74.8835C58.0294 74.8835 64.3621 74.0815 70.6949 73.2794C77.0369 72.5053 83.379 71.7312 83.379 71.7312L103.869 73.7177C103.869 73.7177 116.227 72.8877 128.594 72.0669C140.961 71.3021 153.328 70.5467 153.328 70.5467L156.788 68.2617C166.656 71.6659 178.986 66.928 189.562 69.3063L189.73 67.4409C192.686 67.2544 192.519 68.4109 193.255 68.7094C220.731 67.5156 249.028 64.559 273.79 66.7321C276.178 67.9539 283.434 67.1985 285.309 68.4855C293.33 66.1539 301.845 66.2285 309.884 66.4803L309.576 66.6855L313.363 66.3404C313.522 66.4896 313.54 66.7135 313.419 66.8534C317.7 65.2212 324.415 66.9373 329.638 67.6555L329.33 67.8513C359.781 68.5508 388.209 65.8554 418.222 69.9778C432.044 73.6897 448.552 70.5933 464.342 74.3892C465.741 75.3779 474.498 76.3572 483.284 76.9261C485.485 77.0566 487.677 77.2059 489.747 77.3644C491.827 77.5043 493.786 77.6162 495.52 77.7002C498.98 77.868 501.545 77.9054 502.273 77.7655Z" fill="#2CB44E"/>
<path d="M549.363 82.3349L549.242 82.3256C549.101 83.0928 549.335 82.8308 549.363 82.3349Z" fill="#2CB44E"/>
<path d="M485.57 51.9397C485.645 51.949 485.71 51.9677 485.785 51.977L485.085 50.8019L485.57 51.9397Z" fill="#2CB44E"/>
<path d="M529.124 56.5656C527.212 56.006 527.09 56.2019 527.324 56.547C528.014 56.6962 528.639 56.7428 529.124 56.5656Z" fill="#2CB44E"/>
<path d="M564.835 83.9951C565.786 84.2749 565.525 83.734 565.068 83.0998C564.061 82.9599 563.361 82.8573 563.361 82.8573C563.856 83.1558 564.313 83.6874 564.835 83.9951Z" fill="#2CB44E"/>
<path d="M563.1 72.7116L563.549 72.1595C562.932 72.1783 562.904 72.4028 563.1 72.7116Z" fill="#2CB44E"/>
<path d="M246.808 6.10435C246.523 6.02902 246.38 6.19224 246.808 6.10435V6.10435Z" fill="#2CB44E"/>
<path d="M471.267 2.19805C471.35 2.21062 471.398 2.18549 471.481 2.19805C471.659 1.69564 471.814 1.26859 471.969 0.942017L471.267 2.19805Z" fill="#2CB44E"/>
<path d="M507.34 6.68205C507.424 6.73227 507.483 6.76994 507.554 6.82017C507.543 6.53138 507.602 6.23005 507.34 6.68205Z" fill="#2CB44E"/>
<path d="M387.939 5.40106C387.629 5.37586 387.45 5.47666 387.319 5.64047C387.51 5.53967 387.689 5.43886 387.939 5.40106Z" fill="#2CB44E"/>
<path d="M180.884 11.0403C180.884 11.0403 180.98 11.0152 181.039 10.9901C180.908 10.8896 180.777 10.8269 180.647 10.7013L180.884 11.0403Z" fill="#2CB44E"/>
<path d="M181.575 10.1488C182.384 10.4879 181.384 10.8647 181.039 10.9903C181.944 11.6309 182.824 11.656 183.693 11.3044C183.657 10.5256 181.991 10.714 181.575 10.1488Z" fill="#2CB44E"/>
<path d="M61.3395 19.4434L61.6844 19.1044C61.5417 19.2048 61.4346 19.3178 61.3395 19.4434Z" fill="#2CB44E"/>
<path d="M391.282 43.484C391.103 43.5596 390.9 43.5848 390.745 43.673C391.019 43.6982 391.174 43.61 391.282 43.484Z" fill="#2CB44E"/>
<path d="M80.269 19.029L80.4117 17.7855C80.2571 18.3005 80.2333 18.6899 80.269 19.029Z" fill="#2CB44E"/>
<path d="M471.979 0.931089L472.254 0.452271C472.158 0.565675 472.075 0.742081 471.979 0.931089Z" fill="#2CB44E"/>
<path d="M540.71 9.28235C540.698 9.65916 540.757 9.96061 540.841 10.2244C540.888 10.2244 540.912 10.2369 540.936 10.2369L540.71 9.28235Z" fill="#2CB44E"/>
<path d="M705.562 49.0356C705.574 48.8849 705.586 48.7216 705.562 48.5458L704.741 49.2743C705.11 49.2617 705.372 49.1864 705.562 49.0356Z" fill="#2CB44E"/>
<path d="M586.147 17.9487C586.195 17.8106 586.314 17.685 586.337 17.5342C585.588 17.0569 583.53 16.8057 580.888 16.6425L580.615 18.1371L586.147 17.9487Z" fill="#2CB44E"/>
<path d="M632.215 58.1671L627.801 54.5874C631.656 54.7005 634.975 54.9893 637.973 55.429C640.971 55.9062 643.66 56.4589 646.289 56.9739C651.536 58.029 656.557 58.7826 663.184 58.6193L662.375 59.1468C663.267 59.6493 664.207 58.2676 667.384 58.2174C668.978 58.1922 671.119 58.5063 674.082 59.5488C675.569 60.0763 677.247 60.7797 679.174 61.7217C680.138 62.199 681.149 62.7265 682.232 63.3169C683.302 63.9323 684.433 64.6357 685.622 65.4019L685.575 65.7033C686.289 65.7913 686.396 65.2009 687.669 66.2811L684.445 63.7439C686.693 63.4174 688.799 62.3623 691.666 62.7265C692.214 63.1787 692.309 63.8319 692.285 64.3217L699.316 65.2135L701.077 67.5623C703.397 66.9468 703.255 62.6512 708.406 66.2686C706.859 62.9526 711.547 65.2512 711.154 63.656C711.369 64.0705 711.904 64.7488 712.32 65.3517C715.735 65.829 722.219 66.5575 724.123 65.5024C724.123 65.5024 721.184 63.2541 717.841 60.5034C714.498 57.7526 710.738 54.5121 709.239 52.5778C713.891 54.4995 710.583 52.5401 709.822 51.3594L709.358 51.9874C706.61 50.6058 706.955 48.8222 705.586 48.0435C705.563 48.1816 705.575 48.37 705.575 48.5584L705.812 48.3575C705.884 48.6966 705.765 48.8976 705.575 49.0483C705.539 49.4377 705.348 49.714 704.563 49.4377L704.754 49.2869C703.481 49.2995 701.434 48.5961 700.542 48.2947L700.804 46.8C699.459 47.9932 696.021 46.1845 692.535 43.9865C689.049 41.7758 685.492 39.1884 684.016 38.9372C681.363 36.5507 677.318 38.2966 673.773 36.7266C667.955 35.257 671.143 34.0512 668.371 32.2551C664.802 30.6976 668.871 34.1266 667.372 33.9758C667.372 33.9758 666.337 33.2724 665.302 32.5565C664.266 31.8406 663.22 31.1623 663.22 31.1623C665.825 31.3633 664.552 30.258 664.159 29.5923C660.352 28.801 654.618 25.1836 653.059 28.0096C648.05 25.8367 648.169 24.6435 645.956 24.1787C646.634 24.8319 648.062 25.5353 648.003 26.1382C646.075 24.5179 646.968 26.3266 647.789 26.7411C646.123 27.1932 642.173 25.171 638.485 23.6135C634.797 22.0435 631.382 20.7623 630.87 22.37L630.93 21.7671C629.93 24.1411 630.847 26.6657 628.491 27.7584L627.135 26.4898L624.803 27.2811C623.399 26.3014 624.196 25.7362 624.22 25.4348C620.472 26.1633 615.558 24.1411 611.18 23.4251L615.19 30.5971C611.644 28.6628 605.243 24.8821 604.315 26.9671L602.293 24.4927C595.226 19.456 596.939 25.8618 594.083 24.2667L590.55 21.4406L594.262 21.8425C590.645 20.2348 589.217 19.2676 586.374 17.4464C586.374 17.4715 586.338 17.484 586.338 17.5092C586.54 17.6222 586.659 17.7604 586.671 17.9111L586.148 17.9237C585.601 19.1169 583.59 19.7952 580.972 19.5063C577.272 18.8657 574.227 20.4357 568.456 17.3584L566.803 19.7575L562.436 17.8985L562.567 15.8889C566.933 16.3536 575.238 16.2657 580.877 16.6174L581.044 15.713C577.701 15.4493 573.834 16.027 571.645 15.6502C570.598 15.1604 567.98 12.8618 570.074 11.6686L567.873 13.4647C556.69 12.8116 556.63 13.0126 545.102 9.94782L546.053 11.0155C543.71 11.4551 541.378 11.8821 540.819 10.2116C533.835 9.38261 526.661 7.83768 522.223 5.02415L521.116 7.33526C519.641 7.12174 517.583 3.44154 516.714 6.70724L513.514 7.58647C511.503 7.29758 510.206 8.5913 507.958 7.10918C507.958 7.09661 507.946 7.09661 507.946 7.09661C507.803 7.00869 507.66 6.90821 507.518 6.79517C507.518 6.87053 507.529 6.93333 507.529 6.99613C502.996 5.76521 507.494 9.11884 502.306 7.54879C500.688 5.8029 500.331 10.4754 497.809 9.83478L495.37 6.34299C490.813 4.20773 489.909 7.58647 483.211 7.3227C480.034 5.9913 478.571 3.02705 480.784 0.540097C477.75 3.54203 479.392 2.52464 475.454 3.89372C474.895 2.6 475.311 2.33623 476.203 1.21836C472.789 -0.37681 474.038 2.31111 471.433 2.16039C470.612 4.54686 469.636 8.36521 468.779 8.49082L469.767 9.26956C466.983 10.4754 463.961 10.9903 460.796 9.68405L460.951 8.47826L457.536 8.99323L457.417 7.46087L452.551 7.8L453.206 8.23961C452.063 8.40289 448.304 8.85507 446.174 8.01352L446.269 7.15942C440.273 4.35845 435.229 7.77488 428.15 7.9256L429.101 6.17971C426.722 4.38357 428.399 8.86763 425.544 7.93816L425.437 5.77778C422.867 8.56618 422.177 5.11208 420.44 4.01932L421.213 6.85797L417.942 6.22995C414.337 5.25024 415.764 2.62512 416.312 1.15556L413.825 3.35362L413.373 0.854106C411.541 3.74299 411.576 0.364251 408.4 1.89662C408.15 0.954589 408.947 0.414493 407.888 0L402.653 3.46667L405.806 1.9343L405.39 5.57681C402.106 8.31497 400.976 5.12464 398.632 6.12947L400.25 5.06183C396.443 5.90338 396.241 4.34589 394.099 3.51691C394.765 4.19517 395.777 5.22512 394.23 5.67729C393.1 5.87826 393.623 4.39613 392.552 3.98164C392.279 6.41835 389.554 7.69951 387.08 6.54396C387.115 6.19227 387.163 5.8657 387.329 5.63961C386.699 6.02898 386.366 6.657 385.271 6.06666L385.926 3.36618L383.796 5.9285C382.392 5.18744 380.322 7.1343 380.512 5.31304L381.321 4.77295L370.637 4.09468L370.495 1.9343C369.436 4.91111 364.665 0.791304 365.022 4.50918C362.999 2.48696 357.086 5.97874 358.264 1.78357C351.233 1.49469 347.461 5.53913 338.919 3.54203C335.861 0.0125601 327.533 1.25604 322.048 0.942029C311.352 2.52464 304.452 3.9942 293.542 5.3256C286.879 0.452173 277.171 7.34782 270.044 4.71014L268.153 6.7198C263.382 3.68019 256.291 7.68695 249.616 4.82319C248.022 5.72753 247.177 6.02898 246.809 6.10435C247.106 6.19227 247.57 6.55652 247.748 7.8C245.845 6.97101 242.061 8.17681 242.264 5.67729L242.74 5.40097C242.954 2.88889 237.053 6.73236 234.899 4.62222L236.125 7.27246L232.543 6.92077L233.483 6.38067C218.171 12.8367 210.902 4.5343 196.542 10.5256C198.374 7.53623 193.722 12.171 193.425 8.98067C189.617 5.11207 186.655 10.0985 183.693 11.2918C183.693 11.4425 183.669 11.6309 183.502 11.8821L178.232 11.7188C181.218 7.54879 174.567 15.2232 177.327 11.6686C163.514 9.20676 145.752 13.0879 129.833 12.4976L130.57 13.5024C126.537 13.5024 121.6 15.0222 118.471 13.5275C115.342 12.0328 111.927 16.5169 110.749 16.743C107.489 18.7024 104.277 15.3362 105.728 15.4241C102.171 16.115 99.0064 19.9961 93.9619 18.6898C92.0821 15.3613 80.6129 22.8473 80.256 19.0039L80.2203 19.3304C73.7124 17.0068 67.9897 21.9932 60.994 19.9961C60.994 19.9961 61.113 19.7072 61.3272 19.4309L48.1448 32.0792L52.9157 44.6522L65.5151 54.286C65.5151 54.286 73.5934 53.2058 81.6718 52.1256C89.7621 51.0831 97.8524 50.0406 97.8524 50.0406L123.991 52.7159C123.991 52.7159 139.755 51.598 155.531 50.4927C171.307 49.4628 187.083 48.4454 187.083 48.4454L191.497 45.3681C204.085 49.9526 219.813 43.572 233.305 46.7749L233.519 44.2628C237.291 44.0116 237.076 45.5691 238.016 45.971C273.066 44.3633 309.163 40.3816 340.751 43.3082C343.797 44.9536 353.053 43.9362 355.444 45.6695C365.676 42.5294 376.538 42.6299 386.794 42.9691L386.401 43.2454L391.232 42.7807C391.434 42.9816 391.458 43.2831 391.303 43.4715C396.764 41.2734 405.33 43.5845 411.993 44.5517L411.6 44.8154C450.445 45.7575 486.709 42.1275 524.995 47.6792C542.627 52.6782 563.685 48.5082 583.828 53.6203C585.612 54.9517 596.784 56.2705 607.992 57.0367C610.799 57.2125 613.595 57.4135 616.236 57.627C618.89 57.8154 621.388 57.9662 623.601 58.0792C628.015 58.3053 631.287 58.3555 632.215 58.1671Z" fill="#2CB44E"/>
<path d="M692.285 64.3218L692.13 64.3092C691.951 65.3424 692.249 64.9896 692.285 64.3218Z" fill="#2CB44E"/>
<path d="M610.906 23.3872C611.001 23.3998 611.085 23.4249 611.18 23.4375L610.287 21.8549L610.906 23.3872Z" fill="#2CB44E"/>
<path d="M666.468 29.6175C664.029 28.8639 663.874 29.1277 664.171 29.5924C665.052 29.7934 665.849 29.8562 666.468 29.6175Z" fill="#2CB44E"/>
<path d="M712.024 66.5573C713.237 66.9341 712.904 66.2056 712.321 65.3515C711.036 65.1631 710.144 65.0249 710.144 65.0249C710.774 65.4268 711.357 66.1428 712.024 66.5573Z" fill="#2CB44E"/>
<path d="M709.811 51.3617L710.384 50.6183C709.596 50.6435 709.56 50.9459 709.811 51.3617Z" fill="#2CB44E"/>
<path d="M184.413 36.4486C184.148 36.3741 184.016 36.5355 184.413 36.4486V36.4486Z" fill="#2CB44E"/>
<path d="M391.709 32.5999C391.786 32.6123 391.829 32.5876 391.906 32.5999C392.071 32.1049 392.214 31.6842 392.357 31.3624L391.709 32.5999Z" fill="#2CB44E"/>
<path d="M425.023 37.0178C425.1 37.0672 425.155 37.1043 425.221 37.1538C425.21 36.8693 425.265 36.5724 425.023 37.0178Z" fill="#2CB44E"/>
<path d="M314.752 35.7557C314.465 35.7309 314.3 35.8302 314.179 35.9916C314.355 35.8923 314.52 35.793 314.752 35.7557Z" fill="#2CB44E"/>
<path d="M123.529 41.3119C123.529 41.3119 123.617 41.2872 123.672 41.2624C123.551 41.1635 123.43 41.1016 123.309 40.9779L123.529 41.3119Z" fill="#2CB44E"/>
<path d="M124.166 40.4333C124.913 40.7675 123.99 41.1387 123.671 41.2625C124.506 41.8936 125.32 41.9183 126.122 41.5718C126.089 40.8046 124.55 40.9902 124.166 40.4333Z" fill="#2CB44E"/>
<path d="M13.1234 49.5907L13.4419 49.2567C13.3101 49.3557 13.2113 49.467 13.1234 49.5907Z" fill="#2CB44E"/>
<path d="M317.838 73.2766C317.673 73.3511 317.485 73.3759 317.342 73.4628C317.596 73.4877 317.739 73.4008 317.838 73.2766Z" fill="#2CB44E"/>
<path d="M30.6047 49.1824L30.7365 47.9573C30.5937 48.4647 30.5717 48.8483 30.6047 49.1824Z" fill="#2CB44E"/>
<path d="M392.366 31.3515L392.619 30.8798C392.531 30.9915 392.454 31.1653 392.366 31.3515Z" fill="#2CB44E"/>
<path d="M455.844 39.5793C455.833 39.9506 455.888 40.2476 455.965 40.5075C456.009 40.5075 456.031 40.5198 456.053 40.5198L455.844 39.5793Z" fill="#2CB44E"/>
<path d="M608.092 78.7463C608.103 78.5978 608.114 78.4369 608.092 78.2637L607.333 78.9814C607.674 78.969 607.916 78.8948 608.092 78.7463Z" fill="#2CB44E"/>
<path d="M497.806 48.1181C497.85 47.9819 497.96 47.8582 497.982 47.7097C497.29 47.2394 495.389 46.9919 492.95 46.8311L492.697 48.3037L497.806 48.1181Z" fill="#2CB44E"/>
<path d="M540.352 87.7435L536.275 84.2166C539.835 84.328 542.901 84.6126 545.67 85.0457C548.439 85.516 550.922 86.0605 553.35 86.5679C558.196 87.6074 562.833 88.3499 568.953 88.189L568.206 88.7087C569.03 89.2037 569.898 87.8425 572.832 87.793C574.304 87.7682 576.282 88.0776 579.018 89.1047C580.391 89.6245 581.941 90.3175 583.721 91.2456C584.611 91.7159 585.545 92.2356 586.544 92.8172C587.533 93.4236 588.577 94.1166 589.676 94.8715L589.632 95.1685C590.291 95.2551 590.39 94.6735 591.566 95.7377L588.588 93.238C590.665 92.9162 592.61 91.8767 595.258 92.2356C595.763 92.6811 595.851 93.3246 595.829 93.8072L602.323 94.6859L603.949 97C606.092 96.3936 605.96 92.1614 610.718 95.7254C609.289 92.4584 613.619 94.723 613.256 93.1514C613.454 93.5597 613.948 94.228 614.333 94.822C617.486 95.2922 623.475 96.01 625.233 94.9705C625.233 94.9705 622.519 92.7554 619.431 90.0452C616.344 87.3351 612.871 84.1424 611.487 82.2366C615.783 84.13 612.729 82.1995 612.025 81.0362L611.597 81.655C609.059 80.2937 609.377 78.5365 608.114 77.7692C608.092 77.9053 608.103 78.091 608.103 78.2766L608.322 78.0786C608.388 78.4127 608.278 78.6107 608.103 78.7592C608.07 79.1429 607.894 79.4151 607.169 79.1428L607.344 78.9943C606.169 79.0067 604.279 78.3137 603.455 78.0167L603.697 76.5441C602.455 77.7197 599.279 75.9377 596.06 73.7721C592.841 71.5941 589.555 69.0448 588.193 68.7973C585.742 66.4461 582.006 68.1662 578.732 66.6193C573.359 65.1715 576.304 63.9835 573.744 62.2138C570.447 60.6793 574.205 64.0577 572.821 63.9092C572.821 63.9092 571.865 63.2162 570.909 62.5108C569.953 61.8055 568.986 61.1372 568.986 61.1372C571.392 61.3352 570.217 60.2462 569.854 59.5903C566.338 58.8107 561.042 55.2467 559.602 58.0311C554.976 55.8902 555.086 54.7146 553.043 54.2567C553.669 54.9002 554.987 55.5932 554.932 56.1872C553.152 54.5908 553.977 56.3728 554.735 56.7812C553.196 57.2267 549.548 55.2343 546.142 53.6998C542.736 52.153 539.582 50.8907 539.11 52.4747L539.165 51.8807C538.242 54.2196 539.088 56.707 536.912 57.7836L535.66 56.5337L533.506 57.3133C532.21 56.3481 532.946 55.7912 532.968 55.4942C529.507 56.212 524.969 54.2196 520.925 53.5142L524.628 60.5803C521.354 58.6746 515.442 54.9497 514.585 57.004L512.717 54.5661C506.19 49.6037 507.773 55.915 505.136 54.3433L501.872 51.559L505.3 51.955C501.96 50.371 500.642 49.4181 498.015 47.6237C498.015 47.6485 497.982 47.6608 497.982 47.6856C498.169 47.797 498.279 47.9331 498.29 48.0816L497.807 48.094C497.301 49.2696 495.444 49.9378 493.027 49.6532C489.61 49.0221 486.797 50.569 481.468 47.5371L479.94 49.9007L475.908 48.0692L476.029 46.0892C480.061 46.5471 487.731 46.4605 492.939 46.807L493.093 45.916C490.005 45.6561 486.434 46.2253 484.413 45.8541C483.446 45.3714 481.028 43.1068 482.962 41.9312L480.929 43.7008C470.601 43.0573 470.546 43.2553 459.899 40.2358L460.778 41.2877C458.613 41.7208 456.459 42.1416 455.943 40.4957C449.493 39.6789 442.867 38.1568 438.769 35.3848L437.747 37.6618C436.385 37.4514 434.484 33.8256 433.682 37.0431L430.726 37.9093C428.869 37.6247 427.671 38.8993 425.595 37.4391C425.595 37.4267 425.584 37.4267 425.584 37.4267C425.452 37.3401 425.32 37.2411 425.188 37.1297C425.188 37.2039 425.199 37.2658 425.199 37.3277C421.013 36.1149 425.166 39.4191 420.375 37.8722C418.881 36.1521 418.551 40.7556 416.222 40.1244L413.969 36.6842C409.761 34.5804 408.926 37.9093 402.74 37.6494C399.806 36.3377 398.455 33.4172 400.498 30.9669C397.696 33.9246 399.213 32.9222 395.576 34.2711C395.059 32.9964 395.444 32.7366 396.268 31.6352C393.115 30.0636 394.268 32.7118 391.862 32.5633C391.104 34.9146 390.203 38.6766 389.412 38.8003L390.324 39.5676C387.752 40.7556 384.962 41.2629 382.039 39.9759L382.182 38.7879L379.028 39.2953L378.918 37.7856L374.424 38.1197L375.029 38.5528C373.974 38.7137 370.502 39.1592 368.535 38.3301L368.623 37.4886C363.085 34.7289 358.426 38.0949 351.888 38.2434L352.767 36.5233C350.57 34.7537 352.119 39.1716 349.482 38.2558L349.383 36.1273C347.01 38.8746 346.372 35.4714 344.768 34.3948L345.482 37.1916L342.461 36.5728C339.131 35.6076 340.45 33.0212 340.955 31.5733L338.659 33.7389L338.241 31.2763C336.549 34.1226 336.582 30.7937 333.648 32.3034C333.418 31.3753 334.154 30.8432 333.176 30.4348L328.341 33.8503L331.253 32.3406L330.868 35.9293C327.836 38.6271 326.792 35.4838 324.627 36.4738L326.122 35.4219C322.606 36.2511 322.419 34.7166 320.441 33.8998C321.056 34.5681 321.99 35.5828 320.562 36.0283C319.518 36.2263 320.001 34.7661 319.013 34.3577C318.76 36.7584 316.244 38.0207 313.958 36.8822C313.991 36.5357 314.035 36.2139 314.189 35.9912C313.607 36.3748 313.299 36.9936 312.288 36.4119L312.892 33.7513L310.925 36.2758C309.629 35.5457 307.717 37.4638 307.893 35.6694L308.64 35.1373L298.773 34.4691L298.641 32.3406C297.663 35.2734 293.257 31.2144 293.587 34.8774C291.719 32.8851 286.258 36.3253 287.346 32.1921C280.852 31.9074 277.369 35.8922 269.479 33.9246C266.655 30.4472 258.964 31.6723 253.899 31.3629C244.021 32.9222 237.648 34.3701 227.572 35.6818C221.419 30.8803 212.452 37.6742 205.871 35.0754L204.124 37.0554C199.718 34.0607 193.169 38.0083 187.005 35.1868C185.532 36.0778 184.752 36.3748 184.411 36.4491C184.686 36.5357 185.115 36.8946 185.28 38.1197C183.521 37.3029 180.027 38.4909 180.214 36.0283L180.654 35.7561C180.851 33.2811 175.401 37.0678 173.413 34.9888L174.544 37.5999L171.237 37.2534L172.105 36.7213C157.964 43.0821 151.25 34.9022 137.988 40.8051C139.68 37.8598 135.384 42.4262 135.109 39.2829C131.593 35.4714 128.857 40.3843 126.121 41.5599C126.121 41.7084 126.099 41.8941 125.945 42.1416L121.078 41.9807C123.836 37.8722 117.693 45.4333 120.243 41.9312C107.486 39.5057 91.0808 43.3296 76.379 42.7479L77.0603 43.7379C73.3354 43.7379 68.7755 45.2353 65.8857 43.7627C62.9958 42.2901 59.8423 46.708 58.7545 46.9307C55.7439 48.8612 52.7772 45.5447 54.1177 45.6313C50.8323 46.3119 47.9095 50.1358 43.2507 48.8488C41.5256 45.5942 30.9333 52.9697 30.6037 49.183L30.5707 49.5047C24.5604 47.2153 19.2752 52.1282 12.8254 50.1482C12.8254 50.1482 12.9352 49.8636 13.133 49.5913L0.936523 62.0406L5.34265 74.428L16.9788 83.9196C16.9788 83.9196 24.4395 82.8554 31.9003 81.7911C39.372 80.764 46.8437 79.7369 46.8437 79.7369L70.984 82.3727C70.984 82.3727 85.5429 81.2713 100.113 80.1823C114.683 79.1676 129.253 78.1652 129.253 78.1652L133.329 75.1334C144.954 79.6502 159.48 73.3637 171.94 76.5193L172.138 74.0443C175.621 73.7968 175.423 75.3313 176.291 75.7273C208.662 74.1433 241.999 70.2205 271.171 73.1039C273.984 74.725 282.533 73.7226 284.741 75.4303C294.191 72.3366 304.223 72.4356 313.694 72.7697L313.332 73.042L317.793 72.5841C317.98 72.7821 318.002 73.0791 317.859 73.2647C322.902 71.0991 330.813 73.3761 336.967 74.329L336.604 74.5888C372.479 75.517 405.97 71.9406 441.329 77.4103C457.613 82.3356 477.062 78.2271 495.664 83.2637C497.312 84.5755 507.63 85.8749 517.98 86.6297C520.573 86.803 523.156 87.001 525.595 87.2114C528.045 87.397 530.353 87.5455 532.396 87.6569C536.473 87.8796 539.495 87.9291 540.352 87.7435Z" fill="#2CB44E"/>
<path d="M595.83 93.8066L595.687 93.7942C595.521 94.8122 595.797 94.4646 595.83 93.8066Z" fill="#2CB44E"/>
<path d="M520.671 53.4764C520.759 53.4888 520.836 53.5135 520.924 53.5259L520.1 51.9667L520.671 53.4764Z" fill="#2CB44E"/>
<path d="M571.985 59.6146C569.733 58.8721 569.59 59.1319 569.865 59.5898C570.678 59.7878 571.414 59.8497 571.985 59.6146Z" fill="#2CB44E"/>
<path d="M614.059 96.0093C615.18 96.3805 614.872 95.6628 614.334 94.8213C613.147 94.6356 612.323 94.4995 612.323 94.4995C612.905 94.8955 613.444 95.6009 614.059 96.0093Z" fill="#2CB44E"/>
<path d="M612.014 81.038L612.543 80.3055C611.816 80.3304 611.783 80.6283 612.014 81.038Z" fill="#2CB44E"/>
<path d="M166.425 17.348C164.653 16.5147 162.587 16.0804 160.287 16.0804C156.836 16.0804 153.808 16.8316 151.261 18.3104L151.684 16.3034H133.809L130.817 30.3754C130.019 29.7064 129.15 29.1078 128.176 28.6032C125.993 27.4882 123.47 26.9249 120.688 26.9249C116.674 26.9249 113.189 27.7464 110.278 29.3543L111.933 21.5848L108.623 19.8126C107.015 18.9559 105.266 18.3221 103.4 17.9348C101.675 17.571 99.6917 17.3949 97.5087 17.3949C92.8611 17.3949 88.8825 18.5216 85.655 20.7398C82.2045 23.1223 80.0215 26.338 79.1648 30.3167L79.1413 30.4575C78.9418 31.549 78.8361 32.4879 78.8361 33.3329C78.8361 35.3985 79.376 37.3585 80.3971 39.0838L77.5099 37.4055L73.8364 54.5758L76.9114 56.4067C78.4958 57.3456 80.4205 58.038 82.8148 58.5192C84.9391 58.9417 87.1572 59.1647 89.3871 59.1647C94.7976 59.1647 98.9523 58.1202 102.098 55.9607C102.825 55.456 103.494 54.8927 104.116 54.2824C104.656 54.8692 105.243 55.4326 105.912 55.9255C108.787 58.0732 112.508 59.1647 116.956 59.1647C118.904 59.1647 120.876 59.0004 122.812 58.6835C123.54 58.5662 124.221 58.4253 124.866 58.2845L124.819 58.5075H137.577H142.682H155.451L158.761 42.9098H163.596L165.286 35.0112L166.425 35.645L169.981 19.0732L166.425 17.348Z" fill="white"/>
<path d="M315.161 26.9365C310.454 26.9365 306.393 28.3449 303.107 31.1147C302.896 31.2907 302.697 31.4902 302.497 31.678C302.145 31.1851 301.769 30.7156 301.335 30.2696C299.833 28.7439 297.098 26.9365 292.603 26.9365C291.042 26.9365 289.481 27.1595 287.944 27.5937H279.975C280.045 27.3708 280.116 27.1478 280.174 26.913L280.221 26.7018L280.257 26.4905C280.35 25.8098 280.397 25.3638 280.397 24.9648C280.397 22.6527 279.541 20.6223 277.909 19.0614C276.348 17.5709 274.33 16.7963 272.053 16.7963C270.292 16.7963 268.614 17.254 267.065 18.1577C265.586 19.0262 264.377 20.1998 263.485 21.6551C262.535 23.2043 262.053 24.9061 262.053 26.7135C262.053 27.0187 262.065 27.3121 262.1 27.6055H261.913H251.901L250.012 30.7391L249.46 27.6055H240.916C240.987 27.3825 241.057 27.1595 241.116 26.9248L241.163 26.7135L241.198 26.5023C241.292 25.8215 241.339 25.3756 241.339 24.9765C241.339 22.6645 240.482 20.6341 238.851 19.0731C237.29 17.5826 235.271 16.808 232.994 16.808C231.234 16.808 229.555 17.2657 228.006 18.1694C226.527 19.0379 225.319 20.2116 224.427 21.6669C223.476 23.2161 222.995 24.9178 222.995 26.7252C222.995 26.9482 223.006 27.1595 223.03 27.3708C222.267 27.4177 221.516 27.4881 220.777 27.6172H208.089C207.843 27.1125 207.573 26.6079 207.268 26.1267C205.625 23.5212 203.313 21.4908 200.414 20.0825C197.679 18.7562 194.534 18.0755 191.095 18.0755H176.12L167.564 58.5074H185.18C190.438 58.5074 195.015 57.3455 198.829 55.0804L198.102 58.5074H215.976L219.028 43.9777C219.133 43.9191 219.286 43.8604 219.427 43.8134L216.305 58.5191H234.179L236.186 49.0713L238.135 58.5191H252.23L256.983 50.9961L255.387 58.5191H267.229H273.25H297.755L296.394 64.892L299.915 66.5938C301.218 67.2275 302.732 67.697 304.551 68.0491C306.217 68.3659 307.931 68.5303 309.633 68.5303C313.787 68.5303 317.191 67.9552 320.031 66.7698C323.083 65.4905 325.512 63.6245 327.226 61.195C328.786 59.0003 329.925 56.2892 330.629 53.1087L336.051 27.6055H319.867C318.482 27.183 316.944 26.9365 315.161 26.9365ZM189.041 41.3723L190.497 34.5182C191.177 34.5299 191.6 34.5886 191.846 34.6473C191.858 34.7529 191.87 34.8938 191.87 35.0933C191.87 35.4454 191.823 36.0791 191.635 37.0181C191.248 38.755 190.591 40.0343 189.628 40.9145C189.476 41.0671 189.288 41.2197 189.041 41.3723Z" fill="white"/>
<path d="M418.499 27.5938H408.875H402.374H392.832C391.365 27.1596 389.757 26.9366 388.032 26.9366C385.497 26.9366 383.091 27.4295 380.849 28.3567L381.999 22.9932L379.429 21.0801C377.68 19.7774 375.661 18.815 373.432 18.2164C371.389 17.6648 369.03 17.3949 366.437 17.3949C362.235 17.3949 358.386 18.193 354.97 19.7774C351.473 21.397 348.527 23.7678 346.238 26.8192C344.008 29.7885 342.448 33.286 341.602 37.2411C341.274 38.8021 341.098 40.3395 341.098 41.8183C341.098 45.2688 341.966 48.379 343.668 51.0549C345.358 53.719 347.694 55.7729 350.604 57.1695C353.339 58.4723 356.39 59.1412 359.688 59.1412C365.028 59.1412 369.676 57.9911 373.537 55.7377C376.084 57.9911 379.37 59.1412 383.29 59.1412C384.992 59.1412 386.623 58.9182 388.184 58.484H395.813H402.315H413.699L416.751 43.9543C416.903 43.8722 417.091 43.79 417.326 43.7079C418.394 43.344 419.614 43.1563 420.964 43.1563H425.001L428.405 27.3004H422.231C420.952 27.2887 419.708 27.3826 418.499 27.5938ZM370.075 39.8466C368.854 40.6447 367.587 41.2198 366.319 41.5836C365.005 41.9474 363.526 42.1352 361.895 42.1352C360.158 42.1352 359.313 41.9122 359.019 41.8183C359.008 41.7479 359.008 41.6423 359.008 41.5014C359.008 40.8911 359.101 40.1752 359.289 39.3185C359.63 37.7106 360.287 36.5722 361.331 35.7271C362.388 34.8821 363.796 34.4713 365.639 34.4713C367.223 34.4713 368.549 34.6357 369.57 34.9525C370.321 35.1873 370.92 35.5159 371.389 35.9853L371.8 36.3844C371.213 37.4289 370.709 38.5321 370.31 39.694L370.075 39.8466Z" fill="white"/>
<path d="M455.282 27.547H438.969L437.924 32.4176H433.218L429.873 48.1561H434.567L433.523 53.0267H449.825L450.869 48.1561H455.587L458.92 32.4176H454.226L455.282 27.547Z" fill="white"/>
<path d="M639.472 31.7015L636.843 29.8002C635.446 28.7909 633.768 28.0632 631.691 27.5703C629.907 27.1478 627.935 26.9365 625.811 26.9365C622.008 26.9365 618.616 27.6759 615.706 29.1312L615.764 28.8613C616.058 28.2392 616.281 27.582 616.433 26.913L616.48 26.7135L616.515 26.5023C616.609 25.8215 616.656 25.3756 616.656 24.9648C616.656 22.6527 615.799 20.6106 614.168 19.0614C612.607 17.5709 610.577 16.7963 608.312 16.7963C606.551 16.7963 604.873 17.254 603.324 18.1577C601.962 18.9558 600.847 20.0355 599.979 21.3265H583.606L582.304 27.5937H579.358L579.334 27.7111C579.064 27.6524 578.818 27.582 578.536 27.5233C576.623 27.136 574.722 26.9482 572.903 26.9482C570.039 26.9482 567.68 27.3238 565.709 27.9458C565.826 27.6172 565.92 27.2651 566.002 26.9248L566.049 26.7252L566.084 26.514C566.178 25.8333 566.225 25.3873 566.225 24.9765C566.225 22.6645 565.368 20.6223 563.737 19.0731C562.176 17.5826 560.145 16.808 557.88 16.808C556.12 16.808 554.442 17.2657 552.892 18.1694C551.414 19.0379 550.205 20.2116 549.313 21.6669C548.362 23.2161 547.869 24.9178 547.869 26.7252C547.869 27.0304 547.881 27.3238 547.916 27.6172H547.728H537.565C536.227 27.2064 534.689 26.96 532.917 26.96C528.211 26.96 524.15 28.3683 520.864 31.1381C520.43 31.502 520.03 31.8775 519.631 32.2766C519.115 31.6428 518.528 31.0442 517.871 30.4926C515.054 28.1454 511.31 26.96 506.733 26.96C501.452 26.96 496.992 28.3214 493.471 31.009C489.868 33.7553 487.568 37.4523 486.605 42.0295H482.451L487.544 18.0755H469.623L461.067 58.5074H492.239L492.579 56.8525C495.138 58.3783 498.283 59.1646 501.98 59.1646C507.226 59.1646 511.686 57.8032 515.219 55.1156C515.629 54.7987 516.017 54.4818 516.392 54.1414L514.104 64.8802L517.625 66.582C518.927 67.2158 520.441 67.6852 522.26 68.0373C523.927 68.3542 525.64 68.5185 527.342 68.5185C531.497 68.5185 534.9 67.9434 537.741 66.7581C540.792 65.4788 543.222 63.6127 544.935 61.1833C545.522 60.3617 546.027 59.4463 546.484 58.4956H559.042L559.183 57.8501C560.016 58.1318 560.92 58.3783 561.929 58.5661C563.983 58.9534 566.037 59.1529 568.021 59.1529C572.492 59.1529 575.978 58.3431 578.689 56.6648C579.346 56.2657 579.933 55.808 580.485 55.3268C580.79 55.7141 581.107 56.0545 581.412 56.3362C583.419 58.2022 586.165 59.1529 589.58 59.1529C591.13 59.1529 592.467 59.0473 593.676 58.836C594.158 58.7538 594.627 58.6247 595.096 58.4956H609.474L610.072 55.6554C610.178 55.7493 610.283 55.8432 610.401 55.9371C613.17 58.0731 616.75 59.1529 621.022 59.1529C625.517 59.1529 629.437 58.2844 632.653 56.5591L634.695 55.4677L638.744 36.4899L638.427 36.666L639.472 31.7015ZM626.55 42.898C625.822 43.0858 625.083 43.1914 624.297 43.2149C624.754 42.9919 625.329 42.8862 626.069 42.8862C626.233 42.8862 626.397 42.8863 626.55 42.898Z" fill="white"/>
<path d="M83.8124 53.5901C81.9933 53.2263 80.5497 52.7216 79.4817 52.0879L80.9605 45.1634C82.3571 45.9732 83.8594 46.5835 85.4673 46.9943C87.0751 47.4051 88.6478 47.6046 90.197 47.6046C91.7697 47.6046 92.9785 47.3346 93.8353 46.7948C94.6921 46.2549 95.1263 45.5155 95.1263 44.5531C95.1263 43.8255 94.7742 43.2152 94.0818 42.7222C93.3893 42.2293 92.0748 41.5486 90.1618 40.6801C87.9788 39.6943 86.3827 38.6145 85.3734 37.4291C84.3523 36.2555 83.8476 34.8823 83.8476 33.3097C83.8476 32.7815 83.918 32.136 84.0706 31.3497C84.6457 28.6503 86.1362 26.4791 88.5187 24.836C90.9012 23.1929 93.9057 22.3713 97.5323 22.3713C99.3866 22.3713 101.018 22.5122 102.415 22.8056C103.811 23.099 105.102 23.5567 106.288 24.2022L104.844 30.9506C102.602 29.6127 100.185 28.9437 97.5675 28.9437C96.1708 28.9437 95.0207 29.1667 94.1052 29.6244C93.1898 30.0704 92.6264 30.7159 92.4269 31.5609C92.4035 31.6783 92.38 31.8426 92.38 32.0421C92.38 32.7111 92.7555 33.2862 93.4949 33.7791C94.2343 34.272 95.5606 34.9293 97.4853 35.7391C99.7504 36.7601 101.382 37.8047 102.368 38.8962C103.354 39.9877 103.846 41.3139 103.846 42.8865C103.846 43.5555 103.764 44.3066 103.588 45.1517C103.001 48.0271 101.581 50.2453 99.3162 51.7945C97.0511 53.3437 93.7532 54.13 89.4342 54.13C87.4977 54.1417 85.6316 53.954 83.8124 53.5901Z" fill="url(#paint0_linear)"/>
<path d="M108.928 51.9001C106.921 50.4096 105.923 48.3088 105.923 45.6094C105.923 44.8231 106.006 44.0015 106.182 43.1213C106.933 39.6121 108.529 36.8658 110.947 34.8941C113.376 32.9224 116.615 31.9365 120.676 31.9365C122.683 31.9365 124.42 32.3121 125.899 33.0632C127.378 33.8143 128.516 34.8471 129.291 36.1616C130.065 37.4761 130.464 38.9314 130.464 40.5628C130.464 41.2552 130.382 41.9946 130.206 42.7809L129.596 45.6094H112.918C113 47.8159 115.078 48.9191 119.15 48.9191C120.512 48.9191 121.944 48.8017 123.422 48.567C124.901 48.3323 126.216 48.0154 127.342 47.6046L126.298 52.663C125.136 53.0972 123.716 53.4493 122.026 53.731C120.336 54.0009 118.657 54.1418 116.967 54.1418C113.611 54.1418 110.923 53.3906 108.928 51.9001ZM123.387 40.8092C123.411 40.6332 123.434 40.3985 123.434 40.1168C123.434 39.1544 123.129 38.4267 122.519 37.9338C121.908 37.4409 120.876 37.1944 119.432 37.1944C118.035 37.1944 116.862 37.523 115.899 38.1685C114.937 38.814 114.291 39.706 113.939 40.8092H123.387Z" fill="url(#paint1_linear)"/>
<path d="M137.846 21.2916H145.51L138.667 53.4845H131.004L137.846 21.2916Z" fill="url(#paint2_linear)"/>
<path d="M147.083 37.8986H144.161L145.287 32.582H148.21L148.738 29.9648C149.371 27.0659 150.686 24.8594 152.658 23.3454C154.629 21.8315 157.176 21.0803 160.275 21.0803C161.847 21.0803 163.173 21.3385 164.277 21.8667L162.974 27.9696C162.246 27.5588 161.378 27.3593 160.357 27.3593C159.077 27.3593 158.139 27.6058 157.528 28.0987C156.918 28.5916 156.495 29.4366 156.261 30.622L155.873 32.582H160.709L159.582 37.8986H154.747L151.437 53.4962H143.773L147.083 37.8986Z" fill="url(#paint3_linear)"/>
<path d="M180.133 23.0403H191.071C193.77 23.0403 196.153 23.545 198.219 24.5425C200.284 25.5401 201.88 26.9485 203.031 28.7676C204.181 30.5868 204.756 32.6759 204.756 35.0583C204.756 36.1029 204.65 37.124 204.451 38.1098C203.43 43.2151 201.258 47.0647 197.937 49.6349C194.616 52.2052 190.355 53.4845 185.156 53.4845H173.701L180.133 23.0403ZM186.412 46.9943C189.052 46.9943 191.247 46.2079 192.984 44.6235C194.721 43.0391 195.907 40.8679 196.517 38.1098C196.752 36.9479 196.869 35.9503 196.869 35.1053C196.869 33.3331 196.364 31.9599 195.367 30.9858C194.369 30.0117 192.702 29.5305 190.379 29.5305H186.459L182.762 46.9943H186.412Z" fill="url(#paint4_linear)"/>
<path d="M208.664 32.582H216.069L215.506 35.1992C216.527 34.272 217.818 33.5561 219.402 33.0397C220.987 32.5351 222.677 32.2769 224.473 32.2769L223.205 38.1568C221.292 38.1568 219.532 38.4385 217.935 38.9901C216.339 39.5417 215.166 40.375 214.403 41.4782L211.879 53.4962H204.216L208.664 32.582Z" fill="url(#paint5_linear)"/>
<path d="M226.88 32.5819H234.544L230.096 53.4844H222.432L226.88 32.5819ZM228.875 28.9436C228.265 28.3803 227.96 27.6292 227.96 26.702C227.96 25.8335 228.194 25.0237 228.652 24.2608C229.121 23.5097 229.732 22.8994 230.506 22.4534C231.281 22.0074 232.091 21.7727 232.971 21.7727C233.957 21.7727 234.767 22.0661 235.389 22.6647C236.011 23.2632 236.328 24.0261 236.328 24.9533C236.328 25.0941 236.304 25.3758 236.245 25.7865C235.987 26.9132 235.377 27.8756 234.415 28.6385C233.452 29.4131 232.408 29.7887 231.281 29.7887C230.283 29.7887 229.485 29.507 228.875 28.9436Z" fill="url(#paint6_linear)"/>
<path d="M237.853 32.582H245.259L247.395 44.7292L254.719 32.582H262.641L249.437 53.4845H242.161L237.853 32.582Z" fill="url(#paint7_linear)"/>
<path d="M265.949 32.5819H273.613L269.165 53.4844H261.501L265.949 32.5819ZM267.945 28.9436C267.334 28.3803 267.029 27.6292 267.029 26.702C267.029 25.8335 267.264 25.0237 267.722 24.2608C268.191 23.5097 268.801 22.8994 269.576 22.4534C270.35 22.0074 271.16 21.7727 272.04 21.7727C273.026 21.7727 273.836 22.0661 274.458 22.6647C275.08 23.2632 275.397 24.0261 275.397 24.9533C275.397 25.0941 275.374 25.3758 275.315 25.7865C275.057 26.9132 274.446 27.8756 273.484 28.6385C272.522 29.4131 271.477 29.7887 270.35 29.7887C269.353 29.7887 268.555 29.507 267.945 28.9436Z" fill="url(#paint8_linear)"/>
<path d="M277.792 32.582H285.198L284.669 34.8941C285.796 33.9082 287.052 33.1688 288.437 32.6759C289.81 32.183 291.207 31.9365 292.591 31.9365C294.833 31.9365 296.558 32.5585 297.779 33.7909C299 35.0232 299.61 36.5841 299.61 38.4737C299.61 39.0605 299.539 39.706 299.387 40.4337L296.652 53.4845H288.988L291.512 41.4195C291.629 40.9501 291.688 40.4923 291.688 40.0229C291.688 39.3304 291.488 38.8023 291.077 38.4385C290.667 38.0747 289.998 37.8986 289.071 37.8986C288.085 37.8986 287.134 38.1333 286.219 38.5911C285.303 39.0605 284.47 39.7412 283.719 40.6332L281.019 53.4845H273.356L277.792 32.582Z" fill="url(#paint9_linear)"/>
<path d="M305.455 63.1083C304.093 62.8501 302.955 62.498 302.051 62.0637L303.178 56.7471C305.243 57.733 307.731 58.2259 310.666 58.2259C312.79 58.2259 314.409 57.7917 315.548 56.9232C316.675 56.0547 317.426 54.7754 317.766 53.0854L318.071 51.8179C317.05 52.5455 315.888 53.1089 314.562 53.5196C313.236 53.9304 311.886 54.1299 310.489 54.1299C308.717 54.1299 307.145 53.7778 305.76 53.0854C304.375 52.3929 303.307 51.3954 302.532 50.1043C301.758 48.8133 301.382 47.3228 301.382 45.6445C301.382 44.7408 301.488 43.8723 301.687 43.0273C302.38 39.6355 303.929 36.9244 306.3 34.9292C308.682 32.9223 311.628 31.9247 315.137 31.9247C318.095 31.9247 320.36 32.8401 321.932 34.671L322.414 32.5819H329.819L325.676 52.0526C325.125 54.5524 324.256 56.6298 323.083 58.2846C321.909 59.9394 320.219 61.2187 318.024 62.1341C315.83 63.0496 313.013 63.5073 309.551 63.5073C308.201 63.5073 306.816 63.3782 305.455 63.1083ZM317.062 47.2994C318.118 46.6891 318.951 45.8792 319.562 44.8582L320.301 41.1964C320.102 40.1754 319.609 39.3773 318.822 38.7787C318.036 38.1802 317.062 37.8868 315.9 37.8868C314.327 37.8868 312.966 38.3445 311.804 39.2599C310.642 40.1754 309.903 41.4194 309.586 42.9804C309.445 43.6493 309.363 44.2009 309.363 44.6352C309.363 47.0177 310.795 48.2031 313.67 48.2031C314.879 48.2148 316.006 47.9096 317.062 47.2994Z" fill="url(#paint10_linear)"/>
<path d="M352.752 52.6629C350.686 51.6771 349.067 50.2452 347.869 48.3674C346.672 46.4896 346.086 44.3066 346.086 41.8068C346.086 40.6801 346.215 39.4947 346.473 38.2741C347.165 35.0231 348.421 32.1947 350.217 29.8005C352.012 27.4062 354.301 25.5636 357.059 24.2961C359.817 23.0168 362.939 22.3831 366.425 22.3831C368.608 22.3831 370.509 22.606 372.129 23.0403C373.748 23.4745 375.192 24.1553 376.436 25.0824L374.863 32.3942C373.819 31.3731 372.539 30.6337 371.025 30.176C369.511 29.7066 367.716 29.4836 365.627 29.4836C362.634 29.4836 360.157 30.2699 358.197 31.8308C356.238 33.4035 354.97 35.5513 354.383 38.2741C354.125 39.436 353.996 40.5158 353.996 41.5016C353.996 43.356 354.594 44.7643 355.803 45.7033C357.012 46.6422 359.031 47.1234 361.883 47.1234C363.972 47.1234 365.897 46.8769 367.657 46.384C369.417 45.891 371.119 45.1047 372.774 44.0367L371.201 51.3133C368.068 53.2028 364.218 54.1417 359.665 54.1417C357.129 54.1417 354.817 53.6488 352.752 52.6629Z" fill="url(#paint11_linear)"/>
<path d="M376.693 51.8766C375.05 50.3626 374.229 48.3205 374.229 45.7385C374.229 45.0461 374.334 44.1541 374.534 43.0861C375.003 40.9031 375.872 38.9666 377.175 37.2766C378.466 35.5748 380.05 34.2603 381.916 33.3332C383.794 32.406 385.824 31.9365 388.031 31.9365C389.486 31.9365 390.777 32.136 391.904 32.5468C393.03 32.9576 393.946 33.5327 394.65 34.2838L395.037 32.582H402.701L398.253 53.4845H390.847L391.282 51.3955C388.934 53.2263 386.258 54.1418 383.266 54.1418C380.531 54.1418 378.325 53.3906 376.693 51.8766ZM389.885 47.3229C390.941 46.7244 391.786 45.9263 392.385 44.9052L393.171 41.2083C392.995 40.1872 392.514 39.3891 391.716 38.7906C390.918 38.192 389.932 37.8986 388.77 37.8986C387.197 37.8986 385.836 38.3681 384.674 39.2952C383.512 40.2224 382.761 41.4899 382.409 43.0861C382.292 43.579 382.233 44.1189 382.233 44.694C382.233 47.0413 383.665 48.2266 386.54 48.2266C387.714 48.2149 388.829 47.9215 389.885 47.3229Z" fill="url(#paint12_linear)"/>
<path d="M406.423 32.582H413.828L413.265 35.1992C414.286 34.272 415.577 33.5561 417.162 33.0397C418.746 32.5351 420.436 32.2769 422.232 32.2769L420.964 38.1568C419.051 38.1568 417.291 38.4385 415.694 38.9901C414.098 39.5417 412.925 40.375 412.162 41.4782L409.639 53.4962H401.975L406.423 32.582Z" fill="url(#paint13_linear)"/>
<path d="M440.739 43.1683H436.033L437.253 37.4175H441.959L443.004 32.5352H449.107L448.062 37.4175H452.769L451.548 43.1683H446.842L445.797 48.0507H439.694L440.739 43.1683Z" fill="url(#paint14_linear)"/>
<path d="M473.671 23.0403H481.382L476.288 46.9943H489.527L488.177 53.4845H467.228L473.671 23.0403Z" fill="url(#paint15_linear)"/>
<path d="M494.071 51.8061C492.17 50.2569 491.219 48.1561 491.219 45.5154C491.219 44.7291 491.301 43.9075 491.477 43.0273C492.17 39.659 493.848 36.9713 496.489 34.9527C499.129 32.934 502.545 31.9247 506.723 31.9247C510.126 31.9247 512.767 32.711 514.668 34.2954C516.57 35.8798 517.52 37.9924 517.52 40.6331C517.52 41.3842 517.438 42.1823 517.262 43.0273C516.534 46.3957 514.844 49.095 512.192 51.1019C509.539 53.1206 506.124 54.1299 501.981 54.1299C498.613 54.1417 495.972 53.3671 494.071 51.8061ZM507.227 46.7947C508.342 45.8793 509.082 44.6235 509.422 43.0273C509.539 42.5344 509.598 41.9945 509.598 41.4194C509.598 39.0721 508.213 37.8868 505.455 37.8868C503.918 37.8868 502.592 38.3445 501.465 39.2599C500.35 40.1754 499.622 41.4312 499.305 43.0273C499.164 43.6963 499.082 44.2596 499.082 44.7291C499.082 47.0294 500.455 48.1678 503.225 48.1678C504.786 48.1678 506.112 47.7101 507.227 46.7947Z" fill="url(#paint16_linear)"/>
<path d="M523.187 63.1083C521.826 62.8501 520.687 62.498 519.795 62.0637L520.922 56.7471C522.988 57.733 525.476 58.2259 528.41 58.2259C530.534 58.2259 532.154 57.7917 533.292 56.9232C534.419 56.0547 535.17 54.7754 535.511 53.0854L535.816 51.8179C534.795 52.5455 533.633 53.1089 532.307 53.5196C530.98 53.9304 529.631 54.1299 528.234 54.1299C526.462 54.1299 524.889 53.7778 523.504 53.0854C522.131 52.3929 521.051 51.3954 520.277 50.1043C519.502 48.8133 519.126 47.3228 519.126 45.6445C519.126 44.7408 519.232 43.8723 519.432 43.0273C520.124 39.6355 521.673 36.9244 524.044 34.9292C526.427 32.9223 529.372 31.9247 532.882 31.9247C535.839 31.9247 538.104 32.8401 539.677 34.671L540.158 32.5819H547.564L543.421 52.0526C542.869 54.5524 542.001 56.6298 540.827 58.2846C539.653 59.9394 537.963 61.2187 535.78 62.1341C533.586 63.0496 530.769 63.5073 527.307 63.5073C525.934 63.5073 524.56 63.3782 523.187 63.1083ZM534.795 47.2994C535.851 46.6891 536.696 45.8792 537.294 44.8582L538.034 41.1964C537.834 40.1754 537.341 39.3773 536.555 38.7787C535.769 38.1802 534.795 37.8868 533.633 37.8868C532.06 37.8868 530.699 38.3445 529.537 39.2599C528.375 40.1754 527.635 41.4194 527.319 42.9804C527.178 43.6493 527.096 44.2009 527.096 44.6352C527.096 47.0177 528.527 48.2031 531.403 48.2031C532.612 48.2148 533.738 47.9096 534.795 47.2994Z" fill="url(#paint17_linear)"/>
<path d="M551.766 32.5819H559.43L554.982 53.4844H547.318L551.766 32.5819ZM553.773 28.9436C553.163 28.3803 552.858 27.6292 552.858 26.702C552.858 25.8335 553.092 25.0237 553.55 24.2608C554.02 23.5097 554.63 22.8994 555.405 22.4534C556.179 22.0074 556.989 21.7727 557.869 21.7727C558.855 21.7727 559.665 22.0661 560.287 22.6647C560.909 23.2632 561.226 24.0261 561.226 24.9533C561.226 25.0941 561.202 25.3758 561.144 25.7865C560.885 26.9132 560.275 27.8756 559.313 28.6385C558.35 29.4131 557.306 29.7887 556.179 29.7887C555.181 29.7887 554.383 29.507 553.773 28.9436Z" fill="url(#paint18_linear)"/>
<path d="M562.855 53.6371C561.095 53.3085 559.757 52.8273 558.83 52.217L560.004 46.5953C561.048 47.2877 562.351 47.8628 563.924 48.3205C565.496 48.7665 566.975 49.0012 568.372 49.0012C569.393 49.0012 570.144 48.9308 570.637 48.7782C571.13 48.6374 571.435 48.344 571.552 47.9097C571.611 47.5577 571.505 47.276 571.247 47.0647C570.989 46.8535 570.484 46.6187 569.745 46.3723C569.005 46.1258 568.137 45.8559 567.151 45.5625C565.062 44.8935 563.56 44.1776 562.644 43.4264C561.729 42.6753 561.271 41.6425 561.271 40.3398C561.271 39.7882 561.33 39.2366 561.447 38.6849C562.41 34.1899 566.224 31.9365 572.902 31.9365C574.416 31.9365 575.965 32.1008 577.561 32.4177C579.157 32.7346 580.319 33.1571 581.047 33.6852L579.873 39.2131C579.122 38.638 578.066 38.1568 576.716 37.7812C575.366 37.4057 574.064 37.2179 572.82 37.2179C571.834 37.2179 571.047 37.3118 570.472 37.4996C569.886 37.6874 569.545 38.016 569.428 38.4737C569.346 38.9079 569.545 39.2483 570.062 39.4713C570.566 39.706 571.493 39.9994 572.831 40.3398C572.972 40.3632 573.148 40.4102 573.336 40.4689C573.524 40.5276 573.723 40.5862 573.923 40.6449C576.071 41.2552 577.585 41.9477 578.453 42.734C579.322 43.5203 579.756 44.5297 579.756 45.7855C579.756 46.2197 579.686 46.83 579.533 47.6163C579.099 49.6467 577.949 51.2429 576.071 52.4048C574.193 53.5667 571.517 54.1418 568.031 54.1418C566.33 54.1418 564.604 53.9775 562.855 53.6371Z" fill="url(#paint19_linear)"/>
<path d="M584.804 52.6629C583.748 51.677 583.22 50.2804 583.22 48.4847C583.22 47.7571 583.302 46.959 583.478 46.0905L585.215 37.8985H582.257L583.384 32.5819H586.341L587.644 26.3147H595.308L594.005 32.5819H598.794L597.655 37.8985H592.867L591.341 45.046C591.224 45.5154 591.165 45.9731 591.165 46.4426C591.165 47.0529 591.341 47.4989 591.693 47.7923C592.045 48.0857 592.62 48.2265 593.43 48.2265C594.475 48.2265 595.519 47.9683 596.564 47.4402L595.343 53.1441C594.533 53.4962 593.677 53.7426 592.773 53.9069C591.869 54.0713 590.801 54.1417 589.545 54.1417C587.456 54.1417 585.86 53.6487 584.804 52.6629Z" fill="url(#paint20_linear)"/>
<path d="M602.21 32.5819H609.874L605.426 53.4844H597.762L602.21 32.5819ZM604.205 28.9436C603.595 28.3803 603.29 27.6292 603.29 26.702C603.29 25.8335 603.524 25.0237 603.982 24.2608C604.451 23.5097 605.062 22.8994 605.836 22.4534C606.611 22.0074 607.421 21.7727 608.301 21.7727C609.287 21.7727 610.097 22.0661 610.719 22.6647C611.341 23.2632 611.658 24.0261 611.658 24.9533C611.658 25.0941 611.634 25.3758 611.575 25.7865C611.317 26.9132 610.707 27.8756 609.745 28.6385C608.782 29.4131 607.738 29.7887 606.611 29.7887C605.613 29.7887 604.815 29.507 604.205 28.9436Z" fill="url(#paint21_linear)"/>
<path d="M613.44 51.9587C611.55 50.5034 610.611 48.426 610.611 45.7267C610.611 44.8582 610.717 43.9662 610.916 43.0743C611.703 39.4712 613.381 36.7131 615.975 34.8001C618.557 32.8871 621.843 31.9247 625.822 31.9247C627.57 31.9247 629.143 32.089 630.551 32.4293C631.96 32.758 633.086 33.2392 633.931 33.8494L632.664 39.8115C631.913 39.1778 630.962 38.6966 629.812 38.368C628.662 38.0511 627.418 37.8868 626.092 37.8868C624.237 37.8868 622.653 38.321 621.35 39.166C620.047 40.0228 619.202 41.3255 618.827 43.0625C618.709 43.5554 618.651 44.0836 618.651 44.6352C618.651 45.8793 619.073 46.7947 619.93 47.358C620.787 47.9214 622.089 48.2031 623.826 48.2031C626.62 48.2031 629.202 47.5341 631.584 46.1961L630.317 52.123C627.817 53.461 624.73 54.1299 621.033 54.1299C617.853 54.1417 615.329 53.414 613.44 51.9587Z" fill="url(#paint22_linear)"/>
<defs>
<linearGradient id="paint0_linear" x1="92.607" y1="64.5537" x2="93.3894" y2="-12.9065" gradientUnits="userSpaceOnUse">
<stop stop-color="#FFB400"/>
<stop offset="0.3045" stop-color="#EC7400"/>
<stop offset="0.6333" stop-color="#D83600"/>
<stop offset="0.8744" stop-color="#CD0F00"/>
<stop offset="1" stop-color="#C80000"/>
</linearGradient>
<linearGradient id="paint1_linear" x1="117.981" y1="64.81" x2="118.764" y2="-12.6501" gradientUnits="userSpaceOnUse">
<stop stop-color="#FFB400"/>
<stop offset="0.3045" stop-color="#EC7400"/>
<stop offset="0.6333" stop-color="#D83600"/>
<stop offset="0.8744" stop-color="#CD0F00"/>
<stop offset="1" stop-color="#C80000"/>
</linearGradient>
<linearGradient id="paint2_linear" x1="137.98" y1="65.012" x2="138.762" y2="-12.4481" gradientUnits="userSpaceOnUse">
<stop stop-color="#FFB400"/>
<stop offset="0.3045" stop-color="#EC7400"/>
<stop offset="0.6333" stop-color="#D83600"/>
<stop offset="0.8744" stop-color="#CD0F00"/>
<stop offset="1" stop-color="#C80000"/>
</linearGradient>
<linearGradient id="paint3_linear" x1="153.749" y1="65.1712" x2="154.531" y2="-12.2889" gradientUnits="userSpaceOnUse">
<stop stop-color="#FFB400"/>
<stop offset="0.3045" stop-color="#EC7400"/>
<stop offset="0.6333" stop-color="#D83600"/>
<stop offset="0.8744" stop-color="#CD0F00"/>
<stop offset="1" stop-color="#C80000"/>
</linearGradient>
<linearGradient id="paint4_linear" x1="189.006" y1="65.5274" x2="189.788" y2="-11.9328" gradientUnits="userSpaceOnUse">
<stop stop-color="#FFB400"/>
<stop offset="0.3045" stop-color="#EC7400"/>
<stop offset="0.6333" stop-color="#D83600"/>
<stop offset="0.8744" stop-color="#CD0F00"/>
<stop offset="1" stop-color="#C80000"/>
</linearGradient>
<linearGradient id="paint5_linear" x1="214.121" y1="65.7811" x2="214.904" y2="-11.6791" gradientUnits="userSpaceOnUse">
<stop stop-color="#FFB400"/>
<stop offset="0.3045" stop-color="#EC7400"/>
<stop offset="0.6333" stop-color="#D83600"/>
<stop offset="0.8744" stop-color="#CD0F00"/>
<stop offset="1" stop-color="#C80000"/>
</linearGradient>
<linearGradient id="paint6_linear" x1="229.11" y1="65.9324" x2="229.893" y2="-11.5278" gradientUnits="userSpaceOnUse">
<stop stop-color="#FFB400"/>
<stop offset="0.3045" stop-color="#EC7400"/>
<stop offset="0.6333" stop-color="#D83600"/>
<stop offset="0.8744" stop-color="#CD0F00"/>
<stop offset="1" stop-color="#C80000"/>
</linearGradient>
<linearGradient id="paint7_linear" x1="249.905" y1="66.1426" x2="250.688" y2="-11.3176" gradientUnits="userSpaceOnUse">
<stop stop-color="#FFB400"/>
<stop offset="0.3045" stop-color="#EC7400"/>
<stop offset="0.6333" stop-color="#D83600"/>
<stop offset="0.8744" stop-color="#CD0F00"/>
<stop offset="1" stop-color="#C80000"/>
</linearGradient>
<linearGradient id="paint8_linear" x1="268.176" y1="66.3271" x2="268.958" y2="-11.1332" gradientUnits="userSpaceOnUse">
<stop stop-color="#FFB400"/>
<stop offset="0.3045" stop-color="#EC7400"/>
<stop offset="0.6333" stop-color="#D83600"/>
<stop offset="0.8744" stop-color="#CD0F00"/>
<stop offset="1" stop-color="#C80000"/>
</linearGradient>
<linearGradient id="paint9_linear" x1="286.276" y1="66.5099" x2="287.058" y2="-10.9502" gradientUnits="userSpaceOnUse">
<stop stop-color="#FFB400"/>
<stop offset="0.3045" stop-color="#EC7400"/>
<stop offset="0.6333" stop-color="#D83600"/>
<stop offset="0.8744" stop-color="#CD0F00"/>
<stop offset="1" stop-color="#C80000"/>
</linearGradient>
<linearGradient id="paint10_linear" x1="315.343" y1="66.8035" x2="316.126" y2="-10.6567" gradientUnits="userSpaceOnUse">
<stop stop-color="#FFB400"/>
<stop offset="0.3045" stop-color="#EC7400"/>
<stop offset="0.6333" stop-color="#D83600"/>
<stop offset="0.8744" stop-color="#CD0F00"/>
<stop offset="1" stop-color="#C80000"/>
</linearGradient>
<linearGradient id="paint11_linear" x1="360.928" y1="67.2639" x2="361.711" y2="-10.1962" gradientUnits="userSpaceOnUse">
<stop stop-color="#FFB400"/>
<stop offset="0.3045" stop-color="#EC7400"/>
<stop offset="0.6333" stop-color="#D83600"/>
<stop offset="0.8744" stop-color="#CD0F00"/>
<stop offset="1" stop-color="#C80000"/>
</linearGradient>
<linearGradient id="paint12_linear" x1="388.183" y1="67.5393" x2="388.966" y2="-9.92083" gradientUnits="userSpaceOnUse">
<stop stop-color="#FFB400"/>
<stop offset="0.3045" stop-color="#EC7400"/>
<stop offset="0.6333" stop-color="#D83600"/>
<stop offset="0.8744" stop-color="#CD0F00"/>
<stop offset="1" stop-color="#C80000"/>
</linearGradient>
<linearGradient id="paint13_linear" x1="411.85" y1="67.7784" x2="412.633" y2="-9.68179" gradientUnits="userSpaceOnUse">
<stop stop-color="#FFB400"/>
<stop offset="0.3045" stop-color="#EC7400"/>
<stop offset="0.6333" stop-color="#D83600"/>
<stop offset="0.8744" stop-color="#CD0F00"/>
<stop offset="1" stop-color="#C80000"/>
</linearGradient>
<linearGradient id="paint14_linear" x1="444.117" y1="68.1044" x2="444.899" y2="-9.35577" gradientUnits="userSpaceOnUse">
<stop stop-color="#FFB400"/>
<stop offset="0.3045" stop-color="#EC7400"/>
<stop offset="0.6333" stop-color="#D83600"/>
<stop offset="0.8744" stop-color="#CD0F00"/>
<stop offset="1" stop-color="#C80000"/>
</linearGradient>
<linearGradient id="paint15_linear" x1="478.187" y1="68.4484" x2="478.969" y2="-9.0118" gradientUnits="userSpaceOnUse">
<stop stop-color="#FFB400"/>
<stop offset="0.3045" stop-color="#EC7400"/>
<stop offset="0.6333" stop-color="#D83600"/>
<stop offset="0.8744" stop-color="#CD0F00"/>
<stop offset="1" stop-color="#C80000"/>
</linearGradient>
<linearGradient id="paint16_linear" x1="504.118" y1="68.7103" x2="504.9" y2="-8.74988" gradientUnits="userSpaceOnUse">
<stop stop-color="#FFB400"/>
<stop offset="0.3045" stop-color="#EC7400"/>
<stop offset="0.6333" stop-color="#D83600"/>
<stop offset="0.8744" stop-color="#CD0F00"/>
<stop offset="1" stop-color="#C80000"/>
</linearGradient>
<linearGradient id="paint17_linear" x1="533.061" y1="69.0026" x2="533.844" y2="-8.45753" gradientUnits="userSpaceOnUse">
<stop stop-color="#FFB400"/>
<stop offset="0.3045" stop-color="#EC7400"/>
<stop offset="0.6333" stop-color="#D83600"/>
<stop offset="0.8744" stop-color="#CD0F00"/>
<stop offset="1" stop-color="#C80000"/>
</linearGradient>
<linearGradient id="paint18_linear" x1="553.968" y1="69.2138" x2="554.75" y2="-8.24639" gradientUnits="userSpaceOnUse">
<stop stop-color="#FFB400"/>
<stop offset="0.3045" stop-color="#EC7400"/>
<stop offset="0.6333" stop-color="#D83600"/>
<stop offset="0.8744" stop-color="#CD0F00"/>
<stop offset="1" stop-color="#C80000"/>
</linearGradient>
<linearGradient id="paint19_linear" x1="569.661" y1="69.3724" x2="570.444" y2="-8.08773" gradientUnits="userSpaceOnUse">
<stop stop-color="#FFB400"/>
<stop offset="0.3045" stop-color="#EC7400"/>
<stop offset="0.6333" stop-color="#D83600"/>
<stop offset="0.8744" stop-color="#CD0F00"/>
<stop offset="1" stop-color="#C80000"/>
</linearGradient>
<linearGradient id="paint20_linear" x1="590.186" y1="69.5796" x2="590.968" y2="-7.88056" gradientUnits="userSpaceOnUse">
<stop stop-color="#FFB400"/>
<stop offset="0.3045" stop-color="#EC7400"/>
<stop offset="0.6333" stop-color="#D83600"/>
<stop offset="0.8744" stop-color="#CD0F00"/>
<stop offset="1" stop-color="#C80000"/>
</linearGradient>
<linearGradient id="paint21_linear" x1="604.402" y1="69.7232" x2="605.185" y2="-7.73692" gradientUnits="userSpaceOnUse">
<stop stop-color="#FFB400"/>
<stop offset="0.3045" stop-color="#EC7400"/>
<stop offset="0.6333" stop-color="#D83600"/>
<stop offset="0.8744" stop-color="#CD0F00"/>
<stop offset="1" stop-color="#C80000"/>
</linearGradient>
<linearGradient id="paint22_linear" x1="621.958" y1="69.9006" x2="622.74" y2="-7.55958" gradientUnits="userSpaceOnUse">
<stop stop-color="#FFB400"/>
<stop offset="0.3045" stop-color="#EC7400"/>
<stop offset="0.6333" stop-color="#D83600"/>
<stop offset="0.8744" stop-color="#CD0F00"/>
<stop offset="1" stop-color="#C80000"/>
</linearGradient>
</defs>
</svg>
