<svg width="382" height="36" viewBox="0 0 382 36" fill="none" xmlns="http://www.w3.org/2000/svg">
<path d="M4.78021 26.0254C3.55543 25.5355 2.69809 24.9231 1.96322 24.1882C1.35083 23.3309 0.983398 22.4735 0.983398 21.4937C0.983398 21.2488 0.983398 20.8813 1.10588 20.5139L1.22835 19.6566C1.35083 18.7992 1.59579 18.0643 2.0857 17.5744C2.45313 16.962 2.94304 16.3496 3.55543 15.6148C3.92286 15.2473 4.16782 14.8799 4.2903 14.635C4.41278 14.39 4.65773 14.1451 4.65773 13.9001V13.6551C4.65773 13.2877 4.41278 13.0428 3.92286 13.0428H2.45313L3.31048 8.8785H9.18941C10.0468 8.8785 10.7816 9.12346 11.2715 9.49089C11.7614 9.85832 12.0064 10.4707 12.0064 11.2056C12.0064 11.4505 12.0064 11.6955 11.8839 11.9404C11.7614 12.6753 11.5165 13.1652 11.1491 13.6551C10.7816 14.1451 10.4142 14.7574 9.8018 15.3698C9.31189 15.9822 8.82198 16.4721 8.57702 16.962C8.33206 17.3295 8.08711 17.8194 7.96463 18.4318L7.84215 19.0442C7.71968 19.4116 7.71968 19.6566 7.71968 20.024C7.71968 20.6364 7.84215 21.0038 8.20959 21.2488C8.57702 21.4937 9.18941 21.6162 9.92428 21.6162C10.9041 21.6162 11.7614 21.3712 12.2514 20.8813C12.7413 20.3914 13.1087 19.6566 13.3537 18.5543C13.4761 17.9419 13.5986 17.452 13.5986 16.962C13.5986 16.3497 13.4761 15.8597 13.1087 15.6148C12.8637 15.3698 12.3738 15.1249 11.7614 15.1249L12.3738 12.3079L16.0482 8.26611H22.9069L18.3752 13.2877C18.8652 13.7776 19.3551 14.2675 19.6 14.8799C19.845 15.4923 19.9675 16.1047 19.9675 16.8396C19.9675 17.3295 19.845 17.9419 19.7225 18.6767C18.6202 23.9433 14.9459 26.6378 8.82198 26.6378C7.35224 26.7603 6.00499 26.5153 4.78021 26.0254Z" fill="#106634"/>
<path d="M7.35231 3.12207H23.2744L22.4171 7.16384H6.49496L7.35231 3.12207Z" fill="#106634"/>
<path d="M24.1319 11.0831H30.5007L31.3581 21.6162C32.4604 21.6162 33.4402 21.2488 34.2975 20.3914C35.1549 19.5341 35.6448 18.4318 36.0122 16.9621C36.1347 16.4722 36.1347 15.9822 36.1347 15.4923C36.1347 14.8799 36.0122 14.39 35.6448 14.0226C35.2773 13.6552 34.7874 13.5327 34.175 13.5327C33.5627 13.5327 32.9503 13.6552 32.3379 13.9001L33.3177 9.00101C33.8076 8.87853 34.2975 8.75605 35.0324 8.63357C35.6448 8.5111 36.2572 8.51111 36.8696 8.51111C38.9517 8.51111 40.5439 9.00102 41.5237 9.98084C42.626 10.9607 43.1159 12.4304 43.1159 14.2676C43.1159 15.1249 42.9934 16.1047 42.7485 17.0846C42.1361 20.1465 40.7888 22.4736 38.8292 24.0658C36.8696 25.658 34.2975 26.5153 31.1131 26.5153H25.4791L24.1319 11.0831Z" fill="#106634"/>
<path d="M44.8304 25.4129C44.218 24.923 43.973 24.0657 43.973 23.2083C43.973 22.7184 43.973 22.351 44.0955 21.9836L46.9125 8.87842H53.4038L50.9542 20.5138C50.9542 20.7588 50.8318 20.8813 50.8318 21.0037C50.8318 21.2487 50.9542 21.4936 51.0767 21.6161C51.1992 21.7386 51.5666 21.7386 51.9341 21.7386H53.0364L52.0565 26.1478H47.4024C46.3001 26.2703 45.4427 25.9028 44.8304 25.4129Z" fill="#106634"/>
<path d="M56.8332 11.0831H63.2021L64.0594 21.6162C65.1617 21.6162 66.1415 21.2488 66.9989 20.3914C67.8562 19.5341 68.3461 18.4318 68.7136 16.9621C68.836 16.4722 68.836 15.9822 68.836 15.4923C68.836 14.8799 68.7136 14.39 68.3461 14.0226C67.9787 13.6552 67.4888 13.5327 66.8764 13.5327C66.264 13.5327 65.6516 13.6552 65.0392 13.9001L66.0191 9.00101C66.509 8.87853 66.9989 8.75605 67.7337 8.63357C68.3461 8.5111 68.9585 8.51111 69.5709 8.51111C71.653 8.51111 73.2452 9.00102 74.2251 9.98084C75.3274 10.9607 75.8173 12.4304 75.8173 14.2676C75.8173 15.1249 75.6948 16.1047 75.4498 17.0846C74.8375 20.1465 73.4902 22.4736 71.5306 24.0658C69.5709 25.658 66.9989 26.5153 63.8145 26.5153H58.1805L56.8332 11.0831Z" fill="#106634"/>
<path d="M61.7325 3.12207H77.6546L76.7972 7.16384H60.8751L61.7325 3.12207Z" fill="#106634"/>
<path d="M78.6345 25.168C77.6546 24.1881 77.1647 22.8409 77.1647 21.3712C77.1647 20.7588 77.1647 20.1464 77.2872 19.779L79.6143 8.87842H86.1056L83.901 19.4115C83.7785 19.6565 83.7785 19.9014 83.7785 20.1464C83.7785 20.6363 83.901 21.1262 84.2684 21.3712C84.6359 21.6161 85.1258 21.7386 85.7382 21.7386C86.473 21.7386 87.0854 21.6161 87.5753 21.2487C88.0652 21.0037 88.5552 20.5138 89.0451 19.9014L91.3722 8.87842H97.8635L94.1891 26.2703H88.0652L88.4327 24.6781C87.6978 25.2905 86.718 25.9028 85.6157 26.2703C84.5134 26.6377 83.5336 26.8827 82.4313 26.8827C80.8391 26.7602 79.6143 26.2703 78.6345 25.168Z" fill="#106634"/>
<path d="M100.313 26.3929C98.9656 26.1479 97.9857 25.7805 97.2509 25.2906L98.2307 20.5139C99.088 21.0038 99.9454 21.4937 101.17 21.8612C102.272 22.2286 103.375 22.3511 104.232 22.3511C106.069 22.3511 107.049 21.9837 107.049 21.3713C107.049 21.1263 106.804 20.8814 106.437 20.6364C106.069 20.3914 105.334 20.1465 104.355 19.9015L103.497 19.6566C102.027 19.1667 100.925 18.5543 100.313 17.9419C99.7004 17.3295 99.333 16.4722 99.333 15.4923C99.333 15.1249 99.333 14.635 99.4555 14.1451C99.8229 12.3079 100.803 10.9607 102.395 9.98084C103.987 9.00102 105.947 8.51111 108.519 8.51111C109.866 8.51111 111.213 8.63357 112.438 8.87853C113.663 9.12348 114.643 9.49092 115.255 9.85835L114.275 14.635C113.663 14.1451 112.928 13.7777 111.948 13.4102C110.968 13.0428 109.989 12.9203 109.009 12.9203C107.294 12.9203 106.437 13.2877 106.314 13.9001C106.192 14.2676 106.437 14.5125 106.804 14.635C107.172 14.88 107.906 15.1249 108.764 15.3699L109.989 15.7373C111.458 16.2272 112.561 16.8396 113.173 17.452C113.785 18.0644 114.153 18.9217 114.153 19.7791C114.153 20.269 114.03 20.7589 113.908 21.3713C113.54 23.086 112.683 24.3107 111.213 25.1681C109.744 26.0254 107.539 26.5153 104.6 26.5153C103.007 26.7603 101.66 26.6378 100.313 26.3929Z" fill="#106634"/>
<path d="M121.624 15.9822C121.746 15.6147 121.746 15.2473 121.746 14.8799C121.746 14.39 121.624 14.0225 121.256 13.7776C120.889 13.5326 120.399 13.4101 119.542 13.4101C118.562 13.4101 117.46 13.6551 116.48 14.145L117.46 9.36838C117.949 9.12342 118.807 8.87846 119.664 8.6335C120.644 8.38855 121.501 8.38855 122.359 8.38855C124.441 8.38855 125.911 8.87847 127.013 9.73581C127.993 10.5932 128.605 11.9404 128.605 13.5326C128.605 14.2675 128.483 14.8799 128.36 15.6147L126.156 26.2703H119.664L121.624 15.9822Z" fill="#106634"/>
<path d="M131.667 11.0831H138.036L138.893 21.6162C139.996 21.6162 140.975 21.2488 141.833 20.3914C142.69 19.5341 143.18 18.4318 143.547 16.9621C143.67 16.4722 143.67 15.9822 143.67 15.4923C143.67 14.8799 143.547 14.39 143.18 14.0226C142.813 13.6552 142.323 13.5327 141.71 13.5327C141.098 13.5327 140.485 13.6552 139.873 13.9001L140.853 9.00101C141.343 8.87853 141.833 8.75605 142.568 8.63357C143.18 8.5111 143.792 8.51111 144.405 8.51111C146.487 8.51111 148.079 9.00102 149.059 9.98084C150.039 10.9607 150.651 12.4304 150.651 14.2676C150.651 15.1249 150.529 16.1047 150.284 17.0846C149.671 20.1465 148.324 22.4736 146.364 24.0658C144.405 25.658 141.833 26.5153 138.648 26.5153H133.014L131.667 11.0831Z" fill="#106634"/>
<path d="M152.856 26.3929C151.754 26.1479 150.896 25.7805 150.161 25.2906L151.264 20.269C152.488 21.2488 154.081 21.7387 156.285 21.7387C157.755 21.7387 158.98 21.3713 159.96 20.7589C160.939 20.1465 161.552 19.0442 161.919 17.6969C162.042 17.0846 162.042 16.5946 162.042 16.3497C162.042 15.3699 161.674 14.7575 161.062 14.2676C160.45 13.7776 159.47 13.6552 158 13.6552C155.918 13.6552 154.081 14.1451 152.488 15.0024L153.591 9.98084C154.448 9.49093 155.55 9.12348 156.775 8.87853C158 8.63357 159.225 8.51111 160.572 8.51111C163.144 8.51111 165.226 9.1235 166.696 10.3483C168.166 11.5731 168.9 13.1653 168.9 15.3699C168.9 16.2272 168.778 16.9621 168.656 17.6969C168.043 20.6364 166.696 22.9635 164.859 24.5557C162.899 26.1479 160.205 26.8828 156.775 26.8828C155.305 26.7603 154.081 26.6378 152.856 26.3929Z" fill="#106634"/>
<path d="M160.45 4.83677C160.45 4.59182 160.45 4.22437 160.572 3.97941L161.307 0.550049H167.063L166.696 2.38722C166.696 2.50969 166.696 2.50969 166.696 2.63217C166.696 2.87712 166.941 2.9996 167.308 2.9996H174.045L173.187 7.04136H163.511C161.429 7.04136 160.45 6.3065 160.45 4.83677Z" fill="#106634"/>
<path d="M171.105 25.5354C170.125 24.8006 169.513 23.5758 169.513 22.2285C169.513 21.8611 169.513 21.4937 169.635 20.8813C170.003 19.0441 170.983 17.5744 172.452 16.5946C173.922 15.6147 175.759 15.1248 178.086 15.1248C178.944 15.1248 179.923 15.2473 180.781 15.3698C181.761 15.4923 182.495 15.7372 183.108 15.9822L183.23 15.6147C183.23 15.3698 183.353 15.1248 183.353 15.0023C183.353 14.39 182.985 13.9 182.373 13.5326C181.761 13.1652 180.658 13.0427 179.189 13.0427C178.086 13.0427 177.106 13.1652 176.004 13.4101C174.902 13.6551 173.922 13.9 173.065 14.39L174.045 9.73581C174.902 9.36838 176.004 9.00094 177.351 8.75599C178.699 8.51103 180.168 8.38855 181.638 8.38855C183.353 8.38855 184.823 8.63351 186.047 9.12342C187.272 9.61334 188.252 10.3482 188.864 11.2055C189.477 12.0629 189.844 13.1652 189.844 14.2675C189.844 14.7574 189.844 15.2473 189.722 15.6147L187.517 26.1478H181.026L182.251 20.1464C181.883 19.9015 181.393 19.779 180.781 19.534C180.168 19.4116 179.678 19.2891 179.066 19.2891C178.209 19.2891 177.596 19.4115 177.229 19.6565C176.861 19.9015 176.617 20.2689 176.494 20.8813C176.494 21.1262 176.372 21.2487 176.372 21.3712C176.372 21.7386 176.494 21.9836 176.861 22.2285C177.229 22.4735 177.596 22.4735 178.209 22.4735C178.821 22.4735 179.311 22.351 179.923 22.1061L179.066 26.0253C177.964 26.3928 176.739 26.5153 175.147 26.5153C173.432 26.7602 172.085 26.2703 171.105 25.5354Z" fill="#106634"/>
<path d="M193.396 26.3929C192.049 26.1479 191.069 25.7805 190.334 25.2906L191.314 20.5139C192.171 21.0038 193.028 21.4937 194.253 21.8612C195.356 22.2286 196.458 22.3511 197.315 22.3511C199.152 22.3511 200.132 21.9837 200.132 21.3713C200.132 21.1263 199.887 20.8814 199.52 20.6364C199.152 20.3914 198.417 20.1465 197.438 19.9015L196.58 19.6566C195.111 19.1667 194.008 18.5543 193.396 17.9419C192.783 17.3295 192.416 16.4722 192.416 15.4923C192.416 15.1249 192.416 14.635 192.539 14.1451C192.906 12.3079 193.886 10.9607 195.478 9.98084C197.07 9.00102 199.03 8.51111 201.602 8.51111C202.949 8.51111 204.296 8.63357 205.521 8.87853C206.746 9.12348 207.726 9.49092 208.338 9.85835L207.358 14.635C206.746 14.1451 206.011 13.7777 205.031 13.4102C204.051 13.0428 203.072 12.9203 202.092 12.9203C200.377 12.9203 199.52 13.2877 199.397 13.9001C199.275 14.2676 199.52 14.5125 199.887 14.635C200.255 14.88 200.989 15.1249 201.847 15.3699L203.072 15.7373C204.541 16.2272 205.644 16.8396 206.256 17.452C206.868 18.0644 207.236 18.9217 207.236 19.7791C207.236 20.269 207.113 20.7589 206.991 21.3713C206.623 23.086 205.766 24.3107 204.296 25.1681C202.827 26.0254 200.622 26.5153 197.683 26.5153C196.09 26.7603 194.743 26.6378 193.396 26.3929Z" fill="#106634"/>
<path d="M210.543 26.3929C209.441 26.1479 208.583 25.7805 207.848 25.2906L208.951 20.269C210.176 21.2488 211.768 21.7387 213.972 21.7387C215.442 21.7387 216.667 21.3713 217.647 20.7589C218.627 20.1465 219.239 19.0442 219.606 17.6969C219.729 17.0846 219.729 16.5946 219.729 16.3497C219.729 15.3699 219.361 14.7575 218.749 14.2676C218.137 13.7776 217.157 13.6552 215.687 13.6552C213.605 13.6552 211.768 14.1451 210.176 15.0024L211.278 9.98084C212.135 9.49093 213.238 9.12348 214.462 8.87853C215.687 8.63357 216.912 8.51111 218.259 8.51111C220.831 8.51111 222.913 9.1235 224.383 10.3483C225.853 11.5731 226.588 13.1653 226.588 15.3699C226.588 16.2272 226.465 16.9621 226.343 17.6969C225.73 20.6364 224.383 22.9635 222.546 24.5557C220.586 26.1479 217.892 26.8828 214.462 26.8828C212.87 26.7603 211.645 26.6378 210.543 26.3929Z" fill="#106634"/>
<path d="M235.406 26.1479C234.549 25.7805 233.814 25.2906 233.324 24.5557L232.956 26.1479H226.833L230.507 8.7561H236.998L234.671 19.7791C234.916 20.3915 235.161 20.7589 235.529 21.1264C235.896 21.3713 236.508 21.6163 237.243 21.6163C238.101 21.6163 238.835 21.3713 239.203 21.0039C239.693 20.6365 239.938 20.0241 240.183 19.2892L242.387 8.7561H248.879L246.552 19.6566C246.062 21.7387 245.204 23.4534 243.857 24.6782C242.51 25.903 240.673 26.6379 238.223 26.6379C237.243 26.7603 236.263 26.5154 235.406 26.1479Z" fill="#106634"/>
<path d="M256.839 26.1479C255.982 25.7805 255.247 25.2906 254.757 24.5557L254.39 26.1479H248.266L251.94 8.7561H258.431L256.104 19.7791C256.349 20.3915 256.594 20.7589 256.962 21.1264C257.329 21.4938 257.942 21.6163 258.676 21.6163C259.534 21.6163 260.269 21.3713 260.636 21.0039C261.126 20.6365 261.371 20.0241 261.616 19.2892L263.821 8.7561H270.312L267.985 19.6566C267.495 21.7387 266.638 23.4534 265.29 24.6782C263.943 25.903 262.106 26.6379 259.656 26.6379C258.676 26.7603 257.819 26.5154 256.839 26.1479Z" fill="#106634"/>
<path d="M255.492 34.7212C254.635 34.1088 254.145 33.374 254.145 32.3942C254.145 32.2717 254.145 32.1492 254.267 31.7818L254.39 31.1694L254.512 30.8019C254.512 30.557 254.267 30.4345 253.9 30.4345H252.92L253.655 27.3726H258.187C258.799 27.3726 259.167 27.495 259.411 27.74C259.656 27.985 259.779 28.2299 259.779 28.7198C259.779 28.9648 259.779 29.2097 259.656 29.4547L259.289 31.1694C259.289 31.2919 259.289 31.2919 259.289 31.4143C259.289 31.7818 259.534 32.0267 260.024 32.0267C260.636 32.0267 260.881 31.7818 261.004 31.1694L261.861 27.495H266.515L265.658 31.7818C265.045 34.4763 263.086 35.7011 259.534 35.7011C257.697 35.5786 256.472 35.3336 255.492 34.7212Z" fill="#106634"/>
<path d="M271.659 25.5354C270.679 24.8006 270.067 23.5758 270.067 22.2285C270.067 21.8611 270.067 21.4937 270.189 20.8813C270.557 19.0441 271.537 17.5744 273.006 16.5946C274.476 15.6147 276.313 15.1248 278.64 15.1248C279.498 15.1248 280.478 15.2473 281.335 15.3698C282.315 15.4923 283.05 15.7372 283.662 15.9822L283.784 15.6147C283.784 15.3698 283.907 15.1248 283.907 15.0023C283.907 14.39 283.54 13.9 282.927 13.5326C282.315 13.1652 281.212 13.0427 279.743 13.0427C278.64 13.0427 277.661 13.1652 276.558 13.4101C275.456 13.6551 274.476 13.9 273.619 14.39L274.599 9.73581C275.456 9.36838 276.558 9.00094 277.906 8.75599C279.253 8.51103 280.723 8.38855 282.192 8.38855C283.907 8.38855 285.377 8.63351 286.601 9.12342C287.826 9.61334 288.806 10.3482 289.418 11.2055C290.031 12.0629 290.398 13.1652 290.398 14.2675C290.398 14.7574 290.398 15.2473 290.276 15.6147L288.071 26.1478H281.457L282.682 20.1464C282.315 19.9015 281.825 19.779 281.212 19.534C280.6 19.4116 280.11 19.2891 279.498 19.2891C278.64 19.2891 278.028 19.4115 277.661 19.6565C277.293 19.9015 277.048 20.2689 276.926 20.8813C276.926 21.1262 276.803 21.2487 276.803 21.3712C276.803 21.7386 276.926 21.9836 277.293 22.2285C277.538 22.351 278.028 22.4735 278.64 22.4735C279.253 22.4735 279.743 22.351 280.355 22.1061L279.498 26.0253C278.395 26.3928 277.171 26.5153 275.578 26.5153C273.986 26.7602 272.639 26.2703 271.659 25.5354Z" fill="#106634"/>
<path d="M293.216 15.9822C293.706 13.4101 294.93 11.573 296.89 10.2257C298.727 9.00094 301.299 8.38855 304.361 8.38855C306.933 8.38855 308.893 8.87846 310.363 9.98076C311.832 10.9606 312.567 12.4303 312.567 14.39C312.567 14.8799 312.445 15.4923 312.322 16.1047L310.118 26.3928H303.626L305.708 16.5946C305.831 16.2271 305.831 15.9822 305.831 15.6147C305.831 14.2675 304.974 13.5326 303.381 13.5326C302.279 13.5326 301.422 13.7776 300.932 14.2675C300.319 14.7574 299.952 15.4923 299.707 16.5946L299.34 18.0643C299.584 17.8193 299.952 17.6969 300.442 17.4519C300.809 17.3294 301.299 17.2069 301.789 17.2069H304.116L303.136 21.6162H300.564C299.952 21.6162 299.462 21.7386 298.972 22.1061C298.605 22.4735 298.237 22.9634 298.115 23.5758L297.502 26.2703H291.011L293.216 15.9822Z" fill="#106634"/>
<path d="M309.015 0.91748H315.506L314.159 7.04137H307.668L309.015 0.91748Z" fill="#106634"/>
<path d="M319.671 15.9822C319.793 15.6147 319.793 15.2473 319.793 14.8799C319.793 14.39 319.671 14.0225 319.303 13.7776C318.936 13.5326 318.446 13.4101 317.589 13.4101C316.609 13.4101 315.506 13.6551 314.527 14.145L315.506 9.36838C315.996 9.12342 316.854 8.87846 317.711 8.6335C318.691 8.38855 319.548 8.38855 320.406 8.38855C322.488 8.38855 323.957 8.87847 325.06 9.73581C326.04 10.5932 326.652 11.9404 326.652 13.5326C326.652 14.2675 326.529 14.8799 326.407 15.6147L324.202 26.2703H317.711L319.671 15.9822Z" fill="#106634"/>
<path d="M330.081 16.3496L329.101 13.4101C332.531 9.98077 336.45 8.38855 340.614 8.38855C343.064 8.38855 345.024 8.87846 346.493 9.98076C347.841 11.0831 348.575 12.4303 348.575 14.145C348.575 14.6349 348.575 15.1248 348.453 15.6147L346.248 26.1478H339.757L341.839 16.1047C341.962 15.7372 341.962 15.3698 341.962 15.0023C341.962 14.39 341.717 14.0225 341.349 13.7776C340.982 13.5326 340.369 13.4101 339.512 13.4101C338.165 13.4101 336.94 13.7776 335.96 14.39L336.695 16.3496L334.613 26.1478H327.999L330.081 16.3496Z" fill="#106634"/>
<path d="M351.392 26.3929C350.29 26.1479 349.433 25.7805 348.698 25.2906L349.8 20.269C351.025 21.2488 352.617 21.7387 354.822 21.7387C356.291 21.7387 357.516 21.3713 358.496 20.7589C359.476 20.1465 360.088 19.0442 360.456 17.6969C360.578 17.0846 360.578 16.5946 360.578 16.3497C360.578 15.3699 360.211 14.7575 359.598 14.2676C358.986 13.7776 358.006 13.6552 356.536 13.6552C354.332 13.6552 352.617 14.1451 351.025 15.0024L352.127 9.98084C352.984 9.49093 354.087 9.12348 355.311 8.87853C356.536 8.63357 357.761 8.51111 359.108 8.51111C361.68 8.51111 363.762 9.1235 365.232 10.3483C366.702 11.5731 367.437 13.1653 367.437 15.3699C367.437 16.2272 367.314 16.9621 367.192 17.6969C366.579 20.6364 365.232 22.9635 363.395 24.5557C361.435 26.1479 358.741 26.8828 355.311 26.8828C353.719 26.7603 352.494 26.6378 351.392 26.3929Z" fill="#106634"/>
<path d="M363.518 0.91748H370.009L368.662 7.04137H362.171L363.518 0.91748Z" fill="#106634"/>
<path d="M374.173 15.9822C374.296 15.6147 374.296 15.2473 374.296 14.8799C374.296 14.39 374.173 14.0225 373.806 13.7776C373.438 13.5326 372.948 13.4101 372.091 13.4101C371.111 13.4101 370.009 13.6551 369.029 14.145L370.009 9.36838C370.499 9.12342 371.356 8.87846 372.214 8.6335C373.193 8.38855 374.051 8.38855 374.908 8.38855C376.99 8.38855 378.46 8.87847 379.562 9.73581C380.542 10.5932 381.154 11.9404 381.154 13.5326C381.154 14.2675 381.032 14.8799 380.909 15.6147L378.705 26.2703H372.214L374.173 15.9822Z" fill="#106634"/>
</svg>
