<svg width="211" height="30" viewBox="0 0 211 30" fill="none" xmlns="http://www.w3.org/2000/svg">
<path d="M5.70814 8.70395L0.431641 12.0809L1.80353 5.64357L8.45192 1.42236H14.1505L9.19064 24.639H2.33118L5.70814 8.70395Z" fill="#106634"/>
<path d="M17.9497 24.0057C16.6833 23.267 15.628 22.3173 14.8893 20.9454C14.1506 19.679 13.834 18.096 13.834 16.1965C13.834 15.0357 13.9395 13.8748 14.1506 12.8195C14.9948 9.02047 16.5778 5.9601 18.8994 3.8495C21.2211 1.73889 24.1759 0.683594 27.7639 0.683594C30.5077 0.683594 32.6183 1.4223 34.2013 3.00525C35.7842 4.5882 36.6285 6.69881 36.6285 9.44259C36.6285 10.6034 36.523 11.7642 36.3119 12.8195C35.4676 16.6186 33.8847 19.679 31.563 21.7896C29.2414 23.9002 26.2865 24.9555 22.6985 24.9555C20.799 25.061 19.3215 24.6389 17.9497 24.0057ZM27.2363 17.1463C28.1861 16.1965 28.8193 14.8246 29.1358 13.0306C29.3469 12.0808 29.4524 11.2366 29.4524 10.4979C29.4524 9.44259 29.2414 8.70388 28.7137 8.0707C28.1861 7.54305 27.4474 7.22645 26.3921 7.22645C25.0202 7.22645 23.9649 7.75411 23.0151 8.70388C22.0653 9.75918 21.4322 11.1311 21.1156 12.9251C20.9045 13.8749 20.799 14.7191 20.799 15.3523C20.799 16.4076 21.01 17.1463 21.5377 17.6739C22.0653 18.2016 22.804 18.5182 23.8593 18.5182C25.2312 18.6237 26.3921 18.0961 27.2363 17.1463Z" fill="#106634"/>
<path d="M41.7995 24.0057C40.5331 23.267 39.4778 22.3173 38.7391 20.9454C38.0004 19.679 37.6838 18.096 37.6838 16.1965C37.6838 15.0357 37.7894 13.8748 38.0004 12.8195C38.8447 9.02047 40.4276 5.9601 42.7493 3.8495C45.0709 1.73889 48.0258 0.683594 51.6138 0.683594C54.3576 0.683594 56.4682 1.4223 58.0511 3.00525C59.6341 4.5882 60.4783 6.69881 60.4783 9.44259C60.4783 10.6034 60.3728 11.7642 60.1617 12.8195C59.3175 16.6186 57.7346 19.679 55.4129 21.7896C53.0912 23.9002 50.1364 24.9555 46.5484 24.9555C44.6488 25.061 43.1714 24.6389 41.7995 24.0057ZM51.0862 17.1463C52.0359 16.1965 52.6691 14.8246 52.9857 13.0306C53.1968 12.0808 53.3023 11.2366 53.3023 10.4979C53.3023 9.44259 53.0912 8.70388 52.5636 8.0707C52.0359 7.43752 51.2972 7.22645 50.2419 7.22645C48.87 7.22645 47.8147 7.75411 46.8649 8.70388C45.9152 9.75918 45.282 11.1311 44.9654 12.9251C44.7543 13.8749 44.6488 14.7191 44.6488 15.3523C44.6488 16.4076 44.8599 17.1463 45.3875 17.6739C45.9152 18.2016 46.6539 18.5182 47.7092 18.5182C49.0811 18.6237 50.2419 18.0961 51.0862 17.1463Z" fill="#106634"/>
<path d="M60.4783 22.4229H67.3377L62.2723 29.5989H56.2571L60.4783 22.4229Z" fill="#106634"/>
<path d="M75.0414 24.0057C73.7751 23.267 72.7198 22.3173 71.9811 20.9454C71.2424 19.679 70.9258 18.096 70.9258 16.1965C70.9258 15.0357 71.0313 13.8748 71.2424 12.8195C72.0866 9.02047 73.6696 5.9601 75.9912 3.8495C78.3129 1.73889 81.2677 0.683594 84.8557 0.683594C87.5995 0.683594 89.7101 1.4223 91.2931 3.00525C92.876 4.5882 93.7203 6.69881 93.7203 9.44259C93.7203 10.6034 93.6147 11.7642 93.4037 12.8195C92.5594 16.6186 90.9765 19.679 88.6548 21.7896C86.3332 23.9002 83.3783 24.9555 79.7903 24.9555C77.8908 25.061 76.3078 24.6389 75.0414 24.0057ZM84.3281 17.1463C85.2779 16.1965 85.911 14.8246 86.2276 13.0306C86.4387 12.0808 86.5442 11.2366 86.5442 10.4979C86.5442 9.44259 86.3332 8.70388 85.8055 8.0707C85.2779 7.54305 84.5392 7.22645 83.4839 7.22645C82.112 7.22645 81.0567 7.75411 80.1069 8.70388C79.1571 9.75918 78.5239 11.1311 78.2073 12.9251C77.9963 13.8749 77.8908 14.7191 77.8908 15.3523C77.8908 16.4076 78.1018 17.1463 78.6295 17.6739C79.1571 18.2016 79.8958 18.5182 80.9511 18.5182C82.323 18.6237 83.3783 18.0961 84.3281 17.1463Z" fill="#106634"/>
<path d="M98.8913 24.0057C97.625 23.267 96.5696 22.3173 95.8309 20.9454C95.0922 19.679 94.7756 18.096 94.7756 16.1965C94.7756 15.0357 94.8812 13.8748 95.0922 12.8195C95.9365 9.02047 97.5194 5.9601 99.8411 3.8495C102.163 1.73889 105.118 0.683594 108.706 0.683594C111.449 0.683594 113.56 1.4223 115.143 3.00525C116.726 4.5882 117.57 6.69881 117.57 9.44259C117.57 10.6034 117.465 11.7642 117.254 12.8195C116.409 16.6186 114.826 19.679 112.505 21.7896C110.183 23.9002 107.228 24.9555 103.64 24.9555C101.741 25.061 100.158 24.6389 98.8913 24.0057ZM108.178 17.1463C109.128 16.1965 109.761 14.8246 110.077 13.0306C110.289 12.0808 110.394 11.2366 110.394 10.4979C110.394 9.44259 110.183 8.70388 109.655 8.0707C109.128 7.54305 108.389 7.22645 107.334 7.22645C105.962 7.22645 104.907 7.75411 103.957 8.70388C103.007 9.75918 102.374 11.1311 102.057 12.9251C101.846 13.8749 101.741 14.7191 101.741 15.3523C101.741 16.4076 101.952 17.1463 102.479 17.6739C103.007 18.2016 103.746 18.5182 104.801 18.5182C106.173 18.6237 107.228 18.0961 108.178 17.1463Z" fill="#106634"/>
<path d="M122.741 24.0057C121.369 23.267 120.419 22.3173 119.681 20.9454C118.942 19.679 118.625 18.096 118.625 16.1965C118.625 15.0357 118.731 13.8748 118.942 12.8195C119.786 9.02047 121.369 5.9601 123.691 3.8495C126.013 1.73889 128.967 0.683594 132.555 0.683594C135.299 0.683594 137.41 1.4223 138.993 3.00525C140.576 4.5882 141.42 6.69881 141.42 9.44259C141.42 10.6034 141.314 11.7642 141.103 12.8195C140.259 16.6186 138.676 19.679 136.355 21.7896C134.033 23.9002 131.078 24.9555 127.49 24.9555C125.59 25.061 124.008 24.6389 122.741 24.0057ZM132.028 17.1463C132.978 16.1965 133.611 14.8246 133.927 13.0306C134.138 12.0808 134.244 11.2366 134.244 10.4979C134.244 9.44259 134.033 8.70388 133.505 8.0707C132.978 7.54305 132.239 7.22645 131.184 7.22645C129.812 7.22645 128.756 7.75411 127.807 8.70388C126.857 9.75918 126.224 11.1311 125.907 12.9251C125.696 13.8749 125.59 14.7191 125.59 15.3523C125.59 16.4076 125.802 17.1463 126.329 17.6739C126.857 18.2016 127.596 18.5182 128.651 18.5182C130.023 18.6237 131.184 18.0961 132.028 17.1463Z" fill="#106634"/>
<path d="M157.249 24.2167C155.983 23.6891 155.139 22.8448 154.505 21.8951C153.872 20.9453 153.556 19.7845 153.556 18.5181C153.556 17.9904 153.661 17.3573 153.767 16.7241L155.877 6.69873H162.526L160.415 16.513C160.31 17.1462 160.204 17.5683 160.204 17.9904C160.204 18.7292 160.415 19.1513 160.837 19.4679C161.259 19.7845 161.893 19.89 162.737 19.89C163.898 19.89 164.742 19.6789 165.27 19.1513C165.797 18.6236 166.219 17.7794 166.536 16.513L168.646 6.69873H175.295L173.079 17.2517C172.657 19.0457 172.129 20.4176 171.285 21.5785C170.44 22.7393 169.28 23.5836 167.697 24.1112C166.114 24.7444 164.109 24.9554 161.681 24.9554C159.993 25.061 158.516 24.7444 157.249 24.2167Z" fill="#106634"/>
<path d="M181.31 14.0861C181.416 13.664 181.416 13.3474 181.416 12.9253C181.416 12.3977 181.205 11.9755 180.888 11.7645C180.572 11.5534 179.938 11.4479 179.094 11.4479C178.039 11.4479 176.984 11.6589 175.928 12.1866L176.984 7.22669C177.511 6.9101 178.355 6.69904 179.305 6.48798C180.255 6.27692 181.205 6.17139 182.049 6.17139C184.16 6.17139 185.743 6.59351 186.798 7.54328C187.853 8.49305 188.381 9.75941 188.381 11.4479C188.381 12.1866 188.275 12.8198 188.17 13.5585L185.848 24.4281H179.2L181.31 14.0861Z" fill="#106634"/>
<path d="M192.708 6.69904H199.039L198.723 8.38752C199.567 7.64881 200.517 7.12116 201.678 6.80457C202.838 6.38245 203.894 6.17139 204.949 6.17139C206.743 6.17139 208.221 6.59351 209.17 7.54328C210.12 8.49305 210.648 9.65388 210.648 11.1313C210.648 11.5534 210.542 12.0811 210.437 12.7142L208.009 24.4281H201.361L203.683 13.664C203.788 13.3474 203.788 13.0308 203.788 12.8198C203.788 12.2921 203.683 11.9755 203.366 11.7645C203.05 11.5534 202.627 11.4479 201.889 11.4479C201.15 11.4479 200.517 11.5534 199.884 11.87C199.25 12.1866 198.723 12.6087 198.301 13.2419L195.874 24.5336H189.225L192.708 6.69904Z" fill="#106634"/>
</svg>
