<svg width="235" height="12" viewBox="0 0 235 12" fill="none" xmlns="http://www.w3.org/2000/svg">
<path d="M0.744629 1.23633H5.75838C6.73668 1.23633 7.4704 1.4809 8.02069 1.97005C8.57098 2.4592 8.81555 3.13177 8.81555 3.98778C8.81555 4.41578 8.69326 4.78264 8.50983 5.1495C8.3264 5.51636 8.08183 5.76094 7.71497 6.00551C8.20412 6.18894 8.57098 6.43352 8.75441 6.80038C8.93784 7.16724 9.12127 7.59524 9.12127 8.14553C9.12127 8.75696 8.99898 9.24611 8.69327 9.73526C8.38755 10.1633 8.02069 10.5301 7.53154 10.7747C7.04239 11.0193 6.55325 11.1416 5.94181 11.1416H0.744629V1.23633ZM5.20809 5.1495C5.94181 5.1495 6.30867 4.78264 6.30867 4.11007C6.30867 3.74321 6.18639 3.43749 6.00296 3.3152C5.81953 3.19292 5.51381 3.07063 5.14695 3.07063H3.25151V5.08836H5.20809V5.1495ZM5.33038 9.24611C5.75838 9.24611 6.0641 9.18497 6.24753 9.00154C6.43096 8.81811 6.55325 8.57353 6.55325 8.14553C6.55325 7.71752 6.43096 7.47295 6.24753 7.28952C6.0641 7.10609 5.69724 7.04495 5.26924 7.04495H3.25151V9.30725H5.33038V9.24611Z" fill="#1AA94A"/>
<path d="M13.0955 7.35066L9.48804 1.23633H12.1783L14.3795 5.02722L16.703 1.23633H19.3321L15.6024 7.35066V11.0804H13.0955V7.35066V7.35066Z" fill="#1AA94A"/>
<path d="M27.77 11.1414C27.1586 11.0191 26.6695 10.8357 26.2415 10.6522V8.38994C26.7306 8.63451 27.2809 8.87908 27.8312 9.00137C28.3815 9.12366 28.9318 9.1848 29.4209 9.1848C29.9101 9.1848 30.2158 9.12366 30.4603 9.00137C30.7049 8.87908 30.8272 8.63451 30.8272 8.38994C30.8272 8.20651 30.7661 8.02308 30.6438 7.90079C30.5215 7.7785 30.3381 7.59507 30.0935 7.47279C29.8489 7.3505 29.4821 7.16707 28.9318 6.98364C28.0146 6.61678 27.342 6.18878 26.9752 5.69963C26.5472 5.21048 26.3637 4.66019 26.3637 3.98762C26.3637 3.43732 26.5472 2.94818 26.8529 2.45903C27.1586 2.03103 27.5866 1.66417 28.198 1.41959C28.7483 1.17502 29.4209 1.05273 30.1546 1.05273C30.7661 1.05273 31.3164 1.11388 31.7444 1.17502C32.1724 1.23616 32.6615 1.4196 33.0895 1.60303V3.80419C32.2335 3.37618 31.4386 3.13161 30.5826 3.13161C30.1546 3.13161 29.7878 3.19275 29.4821 3.37618C29.2375 3.49847 29.054 3.74304 29.054 3.98762C29.054 4.23219 29.1763 4.47676 29.4821 4.66019C29.7878 4.84362 30.2769 5.0882 31.0106 5.33277C31.6832 5.57734 32.1724 5.88306 32.5392 6.12763C32.9061 6.37221 33.1507 6.67792 33.3341 7.04478C33.5175 7.41164 33.5787 7.83965 33.5787 8.38994C33.5787 9.30709 33.2729 10.0408 32.6004 10.53C31.9278 11.0191 30.9495 11.3248 29.6655 11.3248C28.9929 11.3248 28.3815 11.2637 27.77 11.1414Z" fill="#1AA94A"/>
<path d="M37.5529 10.6525C36.758 10.2245 36.1466 9.61302 35.6574 8.81816C35.1683 8.02329 34.9849 7.16729 34.9849 6.12785C34.9849 5.14956 35.2294 4.23241 35.6574 3.43754C36.1466 2.64268 36.758 2.03125 37.5529 1.60324C38.3478 1.17524 39.2649 0.930664 40.2432 0.930664C41.2215 0.930664 42.1386 1.17524 42.9335 1.60324C43.7284 2.03125 44.3398 2.64268 44.8289 3.43754C45.3181 4.23241 45.5015 5.08841 45.5015 6.12785C45.5015 7.10614 45.257 8.02329 44.8289 8.81816C44.3398 9.61302 43.7284 10.2245 42.9335 10.6525C42.1386 11.0805 41.2215 11.325 40.2432 11.325C39.2649 11.325 38.3478 11.0805 37.5529 10.6525ZM41.5883 8.63473C42.0164 8.39015 42.3221 8.08444 42.5666 7.65643C42.8112 7.22843 42.9335 6.73928 42.9335 6.18899C42.9335 5.6387 42.8112 5.14956 42.5666 4.72155C42.3221 4.29355 42.0164 3.98783 41.5883 3.74326C41.1603 3.49869 40.7323 3.3764 40.182 3.3764C39.6929 3.3764 39.2038 3.49869 38.7758 3.74326C38.3478 3.98783 38.042 4.29355 37.7975 4.72155C37.5529 5.14956 37.4306 5.6387 37.4306 6.18899C37.4306 6.73928 37.5529 7.22843 37.7975 7.65643C38.042 8.08444 38.3478 8.39015 38.7758 8.63473C39.2038 8.8793 39.6318 9.00159 40.182 9.00159C40.7323 9.00159 41.2215 8.8793 41.5883 8.63473Z" fill="#1AA94A"/>
<path d="M47.2136 1.23633H54.184V3.3152H49.7205V5.1495H53.0222V7.10609H49.7205V11.0193H47.2136V1.23633V1.23633Z" fill="#1AA94A"/>
<path d="M57.8525 3.37624H55.1011V1.29736H63.172V3.37624H60.3594V11.1414H57.8525V3.37624V3.37624Z" fill="#1AA94A"/>
<path d="M64.1501 1.23633H66.7182L68.369 7.04495L69.9588 1.23633H71.7319L73.1994 7.10609L74.8502 1.23633H77.4183L74.7279 11.0804H72.4045L70.8148 5.33293L69.225 11.0804H66.9016L64.1501 1.23633Z" fill="#1AA94A"/>
<path d="M81.2703 1.23633H83.7161L87.6293 11.0804H85.0612L84.2664 9.06268H80.6589L79.8641 11.0804H77.3572L81.2703 1.23633ZM83.7161 7.16723L82.4932 3.86549L81.2703 7.16723H83.7161Z" fill="#1AA94A"/>
<path d="M89.3414 1.23633H93.7437C94.9055 1.23633 95.8226 1.54205 96.434 2.09234C97.1066 2.70377 97.4123 3.49863 97.4123 4.59921C97.4123 5.33293 97.2289 5.94437 96.9232 6.49466C96.6175 6.98381 96.1283 7.41181 95.578 7.65638L97.3512 11.0804H94.7832L93.1934 8.02324H91.7872V11.0804H89.2803V1.23633H89.3414ZM93.3157 5.94437C93.8049 5.94437 94.1717 5.82208 94.4775 5.63865C94.722 5.45522 94.9055 5.08836 94.9055 4.66036C94.9055 4.17121 94.7832 3.86549 94.4775 3.68206C94.1717 3.49863 93.8049 3.43749 93.3157 3.43749H91.8483V6.00551H93.3157V5.94437Z" fill="#1AA94A"/>
<path d="M99.1243 1.23633H106.095V3.3152H101.631V5.1495H104.933V7.10609H101.631V8.94039H106.095V11.0193H99.1243V1.23633Z" fill="#1AA94A"/>
<path d="M113.31 1.23633H117.651C118.812 1.23633 119.73 1.54204 120.402 2.15348C121.075 2.76491 121.442 3.62092 121.442 4.66036C121.442 5.76094 121.075 6.61694 120.402 7.22838C119.73 7.83981 118.812 8.14553 117.651 8.14553H115.816V11.0804H113.31V1.23633ZM117.284 6.06665C117.773 6.06665 118.201 5.94437 118.446 5.76094C118.751 5.57751 118.874 5.21065 118.874 4.66036C118.874 4.11007 118.751 3.80435 118.446 3.62092C118.14 3.43749 117.773 3.3152 117.284 3.3152H115.816V6.00551H117.284V6.06665Z" fill="#1AA94A"/>
<path d="M125.233 1.23633H127.678L131.592 11.0804H129.024L128.229 9.06268H124.621L123.826 11.0804H121.258L125.233 1.23633ZM127.678 7.16723L126.455 3.86549L125.233 7.16723H127.678Z" fill="#1AA94A"/>
<path d="M133.303 1.23633H137.706C138.867 1.23633 139.785 1.54205 140.396 2.09234C141.069 2.70377 141.374 3.49863 141.374 4.59921C141.374 5.33293 141.191 5.94437 140.885 6.49466C140.579 6.98381 140.09 7.41181 139.54 7.65638L141.313 11.0804H138.745L137.155 8.02324H135.749V11.0804H133.242V1.23633H133.303ZM137.278 5.94437C137.767 5.94437 138.134 5.82208 138.439 5.63865C138.684 5.45522 138.867 5.08836 138.867 4.66036C138.867 4.17121 138.745 3.86549 138.439 3.68206C138.195 3.49863 137.767 3.43749 137.278 3.43749H135.81V6.00551H137.278V5.94437Z" fill="#1AA94A"/>
<path d="M143.086 1.23633H145.593V5.33293L149.017 1.23633H151.952L147.978 6.00551L152.258 11.0804H149.323L145.654 6.73923V11.0804H143.148V1.23633H143.086Z" fill="#1AA94A"/>
<path d="M161.674 3.37624H158.922V1.29736H166.993V3.37624H164.181V11.1414H161.674V3.37624Z" fill="#1AA94A"/>
<path d="M168.399 1.23633H170.906V5.02722H174.758V1.23633H177.265V11.0804H174.758V7.10609H170.906V11.0804H168.399V1.23633Z" fill="#1AA94A"/>
<path d="M182.891 1.23633H185.337L189.25 11.0804H186.682L185.887 9.06268H182.279L181.485 11.0804H178.917L182.891 1.23633ZM185.337 7.16723L184.114 3.86549L182.891 7.16723H185.337Z" fill="#1AA94A"/>
<path d="M190.961 1.23633H193.468V11.0804H190.961V1.23633Z" fill="#1AA94A"/>
<path d="M195.425 1.23633H197.932V9.00153H202.212V11.0804H195.425V1.23633Z" fill="#1AA94A"/>
<path d="M207.042 1.23633H209.488L213.401 11.0804H210.833L210.038 9.06268H206.431L205.636 11.0804H203.068L207.042 1.23633ZM209.488 7.16723L208.265 3.86549L207.042 7.16723H209.488Z" fill="#1AA94A"/>
<path d="M215.113 1.23633H217.559L221.166 7.10609V1.23633H223.673V11.0804H221.228L217.62 5.21065V11.0804H215.113V1.23633Z" fill="#1AA94A"/>
<path d="M225.691 1.23633H229.237C230.338 1.23633 231.255 1.41976 232.05 1.84776C232.845 2.21462 233.456 2.82606 233.945 3.55978C234.373 4.2935 234.618 5.1495 234.618 6.1278C234.618 7.77867 234.129 9.00154 233.212 9.85754C232.233 10.7136 230.949 11.1416 229.237 11.1416H225.752V1.23633H225.691ZM229.36 9.00154C230.216 9.00154 230.888 8.75696 231.316 8.20667C231.744 7.71753 231.989 6.9838 231.989 6.1278C231.989 5.33293 231.744 4.66036 231.316 4.11007C230.888 3.55978 230.216 3.3152 229.421 3.3152H228.137V8.94039H229.36V9.00154Z" fill="#1AA94A"/>
</svg>
