<svg width="375" height="176" viewBox="0 0 375 176" fill="none" xmlns="http://www.w3.org/2000/svg">
<mask id="mask0" mask-type="alpha" maskUnits="userSpaceOnUse" x="0" y="0" width="375" height="176">
<rect width="375" height="176" fill="#C4C4C4"/>
</mask>
<g mask="url(#mask0)">
<g opacity="0.5">
<g clip-path="url(#clip0)">
<path d="M364.718 74.0015L373.386 79.0825L377.72 81.5482L379.886 82.8184L381.007 83.4162C381.157 83.4909 381.381 83.6404 381.53 83.7898C381.68 83.9392 381.829 84.1634 381.904 84.4623C382.053 87.8994 382.053 91.1871 382.128 94.4747L382.203 99.481V101.947V103.217V103.815C382.203 104.039 382.128 104.263 382.128 104.487L382.053 105.085L381.53 104.786C381.157 104.562 380.783 104.412 380.41 104.188L379.289 103.516L377.122 102.246L372.788 99.6304L368.454 97.0152L366.288 95.6702L365.241 94.9978C364.868 94.7736 364.494 94.5495 364.195 94.1011C363.896 93.6528 363.971 93.1298 363.971 92.7562V91.4859V88.9455V83.8645C363.971 80.5021 363.896 77.065 363.971 73.7026C364.27 73.8521 364.494 73.9268 364.718 74.0015ZM364.718 74.0015C364.494 73.8521 364.27 73.8521 364.046 73.7774C363.971 77.1397 364.121 80.5021 364.121 83.9392L364.27 89.0202L364.345 91.5607V92.8309C364.345 93.2792 364.345 93.6528 364.569 93.9517C364.793 94.2506 365.092 94.4 365.466 94.6242L366.586 95.2219L368.753 96.4922L373.162 99.0326L377.57 101.573L379.737 102.843L380.858 103.516L381.979 104.114L381.381 104.412C381.381 104.263 381.456 104.039 381.456 103.889V103.292V102.021V99.5557V94.5495C381.456 91.2618 381.53 87.8247 381.53 84.6117C381.456 84.2381 381.231 84.014 380.858 83.8645L379.812 83.192L377.645 81.9218L373.386 79.3066L364.718 74.0015Z" fill="#44CFED"/>
<path d="M364.046 71.6848L364.121 61.8218V56.8903V54.4246C364.121 53.9762 364.121 53.6027 364.121 53.1543C364.195 52.706 364.419 52.2577 364.793 51.9588C367.632 50.1655 370.397 48.5217 373.236 46.8031L377.495 44.2627L379.588 42.9924L380.634 42.3947L381.754 41.7969L382.278 41.498V42.0958L382.352 43.366V44.6363L382.278 47.1767L382.203 52.2577L382.128 57.3386L382.053 59.8791V61.1493C382.053 61.5977 382.053 62.046 381.754 62.4943C381.53 62.9426 381.082 63.1668 380.708 63.3909L379.588 63.9887L377.346 65.2589L372.938 67.7994L364.121 72.8803L364.046 71.6848ZM364.046 71.6848L364.121 73.0298L372.863 67.7994L377.197 65.1842L379.363 63.8393L380.484 63.1668C380.858 62.9426 381.157 62.7185 381.381 62.4196C381.53 62.1207 381.605 61.7471 381.605 61.2988V60.0286V57.4881V52.4071V47.3262V44.7857V43.5155L381.53 42.2452L382.128 42.6188L381.082 43.1419L380.036 43.7396L377.869 45.0099L373.61 47.4756C370.771 49.1195 367.857 50.6886 365.092 52.3324C364.793 52.5566 364.644 52.8555 364.569 53.2291C364.494 53.6027 364.494 54.051 364.494 54.4246L364.419 56.8903L364.27 61.8218L364.046 71.6848Z" fill="#44CFED"/>
<path d="M381.082 82.8183L372.639 78.111L368.38 75.7947L366.288 74.5992L365.241 74.0014L364.195 73.3289L363.971 73.1795L364.27 73.03L373.087 67.8744L377.495 65.3339L379.737 64.0637L380.858 63.4659C381.231 63.2417 381.68 62.9429 382.203 62.9429C382.801 62.9429 383.249 63.2417 383.623 63.3912L384.743 63.9889L386.985 65.2592L391.393 67.7997L395.802 70.3401L397.969 71.6104L399.089 72.2828C399.463 72.507 399.837 72.7312 400.136 73.03L400.434 73.2542L400.136 73.4036C399.388 73.9267 398.566 74.3003 397.819 74.7486L395.503 76.0188L390.796 78.5593L386.088 81.1745L383.772 82.4447C383.398 82.6689 383.025 82.8931 382.576 82.9678C381.904 83.1919 381.456 83.0425 381.082 82.8183ZM381.082 82.8183C381.456 83.0425 381.904 83.1919 382.352 83.1172C382.801 83.0425 383.174 82.7436 383.548 82.5942L385.864 81.2492L390.497 78.5593L395.129 75.8694L397.446 74.5244C398.193 74.0761 399.015 73.6278 399.687 73.1048V73.4784C399.314 73.2542 399.015 73.03 398.641 72.8059L397.52 72.2081L395.279 71.0126L390.796 68.5469L386.387 66.0811L384.146 64.8109L383.025 64.2131C382.651 63.9889 382.352 63.8395 382.053 63.8395C381.755 63.8395 381.456 63.9889 381.082 64.2131L379.961 64.8109L377.72 66.0811L373.236 68.5469L364.27 73.4036V73.1048L365.241 73.7772L366.288 74.375L368.38 75.5705L372.564 78.0363L381.082 82.8183Z" fill="#44CFED"/>
<path d="M397.969 8.84562L395.877 7.72482L391.617 5.33379L383.772 1.00004L391.468 5.40851L395.727 7.87426L397.819 9.1445C398.417 9.5181 399.089 9.81698 399.613 10.2653C399.015 10.6389 398.342 11.0125 397.67 11.3861L395.428 12.5816L390.945 14.9726L386.537 17.4384L384.295 18.6339L383.174 19.2317C382.801 19.4558 382.502 19.6053 382.203 19.6053C381.904 19.6053 381.605 19.4558 381.231 19.2317L380.111 18.6339L377.869 17.3637L373.461 14.8979C370.621 13.2541 367.632 11.7597 364.868 10.1159L365.092 9.89169C365.241 9.74226 365.466 9.66754 365.615 9.59282L366.736 8.92034L369.052 7.57538L373.61 4.88547L378.168 2.27027L380.484 0.925319C380.559 0.850599 380.634 0.850599 380.708 0.775879H380.634C380.559 0.775879 380.484 0.850599 380.484 0.850599L378.243 2.34499L373.61 4.88547L368.977 7.42594L366.661 8.69618L365.466 9.29394C365.316 9.36866 365.092 9.5181 364.868 9.66754L364.345 10.0411L364.121 10.1906L364.345 10.34C365.017 10.8631 365.764 11.2367 366.512 11.685L368.679 12.9552L373.087 15.4957L377.495 18.0362L379.662 19.3064L380.783 19.9041C381.082 20.1283 381.605 20.4272 382.203 20.3525C382.801 20.3525 383.174 20.0536 383.548 19.8294L384.669 19.2317L386.91 17.9614L391.319 15.421L395.727 12.8805L397.894 11.6103C398.641 11.1619 399.388 10.7883 400.061 10.2653L400.285 10.1159L400.061 9.96642C399.463 9.59282 398.716 9.29394 397.969 8.84562Z" fill="#44CFED"/>
<path d="M379.289 1L378.093 1.7472L373.535 4.43711L368.828 6.97758L366.512 8.32254C365.839 8.69614 365.167 9.14446 364.42 9.44334C364.42 9.2939 364.345 9.21918 364.345 9.14446C364.345 8.99502 364.345 8.77086 364.345 8.5467V7.27646L364.42 4.73599L364.494 1.07472H363.822V4.73599V7.27646V8.5467C363.822 8.77086 363.822 8.9203 363.822 9.21918C363.822 9.44334 363.896 9.6675 363.971 9.81694L364.046 10.1158L364.27 9.96638C365.092 9.59278 365.839 9.06974 366.586 8.62142L368.828 7.27646L373.386 4.51183L377.944 1.82192L379.214 1.07472H379.289V1Z" fill="#44CFED"/>
<path d="M365.316 11.1617L373.759 16.0932L378.018 18.559L380.111 19.7545L381.231 20.427C381.605 20.6511 381.979 21.0247 382.053 21.4731C382.203 24.8354 382.203 28.0484 382.278 31.3361C382.352 34.6237 382.427 37.8367 382.352 41.1244V41.3485L382.203 41.4232L382.053 41.5727C382.053 41.5727 381.979 41.5727 381.904 41.6474C381.904 41.6474 381.829 41.6474 381.754 41.6474C381.68 41.6474 381.68 41.6474 381.605 41.6474H381.53L381.381 41.5727L381.082 41.4232C380.858 41.3485 380.708 41.1991 380.484 41.1244L379.363 40.4519L377.197 39.1816L372.863 36.5665C369.949 34.8479 367.109 33.0546 364.195 31.2613L364.121 31.1866V31.0372L364.195 20.8006V10.6387L365.316 11.1617ZM365.316 11.1617L364.195 10.564L364.345 20.7259L364.569 30.8878L364.494 30.6636C367.408 32.3821 370.397 34.026 373.236 35.7445L377.57 38.285L379.737 39.5552L380.858 40.2277C381.007 40.3024 381.231 40.4519 381.381 40.5266L381.68 40.676L381.829 40.7508H381.754C381.68 40.7508 381.68 40.7508 381.68 40.7508C381.605 40.7508 381.605 40.7508 381.68 40.7508L381.754 40.676L381.605 40.9749C381.68 37.762 381.605 34.4743 381.605 31.1866C381.605 27.899 381.68 24.6113 381.68 21.3983C381.605 20.6511 380.708 20.3523 380.036 19.9039L377.944 18.6337L373.759 16.0932L365.316 11.1617Z" fill="#44CFED"/>
<path d="M364.868 32.2329L373.311 36.9402L377.57 39.2565L379.663 40.452L380.709 41.0498L381.755 41.7223L382.054 41.8717L381.755 42.0212L372.938 47.1768L368.529 49.7173L366.288 50.9875L365.167 51.5853C364.793 51.8094 364.42 52.1083 363.822 52.1083C363.224 52.183 362.776 51.8095 362.402 51.66L361.281 51.0623L359.04 49.792L354.631 47.2515L350.223 44.7111L348.056 43.4408C347.309 42.9925 346.562 42.6189 345.889 42.0959L345.665 41.9464L345.889 41.797C346.636 41.1992 347.384 40.8256 348.206 40.3773L350.522 39.1071L355.229 36.5666L359.862 33.9514L362.178 32.6812C362.552 32.457 362.925 32.2329 363.374 32.0834C364.046 31.7845 364.494 32.0087 364.868 32.2329ZM364.868 32.2329C364.494 32.0087 364.046 31.8593 363.598 31.934C363.149 32.0087 362.776 32.3076 362.402 32.5317L360.086 33.8767L355.453 36.4919L350.821 39.1818L348.504 40.5268C347.757 40.9751 346.935 41.4234 346.263 41.9464V41.5728C346.935 42.0212 347.682 42.3948 348.43 42.8431L350.671 44.0386L355.154 46.5043L359.563 48.9701L361.805 50.2403L362.925 50.8381C363.299 51.0622 363.598 51.2117 363.897 51.2117C364.196 51.2117 364.494 50.9875 364.868 50.7634L365.989 50.1656L368.23 48.8954L372.714 46.4296L381.68 41.5728V41.8717L380.709 41.1992L379.663 40.6015L377.57 39.406L373.386 36.9402L364.868 32.2329Z" fill="#44CFED"/>
<path d="M345.963 85.0596C345.963 84.6113 346.038 84.1629 346.412 83.8641C346.785 83.5652 347.159 83.4157 347.533 83.1916L349.849 81.8466L354.407 79.1567L358.965 76.3921L361.206 75.0471C361.953 74.5988 362.701 74.0758 363.523 73.7022L363.821 73.5527V73.8516C363.821 74.2999 363.896 74.7483 363.896 75.1218V76.3921V78.9326V84.0135V89.0945V91.6349V92.9052C363.896 93.2788 363.971 93.8018 363.672 94.3248C363.523 94.549 363.298 94.7732 363.074 94.9226L362.477 95.2215L361.356 95.894L359.189 97.1642L354.78 99.7047L350.372 102.245L348.13 103.515C347.383 103.889 346.711 104.412 345.889 104.711L345.665 104.786V104.487C345.59 103.665 345.665 102.843 345.665 102.021L345.739 99.6299L345.889 94.7732L345.963 85.0596ZM345.963 85.0596L345.889 94.7732V99.6299V102.021C345.889 102.843 345.889 103.665 345.963 104.412L345.665 104.263C346.412 103.889 347.159 103.441 347.831 102.992L349.998 101.647L354.332 99.0322L358.741 96.417L360.907 95.1468L362.028 94.4743L362.551 94.1754C362.701 94.1007 362.775 93.9512 362.85 93.8765C363 93.6524 363 93.2788 363 92.8304V91.5602L363.074 89.0197L363.149 83.9388L363.298 78.8578L363.373 76.3174V75.0471C363.373 74.5988 363.298 74.2252 363.298 73.7769L363.597 73.9263C362.775 74.2999 362.028 74.7483 361.281 75.1966L358.965 76.5415L354.332 79.1567L349.774 81.8466L347.458 83.1916C347.084 83.4157 346.711 83.6399 346.337 83.8641C346.038 84.0882 345.963 84.6113 345.963 85.0596Z" fill="#44CFED"/>
<path d="M363.672 72.9551C362.925 72.6562 362.178 72.2079 361.431 71.7596L359.189 70.4893L354.781 67.9488L350.372 65.4084L348.205 64.1381L347.084 63.4657C346.711 63.2415 346.262 63.0921 345.964 62.569C345.665 62.1207 345.739 61.5977 345.739 61.1494V59.8791V57.3386L345.665 52.2577L345.59 47.1767V44.6363C345.59 43.8144 345.515 42.9177 345.665 42.0958L345.739 41.498L346.262 41.7222C347.084 42.0958 347.757 42.5441 348.504 42.9924L350.671 44.2627L355.005 46.8779L359.338 49.4931L361.505 50.7633L362.626 51.4358C362.925 51.6599 363.448 51.8841 363.747 52.3324C364.046 52.8555 363.971 53.3038 363.971 53.7521V55.0223V57.5628V62.6437L363.896 67.7247V70.2652C363.747 71.2365 363.747 72.0584 363.672 72.9551ZM363.672 72.9551C363.747 72.1332 363.672 71.2365 363.672 70.4146L363.597 67.8741L363.448 62.7932L363.373 57.7122L363.299 55.1718V53.9015C363.299 53.4532 363.299 53.0796 363.149 52.8555C363 52.5566 362.626 52.4071 362.253 52.183L361.132 51.5105L358.965 50.2403L354.556 47.6998L350.148 45.1593L347.981 43.8891C347.234 43.4408 346.487 42.9924 345.814 42.6936L346.412 42.32C346.337 43.1419 346.337 43.9638 346.337 44.8604V47.4009V52.4819V57.5628V60.1033V61.3735C346.337 61.8218 346.337 62.1954 346.487 62.4943C346.636 62.7932 347.01 62.9426 347.383 63.1668L348.504 63.8393L350.671 65.1842L355.005 67.7994L359.338 70.4893L361.505 71.8343C362.178 72.1332 362.85 72.5815 363.672 72.9551Z" fill="#44CFED"/>
<path d="M345.889 40.2278L345.964 30.3648V25.4333V22.9675C345.964 22.5192 345.964 22.1456 345.964 21.6973C345.964 21.249 346.188 20.8007 346.562 20.5018L355.005 15.3461L359.264 12.8056L361.356 11.5354C362.029 11.0871 362.776 10.7135 363.523 10.3399L364.046 10.041V10.6388L364.121 11.909V13.1792L364.046 15.7197L363.971 20.8007L363.897 25.8816L363.822 28.4221V29.6923C363.822 30.1406 363.822 30.589 363.523 31.0373C363.299 31.4856 362.851 31.7098 362.477 31.9339L361.356 32.5317L359.115 33.8019L354.706 36.3424L345.889 41.4233V40.2278ZM345.889 40.2278L345.964 41.4233L354.706 36.1929L359.04 33.5777L361.207 32.2328L362.328 31.5603C362.701 31.3362 363 31.112 363.224 30.8131C363.374 30.5142 363.448 30.1406 363.448 29.6923V28.4221V25.8816V20.8007V15.7197V13.1792V11.909L363.374 10.6388L363.971 11.0124C363.224 11.3113 362.552 11.7596 361.804 12.2079L359.638 13.4781L355.379 15.9439L346.786 20.8007C346.113 21.1743 346.263 22.1456 346.263 22.9675L346.188 25.4333L346.039 30.3648L345.889 40.2278Z" fill="#44CFED"/>
<path d="M363.373 1C363.373 3.76463 363.448 6.60398 363.523 9.36862L355.154 4.58655L348.877 1H348.653L354.855 4.81071L363.672 10.1905L364.12 10.4894V9.89166C364.12 6.90286 364.12 3.91407 364.12 1H363.373Z" fill="#44CFED"/>
<path d="M361.431 8.77086L359.264 7.57534L355.005 5.25903L347.383 1L355.005 5.40847L359.189 7.87422L361.281 9.14446C361.879 9.51806 362.551 9.89166 363.149 10.2653C362.551 10.7136 361.879 11.0125 361.206 11.3861L358.965 12.5816L354.482 15.0473L349.998 17.5131L347.757 18.7833L346.636 19.3811C346.262 19.6052 345.964 19.7547 345.665 19.7547C345.515 19.7547 345.366 19.6799 345.216 19.6052L344.693 19.3064L343.573 18.7086L341.331 17.4384L336.848 14.9726L332.365 12.5068L330.123 11.3113C329.525 10.9377 328.853 10.6389 328.255 10.1905C329.675 9.36862 331.094 8.5467 332.514 7.72478L337.072 5.03487L341.705 2.41968L344.021 1.07472C344.096 1.07472 344.096 1 344.17 1H344.096C344.096 1 344.021 1 344.021 1.07472L341.705 2.34496L337.147 4.88543L332.514 7.4259C330.945 8.24782 329.376 9.06974 327.881 9.96638L327.583 10.1158L327.807 10.34C328.479 10.863 329.226 11.2366 329.974 11.6849L332.14 12.9552L336.549 15.4956L340.957 18.0361L343.199 19.3064L344.32 19.9041C344.544 19.9788 344.693 20.1283 344.918 20.203C345.142 20.3524 345.441 20.4271 345.739 20.4271C346.337 20.4271 346.786 20.1283 347.084 19.9041L348.205 19.3064L350.447 18.0361L354.855 15.4956L359.264 12.9552L361.431 11.6849C362.178 11.2366 362.925 10.863 363.597 10.2653L363.822 10.1158L363.597 9.96638C362.925 9.51806 362.178 9.21918 361.431 8.77086Z" fill="#44CFED"/>
<path d="M342.9 1L341.63 1.7472L337.072 4.43711L332.439 7.0523L330.123 8.39726C329.451 8.77086 328.778 9.21918 328.031 9.51806C328.031 9.36862 327.956 9.2939 327.956 9.21918V8.62142V7.35118L328.031 4.81071L328.106 1.07472H327.433V4.81071V7.35118V8.62142V9.2939C327.433 9.59278 327.583 9.74222 327.583 9.96638L327.657 10.2653L327.881 10.1158C328.703 9.74222 329.451 9.21918 330.198 8.77086L332.439 7.4259L336.997 4.66127L341.555 1.97136L342.9 1.14944V1Z" fill="#44CFED"/>
<path d="M328.479 10.9376L337.072 15.9438L341.406 18.4095L343.573 19.6798L344.619 20.2775C344.768 20.3523 344.992 20.5017 345.142 20.6511C345.291 20.8006 345.441 21.0995 345.441 21.3236C345.59 24.686 345.59 27.9737 345.665 31.3361L345.739 36.3423V38.808V40.0783V40.676C345.739 40.9002 345.665 41.1244 345.665 41.3485L345.59 41.9463L345.067 41.6474C344.693 41.4232 344.32 41.2738 343.946 41.0496L342.825 40.3772L340.659 39.1069L336.325 36.4917L331.991 33.8765L329.824 32.5316L328.778 31.8591C328.404 31.6349 327.956 31.4108 327.732 30.9625C327.433 30.5142 327.508 29.9911 327.508 29.6175V28.3473V25.8068V20.7259C327.508 17.3635 327.433 13.9264 327.508 10.564C327.956 10.7881 328.255 10.8628 328.479 10.9376ZM328.479 10.9376C328.255 10.7881 327.956 10.7881 327.732 10.6387C327.732 14.0011 327.807 17.4382 327.807 20.8006L327.956 25.8815L328.031 28.422V29.6922C328.031 30.1406 328.031 30.5142 328.255 30.813C328.479 31.1119 328.778 31.2613 329.152 31.4855L330.272 32.0833L332.439 33.3535L336.848 35.894L341.256 38.4344L343.423 39.7047L344.544 40.3772L345.665 40.9749L345.067 41.2738C345.067 41.1244 345.142 40.9002 345.142 40.7508V40.153V38.8828V36.417V31.4108L345.216 21.4731C345.216 21.0995 344.918 20.8753 344.544 20.6511L343.498 19.9787L341.406 18.7084L337.147 16.0932L328.479 10.9376Z" fill="#44CFED"/>
<path d="M309.426 40.0784L309.5 30.2154V25.2839V22.8181C309.5 22.3698 309.5 21.9962 309.5 21.5479C309.575 21.0996 309.799 20.6513 310.173 20.4271C313.012 18.6338 315.777 16.99 318.616 15.2714L327.06 10.1905L327.583 9.8916L327.657 10.5641C327.657 11.0124 327.732 11.4607 327.732 11.8343V13.1046L327.657 15.645L327.583 20.726L327.508 25.8069L327.433 28.3474V29.6176C327.433 29.9912 327.433 30.5143 327.209 30.9626C326.985 31.4109 326.462 31.6351 326.163 31.8592L325.042 32.457L322.801 33.7272L318.392 36.2677L313.984 38.8082L311.742 40.0784C310.995 40.5267 310.322 40.975 309.5 41.2739L309.426 40.0784ZM309.426 40.0784V41.2739C310.173 40.975 310.92 40.452 311.667 40.0037L313.834 38.7334L318.243 36.1182L322.576 33.5031L324.743 32.1581L325.864 31.4856C326.238 31.2615 326.611 31.112 326.761 30.7384C326.91 30.4395 326.91 30.0659 326.91 29.6176V28.3474V25.8069V20.726V15.645V13.1046V11.8343C326.91 11.386 326.835 11.0124 326.835 10.5641L327.433 10.863L318.915 15.7945C316.076 17.4383 313.162 19.0074 310.397 20.6513C310.098 20.8754 309.874 21.1743 309.799 21.5479C309.725 21.9215 309.725 22.3698 309.725 22.7434L309.65 25.2092L309.5 30.1407L309.426 40.0784Z" fill="#44CFED"/>
<path d="M326.91 1C326.91 3.76463 326.985 6.45455 327.06 9.21918L326.91 9.14446C326.686 9.06974 326.537 8.99502 326.313 8.84558L325.192 8.24782L322.95 7.0523L318.467 4.58655L314.058 2.04608C313.461 1.67248 312.863 1.3736 312.34 1H312.041C312.639 1.3736 313.311 1.82192 313.909 2.19552L318.243 4.88543L322.651 7.50062L324.893 8.77086L326.014 9.36862C326.163 9.44334 326.387 9.59278 326.611 9.6675L326.91 9.81694L327.284 9.96638L327.657 10.1158V9.6675C327.657 6.75343 327.657 3.91407 327.657 1H326.91V1Z" fill="#44CFED"/>
<path d="M322.95 7.72478L318.691 5.40847L310.845 1L318.691 5.48319L322.875 7.94894C324.145 8.69614 325.49 9.44334 326.76 10.2653C326.462 10.4147 326.237 10.6389 325.939 10.7883L324.818 11.3861L322.576 12.5816L318.093 15.0473L313.61 17.5131L311.368 18.7833L310.247 19.3811C309.874 19.6052 309.575 19.7547 309.276 19.7547C308.977 19.7547 308.678 19.5305 308.305 19.3064L307.184 18.7086L304.942 17.4384L300.459 14.9726L295.976 12.5068L293.734 11.3113C293.062 10.9377 292.464 10.6389 291.866 10.1905L300.833 4.96015L305.465 2.27024L307.707 1H307.632L305.391 2.27024L300.683 4.88543L291.418 9.96638L291.119 10.1158L291.418 10.34C292.09 10.863 292.838 11.3113 293.585 11.7597L295.752 13.0299L300.16 15.5704L304.569 18.1108L306.81 19.3811L307.931 19.9788C308.305 20.1283 308.678 20.5019 309.276 20.5019C309.874 20.5019 310.322 20.203 310.696 19.9788L311.817 19.3811L314.058 18.1108L318.467 15.5704L322.875 13.0299L325.117 11.7597L326.237 11.0872C326.611 10.863 326.985 10.6389 327.284 10.34L327.508 10.1905L327.284 10.0411C325.789 9.21918 324.369 8.5467 322.95 7.72478Z" fill="#44CFED"/>
<path d="M306.362 1L305.092 1.7472L300.534 4.36239L295.901 6.97758L293.585 8.32254C292.912 8.69614 292.24 9.06974 291.567 9.44334L291.493 9.14446C291.493 8.9203 291.493 8.77086 291.493 8.5467V7.27646L291.567 4.73599L291.642 1H290.97V4.73599V7.27646V8.5467C290.97 8.77086 290.97 8.99502 290.97 9.21918L291.044 9.81694L291.119 10.1158L291.418 9.96638C292.24 9.59278 292.987 9.06974 293.734 8.62142L295.976 7.27646L300.534 4.51183L305.092 1.82192L306.437 1H306.362Z" fill="#44CFED"/>
<path d="M308.828 20.9501C309.052 27.6002 309.201 34.3997 309.351 41.1245V41.5728L308.977 41.4234L308.604 41.3486L308.305 41.1992C308.081 41.1245 307.931 40.975 307.707 40.9003L306.586 40.3026C305.839 39.929 305.092 39.4806 304.345 39.107L299.936 36.5666L295.528 33.9514C294.033 33.0547 292.614 32.2328 291.194 31.2615L291.044 31.112V30.8879L290.97 20.726C290.97 17.2889 290.895 13.9265 290.97 10.4894V9.8916L291.418 10.1905L300.235 15.5703L308.828 20.9501ZM308.828 20.9501L299.861 15.8692L291.044 10.7882L291.493 10.4894C291.567 13.8518 291.567 17.2889 291.642 20.6513L291.792 30.8879L291.642 30.589C292.987 31.5603 294.482 32.3823 295.901 33.2789L300.31 35.8941L304.718 38.4346L306.96 39.7048L308.081 40.3026C308.23 40.3773 308.454 40.5267 308.604 40.6014L308.902 40.7509L309.127 40.8256L308.753 41.1992C308.753 34.4744 308.753 27.8244 308.828 20.9501Z" fill="#44CFED"/>
<path d="M290.447 1C290.447 3.76463 290.522 6.60398 290.596 9.36862L282.228 4.51183L275.951 1H275.727L281.929 4.81071L290.746 10.1905L291.194 10.4894V9.89166C291.194 6.90286 291.194 3.98879 291.194 1H290.447Z" fill="#44CFED"/>
<path d="M363 114.574L354.481 109.792L350.222 107.476L348.056 106.28C347.308 105.907 346.636 105.533 345.963 105.01L345.739 104.861L345.963 104.711C346.337 104.487 346.636 104.188 347.009 103.964L348.13 103.292L350.297 102.021L354.706 99.4808L359.114 96.9403L361.356 95.6701L362.476 95.0724C362.85 94.8482 363.224 94.5493 363.821 94.5493C364.12 94.5493 364.419 94.624 364.643 94.7735C364.868 94.9229 365.017 94.9976 365.241 95.0724L366.362 95.6701L368.604 96.9403L373.012 99.4808L377.42 102.021L379.587 103.292C380.335 103.74 381.082 104.113 381.754 104.636L382.053 104.861L381.754 105.01L372.414 110.091L367.782 112.631L365.465 113.902C365.092 114.126 364.718 114.35 364.27 114.499C363.896 114.873 363.373 114.798 363 114.574ZM363 114.574C363.373 114.798 363.896 114.873 364.27 114.649C364.643 114.5 365.017 114.201 365.465 113.976L367.782 112.631L372.414 110.016L376.972 107.326L381.53 104.636V105.01C380.858 104.562 380.11 104.113 379.363 103.74L377.122 102.544L372.638 100.079L368.155 97.6128L365.914 96.3426L364.793 95.7448L364.27 95.446C364.12 95.3712 363.971 95.2965 363.821 95.2965C363.523 95.2965 363.224 95.446 362.85 95.6701L361.729 96.2679L359.488 97.5381L355.005 100.004L350.521 102.47L348.28 103.665L347.159 104.263C346.785 104.487 346.486 104.711 346.113 104.935V104.636C346.711 105.16 347.458 105.533 348.13 105.907L350.222 107.177L354.407 109.643L363 114.574Z" fill="#44CFED"/>
<path d="M374.656 108.671L387.284 116.069L393.635 119.73L396.773 121.523L398.342 122.42C398.567 122.569 398.865 122.719 399.164 122.943C399.388 123.167 399.613 123.541 399.687 123.84C399.911 128.846 399.911 133.628 400.061 138.485L400.136 145.807L400.21 149.468V151.262V152.158C400.21 152.457 400.136 152.831 400.061 153.13L399.986 153.952L399.239 153.578C398.716 153.279 398.118 152.98 397.595 152.681L396.026 151.71L392.813 149.842L386.462 146.031L380.111 142.146L376.972 140.203L375.403 139.232C374.88 138.933 374.283 138.634 373.909 137.962C373.535 137.289 373.61 136.542 373.61 136.019V134.151V130.415L373.685 123.018C373.685 118.086 373.61 113.155 373.685 108.223C373.984 108.447 374.357 108.522 374.656 108.671ZM374.656 108.671C374.357 108.522 373.984 108.447 373.685 108.373C373.61 113.304 373.76 118.236 373.834 123.167L373.984 130.564L374.058 134.3L374.133 136.168C374.133 136.766 374.133 137.364 374.432 137.812C374.731 138.261 375.254 138.485 375.777 138.784L377.421 139.68L380.634 141.548L387.06 145.209L393.486 148.945L396.699 150.813L398.268 151.71L399.837 152.532L399.015 152.98C399.015 152.681 399.164 152.457 399.164 152.158V151.262V149.468V145.807V138.485C399.164 133.628 399.239 128.696 399.239 123.914C399.164 123.391 398.716 123.092 398.193 122.794L396.624 121.822L393.486 119.879L387.284 116.069L374.656 108.671Z" fill="#49FF71"/>
<path d="M373.685 105.309L373.76 90.8879V83.7148V80.1282C373.76 79.5305 373.685 78.9327 373.835 78.2602C373.909 77.5878 374.283 76.99 374.806 76.5417C378.915 73.9265 383.025 71.5355 387.135 68.995L393.187 65.259L396.25 63.391L397.82 62.4944L399.463 61.6724L400.285 61.2241L400.36 62.1208L400.435 63.9888V65.8568L400.36 69.5927L400.211 77.0647L400.061 84.5367L399.986 88.2727L399.912 90.1407C399.912 90.7384 399.837 91.4856 399.463 92.0834C399.09 92.6812 398.492 93.0548 397.969 93.3536L396.325 94.2503L393.112 96.1183L386.612 99.7795L373.76 107.252L373.685 105.309ZM373.685 105.309L373.76 107.252L386.537 99.6301L392.888 95.7447L396.101 93.802L397.67 92.8306C398.193 92.5317 398.641 92.2328 398.94 91.7098C399.165 91.2615 399.239 90.6637 399.239 90.066V88.198V84.462V76.99V69.518V65.782V63.914L399.165 62.1208L399.986 62.6438L398.417 63.4657L396.848 64.3624L393.71 66.1556L387.508 69.7422C383.324 72.1332 379.065 74.4495 375.03 76.8406C374.582 77.1394 374.358 77.6625 374.208 78.1855C374.133 78.7086 374.133 79.381 374.133 79.9788L374.059 83.5653L373.909 90.7384L373.685 105.309Z" fill="#49FF71"/>
<path d="M380.186 110.987L377.122 109.194L375.628 108.298L374.582 107.55L387.209 100.676L393.71 97.0896L396.923 95.2963L398.567 94.3997C399.165 94.1008 399.538 93.8019 399.986 93.8019C400.435 93.8019 400.808 94.0261 401.406 94.325L403.05 95.2216L406.263 97.0149L412.764 100.601L419.264 104.188L422.552 105.981L423 106.205V105.309L422.925 105.234L419.712 103.366L413.287 99.6301L406.861 95.9688L403.648 94.1008L402.004 93.2042C401.481 92.9053 400.808 92.457 399.986 92.5317C399.165 92.5317 398.492 92.98 397.969 93.2789L396.325 94.1755L393.112 96.0435L386.686 99.7048L373.835 107.177L373.461 107.401L373.835 107.625L375.329 108.596L376.898 109.418L379.962 111.137L386.163 114.574L398.492 121.448L386.238 114.425L380.186 110.987Z" fill="#49FF71"/>
<path d="M423 17.0651C422.925 17.0651 422.851 17.1398 422.851 17.1398L419.563 18.933L413.062 22.4449L406.562 26.0314L403.349 27.8247L401.705 28.7213C401.107 29.0202 400.659 29.3191 400.285 29.3191C399.837 29.3191 399.463 29.0949 398.866 28.7961L397.222 27.8994L394.009 26.1061L387.508 22.5196C383.324 20.1286 379.065 17.9617 374.955 15.5707L375.329 15.2718C375.553 15.1223 375.852 14.9729 376.151 14.7487L377.795 13.7774L381.157 11.8347L387.807 7.94924L394.532 4.13853L397.894 2.19582C398.492 1.89694 399.015 1.52334 399.613 1.22446C400.211 0.925582 400.883 1.0003 401.481 1.3739C400.958 1.0003 400.211 0.925582 399.613 1.22446C399.015 1.52334 398.492 1.82222 397.894 2.1211L394.532 3.98909L387.807 7.72508L381.008 11.3864L377.645 13.2543L375.927 14.151C375.628 14.3004 375.329 14.4499 375.03 14.674L374.283 15.2718L373.909 15.4959L374.283 15.7201C375.329 16.4673 376.375 17.0651 377.496 17.6628L380.709 19.5308L387.135 23.2668L393.56 26.9281L396.773 28.7961L398.417 29.6927C398.866 29.9916 399.613 30.4399 400.435 30.3652C401.257 30.2905 401.929 29.8421 402.377 29.618L404.021 28.7213L407.234 26.8533L413.66 23.1921L420.086 19.4561L423.15 17.6628V17.0651H423Z" fill="#49FF71"/>
<path d="M397.595 1C397.521 1.07472 397.446 1.07472 397.371 1.14944L394.009 3.09215L387.284 6.97758L380.559 10.7883L377.197 12.731C376.226 13.254 375.179 13.9265 374.208 14.3748C374.208 14.2254 374.133 14.076 374.133 13.8518C374.133 13.6276 374.133 13.254 374.133 12.9552L374.208 11.0872L374.283 7.35118L374.507 1H373.461V7.35118V11.0872V12.9552C373.461 13.254 373.461 13.5529 373.461 13.9265C373.536 14.3001 373.61 14.599 373.685 14.8232L373.76 15.2715L374.133 15.122C375.329 14.5243 376.375 13.8518 377.496 13.1793L380.783 11.1619L387.434 7.12702L394.084 3.16687L397.371 1.14944C397.446 1.07472 397.521 1.07472 397.595 1V1V1Z" fill="#49FF71"/>
<path d="M375.478 16.9157L387.882 24.1635L394.084 27.75L397.222 29.5433L398.791 30.44C399.314 30.7388 399.837 31.3366 399.912 32.0091C400.061 36.8659 400.136 41.5732 400.285 46.3553C400.36 51.1373 400.435 55.8447 400.435 60.7015V61.0004L400.211 61.1498L399.912 61.2992C399.912 61.2992 399.837 61.374 399.688 61.374C399.613 61.374 399.538 61.374 399.463 61.374C399.389 61.374 399.314 61.3739 399.314 61.2992H399.239L399.015 61.2245L398.567 61.0004C398.268 60.8509 398.044 60.7015 397.745 60.552L396.176 59.5807L393.037 57.7127L386.686 53.902C382.427 51.3615 378.243 48.7463 374.059 46.2058L373.909 46.1311V45.9817L373.984 31.1124L373.909 16.2432L375.478 16.9157ZM375.478 16.9157L373.834 16.0938L374.059 30.963L374.432 45.8322L374.283 45.5334C378.542 47.9991 382.876 50.3901 387.135 52.9306L393.486 56.6666L396.699 58.5346L398.268 59.506C398.567 59.6554 398.791 59.8796 399.09 59.9543L399.463 60.1784L399.688 60.2532H399.762C399.688 60.2532 399.688 60.2532 399.613 60.1784C399.538 60.1784 399.463 60.1784 399.463 60.1784C399.389 60.1784 399.389 60.1784 399.463 60.1784H399.389L399.538 60.1037L399.314 60.552C399.389 55.8447 399.314 50.9879 399.314 46.2805C399.314 41.4985 399.389 36.7164 399.389 32.0091C399.314 30.963 397.969 30.5147 396.998 29.8422L393.934 27.9742L387.807 24.2382L375.478 16.9157Z" fill="#49FF71"/>
<path d="M374.88 47.5506L387.284 54.4995L393.485 57.9366L396.624 59.6552L398.193 60.4771L399.687 61.4484L400.061 61.6726L399.687 61.8968L386.835 69.3687L380.41 73.03L377.197 74.898L375.553 75.7946C375.03 76.0935 374.432 76.5418 373.61 76.5418C372.713 76.6166 372.041 76.0935 371.593 75.8694L369.949 74.9727L366.736 73.1047L360.31 69.3687L353.884 65.6327L350.596 63.7648C349.55 63.0923 348.429 62.5692 347.383 61.822L347.01 61.5979L347.309 61.299C348.355 60.4771 349.55 59.8793 350.671 59.2816L354.108 57.4136L360.982 53.6776L367.782 49.8669L371.219 47.9989C371.817 47.7 372.34 47.3264 373.012 47.177C373.685 47.0275 374.357 47.2517 374.88 47.5506ZM374.88 47.5506C374.357 47.2517 373.685 47.0275 373.012 47.177C372.34 47.3264 371.817 47.7 371.294 47.9989L367.931 49.9416L361.132 53.827L354.407 57.7872L351.045 59.7299C349.924 60.4024 348.728 61.0001 347.832 61.822V61.299C348.803 61.9715 349.924 62.5692 351.045 63.167L354.332 64.9603L360.833 68.5468L367.334 72.2081L370.547 74.0014L372.19 74.898C372.788 75.1969 373.162 75.4958 373.61 75.421C374.058 75.421 374.507 75.1222 375.03 74.8233L376.674 73.9266L379.961 72.1334L386.462 68.5468L399.538 61.4484V61.8968L398.043 60.9254L396.549 60.0288L393.485 58.2355L387.358 54.6489L374.88 47.5506Z" fill="#49FF71"/>
<path d="M347.234 124.736C347.234 124.064 347.383 123.391 347.906 122.943C348.429 122.495 349.027 122.271 349.55 121.897L352.913 119.88L359.563 115.919L366.213 111.884L369.5 109.867C370.621 109.195 371.667 108.522 372.863 107.924L373.311 107.7V108.149C373.386 108.746 373.461 109.419 373.461 110.017V111.884V115.62V123.018L373.386 130.415V134.151V136.019C373.386 136.617 373.461 137.364 373.012 138.111C372.788 138.485 372.489 138.784 372.19 138.933L371.368 139.456L369.725 140.353L366.512 142.221L360.086 145.957L353.585 149.618L350.372 151.486C349.251 152.084 348.28 152.756 347.085 153.279L346.711 153.429V153.055C346.636 151.86 346.711 150.664 346.711 149.469L346.786 145.957L346.935 138.858L347.234 124.736ZM347.234 124.736L347.159 138.933V146.031V149.543C347.159 150.739 347.159 151.934 347.234 153.055L346.86 152.831C347.981 152.308 349.027 151.635 350.073 150.963L353.286 149.02L359.637 145.135L365.989 141.324L369.202 139.456L370.771 138.485L371.518 138.036C371.742 137.887 371.892 137.738 371.966 137.588C372.19 137.215 372.19 136.691 372.19 136.094V134.226L372.265 130.49L372.415 123.092L372.564 115.695L372.639 111.959L372.713 110.091C372.713 109.493 372.639 108.896 372.639 108.298L373.087 108.522C371.966 109.045 370.845 109.718 369.725 110.39L366.362 112.333L359.637 116.144L352.913 120.029L349.55 121.972C349.027 122.345 348.429 122.569 347.906 123.018C347.383 123.391 347.234 124.139 347.234 124.736Z" fill="#49FF71"/>
<path d="M373.012 107.102C371.892 106.654 370.771 105.981 369.725 105.383L366.512 103.516L360.086 99.8542L353.66 96.1182L350.447 94.2503L348.803 93.3536C348.28 93.0547 347.608 92.7559 347.234 92.0834C346.786 91.4109 346.861 90.589 346.861 90.0659V88.1979L346.786 84.462L346.711 77.0647L346.636 69.6674L346.562 65.9314C346.562 64.6612 346.487 63.4657 346.636 62.1955L346.711 61.3735L347.458 61.6724C348.654 62.1954 349.7 62.8679 350.746 63.4657L353.959 65.3337L360.31 69.1444L366.661 72.9551L369.874 74.8978L371.443 75.8692C371.892 76.1681 372.639 76.4669 373.012 77.2141C373.461 77.9613 373.311 78.7085 373.311 79.2316V81.0996V84.8356V92.2328L373.237 99.6301V103.366C373.162 104.562 373.237 105.832 373.012 107.102ZM373.012 107.102C373.087 105.832 373.012 104.636 373.012 103.366L372.938 99.6301L372.714 92.2328L372.564 84.8356L372.489 81.0996V79.2316C372.489 78.5591 372.489 78.036 372.265 77.6625C372.041 77.2889 371.518 76.99 370.995 76.6911L369.351 75.7945L366.138 73.9265L359.712 70.1905L353.286 66.4545L350.073 64.5865C349.027 63.9887 347.907 63.3163 346.861 62.8679L347.682 62.3449C347.533 63.5404 347.608 64.7359 347.608 66.0062V69.7422V77.1394V84.5367V88.2727V90.1407C347.608 90.8131 347.533 91.3362 347.832 91.7098C348.056 92.0834 348.579 92.3823 349.102 92.6811L350.671 93.6525L353.884 95.5952L360.235 99.4806L366.587 103.366L369.725 105.309C370.92 105.907 371.892 106.504 373.012 107.102Z" fill="#49FF71"/>
<path d="M347.159 59.3562L347.234 44.9353V37.6874V34.1009C347.234 33.5031 347.234 32.9054 347.234 32.3076C347.234 31.6351 347.608 30.9627 348.131 30.5891L360.459 23.0424L366.661 19.3064L369.799 17.4384C370.845 16.8406 371.891 16.1681 373.012 15.6451L373.759 15.1968L373.834 16.0934L373.909 17.9614V19.8294L373.834 23.5654L373.685 30.9627L373.535 38.3599L373.461 42.0959L373.386 43.9639C373.386 44.5617 373.311 45.3089 372.938 45.9066C372.564 46.5044 371.966 46.878 371.443 47.1769L369.799 48.0735L366.586 49.9415L360.16 53.6028L347.309 61.0747L347.159 59.3562ZM347.159 59.3562L347.309 61.0747L360.086 53.4533L366.437 49.5679L369.575 47.6252L371.144 46.6538C371.667 46.3549 372.19 46.0561 372.414 45.533C372.713 45.0847 372.713 44.4869 372.713 43.8892V42.0212V38.2852V30.8879V23.4907V19.7547V17.8867L372.639 16.0934L373.461 16.6165C372.414 17.0648 371.368 17.7373 370.322 18.335L367.184 20.1283L360.908 23.7896L348.355 30.9627C347.383 31.5604 347.607 32.9054 347.533 34.1009L347.458 37.6874L347.309 44.9353L347.159 59.3562Z" fill="#49FF71"/>
<path d="M372.639 1C372.713 5.40847 372.713 9.81694 372.863 14.2254L360.684 7.20174L349.7 1H349.55L360.235 7.65006L373.087 15.4956L373.759 15.944V15.122C373.759 10.4147 373.759 5.78207 373.685 1.07472H372.639V1Z" fill="#49FF71"/>
<path d="M348.056 1.299L360.459 8.24794L366.736 11.6851L369.874 13.4036C370.92 14.0014 371.966 14.4497 372.938 15.1969L373.237 15.421L372.938 15.6452C371.966 16.4671 370.846 17.0649 369.799 17.6626L366.586 19.5306L360.161 23.2666L353.735 26.9279L350.522 28.7959L348.878 29.6925C348.355 29.9914 347.757 30.4397 346.86 30.4397C346.412 30.4397 346.039 30.2903 345.74 30.1408C345.441 29.9914 345.217 29.842 344.918 29.6925L343.274 28.7959L340.061 26.9279L333.635 23.1919L327.209 19.4559L323.996 17.5879C322.95 16.9154 321.829 16.3924 320.858 15.5705L320.484 15.2716L320.858 15.0474C323.1 13.7772 325.416 12.5817 327.657 11.3115L334.457 7.65018L341.182 3.91419L344.544 2.0462C345.142 1.74732 345.665 1.37372 346.263 1.14956C346.786 0.925402 347.458 0.925402 348.056 1.299ZM348.056 1.299C347.533 0.925402 346.786 0.925402 346.188 1.22428C345.59 1.52316 345.067 1.82204 344.469 2.12092L341.107 4.06363L334.382 7.87434L327.732 11.7598C325.491 13.03 323.249 14.3002 321.082 15.6452V15.1222C322.053 15.8694 323.174 16.3924 324.22 16.9902L327.508 18.7834L334.009 22.37L340.509 26.0313L343.722 27.8245L345.366 28.7212L346.113 29.1695C346.337 29.2442 346.562 29.3189 346.711 29.3189C347.085 29.3189 347.608 29.0948 348.131 28.7212L349.775 27.8245L353.062 26.0313L359.563 22.4447L366.063 18.8582L369.351 17.0649C370.472 16.4671 371.593 15.9441 372.489 15.1969V15.6452C371.593 14.898 370.472 14.375 369.501 13.7772L366.437 11.9839L360.31 8.39738L348.056 1.299Z" fill="#49FF71"/>
<path d="M344.544 1C344.469 1.07472 344.32 1.14944 344.245 1.22416L340.883 3.16687L334.158 7.0523L327.433 10.863L324.071 12.8057C323.025 13.4035 322.054 14.0012 321.007 14.4496C320.933 14.3001 320.933 14.076 320.933 14.0012V13.1046L321.007 11.2366L321.082 7.50062L321.232 1H320.186V7.50062V11.2366V13.1046V14.076C320.26 14.4496 320.41 14.7484 320.41 15.0473L320.484 15.4209L320.858 15.2715C322.054 14.6737 323.1 14.0012 324.22 13.3288L327.508 11.3113L334.158 7.27646L340.883 3.24159L344.171 1.22416C344.32 1.14944 344.395 1.07472 344.544 1V1Z" fill="#49FF71"/>
<path d="M321.68 16.6168L334.233 23.9393L340.584 27.6006L343.722 29.3938L345.292 30.2905C345.516 30.4399 345.815 30.5894 346.114 30.8882C346.338 31.1124 346.562 31.486 346.562 31.8596C346.711 36.7911 346.786 41.5732 346.935 46.5047L347.01 53.8272L347.085 57.4885V59.2818V60.1784C347.085 60.4773 347.01 60.8509 346.935 61.1498L346.861 61.9717L346.114 61.5981C345.59 61.2992 344.993 61.075 344.47 60.7014L342.901 59.7301L339.688 57.8621L333.336 54.0514L326.985 50.166L323.847 48.2232L322.278 47.2519C321.755 46.953 321.157 46.6541 320.783 45.9816C320.41 45.3092 320.485 44.562 320.485 44.0389V42.1709V38.4349L320.559 31.0377C320.559 26.1062 320.485 21.1747 320.559 16.2432C320.933 16.3179 321.381 16.3926 321.68 16.6168ZM321.68 16.6168C321.307 16.3926 320.933 16.3926 320.559 16.2432C320.485 21.1747 320.634 26.1062 320.709 31.0377L320.858 38.4349L320.933 42.1709L321.008 44.0389C321.008 44.7114 321.008 45.2344 321.307 45.6828C321.605 46.1311 322.128 46.3552 322.651 46.7288L324.295 47.6255L327.508 49.4935L333.934 53.1547L340.36 56.8907L343.573 58.7587L345.142 59.7301L346.786 60.552L345.964 61.0003C345.964 60.7014 346.039 60.4773 346.114 60.1784V59.2818V57.4885V53.8272V46.5047L346.188 32.009C346.114 31.486 345.74 31.1124 345.217 30.8135L343.648 29.8422L340.51 27.9742L334.308 24.1635L321.68 16.6168Z" fill="#49FF71"/>
<path d="M293.81 59.1321L293.884 44.7112V37.5381V33.9515C293.884 33.3537 293.81 32.756 293.959 32.0835C294.034 31.411 294.407 30.8133 294.93 30.3649C299.04 27.7498 303.15 25.3587 307.259 22.8182L319.663 15.421L320.485 14.8979L320.559 15.8693C320.634 16.4671 320.634 17.1395 320.709 17.7373V19.6053L320.634 23.3413L320.485 30.8133L320.335 38.2853L320.26 42.0212L320.186 43.8892C320.186 44.487 320.186 45.2342 319.812 45.832C319.438 46.5044 318.766 46.8033 318.243 47.1022L316.524 48.0735L313.311 49.9415L306.811 53.6028L300.385 57.3388L297.172 59.2068C296.126 59.8046 295.08 60.477 293.884 61.0001L293.81 59.1321ZM293.81 59.1321L293.884 60.9254C295.005 60.4023 296.051 59.7298 297.097 59.1321L300.31 57.2641L306.736 53.4534L313.087 49.5679L316.3 47.6252L317.869 46.6539C318.392 46.355 318.915 46.0561 319.14 45.6078C319.364 45.1595 319.364 44.5617 319.364 43.964V42.096V38.36V30.888V23.416V19.68V17.812C319.364 17.2143 319.289 16.6165 319.289 16.0187L320.186 16.4671L307.707 23.7149C303.523 26.1059 299.339 28.4222 295.229 30.8133C294.781 31.1121 294.482 31.5605 294.407 32.1582C294.333 32.6813 294.333 33.3537 294.333 33.8768L294.258 37.4633L294.108 44.6364L293.81 59.1321Z" fill="#49FF71"/>
<path d="M319.439 1C319.513 5.33375 319.513 9.6675 319.663 14.0012L319.513 13.9265C319.214 13.7771 318.99 13.6276 318.691 13.5529L316.973 12.6563L313.685 10.863L307.184 7.20174L300.684 3.54047C299.264 2.71856 297.845 1.89664 296.425 1H296.201C297.62 1.97136 299.04 2.868 300.534 3.76463L306.886 7.72478L313.312 11.5355L316.524 13.4035L318.168 14.3001C318.467 14.4496 318.691 14.599 318.99 14.7484L319.439 14.9726L319.962 15.1968L320.485 15.4209V14.7484C320.485 10.1905 320.485 5.63263 320.41 1.07472H319.439V1Z" fill="#49FF71"/>
<path d="M295.154 1.59767L307.483 8.47189L313.685 11.8343C315.702 12.9551 317.869 14.0012 319.812 15.2714L320.185 15.4955L319.812 15.7197C319.289 16.0933 318.766 16.4669 318.243 16.7658L316.599 17.7371L313.386 19.6051L306.96 23.3411L300.459 27.0024L297.246 28.8704L295.603 29.767C295.079 30.0659 294.407 30.5142 293.585 30.5142C292.688 30.5142 292.091 30.0659 291.568 29.767L289.924 28.8704L286.711 27.0024L280.285 23.2664L273.859 19.5304L270.646 17.6624C269.6 17.0647 268.479 16.4669 267.508 15.645L267.134 15.3461L267.583 15.1219L281.331 7.64997L288.205 3.83926L291.642 1.97127C292.24 1.67239 292.763 1.29879 293.436 1.14935C293.959 0.999909 294.631 1.22407 295.154 1.59767ZM295.154 1.59767C294.631 1.29879 293.959 1.07463 293.286 1.14935C292.614 1.22407 292.091 1.67239 291.493 1.97127L288.131 3.91398L281.331 7.79941L267.807 15.645V15.1219C268.778 15.8691 269.899 16.3922 270.945 16.9899L274.233 18.7832L280.733 22.3698L287.234 26.031L290.522 27.8243L292.165 28.721C292.763 29.0198 293.137 29.3187 293.585 29.3187C294.033 29.3187 294.482 29.0946 295.005 28.7957L296.649 27.899L299.936 26.1058L306.437 22.5192L313.012 18.9327L316.3 17.1394L317.944 16.2427C318.467 15.9439 318.99 15.5703 319.513 15.2714V15.7197C317.57 14.4495 315.478 13.3287 313.461 12.0584L307.408 8.54661L295.154 1.59767Z" fill="#49FF71"/>
<path d="M291.119 1C291.045 1.07472 290.97 1.07472 290.895 1.14944L287.533 3.09215L280.808 6.97758L274.083 10.7883L270.721 12.731C269.75 13.254 268.703 13.8518 267.732 14.3748L267.657 13.9265C267.583 13.6276 267.657 13.4035 267.657 13.0299L267.732 11.1619L267.807 7.4259L267.956 1H266.91V7.4259V11.1619V13.0299C266.91 13.3288 266.91 13.7024 266.985 14.0012L267.134 14.8979L267.209 15.3462L267.583 15.122C268.778 14.5243 269.824 13.8518 270.945 13.1793L274.233 11.1619L280.883 7.12702L287.533 3.16687L290.895 1.14944C290.97 1.07472 291.119 1 291.194 1H291.119V1Z" fill="#49FF71"/>
<path d="M292.987 31.1868C293.286 40.9004 293.51 50.7634 293.735 60.7011V61.3736L293.212 61.1495L292.689 60.9253L292.24 60.7759C291.941 60.6264 291.642 60.477 291.418 60.3275L289.774 59.4309C288.654 58.8331 287.608 58.2354 286.487 57.6376L279.986 53.9764L273.56 50.1656C271.393 48.8954 269.301 47.6252 267.209 46.2055L266.985 46.0561V45.7572L266.91 30.8879C266.91 25.9564 266.835 20.9502 266.835 16.0187V15.1968L267.508 15.6451L280.36 23.3412L292.987 31.1868ZM292.987 31.1868L279.911 23.7896L266.985 16.3176L267.657 15.944C267.807 20.8755 267.807 25.8817 267.882 30.8132L268.031 45.6825L267.807 45.2341C269.824 46.5791 271.916 47.9241 274.083 49.1943L280.509 53.005L286.935 56.741L290.148 58.5343L291.792 59.4309C292.091 59.5803 292.315 59.7298 292.614 59.8792L292.987 60.1034L293.286 60.2528L292.763 60.7011C292.838 50.9128 292.913 41.1246 292.987 31.1868Z" fill="#49FF71"/>
<path d="M266.088 1.00146C266.163 5.40993 266.163 9.8184 266.313 14.2269L254.059 7.20321L243.149 1.00146H243L253.685 7.57681L266.537 15.4224L267.209 15.8707V15.0488C267.209 10.3414 267.209 5.70881 267.134 1.00146H266.088Z" fill="#49FF71"/>
<path d="M372.116 167.924L359.637 160.975L353.361 157.538L350.223 155.819C349.177 155.222 348.131 154.699 347.159 154.026L346.86 153.802L347.159 153.578C347.682 153.204 348.205 152.831 348.728 152.532L350.372 151.56L353.585 149.692L360.011 145.956L366.512 142.295L369.725 140.427L371.368 139.53C371.891 139.232 372.489 138.783 373.386 138.783C373.834 138.783 374.208 138.933 374.507 139.082C374.88 139.232 375.104 139.381 375.329 139.53L376.972 140.427L380.185 142.295L386.611 146.031L393.037 149.767L396.25 151.635C397.296 152.233 398.417 152.831 399.388 153.652L399.762 153.951L399.314 154.175L385.715 161.573L378.915 165.309L375.553 167.177C374.955 167.476 374.432 167.849 373.834 168.073C373.386 168.372 372.713 168.223 372.116 167.924ZM372.116 167.924C372.639 168.297 373.386 168.372 373.984 168.073C374.581 167.774 375.104 167.476 375.702 167.177L379.065 165.234L385.789 161.423L392.514 157.538L399.164 153.652V154.175C398.193 153.503 397.072 152.905 395.951 152.307L392.664 150.514L386.163 146.928L379.662 143.266L376.449 141.473L374.806 140.576L374.058 140.128C373.834 140.053 373.61 139.979 373.461 139.979C373.087 139.979 372.564 140.203 372.041 140.576L370.397 141.473L367.109 143.266L360.609 146.853L354.033 150.365L350.746 152.158L349.102 153.055C348.579 153.354 348.056 153.727 347.533 154.026V153.578C348.429 154.325 349.476 154.848 350.522 155.446L353.585 157.239L359.712 160.826L372.116 167.924Z" fill="#49FF71"/>
</g>
</g>
<rect width="375" height="64" fill="url(#paint0_linear)" fill-opacity="0.5"/>
<g opacity="0.5">
<g clip-path="url(#clip1)">
<path d="M10.2814 74.0015L1.61388 79.0825L-2.71987 81.5482L-4.88673 82.8185L-6.00753 83.4162C-6.15697 83.4909 -6.38113 83.6404 -6.53056 83.7898C-6.68 83.9393 -6.82944 84.1634 -6.90416 84.4623C-7.0536 87.8994 -7.0536 91.1871 -7.12832 94.4747L-7.20305 99.481V101.947V103.217V103.815C-7.20305 104.039 -7.12832 104.263 -7.12832 104.487L-7.05361 105.085L-6.53056 104.786C-6.15697 104.562 -5.78337 104.412 -5.40977 104.188L-4.28897 103.516L-2.12211 102.246L2.21164 99.6304L6.54538 97.0152L8.71224 95.6703L9.75832 94.9978C10.1319 94.7736 10.5055 94.5495 10.8044 94.1011C11.1033 93.6528 11.0286 93.1298 11.0286 92.7562V91.486V88.9455V83.8645C11.0286 80.5021 11.1033 77.065 11.0286 73.7026C10.7297 73.8521 10.5055 73.9268 10.2814 74.0015ZM10.2814 74.0015C10.5055 73.8521 10.7297 73.8521 10.9538 73.7774C11.0286 77.1397 10.8791 80.5021 10.8791 83.9393L10.7297 89.0202L10.655 91.5607V92.8309C10.655 93.2792 10.655 93.6528 10.4308 93.9517C10.2066 94.2506 9.90776 94.4 9.53417 94.6242L8.41337 95.2219L6.24649 96.4922L1.83804 99.0327L-2.57043 101.573L-4.7373 102.843L-5.85809 103.516L-6.97889 104.114L-6.38113 104.412C-6.38113 104.263 -6.45585 104.039 -6.45585 103.889V103.292V102.021V99.5557V94.5495C-6.45585 91.2618 -6.53056 87.8247 -6.53056 84.6117C-6.45585 84.2381 -6.23169 84.014 -5.85809 83.8645L-4.81202 83.1921L-2.64514 81.9218L1.61388 79.3066L10.2814 74.0015Z" fill="#44CFED"/>
<path d="M10.9539 71.6848L10.8791 61.8218V56.8903V54.4246C10.8791 53.9762 10.8791 53.6026 10.8791 53.1543C10.8044 52.706 10.5803 52.2577 10.2067 51.9588C7.3673 50.1655 4.60267 48.5217 1.76331 46.8031L-2.49572 44.2627L-4.58788 42.9924L-5.63395 42.3947L-6.75475 41.7969L-7.27778 41.498V42.0958L-7.35251 43.366V44.6363L-7.27778 47.1767L-7.20307 52.2577L-7.12835 57.3386L-7.05363 59.8791V61.1493C-7.05363 61.5977 -7.05363 62.046 -6.75475 62.4943C-6.53059 62.9426 -6.08227 63.1668 -5.70867 63.3909L-4.58788 63.9887L-2.34628 65.2589L2.0622 67.7994L10.8791 72.8803L10.9539 71.6848ZM10.9539 71.6848L10.8791 73.0298L2.13691 67.7994L-2.19684 65.1842L-4.36371 63.8393L-5.48451 63.1668C-5.85811 62.9426 -6.15699 62.7185 -6.38115 62.4196C-6.53059 62.1207 -6.60531 61.7471 -6.60531 61.2988V60.0285V57.4881V52.4071V47.3262V44.7857V43.5155L-6.53058 42.2452L-7.12835 42.6188L-6.08227 43.1419L-5.03619 43.7396L-2.86932 45.0099L1.38971 47.4756C4.22907 49.1195 7.14315 50.6886 9.90778 52.3324C10.2067 52.5566 10.3561 52.8555 10.4308 53.229C10.5055 53.6026 10.5055 54.051 10.5055 54.4246L10.5803 56.8903L10.7297 61.8218L10.9539 71.6848Z" fill="#44CFED"/>
<path d="M-6.08227 82.8183L2.36106 78.111L6.62009 75.7947L8.71225 74.5992L9.75832 74.0014L10.8044 73.3289L11.0286 73.1795L10.7297 73.03L1.91274 67.8744L-2.49572 65.3339L-4.73732 64.0637L-5.85811 63.4659C-6.23171 63.2417 -6.68003 62.9429 -7.20307 62.9429C-7.80083 62.9429 -8.24914 63.2417 -8.62274 63.3912L-9.74354 63.9889L-11.9851 65.2592L-16.3936 67.7997L-20.8021 70.3401L-22.9689 71.6104L-24.0897 72.2828C-24.4633 72.507 -24.8369 72.7312 -25.1358 73.03L-25.4347 73.2542L-25.1358 73.4036C-24.3886 73.9267 -23.5667 74.3003 -22.8195 74.7486L-20.5032 76.0188L-15.7958 78.5593L-11.0885 81.1745L-8.77218 82.4447C-8.39858 82.6689 -8.02499 82.8931 -7.57667 82.9678C-6.90419 83.1919 -6.45587 83.0425 -6.08227 82.8183ZM-6.08227 82.8183C-6.45587 83.0425 -6.90419 83.1919 -7.35251 83.1172C-7.80083 83.0425 -8.17443 82.7436 -8.54803 82.5942L-10.8643 81.2492L-15.497 78.5593L-20.1296 75.8694L-22.4459 74.5244C-23.1931 74.0761 -24.015 73.6278 -24.6875 73.1048V73.4784C-24.3139 73.2542 -24.015 73.03 -23.6414 72.8059L-22.5206 72.2081L-20.279 71.0126L-15.7958 68.5469L-11.3874 66.0811L-9.14578 64.8109L-8.02498 64.2131C-7.65138 63.9889 -7.35251 63.8395 -7.05363 63.8395C-6.75475 63.8395 -6.45587 63.9889 -6.08227 64.2131L-4.96148 64.8109L-2.71988 66.0811L1.7633 68.5469L10.7297 73.4036V73.1048L9.75832 73.7772L8.71225 74.375L6.62009 75.5705L2.43579 78.0363L-6.08227 82.8183Z" fill="#44CFED"/>
<path d="M-22.9689 8.84562L-20.8768 7.72482L-16.6177 5.33379L-8.77215 1.00004L-16.4683 5.40851L-20.7273 7.87426L-22.8195 9.1445C-23.4172 9.5181 -24.0897 9.81698 -24.6128 10.2653C-24.015 10.6389 -23.3425 11.0125 -22.67 11.3861L-20.4284 12.5816L-15.9453 14.9726L-11.5368 17.4384L-9.2952 18.6339L-8.1744 19.2317C-7.8008 19.4558 -7.50192 19.6053 -7.20304 19.6053C-6.90416 19.6053 -6.60528 19.4558 -6.23168 19.2317L-5.11088 18.6339L-2.86929 17.3637L1.53917 14.8979C4.37853 13.2541 7.36732 11.7597 10.132 10.1159L9.9078 9.89169C9.75836 9.74226 9.53419 9.66754 9.38475 9.59282L8.26396 8.92034L5.94765 7.57538L1.38974 4.88547L-3.16816 2.27027L-5.48448 0.925319C-5.5592 0.850599 -5.63393 0.850599 -5.70865 0.775879H-5.63392C-5.5592 0.775879 -5.48448 0.850599 -5.48448 0.850599L-3.24289 2.34499L1.38974 4.88547L6.02236 7.42594L8.33868 8.69618L9.5342 9.29394C9.68364 9.36866 9.90779 9.5181 10.132 9.66754L10.655 10.0411L10.8792 10.1906L10.655 10.34C9.98252 10.8631 9.23532 11.2367 8.48812 11.685L6.32125 12.9552L1.91277 15.4957L-2.49569 18.0362L-4.66256 19.3064L-5.78336 19.9041C-6.08224 20.1283 -6.60528 20.4272 -7.20304 20.3525C-7.8008 20.3525 -8.1744 20.0536 -8.548 19.8294L-9.6688 19.2317L-11.9104 17.9614L-16.3189 15.421L-20.7273 12.8805L-22.8942 11.6103C-23.6414 11.1619 -24.3886 10.7883 -25.0611 10.2653L-25.2852 10.1159L-25.0611 9.96642C-24.4633 9.59282 -23.7161 9.29394 -22.9689 8.84562Z" fill="#44CFED"/>
<path d="M-4.289 1L-3.09349 1.7472L1.46441 4.43711L6.17176 6.97758L8.48806 8.32254C9.16054 8.69614 9.83302 9.14446 10.5802 9.44334C10.5802 9.2939 10.6549 9.21918 10.6549 9.14446C10.6549 8.99502 10.6549 8.77086 10.6549 8.5467V7.27646L10.5802 4.73599L10.5055 1.07472H11.178V4.73599V7.27646V8.5467C11.178 8.77086 11.178 8.9203 11.178 9.21918C11.178 9.44334 11.1033 9.6675 11.0285 9.81694L10.9538 10.1158L10.7297 9.96638C9.90774 9.59278 9.16055 9.06974 8.41335 8.62142L6.17176 7.27646L1.61385 4.51183L-2.94406 1.82192L-4.21429 1.07472H-4.289V1Z" fill="#44CFED"/>
<path d="M9.68364 11.1617L1.2403 16.0932L-3.01872 18.559L-5.11088 19.7545L-6.23168 20.427C-6.60528 20.6511 -6.97888 21.0247 -7.0536 21.4731C-7.20304 24.8354 -7.20303 28.0484 -7.27775 31.3361C-7.35247 34.6237 -7.42719 37.8367 -7.35247 41.1244V41.3485L-7.20304 41.4232L-7.0536 41.5727C-7.0536 41.5727 -6.97887 41.5727 -6.90415 41.6474C-6.90415 41.6474 -6.82943 41.6474 -6.75471 41.6474C-6.67999 41.6474 -6.68 41.6474 -6.60528 41.6474H-6.53055L-6.38111 41.5727L-6.08224 41.4232C-5.85808 41.3485 -5.70864 41.1991 -5.48448 41.1244L-4.36368 40.4519L-2.19681 39.1816L2.13694 36.5665C5.05101 34.8479 7.89037 33.0546 10.8044 31.2613L10.8792 31.1866V31.0372L10.8044 20.8006V10.6387L9.68364 11.1617ZM9.68364 11.1617L10.8044 10.564L10.655 20.7259L10.4308 30.8878L10.5056 30.6636C7.59148 32.3821 4.60269 34.026 1.76334 35.7445L-2.57041 38.285L-4.73728 39.5552L-5.85808 40.2277C-6.00752 40.3024 -6.23168 40.4519 -6.38111 40.5266L-6.68 40.676L-6.82944 40.7508H-6.75471C-6.67999 40.7508 -6.68 40.7508 -6.68 40.7508C-6.60528 40.7508 -6.60528 40.7508 -6.68 40.7508L-6.75471 40.676L-6.60528 40.9749C-6.68 37.762 -6.60528 34.4743 -6.60528 31.1866C-6.60528 27.899 -6.68 24.6113 -6.68 21.3983C-6.60528 20.6511 -5.70863 20.3523 -5.03616 19.9039L-2.94401 18.6337L1.2403 16.0932L9.68364 11.1617Z" fill="#44CFED"/>
<path d="M10.132 32.2329L1.68865 36.9402L-2.57039 39.2565L-4.66253 40.452L-5.70861 41.0498L-6.75469 41.7223L-7.05357 41.8717L-6.75469 42.0212L2.06225 47.1768L6.47071 49.7173L8.7123 50.9875L9.8331 51.5853C10.2067 51.8094 10.5803 52.1083 11.1781 52.1083C11.7758 52.183 12.2241 51.8095 12.5977 51.66L13.7185 51.0622L15.9601 49.792L20.3686 47.2515L24.7771 44.7111L26.9439 43.4408C27.6911 42.9925 28.4383 42.6189 29.1108 42.0959L29.335 41.9464L29.1108 41.797C28.3636 41.1992 27.6164 40.8256 26.7945 40.3773L24.4782 39.1071L19.7708 36.5666L15.1382 33.9514L12.8219 32.6812C12.4483 32.457 12.0747 32.2329 11.6264 32.0834C10.9539 31.7845 10.5056 32.0087 10.132 32.2329ZM10.132 32.2329C10.5056 32.0087 10.9539 31.8593 11.4022 31.934C11.8505 32.0087 12.2241 32.3076 12.5977 32.5317L14.914 33.8767L19.5467 36.4919L24.1793 39.1818L26.4956 40.5268C27.2428 40.9751 28.0647 41.4234 28.7372 41.9464V41.5728C28.0647 42.0212 27.3175 42.3948 26.5703 42.8431L24.3287 44.0386L19.8455 46.5043L15.4371 48.9701L13.1955 50.2403L12.0747 50.8381C11.7011 51.0622 11.4022 51.2117 11.1033 51.2117C10.8045 51.2117 10.5056 50.9875 10.132 50.7634L9.01118 50.1656L6.76958 48.8954L2.2864 46.4296L-6.67997 41.5728V41.8717L-5.70861 41.1992L-4.66253 40.6015L-2.57039 39.406L1.61392 36.9402L10.132 32.2329Z" fill="#44CFED"/>
<path d="M29.0361 85.0596C29.0361 84.6113 28.9614 84.1629 28.5878 83.8641C28.2142 83.5652 27.8406 83.4157 27.467 83.1916L25.1506 81.8466L20.5927 79.1567L16.0348 76.3921L13.7932 75.0471C13.046 74.5988 12.2988 74.0758 11.4769 73.7022L11.178 73.5527V73.8516C11.178 74.2999 11.1033 74.7483 11.1033 75.1218V76.3921V78.9326V84.0135V89.0945V91.6349V92.9052C11.1033 93.2788 11.0286 93.8018 11.3275 94.3248C11.4769 94.549 11.7011 94.7732 11.9252 94.9226L12.523 95.2215L13.6438 95.894L15.8107 97.1642L20.2191 99.7047L24.6276 102.245L26.8692 103.515C27.6164 103.889 28.2889 104.412 29.1108 104.711L29.335 104.786V104.487C29.4097 103.665 29.335 102.843 29.335 102.021L29.2602 99.6299L29.1108 94.7732L29.0361 85.0596ZM29.0361 85.0596L29.1108 94.7732V99.6299V102.021C29.1108 102.843 29.1108 103.665 29.0361 104.412L29.335 104.263C28.5878 103.889 27.8406 103.441 27.1681 102.992L25.0012 101.647L20.6675 99.0322L16.259 96.417L14.0921 95.1468L12.9713 94.4743L12.4483 94.1754C12.2988 94.1007 12.2241 93.9512 12.1494 93.8765C12 93.6524 12 93.2788 12 92.8304V91.5602L11.9252 89.0197L11.8505 83.9388L11.7011 78.8578L11.6264 76.3174V75.0471C11.6264 74.5988 11.7011 74.2252 11.7011 73.7769L11.4022 73.9263C12.2241 74.2999 12.9713 74.7483 13.7185 75.1966L16.0348 76.5415L20.6675 79.1567L25.2254 81.8466L27.5417 83.1916C27.9153 83.4157 28.2889 83.6399 28.6625 83.8641C28.9613 84.0882 29.0361 84.6113 29.0361 85.0596Z" fill="#44CFED"/>
<path d="M11.3276 72.9551C12.0748 72.6562 12.822 72.2079 13.5692 71.7596L15.8108 70.4893L20.2192 67.9489L24.6277 65.4084L26.7946 64.1381L27.9154 63.4657C28.289 63.2415 28.7373 63.0921 29.0362 62.569C29.3351 62.1207 29.2603 61.5977 29.2603 61.1494V59.8791V57.3386L29.3351 52.2577L29.4098 47.1768V44.6363C29.4098 43.8144 29.4845 42.9177 29.3351 42.0958L29.2603 41.498L28.7373 41.7222C27.9154 42.0958 27.2429 42.5441 26.4957 42.9924L24.3288 44.2627L19.9951 46.8779L15.6613 49.4931L13.4945 50.7633L12.3737 51.4358C12.0748 51.6599 11.5517 51.8841 11.2529 52.3324C10.954 52.8555 11.0287 53.3038 11.0287 53.7521V55.0223V57.5628V62.6438L11.1034 67.7247V70.2652C11.2529 71.2365 11.2529 72.0584 11.3276 72.9551ZM11.3276 72.9551C11.2529 72.1332 11.3276 71.2365 11.3276 70.4146L11.4023 67.8741L11.5517 62.7932L11.6265 57.7122L11.7012 55.1718V53.9015C11.7012 53.4532 11.7012 53.0796 11.8506 52.8555C12.0001 52.5566 12.3737 52.4071 12.7473 52.183L13.8681 51.5105L16.0349 50.2403L20.4434 47.6998L24.8519 45.1593L27.0188 43.8891C27.7659 43.4408 28.5131 42.9924 29.1856 42.6936L28.5879 42.32C28.6626 43.1419 28.6626 43.9638 28.6626 44.8604V47.4009V52.4819V57.5628V60.1033V61.3735C28.6626 61.8218 28.6626 62.1954 28.5131 62.4943C28.3637 62.7932 27.9901 62.9426 27.6165 63.1668L26.4957 63.8393L24.3288 65.1842L19.9951 67.7994L15.6613 70.4893L13.4945 71.8343C12.822 72.1332 12.1495 72.5815 11.3276 72.9551Z" fill="#44CFED"/>
<path d="M29.1108 40.2278L29.0361 30.3648V25.4333V22.9675C29.0361 22.5192 29.0361 22.1456 29.0361 21.6973C29.0361 21.249 28.812 20.8007 28.4384 20.5018L19.995 15.3461L15.736 12.8056L13.6438 11.5354C12.9714 11.0871 12.2242 10.7135 11.477 10.3399L10.9539 10.041V10.6388L10.8792 11.909V13.1792L10.9539 15.7197L11.0286 20.8007L11.1034 25.8816L11.1781 28.4221V29.6923C11.1781 30.1406 11.1781 30.589 11.477 31.0373C11.7011 31.4856 12.1494 31.7098 12.523 31.9339L13.6438 32.5317L15.8854 33.8019L20.2939 36.3424L29.1108 41.4233V40.2278ZM29.1108 40.2278L29.0361 41.4233L20.2939 36.1929L15.9601 33.5778L13.7933 32.2328L12.6725 31.5603C12.2989 31.3362 12 31.112 11.7758 30.8131C11.6264 30.5142 11.5517 30.1406 11.5517 29.6923V28.4221V25.8816V20.8007V15.7197V13.1792V11.909L11.6264 10.6388L11.0286 11.0124C11.7758 11.3113 12.4483 11.7596 13.1955 12.2079L15.3624 13.4781L19.6214 15.9439L28.2142 20.8007C28.8867 21.1743 28.7372 22.1456 28.7372 22.9675L28.812 25.4333L28.9614 30.3648L29.1108 40.2278Z" fill="#44CFED"/>
<path d="M11.6264 1C11.6264 3.76463 11.5517 6.60398 11.4769 9.36862L19.8456 4.58655L26.122 1H26.3462L20.1444 4.81071L11.3275 10.1905L10.8792 10.4894V9.89166C10.8792 6.90286 10.8792 3.91407 10.8792 1H11.6264Z" fill="#44CFED"/>
<path d="M13.5692 8.77086L15.736 7.57534L19.9951 5.25903L27.6165 1L19.9951 5.40847L15.8108 7.87422L13.7186 9.14446C13.1208 9.51806 12.4484 9.89166 11.8506 10.2653C12.4484 10.7136 13.1209 11.0125 13.7933 11.3861L16.0349 12.5816L20.5181 15.0473L25.0013 17.5131L27.2429 18.7833L28.3637 19.3811C28.7373 19.6052 29.0362 19.7547 29.3351 19.7547C29.4845 19.7547 29.6339 19.6799 29.7834 19.6052L30.3064 19.3064L31.4272 18.7086L33.6688 17.4384L38.152 14.9726L42.6352 12.5068L44.8768 11.3113C45.4745 10.9377 46.147 10.6389 46.7448 10.1905C45.3251 9.36862 43.9054 8.5467 42.4857 7.72478L37.9278 5.03487L33.2952 2.41968L30.9789 1.07472C30.9042 1.07472 30.9042 1 30.8294 1H30.9042C30.9042 1 30.9789 1 30.9789 1.07472L33.2952 2.34496L37.8531 4.88543L42.4857 7.4259C44.0548 8.24782 45.624 9.06974 47.1184 9.96638L47.4172 10.1158L47.1931 10.34C46.5206 10.863 45.7734 11.2366 45.0262 11.6849L42.8593 12.9552L38.4509 15.4956L34.0424 18.0361L31.8008 19.3064L30.68 19.9041C30.4558 19.9788 30.3064 20.1283 30.0822 20.203C29.8581 20.3524 29.5592 20.4271 29.2603 20.4271C28.6626 20.4271 28.2142 20.1283 27.9154 19.9041L26.7946 19.3064L24.553 18.0361L20.1445 15.4956L15.736 12.9552L13.5692 11.6849C12.822 11.2366 12.0748 10.863 11.4023 10.2653L11.1781 10.1158L11.4023 9.96638C12.0748 9.51806 12.822 9.21918 13.5692 8.77086Z" fill="#44CFED"/>
<path d="M32.0996 1L33.3699 1.7472L37.9278 4.43711L42.5604 7.0523L44.8767 8.39726C45.5492 8.77086 46.2217 9.21918 46.9689 9.51806C46.9689 9.36862 47.0436 9.2939 47.0436 9.21918V8.62142V7.35118L46.9689 4.81071L46.8942 1.07472H47.5667V4.81071V7.35118V8.62142V9.2939C47.5667 9.59278 47.4172 9.74222 47.4172 9.96638L47.3425 10.2653L47.1183 10.1158C46.2964 9.74222 45.5492 9.21918 44.802 8.77086L42.5604 7.4259L38.0025 4.66127L33.4446 1.97136L32.0996 1.14944V1Z" fill="#44CFED"/>
<path d="M46.5206 10.9376L37.9278 15.9438L33.594 18.4095L31.4272 19.6798L30.3811 20.2775C30.2317 20.3523 30.0075 20.5017 29.8581 20.6511C29.7086 20.8006 29.5592 21.0995 29.5592 21.3236C29.4097 24.686 29.4097 27.9737 29.335 31.3361L29.2603 36.3423V38.808V40.0783V40.676C29.2603 40.9002 29.335 41.1244 29.335 41.3485L29.4097 41.9463L29.9328 41.6474C30.3064 41.4232 30.68 41.2738 31.0536 41.0496L32.1744 40.3772L34.3412 39.1069L38.675 36.4917L43.0087 33.8765L45.1756 32.5316L46.2217 31.8591C46.5953 31.6349 47.0436 31.4108 47.2678 30.9625C47.5667 30.5142 47.4919 29.9911 47.4919 29.6175V28.3473V25.8068V20.7259C47.4919 17.3635 47.5667 13.9264 47.4919 10.564C47.0436 10.7881 46.7447 10.8628 46.5206 10.9376ZM46.5206 10.9376C46.7447 10.7881 47.0436 10.7881 47.2678 10.6387C47.2678 14.0011 47.1931 17.4382 47.1931 20.8006L47.0436 25.8815L46.9689 28.422V29.6922C46.9689 30.1406 46.9689 30.5142 46.7447 30.813C46.5206 31.1119 46.2217 31.2613 45.8481 31.4855L44.7273 32.0833L42.5604 33.3535L38.152 35.894L33.7435 38.4344L31.5766 39.7047L30.4558 40.3772L29.335 40.9749L29.9328 41.2738C29.9328 41.1244 29.8581 40.9002 29.8581 40.7508V40.153V38.8828V36.417V31.4108L29.7833 21.4731C29.7833 21.0995 30.0822 20.8753 30.4558 20.6511L31.5019 19.9787L33.594 18.7084L37.8531 16.0932L46.5206 10.9376Z" fill="#44CFED"/>
<path d="M65.574 40.0784L65.4993 30.2154V25.2839V22.8181C65.4993 22.3698 65.4993 21.9962 65.4993 21.5479C65.4245 21.0996 65.2004 20.6513 64.8268 20.4271C61.9874 18.6338 59.2228 16.99 56.3834 15.2714L47.9401 10.1905L47.4171 9.8916L47.3423 10.5641C47.3423 11.0124 47.2676 11.4607 47.2676 11.8343V13.1046L47.3423 15.645L47.4171 20.726L47.4918 25.8069L47.5665 28.3474V29.6176C47.5665 29.9912 47.5665 30.5143 47.7907 30.9626C48.0148 31.4109 48.5379 31.6351 48.8367 31.8592L49.9575 32.457L52.1991 33.7272L56.6076 36.2677L61.0161 38.8082L63.2577 40.0784C64.0049 40.5267 64.6773 40.975 65.4993 41.2739L65.574 40.0784ZM65.574 40.0784V41.2739C64.8268 40.975 64.0796 40.452 63.3324 40.0037L61.1655 38.7334L56.757 36.1182L52.4233 33.5031L50.2564 32.1581L49.1356 31.4856C48.762 31.2615 48.3884 31.112 48.239 30.7384C48.0895 30.4395 48.0895 30.0659 48.0895 29.6176V28.3474V25.8069V20.726V15.645V13.1046V11.8343C48.0895 11.386 48.1643 11.0124 48.1643 10.5641L47.5665 10.863L56.0846 15.7945C58.9239 17.4383 61.838 19.0074 64.6026 20.6513C64.9015 20.8754 65.1257 21.1743 65.2004 21.5479C65.2751 21.9215 65.2751 22.3698 65.2751 22.7434L65.3498 25.2092L65.4993 30.1407L65.574 40.0784Z" fill="#44CFED"/>
<path d="M48.0897 1C48.0897 3.76463 48.015 6.45455 47.9403 9.21918L48.0897 9.14446C48.3139 9.06974 48.4633 8.99502 48.6875 8.84558L49.8083 8.24782L52.0499 7.0523L56.5331 4.58655L60.9416 2.04608C61.5393 1.67248 62.1371 1.3736 62.6601 1H62.959C62.3612 1.3736 61.6887 1.82192 61.091 2.19552L56.7572 4.88543L52.3488 7.50062L50.1072 8.77086L48.9864 9.36862C48.8369 9.44334 48.6128 9.59278 48.3886 9.6675L48.0897 9.81694L47.7161 9.96638L47.3425 10.1158V9.6675C47.3425 6.75343 47.3425 3.91407 47.3425 1H48.0897V1Z" fill="#44CFED"/>
<path d="M52.0497 7.72478L56.3088 5.40847L64.1543 1L56.3088 5.48319L52.1245 7.94894C50.8542 8.69614 49.5093 9.44334 48.239 10.2653C48.5379 10.4147 48.7621 10.6389 49.0609 10.7883L50.1817 11.3861L52.4233 12.5816L56.9065 15.0473L61.3897 17.5131L63.6313 18.7833L64.7521 19.3811C65.1257 19.6052 65.4246 19.7547 65.7235 19.7547C66.0223 19.7547 66.3212 19.5305 66.6948 19.3063L67.8156 18.7086L70.0572 17.4384L74.5404 14.9726L79.0236 12.5068L81.2652 11.3113C81.9377 10.9377 82.5354 10.6389 83.1332 10.1905L74.1668 4.96015L69.5342 2.27024L67.2926 1H67.3673L69.6089 2.27024L74.3162 4.88543L83.5815 9.96638L83.8804 10.1158L83.5815 10.34C82.909 10.863 82.1618 11.3113 81.4146 11.7596L79.2477 13.0299L74.8393 15.5704L70.4308 18.1108L68.1892 19.3811L67.0684 19.9788C66.6948 20.1283 66.3212 20.5019 65.7235 20.5019C65.1257 20.5019 64.6774 20.203 64.3038 19.9788L63.183 19.3811L60.9414 18.1108L56.5329 15.5704L52.1245 13.0299L49.8829 11.7596L48.7621 11.0872C48.3885 10.863 48.0149 10.6389 47.716 10.34L47.4918 10.1905L47.716 10.0411C49.2104 9.21918 50.6301 8.5467 52.0497 7.72478Z" fill="#44CFED"/>
<path d="M68.6375 1L69.9077 1.7472L74.4657 4.36239L79.0983 6.97758L81.4146 8.32254C82.0871 8.69614 82.7595 9.06974 83.432 9.44334L83.5067 9.14446C83.5067 8.9203 83.5067 8.77086 83.5067 8.5467V7.27646L83.432 4.73599L83.3573 1H84.0298V4.73599V7.27646V8.5467C84.0298 8.77086 84.0298 8.99502 84.0298 9.21918L83.9551 9.81694L83.8803 10.1158L83.5815 9.96638C82.7595 9.59278 82.0123 9.06974 81.2651 8.62142L79.0236 7.27646L74.4657 4.51183L69.9077 1.82192L68.5628 1H68.6375Z" fill="#44CFED"/>
<path d="M66.1717 20.9501C65.9476 27.6002 65.7981 34.3997 65.6487 41.1245V41.5728L66.0223 41.4234L66.3959 41.3486L66.6948 41.1992C66.9189 41.1245 67.0684 40.975 67.2925 40.9003L68.4133 40.3026C69.1605 39.929 69.9077 39.4806 70.6549 39.107L75.0634 36.5666L79.4719 33.9514C80.9663 33.0547 82.3859 32.2328 83.8056 31.2615L83.9551 31.112V30.8879L84.0298 20.726C84.0298 17.2889 84.1045 13.9265 84.0298 10.4894V9.8916L83.5815 10.1905L74.7645 15.5703L66.1717 20.9501ZM66.1717 20.9501L75.1381 15.8692L83.9551 10.7882L83.5067 10.4894C83.432 13.8518 83.432 17.2889 83.3573 20.6513L83.2079 30.8879L83.3573 30.589C82.0123 31.5603 80.5179 32.3823 79.0983 33.2789L74.6898 35.8941L70.2813 38.4346L68.0397 39.7048L66.9189 40.3026C66.7695 40.3773 66.5453 40.5267 66.3959 40.6014L66.097 40.7509L65.8729 40.8256L66.2465 41.1992C66.2465 34.4744 66.2465 27.8244 66.1717 20.9501Z" fill="#44CFED"/>
<path d="M84.5529 1C84.5529 3.76463 84.4782 6.60398 84.4035 9.36862L92.7721 4.51183L99.0485 1H99.2727L93.071 4.81071L84.254 10.1905L83.8057 10.4894V9.89166C83.8057 6.90286 83.8057 3.98879 83.8057 1H84.5529Z" fill="#44CFED"/>
<path d="M12 114.574L20.518 109.792L24.7771 107.476L26.9439 106.28C27.6911 105.907 28.3636 105.533 29.0361 105.01L29.2603 104.861L29.0361 104.711C28.6625 104.487 28.3636 104.188 27.99 103.964L26.8692 103.292L24.7023 102.021L20.2939 99.4808L15.8854 96.9403L13.6438 95.6701L12.523 95.0724C12.1494 94.8482 11.7758 94.5493 11.1781 94.5493C10.8792 94.5493 10.5803 94.624 10.3562 94.7735C10.132 94.9229 9.98255 94.9976 9.75839 95.0724L8.63759 95.6701L6.396 96.9403L1.98754 99.4808L-2.42092 102.021L-4.5878 103.292C-5.335 103.74 -6.08219 104.113 -6.75467 104.636L-7.05356 104.861L-6.75467 105.01L2.5853 110.091L7.21792 112.631L9.53424 113.902C9.90784 114.126 10.2814 114.35 10.7297 114.499C11.1033 114.873 11.6264 114.798 12 114.574ZM12 114.574C11.6264 114.798 11.1033 114.873 10.7297 114.649C10.3562 114.5 9.98256 114.201 9.53424 113.976L7.21792 112.631L2.5853 110.016L-1.97261 107.326L-6.53051 104.636V105.01C-5.85803 104.562 -5.11084 104.113 -4.36364 103.74L-2.12205 102.544L2.36114 100.079L6.84432 97.6128L9.08592 96.3426L10.2067 95.7448L10.7297 95.446C10.8792 95.3712 11.0286 95.2965 11.1781 95.2965C11.477 95.2965 11.7758 95.446 12.1494 95.6701L13.2702 96.2679L15.5118 97.5381L19.995 100.004L24.4782 102.47L26.7198 103.665L27.8406 104.263C28.2142 104.487 28.5131 104.711 28.8867 104.935V104.636C28.2889 105.16 27.5417 105.533 26.8692 105.907L24.7771 107.177L20.5928 109.643L12 114.574Z" fill="#44CFED"/>
<path d="M0.343824 108.671L-12.2838 116.069L-18.635 119.73L-21.7732 121.523L-23.3423 122.42C-23.5665 122.569 -23.8654 122.719 -24.1643 122.943C-24.3884 123.167 -24.6126 123.541 -24.6873 123.84C-24.9115 128.846 -24.9115 133.628 -25.0609 138.485L-25.1356 145.807L-25.2103 149.468V151.262V152.158C-25.2103 152.457 -25.1356 152.831 -25.0609 153.13L-24.9862 153.952L-24.239 153.578C-23.7159 153.279 -23.1182 152.98 -22.5951 152.681L-21.026 151.71L-17.8131 149.842L-11.4619 146.031L-5.11072 142.146L-1.97249 140.203L-0.403374 139.232C0.119664 138.933 0.717422 138.634 1.09102 137.962C1.46462 137.289 1.3899 136.542 1.3899 136.019V134.151V130.415L1.31518 123.018C1.31518 118.086 1.3899 113.155 1.31518 108.223C1.0163 108.447 0.642703 108.522 0.343824 108.671ZM0.343824 108.671C0.642703 108.522 1.0163 108.447 1.31518 108.373C1.3899 113.304 1.24045 118.236 1.16573 123.167L1.0163 130.564L0.941584 134.3L0.86686 136.168C0.86686 136.766 0.866864 137.364 0.567985 137.812C0.269106 138.261 -0.253934 138.485 -0.776973 138.784L-2.4208 139.68L-5.63376 141.548L-12.0597 145.209L-18.4856 148.945L-21.6985 150.813L-23.2676 151.71L-24.8367 152.532L-24.0148 152.98C-24.0148 152.681 -24.1643 152.457 -24.1643 152.158V151.262V149.468V145.807V138.485C-24.1643 133.628 -24.239 128.696 -24.239 123.914C-24.1643 123.391 -23.7159 123.092 -23.1929 122.794L-21.6238 121.822L-18.4856 119.879L-12.2838 116.069L0.343824 108.671Z" fill="#49FF71"/>
<path d="M1.31519 105.309L1.24046 90.8879V83.7148V80.1282C1.24046 79.5305 1.31518 78.9327 1.16574 78.2602C1.09102 77.5878 0.717427 76.99 0.194389 76.5417C-3.9152 73.9265 -8.02479 71.5355 -12.1344 68.995L-18.1867 65.259L-21.2502 63.391L-22.8193 62.4944L-24.4631 61.6724L-25.2851 61.2241L-25.3598 62.1208L-25.4345 63.9888V65.8568L-25.3598 69.5927L-25.2103 77.0647L-25.0609 84.5367L-24.9862 88.2727L-24.9115 90.1407C-24.9115 90.7384 -24.8367 91.4856 -24.4631 92.0834C-24.0895 92.6812 -23.4918 93.0548 -22.9687 93.3536L-21.3249 94.2503L-18.112 96.1183L-11.6113 99.7795L1.24046 107.252L1.31519 105.309ZM1.31519 105.309L1.24046 107.252L-11.5366 99.6301L-17.8878 95.7447L-21.1007 93.8019L-22.6699 92.8306C-23.1929 92.5317 -23.6412 92.2328 -23.9401 91.7098C-24.1643 91.2615 -24.239 90.6637 -24.239 90.066V88.198V84.462V76.99V69.518V65.782V63.914L-24.1643 62.1208L-24.9862 62.6438L-23.4171 63.4657L-21.8479 64.3624L-18.7097 66.1556L-12.508 69.7422C-8.32366 72.1332 -4.06464 74.4495 -0.0297726 76.8406C0.418546 77.1394 0.642699 77.6625 0.792138 78.1855C0.866858 78.7086 0.866862 79.381 0.866862 79.9788L0.941587 83.5653L1.09102 90.7384L1.31519 105.309Z" fill="#49FF71"/>
<path d="M-5.18547 110.987L-2.12196 109.194L-0.627563 108.298L0.41851 107.55L-12.2091 100.676L-18.7098 97.0896L-21.9227 95.2963L-23.5665 94.3997C-24.1643 94.1008 -24.5379 93.8019 -24.9862 93.8019C-25.4345 93.8019 -25.8081 94.0261 -26.4059 94.325L-28.0497 95.2216L-31.2627 97.0149L-37.7633 100.601L-44.2639 104.188L-47.5516 105.981L-47.9999 106.205V105.309L-47.9252 105.234L-44.7122 103.366L-38.2863 99.6301L-31.8604 95.9688L-28.6475 94.1008L-27.0037 93.2042C-26.4806 92.9053 -25.8081 92.457 -24.9862 92.5317C-24.1643 92.5317 -23.4918 92.98 -22.9688 93.2789L-21.3249 94.1755L-18.112 96.0435L-11.6861 99.7048L1.16571 107.177L1.53931 107.401L1.16571 107.625L-0.328688 108.596L-1.8978 109.418L-4.96131 111.137L-11.1631 114.574L-23.4918 121.448L-11.2378 114.425L-5.18547 110.987Z" fill="#49FF71"/>
<path d="M-48.0001 17.0651C-47.9254 17.0651 -47.8506 17.1398 -47.8506 17.1398L-44.563 18.933L-38.0624 22.4449L-31.5617 26.0314L-28.3488 27.8247L-26.7049 28.7213C-26.1072 29.0202 -25.6589 29.3191 -25.2853 29.3191C-24.8369 29.3191 -24.4634 29.0949 -23.8656 28.7961L-22.2217 27.8994L-19.0088 26.1061L-12.5082 22.5196C-8.32387 20.1286 -4.06485 17.9617 0.0447365 15.5707L-0.328862 15.2718C-0.553022 15.1223 -0.851894 14.9729 -1.15077 14.7487L-2.79461 13.7774L-6.157 11.8347L-12.8071 7.94924L-19.5318 4.13853L-22.8942 2.19582C-23.492 1.89694 -24.015 1.52334 -24.6128 1.22446C-25.2105 0.925582 -25.883 1.0003 -26.4808 1.3739C-25.9577 1.0003 -25.2105 0.925582 -24.6128 1.22446C-24.015 1.52334 -23.492 1.82222 -22.8942 2.1211L-19.5318 3.98909L-12.8071 7.72508L-6.00756 11.3864L-2.64517 13.2543L-0.926611 14.151C-0.627732 14.3004 -0.328856 14.4499 -0.0299764 14.674L0.717221 15.2718L1.09082 15.4959L0.717221 15.7201C-0.328856 16.4673 -1.37493 17.0651 -2.49573 17.6628L-5.70868 19.5308L-12.1346 23.2668L-18.5605 26.9281L-21.7734 28.7961L-23.4173 29.6927C-23.8656 29.9916 -24.6128 30.4399 -25.4347 30.3652C-26.2566 30.2905 -26.9291 29.8421 -27.3774 29.618L-29.0213 28.7213L-32.2342 26.8533L-38.6601 23.1921L-45.086 19.4561L-48.1495 17.6628V17.0651H-48.0001Z" fill="#49FF71"/>
<path d="M-22.5952 1C-22.5205 1.07472 -22.4458 1.07472 -22.371 1.14944L-19.0086 3.09215L-12.2839 6.97758L-5.55908 10.7883L-2.19668 12.731C-1.22533 13.254 -0.179249 13.9265 0.792108 14.3748C0.792108 14.2254 0.866833 14.076 0.866833 13.8518C0.866833 13.6276 0.866833 13.254 0.866833 12.9552L0.792108 11.0872L0.717396 7.35118L0.493234 1H1.53931V7.35118V11.0872V12.9552C1.53931 13.254 1.53931 13.5529 1.53931 13.9265C1.46459 14.3001 1.38988 14.599 1.31516 14.8232L1.24043 15.2715L0.866833 15.122C-0.328684 14.5243 -1.37476 13.8518 -2.49556 13.1793L-5.78323 11.1619L-12.4333 7.12702L-19.0834 3.16687L-22.371 1.14944C-22.4458 1.07472 -22.5205 1.07472 -22.5952 1V1V1Z" fill="#49FF71"/>
<path d="M-0.478306 16.9157L-12.8818 24.1635L-19.0835 27.75L-22.2218 29.5433L-23.7909 30.44C-24.3139 30.7388 -24.837 31.3366 -24.9117 32.0091C-25.0611 36.8659 -25.1358 41.5732 -25.2853 46.3553C-25.36 51.1373 -25.4347 55.8447 -25.4347 60.7015V61.0004L-25.2106 61.1498L-24.9117 61.2992C-24.9117 61.2992 -24.837 61.374 -24.6875 61.374C-24.6128 61.374 -24.5381 61.374 -24.4634 61.374C-24.3886 61.374 -24.3139 61.374 -24.3139 61.2992H-24.2392L-24.0151 61.2245L-23.5667 61.0004C-23.2678 60.8509 -23.0437 60.7015 -22.7448 60.552L-21.1757 59.5807L-18.0375 57.7127L-11.6863 53.902C-7.42725 51.3615 -3.24293 48.7463 0.941377 46.2058L1.09081 46.1311V45.9817L1.01609 31.1124L1.09081 16.2432L-0.478306 16.9157ZM-0.478306 16.9157L1.16553 16.0938L0.941377 30.963L0.567778 45.8322L0.717215 45.5334C-3.54181 47.9991 -7.87556 50.3901 -12.1346 52.9306L-18.4858 56.6666L-21.6987 58.5346L-23.2679 59.506C-23.5667 59.6554 -23.7909 59.8796 -24.0898 59.9543L-24.4634 60.1784L-24.6875 60.2532H-24.7622C-24.6875 60.2532 -24.6875 60.2532 -24.6128 60.1784C-24.5381 60.1784 -24.4634 60.1784 -24.4634 60.1784C-24.3886 60.1784 -24.3886 60.1784 -24.4634 60.1784H-24.3886L-24.5381 60.1037L-24.3139 60.552C-24.3886 55.8447 -24.3139 50.9879 -24.3139 46.2806C-24.3139 41.4985 -24.3886 36.7164 -24.3886 32.0091C-24.3139 30.963 -22.969 30.5147 -21.9976 29.8422L-18.9341 27.9742L-12.8071 24.2382L-0.478306 16.9157Z" fill="#49FF71"/>
<path d="M0.119496 47.5506L-12.284 54.4995L-18.4857 57.9366L-21.624 59.6552L-23.1931 60.4771L-24.6875 61.4484L-25.0611 61.6726L-24.6875 61.8968L-11.8357 69.3687L-5.40977 73.03L-2.19682 74.898L-0.552977 75.7946C-0.0299387 76.0935 0.567813 76.5418 1.38973 76.5418C2.28637 76.6166 2.95884 76.0935 3.40716 75.8694L5.05101 74.9727L8.26395 73.1047L14.6899 69.3687L21.1158 65.6328L24.4034 63.7648C25.4495 63.0923 26.5703 62.5692 27.6164 61.822L27.99 61.5979L27.6911 61.299C26.645 60.4771 25.4495 59.8793 24.3287 59.2816L20.8916 57.4136L14.0174 53.6776L7.21788 49.8669L3.78076 47.9989C3.183 47.7 2.65997 47.3264 1.98749 47.177C1.31501 47.0275 0.642535 47.2517 0.119496 47.5506ZM0.119496 47.5506C0.642535 47.2517 1.31501 47.0275 1.98749 47.177C2.65997 47.3264 3.18301 47.7 3.70605 47.9989L7.06844 49.9416L13.8679 53.827L20.5927 57.7872L23.9551 59.7299C25.0759 60.4024 26.2714 61.0001 27.1681 61.822V61.299C26.1967 61.9715 25.0759 62.5692 23.9551 63.167L20.6674 64.9603L14.1668 68.5468L7.6662 72.2081L4.45325 74.0014L2.80941 74.898C2.21166 75.1969 1.83805 75.4958 1.38973 75.421C0.941412 75.421 0.493098 75.1222 -0.0299409 74.8233L-1.67377 73.9266L-4.96145 72.1334L-11.4621 68.5468L-24.538 61.4484V61.8968L-23.0436 60.9254L-21.5493 60.0288L-18.4857 58.2355L-12.3587 54.6489L0.119496 47.5506Z" fill="#49FF71"/>
<path d="M27.7658 124.736C27.7658 124.064 27.6163 123.391 27.0933 122.943C26.5703 122.495 25.9725 122.271 25.4495 121.897L22.0871 119.88L15.437 115.919L8.78694 111.884L5.49926 109.867C4.37847 109.195 3.33239 108.522 2.13687 107.924L1.68856 107.7V108.149C1.61384 108.746 1.53911 109.419 1.53911 110.017V111.884V115.62V123.018L1.61383 130.415V134.151V136.019C1.61383 136.617 1.53911 137.364 1.98743 138.111C2.21159 138.485 2.51048 138.784 2.80936 138.933L3.63127 139.456L5.2751 140.353L8.48806 142.221L14.914 145.957L21.4146 149.618L24.6275 151.486C25.7483 152.084 26.7197 152.756 27.9152 153.279L28.2888 153.429V153.055C28.3635 151.86 28.2888 150.664 28.2888 149.469L28.2141 145.957L28.0647 138.858L27.7658 124.736ZM27.7658 124.736L27.8405 138.933V146.031V149.543C27.8405 150.739 27.8405 151.934 27.7658 153.055L28.1394 152.831C27.0186 152.308 25.9725 151.635 24.9264 150.963L21.7135 149.02L15.3623 145.135L9.01109 141.324L5.79815 139.456L4.22903 138.485L3.48183 138.036C3.25767 137.887 3.10823 137.738 3.03351 137.588C2.80935 137.215 2.80936 136.691 2.80936 136.094V134.226L2.73463 130.49L2.58519 123.092L2.43576 115.695L2.36103 111.959L2.28631 110.091C2.28631 109.493 2.36103 108.896 2.36103 108.298L1.91271 108.522C3.03351 109.045 4.1543 109.718 5.2751 110.39L8.63749 112.333L15.3623 116.144L22.0871 120.029L25.4495 121.972C25.9725 122.345 26.5703 122.569 27.0933 123.018C27.6163 123.391 27.7658 124.139 27.7658 124.736Z" fill="#49FF71"/>
<path d="M1.98757 107.102C3.10836 106.654 4.22915 105.981 5.27523 105.383L8.48818 103.516L14.9141 99.8542L21.34 96.1182L24.5529 94.2503L26.1968 93.3536C26.7198 93.0547 27.3923 92.7559 27.7659 92.0834C28.2142 91.4109 28.1395 90.589 28.1395 90.0659V88.1979L28.2142 84.462L28.2889 77.0647L28.3636 69.6674L28.4383 65.9314C28.4383 64.6612 28.5131 63.4657 28.3636 62.1955L28.2889 61.3735L27.5417 61.6724C26.3462 62.1954 25.3001 62.8679 24.254 63.4657L21.0411 65.3337L14.6899 69.1444L8.33874 72.9551L5.12579 74.8978L3.55669 75.8692C3.10837 76.1681 2.36117 76.4669 1.98757 77.2141C1.53925 77.9613 1.68869 78.7085 1.68869 79.2316V81.0996V84.8356V92.2328L1.7634 99.6301V103.366C1.83812 104.562 1.76341 105.832 1.98757 107.102ZM1.98757 107.102C1.91285 105.832 1.98757 104.636 1.98757 103.366L2.06229 99.6301L2.28644 92.2328L2.43589 84.8356L2.5106 81.0996V79.2316C2.5106 78.5591 2.5106 78.036 2.73476 77.6625C2.95892 77.2889 3.48196 76.99 4.005 76.6911L5.64883 75.7945L8.86178 73.9265L15.2877 70.1905L21.7136 66.4545L24.9265 64.5865C25.9726 63.9887 27.0934 63.3163 28.1395 62.8679L27.3176 62.3449C27.467 63.5404 27.3923 64.7359 27.3923 66.0062V69.7422V77.1394V84.5367V88.2727V90.1407C27.3923 90.8131 27.467 91.3362 27.1681 91.7098C26.944 92.0834 26.4209 92.3823 25.8979 92.6811L24.3288 93.6525L21.1158 95.5952L14.7646 99.4806L8.41347 103.366L5.27523 105.309C4.07971 105.907 3.10836 106.504 1.98757 107.102Z" fill="#49FF71"/>
<path d="M27.8406 59.3562L27.7659 44.9353V37.6874V34.1009C27.7659 33.5031 27.7659 32.9054 27.7659 32.3076C27.7659 31.6351 27.3923 30.9627 26.8692 30.5891L14.5404 23.0424L8.3387 19.3064L5.20047 17.4384C4.15439 16.8406 3.10831 16.1681 1.98752 15.6451L1.24032 15.1968L1.16559 16.0934L1.09088 17.9614V19.8294L1.16559 23.5654L1.31504 30.9627L1.46448 38.3599L1.53919 42.0959L1.61392 43.9639C1.61392 44.5617 1.68864 45.3089 2.06224 45.9066C2.43584 46.5044 3.0336 46.878 3.55664 47.1769L5.20047 48.0735L8.41343 49.9415L14.8393 53.6028L27.6911 61.0747L27.8406 59.3562ZM27.8406 59.3562L27.6911 61.0747L14.914 53.4533L8.56286 49.5679L5.42463 47.6252L3.85551 46.6538C3.33247 46.3549 2.80944 46.0561 2.58528 45.533C2.2864 45.0847 2.28639 44.4869 2.28639 43.8892V42.0212V38.2852V30.8879V23.4907V19.7547V17.8867L2.36112 16.0934L1.53919 16.6165C2.58527 17.0648 3.63136 17.7373 4.67743 18.335L7.81566 20.1283L14.0921 23.7896L26.6451 30.9627C27.6164 31.5604 27.3923 32.9054 27.467 34.1009L27.5417 37.6874L27.6911 44.9353L27.8406 59.3562Z" fill="#49FF71"/>
<path d="M2.36108 1C2.28636 5.40847 2.28635 9.81694 2.13691 14.2254L14.3162 7.20174L25.3 1H25.4495L14.7646 7.65006L1.91275 15.4956L1.24028 15.944V15.122C1.24028 10.4147 1.24028 5.78207 1.315 1.07472H2.36108V1Z" fill="#49FF71"/>
<path d="M26.944 1.299L14.5405 8.24794L8.26406 11.6851L5.12583 13.4036C4.07975 14.0014 3.03368 14.4497 2.06232 15.1969L1.76343 15.421L2.06232 15.6452C3.03368 16.4671 4.15447 17.0649 5.20055 17.6626L8.4135 19.5306L14.8394 23.2666L21.2653 26.9279L24.4783 28.7959L26.1221 29.6925C26.6451 29.9914 27.2429 30.4397 28.1395 30.4397C28.5878 30.4397 28.9614 30.2903 29.2603 30.1408C29.5592 29.9914 29.7834 29.842 30.0822 29.6925L31.7261 28.7959L34.939 26.9279L41.3649 23.1919L47.7908 19.4559L51.0038 17.5879C52.0499 16.9154 53.1707 16.3924 54.142 15.5705L54.5156 15.2716L54.142 15.0474C51.9004 13.7772 49.5841 12.5817 47.3425 11.3115L40.543 7.65018L33.8182 3.91419L30.4558 2.0462C29.8581 1.74732 29.335 1.37372 28.7373 1.14956C28.2143 0.925402 27.5418 0.925402 26.944 1.299ZM26.944 1.299C27.467 0.925402 28.2142 0.925402 28.812 1.22428C29.4098 1.52316 29.9328 1.82204 30.5306 2.12092L33.893 4.06363L40.6177 7.87434L47.2678 11.7598C49.5094 13.03 51.751 14.3002 53.9179 15.6452V15.1222C52.9465 15.8694 51.8257 16.3924 50.7796 16.9902L47.492 18.7834L40.9913 22.37L34.4907 26.0313L31.2778 27.8245L29.6339 28.7212L28.8867 29.1695C28.6626 29.2442 28.4384 29.3189 28.289 29.3189C27.9154 29.3189 27.3923 29.0948 26.8693 28.7212L25.2255 27.8245L21.9378 26.0313L15.4372 22.4447L8.93654 18.8582L5.64886 17.0649C4.52806 16.4671 3.40727 15.9441 2.51063 15.1969V15.6452C3.40727 14.898 4.52807 14.375 5.49942 13.7772L8.56294 11.9839L14.69 8.39738L26.944 1.299Z" fill="#49FF71"/>
<path d="M30.4558 1C30.5305 1.07472 30.68 1.14944 30.7547 1.22416L34.1171 3.16687L40.8419 7.0523L47.5666 10.863L50.929 12.8057C51.9751 13.4035 52.9465 14.0012 53.9925 14.4496C54.0673 14.3001 54.0673 14.076 54.0673 14.0012V13.1046L53.9925 11.2366L53.9178 7.50062L53.7684 1H54.8145V7.50062V11.2366V13.1046V14.076C54.7397 14.4496 54.5903 14.7484 54.5903 15.0473L54.5156 15.4209L54.142 15.2715C52.9465 14.6737 51.9004 14.0012 50.7796 13.3288L47.4919 11.3113L40.8419 7.27646L34.1171 3.24159L30.8294 1.22416C30.68 1.14944 30.6052 1.07472 30.4558 1V1Z" fill="#49FF71"/>
<path d="M53.3201 16.6168L40.7672 23.9393L34.416 27.6006L31.2778 29.3939L29.7087 30.2905C29.4845 30.4399 29.1856 30.5894 28.8867 30.8882C28.6626 31.1124 28.4384 31.486 28.4384 31.8596C28.289 36.7911 28.2142 41.5732 28.0648 46.5047L27.9901 53.8272L27.9154 57.4885V59.2818V60.1784C27.9154 60.4773 27.9901 60.8509 28.0648 61.1498L28.1395 61.9717L28.8867 61.5981C29.4098 61.2992 30.0075 61.0751 30.5306 60.7015L32.0997 59.7301L35.3126 57.8621L41.6638 54.0514L48.015 50.166L51.1532 48.2232L52.7224 47.2519C53.2454 46.953 53.8431 46.6541 54.2167 45.9817C54.5903 45.3092 54.5156 44.562 54.5156 44.0389V42.1709V38.4349L54.4409 31.0377C54.4409 26.1062 54.5156 21.1747 54.4409 16.2432C54.0673 16.3179 53.619 16.3926 53.3201 16.6168ZM53.3201 16.6168C53.6937 16.3926 54.0673 16.3926 54.4409 16.2432C54.5156 21.1747 54.3662 26.1062 54.2915 31.0377L54.142 38.4349L54.0673 42.1709L53.9926 44.0389C53.9926 44.7114 53.9926 45.2345 53.6937 45.6828C53.3948 46.1311 52.8718 46.3552 52.3488 46.7288L50.7049 47.6255L47.492 49.4935L41.0661 53.1548L34.6402 56.8907L31.4272 58.7587L29.8581 59.7301L28.2143 60.552L29.0362 61.0003C29.0362 60.7015 28.9614 60.4773 28.8867 60.1784V59.2818V57.4885V53.8272V46.5047L28.812 32.009C28.8867 31.486 29.2603 31.1124 29.7834 30.8135L31.3525 29.8422L34.4907 27.9742L40.6925 24.1635L53.3201 16.6168Z" fill="#49FF71"/>
<path d="M81.1904 59.1321L81.1157 44.7112V37.5381V33.9515C81.1157 33.3537 81.1904 32.756 81.041 32.0835C80.9663 31.411 80.5927 30.8133 80.0696 30.365C75.96 27.7498 71.8505 25.3587 67.7409 22.8183L55.3374 15.421L54.5155 14.8979L54.4407 15.8693C54.366 16.4671 54.366 17.1395 54.2913 17.7373V19.6053L54.366 23.3413L54.5155 30.8133L54.6649 38.2853L54.7396 42.0212L54.8143 43.8892C54.8143 44.487 54.8143 45.2342 55.1879 45.832C55.5615 46.5044 56.234 46.8033 56.7571 47.1022L58.4756 48.0735L61.6886 49.9415L68.1892 53.6028L74.6151 57.3388L77.828 59.2068C78.8741 59.8046 79.9202 60.477 81.1157 61.0001L81.1904 59.1321ZM81.1904 59.1321L81.1157 60.9254C79.9949 60.4023 78.9488 59.7298 77.9028 59.1321L74.6898 57.2641L68.2639 53.4534L61.9127 49.5679L58.6998 47.6252L57.1307 46.6539C56.6076 46.355 56.0846 46.0561 55.8604 45.6078C55.6363 45.1595 55.6363 44.5617 55.6363 43.964V42.096V38.36V30.888V23.416V19.68V17.812C55.6363 17.2143 55.711 16.6165 55.711 16.0187L54.8143 16.4671L67.2926 23.7149C71.4769 26.1059 75.6612 28.4222 79.7708 30.8133C80.2191 31.1122 80.5179 31.5605 80.5927 32.1582C80.6674 32.6813 80.6674 33.3537 80.6674 33.8768L80.7421 37.4633L80.8915 44.6364L81.1904 59.1321Z" fill="#49FF71"/>
<path d="M55.5617 1C55.487 5.33375 55.487 9.6675 55.3375 14.0012L55.487 13.9265C55.7859 13.7771 56.01 13.6276 56.3089 13.5529L58.0274 12.6563L61.3151 10.863L67.8157 7.20174L74.3164 3.54047C75.736 2.71856 77.1557 1.89664 78.5754 1H78.7996C77.3799 1.97136 75.9602 2.868 74.4658 3.76463L68.1146 7.72478L61.6887 11.5355L58.4758 13.4035L56.8319 14.3001C56.5331 14.4496 56.3089 14.599 56.01 14.7484L55.5617 14.9726L55.0387 15.1968L54.5156 15.4209V14.7484C54.5156 10.1905 54.5156 5.63263 54.5903 1.07472H55.5617V1Z" fill="#49FF71"/>
<path d="M79.8455 1.59767L67.5168 8.47189L61.315 11.8343C59.2976 12.9551 57.1307 14.0012 55.188 15.2714L54.8144 15.4955L55.188 15.7197C55.7111 16.0933 56.2341 16.4669 56.7571 16.7658L58.401 17.7371L61.6139 19.6051L68.0398 23.3411L74.5404 27.0024L77.7534 28.8704L79.3972 29.767C79.9203 30.0659 80.5927 30.5142 81.4147 30.5142C82.3113 30.5142 82.9091 30.0659 83.4321 29.767L85.0759 28.8704L88.2889 27.0024L94.7148 23.2664L101.141 19.5304L104.354 17.6624C105.4 17.0647 106.521 16.4669 107.492 15.645L107.865 15.3461L107.417 15.1219L93.6687 7.64997L86.7945 3.83926L83.3574 1.97127C82.7596 1.67239 82.2366 1.29879 81.5641 1.14935C81.0411 0.999909 80.3686 1.22407 79.8455 1.59767ZM79.8455 1.59767C80.3686 1.29879 81.0411 1.07463 81.7135 1.14935C82.386 1.22407 82.9091 1.67239 83.5068 1.97127L86.8692 3.91398L93.6687 7.79941L107.193 15.645V15.1219C106.222 15.8691 105.101 16.3922 104.055 16.9899L100.767 18.7832L94.2665 22.3698L87.7658 26.031L84.4782 27.8243L82.8343 28.721C82.2366 29.0198 81.863 29.3187 81.4147 29.3187C80.9663 29.3187 80.518 29.0946 79.995 28.7957L78.3512 27.899L75.0635 26.1058L68.5629 22.5192L61.9875 18.9327L58.6998 17.1394L57.056 16.2427C56.533 15.9439 56.0099 15.5703 55.4869 15.2714V15.7197C57.4296 14.4495 59.5218 13.3287 61.5392 12.0584L67.5915 8.54661L79.8455 1.59767Z" fill="#49FF71"/>
<path d="M83.8804 1C83.9551 1.07472 84.0298 1.07472 84.1045 1.14944L87.4669 3.09215L94.1917 6.97758L100.916 10.7883L104.279 12.731C105.25 13.254 106.296 13.8518 107.268 14.3748L107.342 13.9265C107.417 13.6276 107.342 13.4035 107.342 13.0299L107.268 11.1619L107.193 7.4259L107.044 1H108.09V7.4259V11.1619V13.0299C108.09 13.3288 108.09 13.7024 108.015 14.0012L107.865 14.8979L107.791 15.3462L107.417 15.122C106.222 14.5243 105.176 13.8518 104.055 13.1793L100.767 11.1619L94.117 7.12702L87.4669 3.16687L84.1045 1.14944C84.0298 1.07472 83.8804 1 83.8057 1H83.8804V1Z" fill="#49FF71"/>
<path d="M82.0124 31.1868C81.7135 40.9004 81.4893 50.7634 81.2652 60.7011V61.3736L81.7882 61.1495L82.3113 60.9253L82.7596 60.7759C83.0585 60.6264 83.3573 60.477 83.5815 60.3275L85.2253 59.4309C86.3461 58.8331 87.3922 58.2354 88.513 57.6376L95.0136 53.9764L101.44 50.1656C103.606 48.8954 105.699 47.6252 107.791 46.2055L108.015 46.0561V45.7572L108.09 30.8879C108.09 25.9564 108.164 20.9502 108.164 16.0187V15.1968L107.492 15.6451L94.64 23.3412L82.0124 31.1868ZM82.0124 31.1868L95.0883 23.7896L108.015 16.3176L107.342 15.944C107.193 20.8755 107.193 25.8817 107.118 30.8132L106.969 45.6825L107.193 45.2341C105.176 46.5791 103.083 47.9241 100.916 49.1943L94.4906 53.005L88.0647 56.741L84.8517 58.5343L83.2079 59.4309C82.909 59.5803 82.6849 59.7298 82.386 59.8792L82.0124 60.1034L81.7135 60.2528L82.2365 60.7011C82.1618 50.9128 82.0871 41.1246 82.0124 31.1868Z" fill="#49FF71"/>
<path d="M108.912 1.00195C108.837 5.41042 108.837 9.81889 108.687 14.2274L120.941 7.2037L131.851 1.00195H132L121.315 7.5773L108.463 15.4229L107.791 15.8712V15.0493C107.791 10.3419 107.791 5.7093 107.866 1.00195H108.912Z" fill="#49FF71"/>
<path d="M2.88411 167.924L15.3623 160.975L21.6388 157.538L24.777 155.819C25.8231 155.222 26.8692 154.699 27.8405 154.026L28.1394 153.802L27.8405 153.578C27.3175 153.204 26.7944 152.831 26.2714 152.532L24.6276 151.56L21.4146 149.692L14.9887 145.956L8.48809 142.295L5.27514 140.427L3.63131 139.53C3.10827 139.232 2.51051 138.783 1.61388 138.783C1.16556 138.783 0.791958 138.933 0.493079 139.082C0.11948 139.232 -0.104684 139.381 -0.328844 139.53L-1.97268 140.427L-5.18563 142.295L-11.6115 146.031L-18.0374 149.767L-21.2504 151.635C-22.2965 152.233 -23.4173 152.831 -24.3886 153.652L-24.7622 153.951L-24.3139 154.175L-10.7149 161.573L-3.91538 165.309L-0.552994 167.177C0.0447646 167.476 0.567794 167.849 1.16555 168.073C1.61387 168.372 2.28635 168.223 2.88411 167.924ZM2.88411 167.924C2.36107 168.297 1.61387 168.372 1.01612 168.073C0.418357 167.774 -0.104684 167.476 -0.702443 167.177L-4.06483 165.234L-10.7896 161.423L-17.5144 157.538L-24.1645 153.652V154.175C-23.1931 153.503 -22.0723 152.905 -20.9515 152.307L-17.6638 150.514L-11.1632 146.928L-4.66258 143.266L-1.44964 141.473L0.194204 140.576L0.941402 140.128C1.16556 140.053 1.38971 139.979 1.53915 139.979C1.91275 139.979 2.4358 140.203 2.95883 140.576L4.60267 141.473L7.89033 143.266L14.391 146.853L20.9663 150.365L24.254 152.158L25.8978 153.055C26.4208 153.354 26.9439 153.727 27.4669 154.026V153.578C26.5703 154.325 25.5242 154.848 24.4781 155.446L21.4146 157.239L15.2876 160.826L2.88411 167.924Z" fill="#49FF71"/>
</g>
</g>
</g>
<defs>
<linearGradient id="paint0_linear" x1="187.5" y1="0" x2="187.5" y2="64" gradientUnits="userSpaceOnUse">
<stop stop-color="#9B9B9B"/>
<stop offset="0.65625" stop-color="white" stop-opacity="0"/>
</linearGradient>
<clipPath id="clip0">
<rect x="243" y="1" width="180" height="196.588" fill="white"/>
</clipPath>
<clipPath id="clip1">
<rect width="180" height="196.588" transform="matrix(-1 0 0 1 132 1)" fill="white"/>
</clipPath>
</defs>
</svg>
