<svg width="304" height="92" viewBox="0 0 304 92" fill="none" xmlns="http://www.w3.org/2000/svg">
<g clip-path="url(#clip0)">
<path d="M48.7923 91.3873C48.4494 91.2502 48.1752 91.113 47.9009 90.8387C47.6266 90.633 47.4209 90.3588 47.2838 90.0845C47.1467 89.8102 47.0095 89.536 47.0095 89.2617V79.5251C47.0095 79.2509 47.0781 78.9766 47.2838 78.7023C47.4209 78.4281 47.6266 78.1538 47.9009 77.9481C48.1752 77.7424 48.4494 77.5367 48.7923 77.3995C49.1351 77.2624 49.4094 77.1938 49.7522 77.1938H66.2769V81.0336H51.9464V87.6846H66.2769V91.5244H49.7522C49.4779 91.5244 49.1351 91.4559 48.7923 91.3873Z" fill="#424242"/>
<path d="M73.3394 82.679H84.3788V77.2622H89.3156V91.5928H84.3788V86.176H73.3394V91.5928H68.4026V77.2622H73.3394V82.679Z" fill="#424242"/>
<path d="M96.3094 91.5244H90.824L97.8864 79.2509C98.7092 77.8795 99.8749 77.1938 101.383 77.1938H103.577C104.332 77.1938 104.949 77.331 105.429 77.6738C105.909 78.0167 106.32 78.4966 106.732 79.1823L113.794 91.4559H108.309L106.937 89.056H97.6807L96.3094 91.5244ZM102.343 81.6507L99.7377 85.7648H105.017L102.343 81.6507Z" fill="#424242"/>
<path d="M119.828 77.2622V87.753H134.021V91.5928H117.634C117.291 91.5928 117.017 91.5242 116.674 91.3871C116.331 91.2499 116.057 91.1128 115.782 90.8385C115.508 90.6328 115.303 90.3586 115.165 90.0843C115.028 89.81 114.891 89.5358 114.891 89.2615V77.2622H119.828Z" fill="#424242"/>
<path d="M141.084 77.2622V87.753H155.277V91.5928H138.89C138.547 91.5928 138.273 91.5242 137.93 91.3871C137.587 91.2499 137.313 91.1128 137.038 90.8385C136.764 90.6328 136.558 90.3586 136.421 90.0843C136.284 89.81 136.147 89.5358 136.147 89.2615V77.2622H141.084Z" fill="#424242"/>
<path d="M159.186 91.3873C158.843 91.2502 158.568 91.113 158.294 90.8387C158.02 90.633 157.814 90.3588 157.677 90.0845C157.54 89.8102 157.403 89.536 157.403 89.2617V79.5251C157.403 79.2509 157.471 78.9766 157.677 78.7023C157.814 78.4281 158.02 78.1538 158.294 77.9481C158.568 77.7424 158.843 77.5367 159.186 77.3995C159.528 77.2624 159.803 77.1938 160.146 77.1938H176.67V81.0336H162.34V82.6107H176.67V86.1076H162.34V87.6846H176.67V91.5244H160.146C159.871 91.5244 159.528 91.4559 159.186 91.3873Z" fill="#424242"/>
<path d="M182.773 77.2622C183.184 77.3308 183.664 77.4679 184.281 77.8793C184.898 78.2222 185.653 78.7707 186.613 79.4564C187.573 80.142 188.738 81.102 190.109 82.199C191.481 83.2961 193.195 84.6675 195.183 86.176V77.2622H200.12V89.81C200.12 90.0157 200.052 90.29 199.915 90.4957C199.777 90.7014 199.572 90.9071 199.298 91.0442C199.023 91.1814 198.749 91.3871 198.406 91.4556C198.063 91.5928 197.72 91.5928 197.309 91.5928H196.349C196.281 91.5928 196.212 91.5928 196.212 91.5928C195.869 91.5242 195.389 91.3871 194.703 90.9757C194.086 90.6328 193.264 90.0843 192.304 89.3301C191.344 88.5758 190.109 87.6844 188.738 86.5874C187.367 85.4903 185.653 84.1875 183.733 82.6105V91.5928H178.796V79.045C178.796 78.8393 178.864 78.6336 179.002 78.4278C179.139 78.2221 179.344 78.0164 179.619 77.8107C179.893 77.6736 180.167 77.5365 180.51 77.3993C180.853 77.2622 181.196 77.2622 181.607 77.2622H182.499C182.704 77.2622 182.773 77.2622 182.773 77.2622Z" fill="#424242"/>
<path d="M210.337 86.1759V82.679H220.759C221.102 82.679 221.376 82.7476 221.719 82.8847C222.062 83.0219 222.336 83.2276 222.61 83.4333C222.884 83.639 223.09 83.9132 223.227 84.1875C223.364 84.4618 223.501 84.736 223.501 85.0103V89.33C223.501 89.6043 223.433 89.8786 223.227 90.1528C223.09 90.4271 222.884 90.7014 222.61 90.9071C222.336 91.1128 222.062 91.3185 221.719 91.4556C221.376 91.5928 221.102 91.6613 220.759 91.6613H204.988C204.645 91.6613 204.371 91.5928 204.028 91.4556C203.686 91.3185 203.411 91.1813 203.137 90.9071C202.863 90.7014 202.657 90.4271 202.52 90.1528C202.383 89.8786 202.246 89.6043 202.246 89.33V79.5935C202.246 79.3192 202.314 79.045 202.52 78.7707C202.657 78.4964 202.863 78.2221 203.137 78.0164C203.411 77.8107 203.686 77.605 204.028 77.4679C204.371 77.3308 204.645 77.2622 204.988 77.2622H223.501V81.102H207.182V87.753H218.565V86.1759H210.337Z" fill="#424242"/>
<path d="M227.341 91.3873C226.999 91.2502 226.724 91.113 226.45 90.8387C226.176 90.633 225.97 90.3588 225.833 90.0845C225.696 89.8102 225.559 89.536 225.559 89.2617V79.5251C225.559 79.2509 225.627 78.9766 225.833 78.7023C225.97 78.4281 226.176 78.1538 226.45 77.9481C226.724 77.7424 226.999 77.5367 227.341 77.3995C227.684 77.2624 227.958 77.1938 228.301 77.1938H244.826V81.0336H230.495V82.6107H244.826V86.1076H230.495V87.6846H244.826V91.5244H228.301C227.958 91.5244 227.684 91.4559 227.341 91.3873Z" fill="#424242"/>
<path d="M144.375 26.5913C143.072 28.9226 141.769 31.1167 140.467 33.3795C135.324 30.8425 130.181 34.408 129.976 39.482C127.37 39.482 124.765 39.482 122.091 39.482C121.953 36.945 120.856 34.8879 118.594 33.5166C116.331 32.2138 114 32.2824 111.6 33.448C110.297 31.1853 108.994 28.9226 107.691 26.5913C109.886 25.1514 111.12 23.1629 111.188 20.4888C111.188 17.8833 109.954 15.8948 107.76 14.3863C108.446 13.2207 109.063 12.1236 109.68 11.0265C110.297 9.92945 110.983 8.83238 111.6 7.66673C114 8.76381 116.331 8.83238 118.525 7.5296C120.719 6.22682 121.885 4.23837 122.091 1.63281C124.696 1.63281 127.302 1.63281 129.907 1.63281C130.25 6.98106 135.667 10.1352 140.467 7.59817C141.084 8.69524 141.769 9.86089 142.386 10.958C143.004 12.1236 143.689 13.2207 144.306 14.3863C139.644 17.4033 139.918 23.78 144.375 26.5913ZM126.067 8.00957C119.142 8.00957 113.588 13.495 113.52 20.4202C113.451 27.277 119.142 32.9681 125.999 32.9681C132.856 32.9681 138.478 27.3455 138.478 20.4888C138.478 13.6321 132.924 8.00957 126.067 8.00957Z" fill="#424242"/>
<path d="M126.068 32.2137C119.622 32.2137 114.343 27.0026 114.343 20.5572C114.343 14.0433 119.554 8.76367 126.068 8.76367C132.513 8.76367 137.793 14.1119 137.793 20.5572C137.724 26.934 132.444 32.2137 126.068 32.2137ZM125.999 30.2938C131.416 30.2938 135.873 25.8369 135.804 20.4887C135.804 15.1404 131.347 10.6836 126.068 10.6836C120.651 10.6836 116.262 15.1404 116.262 20.4887C116.194 25.9055 120.582 30.2938 125.999 30.2938Z" fill="#424242"/>
<path d="M233.238 27.4829C231.798 29.9513 230.427 32.4197 229.056 34.8196C223.502 32.0769 217.948 35.9166 217.742 41.402C214.931 41.402 212.119 41.402 209.24 41.402C209.034 38.6593 207.868 36.3966 205.468 35.0253C203 33.5854 200.532 33.6539 197.926 34.9567C196.555 32.4883 195.115 30.0884 193.675 27.5514C196.006 25.9744 197.377 23.8488 197.377 20.969C197.377 18.1577 196.075 16.0321 193.675 14.3865C194.36 13.1523 195.046 11.9181 195.8 10.7525C196.486 9.58681 197.172 8.3526 197.926 7.11838C200.463 8.3526 203 8.42116 205.4 6.98125C207.8 5.54134 209.034 3.41575 209.24 0.604492C212.051 0.604492 214.862 0.604492 217.673 0.604492C218.016 6.36414 223.913 9.72394 229.056 7.04982C229.741 8.28403 230.495 9.44967 231.181 10.6839C231.867 11.9181 232.552 13.1523 233.238 14.3865C228.096 17.5406 228.438 24.3973 233.238 27.4829ZM213.491 7.39265C206.085 7.39265 200.052 13.358 199.983 20.7633C199.914 28.1 206.085 34.271 213.491 34.3396C220.896 34.3396 226.93 28.3057 226.93 20.9004C226.93 13.4951 220.896 7.46122 213.491 7.39265Z" fill="#424242"/>
<path d="M213.491 33.5169C206.497 33.5169 200.806 27.8944 200.806 20.9691C200.806 13.9753 206.428 8.28418 213.422 8.28418C220.416 8.28418 226.038 14.0438 226.038 20.9691C226.038 27.8259 220.416 33.5169 213.491 33.5169ZM213.422 31.4599C219.25 31.4599 224.05 26.6602 224.05 20.9006C224.05 15.1409 219.25 10.3412 213.559 10.3412C207.731 10.3412 203 15.1409 203 20.9006C202.863 26.7288 207.594 31.4599 213.422 31.4599Z" fill="#424242"/>
<path d="M0.726562 72.2573V57.1039H9.84601V72.2573H0.726562V72.2573ZM0.726562 56.0068V48.6016H9.84601V56.0068H0.726562Z" fill="#4EB748"/>
<path d="M8.4747 54.7041H0.795166V48.7388H8.4747V54.7041V54.7041ZM0.795166 57.1725H8.4747V70.9546H0.795166V57.1725Z" fill="#4EB748"/>
<path d="M39.7413 72.2573C39.6042 72.2573 39.467 72.2573 39.2613 72.1887C38.6442 72.1201 37.8214 71.7773 36.7929 71.1602C35.833 70.6117 34.5302 69.7203 32.9532 68.6232C31.4447 67.5261 29.5248 66.0862 27.3306 64.372C25.4108 62.8636 23.2166 61.1494 20.7482 59.0924V72.2573H11.7659V52.0985C11.7659 51.6185 11.903 51.1386 12.2458 50.7272C12.5201 50.3157 12.9315 49.9729 13.4115 49.6301C13.8915 49.3558 14.3714 49.0815 14.9885 48.8758C15.6056 48.6701 16.2227 48.6016 16.9084 48.6016H18.3483C18.4855 48.6016 18.6912 48.6016 18.8283 48.6701C19.514 48.7387 20.3368 49.0815 21.3653 49.6301C22.3252 50.1786 23.5594 51.0014 25.0679 52.1671C26.5764 53.2641 28.4277 54.7041 30.5533 56.4182C32.4732 57.9267 34.6673 59.7095 37.2729 61.6979V48.6016H46.3238V68.7603C46.3238 69.2403 46.1866 69.7203 45.8438 70.2003C45.5695 70.6117 45.2267 70.9545 44.7467 71.2973C44.2668 71.5716 43.7868 71.8459 43.1697 72.0516C42.6211 72.2573 41.9355 72.3258 41.3184 72.3258H39.7413V72.2573Z" fill="#4EB748"/>
<path d="M17.937 48.7385C18.5541 48.8071 19.3083 49.0813 20.2683 49.6299C21.2282 50.1784 22.3938 51.0012 23.9023 52.0983C25.4108 53.1954 27.1935 54.6353 29.3877 56.3495C31.5819 58.0636 34.1874 60.1207 37.2044 62.5891V48.7385H44.8839V68.2116C44.8839 68.5544 44.7468 68.8973 44.5411 69.2401C44.3354 69.5829 43.9925 69.8572 43.5811 70.1315C43.1697 70.4057 42.7583 70.6115 42.2098 70.7486C41.6612 70.8857 41.1127 71.0229 40.5642 71.0229H39.1243C38.9871 71.0229 38.9186 71.0229 38.85 70.9543C38.3014 70.8857 37.5472 70.6115 36.5187 69.9943C35.5588 69.4458 34.3245 68.623 32.7475 67.4574C31.239 66.3603 29.3877 64.9204 27.1935 63.2062C24.9994 61.492 22.4624 59.435 19.4454 57.0351V70.9543H11.8345V51.4812C11.8345 51.1383 11.9716 50.7955 12.1773 50.4527C12.383 50.1098 12.7258 49.8356 13.1373 49.5613C13.5487 49.287 14.0286 49.0813 14.5086 48.9442C15.0571 48.8071 15.6057 48.6699 16.2228 48.6699H17.6627C17.7998 48.7385 17.8684 48.7385 17.937 48.7385Z" fill="#4EB748"/>
<path d="M76.0819 72.2573C75.9448 72.2573 75.7391 72.2573 75.6019 72.1887C74.9848 72.1201 74.162 71.7773 73.1335 71.1602C72.1736 70.6117 70.8708 69.7203 69.2937 68.6232C67.7853 67.5261 65.8654 66.0862 63.6712 64.372C61.7513 62.8636 59.5572 61.1494 57.0888 59.0924V72.2573H48.1064V52.0985C48.1064 51.6185 48.2436 51.1386 48.5864 50.7272C48.8607 50.3157 49.2721 49.9729 49.7521 49.6301C50.232 49.3558 50.712 49.0815 51.3291 48.8758C51.9462 48.6701 52.5633 48.6016 53.249 48.6016H54.6889C54.826 48.6016 55.0317 48.6016 55.1689 48.6701C55.8546 48.7387 56.6774 49.0815 57.7059 49.6301C58.6658 50.1786 59.9 51.0014 61.4085 52.1671C62.917 53.2641 64.7683 54.7041 66.8939 56.4182C68.8138 57.9267 71.0079 59.7095 73.6135 61.6979V48.6016H82.6644V68.7603C82.6644 69.2403 82.5272 69.7203 82.1844 70.2003C81.9101 70.6117 81.5673 70.9545 81.0873 71.2973C80.6073 71.5716 80.1274 71.8459 79.5103 72.0516C78.9617 72.2573 78.276 72.3258 77.6589 72.3258H76.0819V72.2573Z" fill="#4EB748"/>
<path d="M54.2775 48.7385C54.8946 48.8071 55.6489 49.0813 56.6088 49.6299C57.5688 50.1784 58.7344 51.0012 60.2429 52.0983C61.7514 53.1954 63.5341 54.6353 65.7283 56.3495C67.9224 58.0636 70.528 60.1207 73.5449 62.5891V48.7385H81.2245V68.2116C81.2245 68.5544 81.0873 68.8973 80.8816 69.2401C80.6759 69.5829 80.3331 69.8572 79.9217 70.1315C79.5103 70.4057 79.0989 70.6115 78.5504 70.7486C78.0018 70.8857 77.4533 71.0229 76.9047 71.0229H75.4648C75.3277 71.0229 75.2591 71.0229 75.1906 70.9543C74.642 70.8857 73.8878 70.6115 72.8593 69.9943C71.8993 69.4458 70.6651 68.623 69.0881 67.4574C67.5796 66.3603 65.7283 64.9204 63.5341 63.2062C61.34 61.492 58.803 59.435 55.786 57.0351V70.9543H48.175V51.4812C48.175 51.1383 48.3122 50.7955 48.5179 50.4527C48.7236 50.1098 49.0664 49.8356 49.4778 49.5613C49.8892 49.287 50.3692 49.0813 50.8492 48.9442C51.3977 48.8071 51.9463 48.6699 52.5634 48.6699H54.0033C54.1404 48.7385 54.209 48.7385 54.2775 48.7385Z" fill="#4EB748"/>
<path d="M89.3841 72.2573C88.767 72.2573 88.2184 72.1201 87.6013 71.9144C87.0528 71.7087 86.5042 71.3659 86.0243 70.9545C85.5443 70.5431 85.1329 70.1317 84.8586 69.5832C84.5158 69.0346 84.3787 68.4861 84.3787 67.9375V52.8527C84.3787 52.3042 84.5158 51.7557 84.8586 51.2071C85.1329 50.7272 85.5443 50.2472 86.0243 49.8358C86.5042 49.4244 86.9842 49.1501 87.6013 48.9444C88.2184 48.6701 88.767 48.6016 89.3841 48.6016H113.931C114.548 48.6016 115.097 48.7387 115.714 48.9444C116.331 49.1501 116.811 49.4929 117.291 49.9043C117.771 50.3157 118.114 50.7272 118.388 51.2071C118.731 51.7557 118.868 52.3042 118.868 52.8527V67.9375C118.868 68.4861 118.731 69.0346 118.388 69.5832C118.114 70.0631 117.702 70.5431 117.291 70.8859C116.811 71.2973 116.331 71.5716 115.714 71.8459C115.097 72.0516 114.548 72.1887 113.931 72.1887H89.3841V72.2573ZM109.817 64.9206V56.0068H93.4295V64.9206H109.817Z" fill="#4EB748"/>
<path d="M114.823 49.0128C115.371 49.2185 115.783 49.4927 116.194 49.8356C116.605 50.1784 116.948 50.5898 117.154 51.0012C117.428 51.4126 117.497 51.8926 117.497 52.304V67.3888C117.497 67.8002 117.36 68.2802 117.154 68.6916C116.88 69.103 116.605 69.5144 116.194 69.8572C115.783 70.2 115.371 70.4743 114.823 70.68C114.274 70.8857 113.794 71.0229 113.314 71.0229H88.767C88.2871 71.0229 87.7385 70.9543 87.2586 70.68C86.7786 70.4743 86.2986 70.2 85.8872 69.8572C85.4758 69.5144 85.133 69.103 84.8587 68.6916C84.5844 68.2802 84.5159 67.8002 84.5159 67.3888V52.304C84.5159 51.8926 84.653 51.4126 84.8587 51.0012C85.133 50.5898 85.4072 50.1784 85.8872 49.8356C86.2986 49.4927 86.7786 49.2185 87.2586 49.0128C87.7385 48.8071 88.2871 48.6699 88.767 48.6699H113.314C113.794 48.7385 114.343 48.8071 114.823 49.0128ZM92.1268 54.7038V64.9889H109.886V54.7038H92.1268Z" fill="#4EB748"/>
<path d="M145.198 72.3258C143.758 72.3258 142.318 72.1887 140.947 71.983C139.507 71.7087 138.273 71.2973 137.381 70.6117L137.313 70.5431L117.634 48.6016H128.673L141.769 62.9321C142.044 63.2064 142.318 63.4121 142.661 63.5492C142.935 63.6864 143.209 63.7549 143.552 63.7549C143.689 63.7549 143.826 63.6864 143.964 63.6178C144.032 63.5492 144.032 63.5492 144.032 63.5492V48.6016H153.083V66.5662C153.083 67.7318 152.877 68.6918 152.466 69.446C152.055 70.2003 151.437 70.8174 150.683 71.2973C149.998 71.7087 149.106 71.983 148.146 72.1201C147.323 72.2573 146.295 72.3258 145.198 72.3258Z" fill="#4EB748"/>
<path d="M151.3 68.4861C150.957 69.1718 150.477 69.6518 149.792 70.0632C149.175 70.406 148.42 70.6803 147.529 70.8174C146.638 70.9546 145.678 71.0231 144.581 71.0231C143.141 71.0231 141.769 70.886 140.398 70.6803C139.027 70.4746 137.93 70.0632 137.107 69.4461L118.525 48.7388H127.645L140.672 62.8636C141.015 63.1379 141.358 63.4122 141.701 63.6179C142.044 63.8236 142.455 63.9607 142.935 63.9607C143.278 63.9607 143.552 63.8921 143.826 63.6864C144.101 63.4807 144.169 63.3436 144.169 63.1379V48.7388H151.849V65.9492C151.849 66.9777 151.643 67.869 151.3 68.4861Z" fill="#4EB748"/>
<path d="M178.59 72.2573V68.5546H166.248L162.751 72.2573H151.917L171.596 50.3843L171.665 50.3157C172.145 49.9729 172.693 49.6986 173.31 49.4929C173.928 49.2872 174.613 49.0815 175.299 48.9444C175.985 48.8073 176.739 48.7387 177.493 48.6701C178.247 48.6016 179.002 48.6016 179.687 48.6016C180.784 48.6016 181.881 48.6701 182.773 48.8758C183.733 49.0815 184.556 49.3558 185.31 49.7672C186.064 50.2472 186.613 50.7957 187.024 51.55C187.435 52.3042 187.641 53.2641 187.641 54.2926V72.1887H178.59V72.2573ZM178.59 61.8351V56.8296C178.59 56.8296 178.522 56.8296 178.522 56.7611C178.453 56.6925 178.384 56.6239 178.179 56.6239C177.904 56.6239 177.63 56.6925 177.356 56.8982C177.013 57.1725 176.602 57.4467 176.327 57.721L172.351 61.7665H178.59V61.8351Z" fill="#4EB748"/>
<path d="M186.338 70.9546H178.659V67.2519H165.288L161.791 70.9546H152.809L171.459 50.3158C171.871 50.0415 172.351 49.7673 172.968 49.5616C173.516 49.3559 174.202 49.2187 174.819 49.0816C175.505 48.9445 176.19 48.8759 176.945 48.8073C177.699 48.7388 178.384 48.7388 179.139 48.7388C180.236 48.7388 181.196 48.8073 182.087 49.013C182.978 49.1502 183.733 49.4244 184.35 49.8358C184.967 50.2472 185.447 50.7272 185.858 51.4129C186.201 52.03 186.407 52.8528 186.407 53.8127V70.9546H186.338ZM178.384 55.5955C178.179 55.3898 177.904 55.3212 177.562 55.3212C177.15 55.3212 176.739 55.4584 176.327 55.7326C175.916 56.0069 175.573 56.3497 175.23 56.624L170.088 61.9037H178.727V56.144C178.727 55.9383 178.59 55.8012 178.384 55.5955Z" fill="#4EB748"/>
<path d="M201.766 72.2573V56.0068H189.561V48.6016H223.022V56.0068H210.817V72.2573H201.766Z" fill="#4EB748"/>
<path d="M189.63 48.7388H221.651V54.7041H209.446V70.9546H201.766V54.7041H189.561V48.7388H189.63Z" fill="#4EB748"/>
<path d="M229.878 72.2573C229.261 72.2573 228.713 72.1201 228.096 71.9144C227.547 71.7087 226.999 71.3659 226.519 70.9545C226.039 70.5431 225.627 70.1317 225.353 69.5832C225.01 69.0346 224.873 68.4861 224.873 67.9375V52.8527C224.873 52.3042 225.01 51.7557 225.353 51.2071C225.627 50.7272 226.039 50.2472 226.519 49.8358C226.999 49.4244 227.479 49.1501 228.096 48.9444C228.713 48.6701 229.261 48.6016 229.878 48.6016H254.426C255.043 48.6016 255.591 48.7387 256.208 48.9444C256.825 49.1501 257.305 49.4929 257.785 49.9043C258.265 50.3157 258.608 50.7272 258.882 51.2071C259.225 51.7557 259.362 52.3042 259.362 52.8527V67.9375C259.362 68.4861 259.225 69.0346 258.882 69.5832C258.608 70.0631 258.197 70.5431 257.785 70.8859C257.305 71.2973 256.825 71.5716 256.208 71.8459C255.591 72.0516 255.043 72.1887 254.426 72.1887H229.878V72.2573ZM250.311 64.9206V56.0068H233.924V64.9206H250.311Z" fill="#4EB748"/>
<path d="M255.317 49.0128C255.866 49.2185 256.277 49.4927 256.688 49.8356C257.1 50.1784 257.443 50.5898 257.648 51.0012C257.923 51.4126 257.991 51.8926 257.991 52.304V67.3888C257.991 67.8002 257.854 68.2802 257.648 68.6916C257.374 69.103 257.1 69.5144 256.688 69.8572C256.277 70.2 255.866 70.4743 255.317 70.68C254.768 70.8857 254.288 71.0229 253.809 71.0229H229.261C228.781 71.0229 228.233 70.9543 227.753 70.68C227.273 70.4743 226.793 70.2 226.382 69.8572C225.97 69.5144 225.627 69.103 225.353 68.6916C225.079 68.2802 225.01 67.8002 225.01 67.3888V52.304C225.01 51.8926 225.147 51.4126 225.353 51.0012C225.627 50.5898 225.902 50.1784 226.382 49.8356C226.793 49.4927 227.273 49.2185 227.753 49.0128C228.233 48.8071 228.781 48.6699 229.261 48.6699H253.809C254.288 48.7385 254.837 48.8071 255.317 49.0128ZM232.621 54.7038V64.9889H250.38V54.7038H232.621Z" fill="#4EB748"/>
<path d="M292.617 81.1025L277.121 63.8921H270.333V72.3258H261.282V57.0353H284.595V56.0068H261.282V48.6016H288.709C289.326 48.6016 289.875 48.7387 290.492 48.9444C291.109 49.1501 291.589 49.4929 292.069 49.9043C292.549 50.3157 292.892 50.7272 293.166 51.2071C293.509 51.7557 293.646 52.3042 293.646 52.8527V59.5038C293.646 60.0523 293.509 60.6008 293.166 61.1494C292.892 61.6293 292.48 62.1093 292.069 62.4522C291.589 62.8636 291.109 63.1378 290.492 63.4121C289.875 63.6178 289.326 63.7549 288.709 63.7549H288.092L303.108 80.9653H292.617V81.1025Z" fill="#4EB748"/>
<path d="M284.664 57.104V54.7041H261.351V48.7388H288.092C288.572 48.7388 289.121 48.8759 289.6 49.0816C290.149 49.2873 290.56 49.5616 290.972 49.9044C291.383 50.2472 291.726 50.6587 291.932 51.0701C292.206 51.4815 292.275 51.9614 292.275 52.3728V59.0239C292.275 59.4353 292.137 59.9152 291.932 60.3266C291.658 60.738 291.383 61.1494 290.972 61.4923C290.56 61.8351 290.149 62.1094 289.6 62.3151C289.052 62.5208 288.572 62.6579 288.092 62.6579H285.898L300.914 79.8683H292.275L276.778 62.6579H268.962V71.0917H261.282V57.104H284.664Z" fill="#4EB748"/>
<path d="M102.001 44.8303L82.8017 23.5058H74.1622V33.9281H63.26V15.4149H92.1268V13.8379H63.26V4.99268H97.0637C97.7494 4.99268 98.5036 5.12981 99.1893 5.40408C99.8749 5.67835 100.561 6.08975 101.109 6.50116C101.658 6.98113 102.138 7.52967 102.48 8.0782C102.823 8.69531 103.029 9.38098 103.029 10.0667V18.2947C103.029 18.9804 102.823 19.5975 102.48 20.2832C102.138 20.9003 101.658 21.4488 101.109 21.8602C100.561 22.3402 99.9435 22.683 99.1893 22.9573C98.5036 23.2316 97.7494 23.3687 97.0637 23.3687H95.9666L114.548 44.6931H102.001V44.8303Z" fill="#4EB748"/>
<path d="M150.272 36.0536V17.5404H176.602V15.9633H150.272V7.11816H181.47C182.156 7.11816 182.91 7.2553 183.595 7.52957C184.281 7.80384 184.967 8.21524 185.515 8.62664C186.064 9.10661 186.544 9.65515 186.887 10.2037C187.229 10.8208 187.435 11.5065 187.435 12.1921V17.609C187.915 17.7461 188.327 17.8832 188.738 18.0889C189.355 18.3632 189.904 18.7746 190.384 19.186C190.864 19.666 191.275 20.1459 191.618 20.6945C191.961 21.3116 192.098 21.9287 192.098 22.5458V30.7739C192.098 31.4595 191.892 32.0766 191.549 32.7623C191.206 33.3794 190.726 33.928 190.178 34.3394C189.629 34.8193 189.012 35.1622 188.327 35.4364C187.641 35.7107 186.887 35.8478 186.201 35.8478H150.272V36.0536ZM181.264 27.2084V25.6313H161.105V27.2084H181.264Z" fill="#4EB748"/>
<path d="M0.726562 72.2573V57.1039H9.84601V72.2573H0.726562V72.2573ZM0.726562 56.0068V48.6016H9.84601V56.0068H0.726562Z" fill="url(#paint0_linear)"/>
<path d="M8.4747 54.7041H0.795166V48.7388H8.4747V54.7041V54.7041ZM0.795166 57.1725H8.4747V70.9546H0.795166V57.1725Z" fill="#1AA94A"/>
<path d="M39.7413 72.2573C39.6042 72.2573 39.467 72.2573 39.2613 72.1887C38.6442 72.1201 37.8214 71.7773 36.7929 71.1602C35.833 70.6117 34.5302 69.7203 32.9532 68.6232C31.4447 67.5261 29.5248 66.0862 27.3306 64.372C25.4108 62.8636 23.2166 61.1494 20.7482 59.0924V72.2573H11.7659V52.0985C11.7659 51.6185 11.903 51.1386 12.2458 50.7272C12.5201 50.3157 12.9315 49.9729 13.4115 49.6301C13.8915 49.3558 14.3714 49.0815 14.9885 48.8758C15.6056 48.6701 16.2227 48.6016 16.9084 48.6016H18.3483C18.4855 48.6016 18.6912 48.6016 18.8283 48.6701C19.514 48.7387 20.3368 49.0815 21.3653 49.6301C22.3252 50.1786 23.5594 51.0014 25.0679 52.1671C26.5764 53.2641 28.4277 54.7041 30.5533 56.4182C32.4732 57.9267 34.6673 59.7095 37.2729 61.6979V48.6016H46.3238V68.7603C46.3238 69.2403 46.1866 69.7203 45.8438 70.2003C45.5695 70.6117 45.2267 70.9545 44.7467 71.2973C44.2668 71.5716 43.7868 71.8459 43.1697 72.0516C42.6211 72.2573 41.9355 72.3258 41.3184 72.3258H39.7413V72.2573Z" fill="url(#paint1_linear)"/>
<path d="M17.937 48.7385C18.5541 48.8071 19.3083 49.0813 20.2683 49.6299C21.2282 50.1784 22.3938 51.0012 23.9023 52.0983C25.4108 53.1954 27.1935 54.6353 29.3877 56.3495C31.5819 58.0636 34.1874 60.1207 37.2044 62.5891V48.7385H44.8839V68.2116C44.8839 68.5544 44.7468 68.8973 44.5411 69.2401C44.3354 69.5829 43.9925 69.8572 43.5811 70.1315C43.1697 70.4057 42.7583 70.6115 42.2098 70.7486C41.6612 70.8857 41.1127 71.0229 40.5642 71.0229H39.1243C38.9871 71.0229 38.9186 71.0229 38.85 70.9543C38.3014 70.8857 37.5472 70.6115 36.5187 69.9943C35.5588 69.4458 34.3245 68.623 32.7475 67.4574C31.239 66.3603 29.3877 64.9204 27.1935 63.2062C24.9994 61.492 22.4624 59.435 19.4454 57.0351V70.9543H11.8345V51.4812C11.8345 51.1383 11.9716 50.7955 12.1773 50.4527C12.383 50.1098 12.7258 49.8356 13.1373 49.5613C13.5487 49.287 14.0286 49.0813 14.5086 48.9442C15.0571 48.8071 15.6057 48.6699 16.2228 48.6699H17.6627C17.7998 48.7385 17.8684 48.7385 17.937 48.7385Z" fill="#1AA94A"/>
<path d="M76.0819 72.2573C75.9448 72.2573 75.7391 72.2573 75.6019 72.1887C74.9848 72.1201 74.162 71.7773 73.1335 71.1602C72.1736 70.6117 70.8708 69.7203 69.2937 68.6232C67.7853 67.5261 65.8654 66.0862 63.6712 64.372C61.7513 62.8636 59.5572 61.1494 57.0888 59.0924V72.2573H48.1064V52.0985C48.1064 51.6185 48.2436 51.1386 48.5864 50.7272C48.8607 50.3157 49.2721 49.9729 49.7521 49.6301C50.232 49.3558 50.712 49.0815 51.3291 48.8758C51.9462 48.6701 52.5633 48.6016 53.249 48.6016H54.6889C54.826 48.6016 55.0317 48.6016 55.1689 48.6701C55.8546 48.7387 56.6774 49.0815 57.7059 49.6301C58.6658 50.1786 59.9 51.0014 61.4085 52.1671C62.917 53.2641 64.7683 54.7041 66.8939 56.4182C68.8138 57.9267 71.0079 59.7095 73.6135 61.6979V48.6016H82.6644V68.7603C82.6644 69.2403 82.5272 69.7203 82.1844 70.2003C81.9101 70.6117 81.5673 70.9545 81.0873 71.2973C80.6073 71.5716 80.1274 71.8459 79.5103 72.0516C78.9617 72.2573 78.276 72.3258 77.6589 72.3258H76.0819V72.2573Z" fill="url(#paint2_linear)"/>
<path d="M54.2775 48.7385C54.8946 48.8071 55.6489 49.0813 56.6088 49.6299C57.5688 50.1784 58.7344 51.0012 60.2429 52.0983C61.7514 53.1954 63.5341 54.6353 65.7283 56.3495C67.9224 58.0636 70.528 60.1207 73.5449 62.5891V48.7385H81.2245V68.2116C81.2245 68.5544 81.0873 68.8973 80.8816 69.2401C80.6759 69.5829 80.3331 69.8572 79.9217 70.1315C79.5103 70.4057 79.0989 70.6115 78.5504 70.7486C78.0018 70.8857 77.4533 71.0229 76.9047 71.0229H75.4648C75.3277 71.0229 75.2591 71.0229 75.1906 70.9543C74.642 70.8857 73.8878 70.6115 72.8593 69.9943C71.8993 69.4458 70.6651 68.623 69.0881 67.4574C67.5796 66.3603 65.7283 64.9204 63.5341 63.2062C61.34 61.492 58.803 59.435 55.786 57.0351V70.9543H48.175V51.4812C48.175 51.1383 48.3122 50.7955 48.5179 50.4527C48.7236 50.1098 49.0664 49.8356 49.4778 49.5613C49.8892 49.287 50.3692 49.0813 50.8492 48.9442C51.3977 48.8071 51.9463 48.6699 52.5634 48.6699H54.0033C54.1404 48.7385 54.209 48.7385 54.2775 48.7385Z" fill="#1AA94A"/>
<path d="M89.3841 72.2573C88.767 72.2573 88.2184 72.1201 87.6013 71.9144C87.0528 71.7087 86.5042 71.3659 86.0243 70.9545C85.5443 70.5431 85.1329 70.1317 84.8586 69.5832C84.5158 69.0346 84.3787 68.4861 84.3787 67.9375V52.8527C84.3787 52.3042 84.5158 51.7557 84.8586 51.2071C85.1329 50.7272 85.5443 50.2472 86.0243 49.8358C86.5042 49.4244 86.9842 49.1501 87.6013 48.9444C88.2184 48.6701 88.767 48.6016 89.3841 48.6016H113.931C114.548 48.6016 115.097 48.7387 115.714 48.9444C116.331 49.1501 116.811 49.4929 117.291 49.9043C117.771 50.3157 118.114 50.7272 118.388 51.2071C118.731 51.7557 118.868 52.3042 118.868 52.8527V67.9375C118.868 68.4861 118.731 69.0346 118.388 69.5832C118.114 70.0631 117.702 70.5431 117.291 70.8859C116.811 71.2973 116.331 71.5716 115.714 71.8459C115.097 72.0516 114.548 72.1887 113.931 72.1887H89.3841V72.2573ZM109.817 64.9206V56.0068H93.4295V64.9206H109.817Z" fill="url(#paint3_linear)"/>
<path d="M114.823 49.0128C115.371 49.2185 115.783 49.4927 116.194 49.8356C116.605 50.1784 116.948 50.5898 117.154 51.0012C117.428 51.4126 117.497 51.8926 117.497 52.304V67.3888C117.497 67.8002 117.36 68.2802 117.154 68.6916C116.88 69.103 116.605 69.5144 116.194 69.8572C115.783 70.2 115.371 70.4743 114.823 70.68C114.274 70.8857 113.794 71.0229 113.314 71.0229H88.767C88.2871 71.0229 87.7385 70.9543 87.2586 70.68C86.7786 70.4743 86.2986 70.2 85.8872 69.8572C85.4758 69.5144 85.133 69.103 84.8587 68.6916C84.5844 68.2802 84.5159 67.8002 84.5159 67.3888V52.304C84.5159 51.8926 84.653 51.4126 84.8587 51.0012C85.133 50.5898 85.4072 50.1784 85.8872 49.8356C86.2986 49.4927 86.7786 49.2185 87.2586 49.0128C87.7385 48.8071 88.2871 48.6699 88.767 48.6699H113.314C113.794 48.7385 114.343 48.8071 114.823 49.0128ZM92.1268 54.7038V64.9889H109.886V54.7038H92.1268Z" fill="#1AA94A"/>
<path d="M145.198 72.3258C143.758 72.3258 142.318 72.1887 140.947 71.983C139.507 71.7087 138.273 71.2973 137.381 70.6117L137.313 70.5431L117.634 48.6016H128.673L141.769 62.9321C142.044 63.2064 142.318 63.4121 142.661 63.5492C142.935 63.6864 143.209 63.7549 143.552 63.7549C143.689 63.7549 143.826 63.6864 143.964 63.6178C144.032 63.5492 144.032 63.5492 144.032 63.5492V48.6016H153.083V66.5662C153.083 67.7318 152.877 68.6918 152.466 69.446C152.055 70.2003 151.437 70.8174 150.683 71.2973C149.998 71.7087 149.106 71.983 148.146 72.1201C147.323 72.2573 146.295 72.3258 145.198 72.3258Z" fill="url(#paint4_linear)"/>
<path d="M151.3 68.4861C150.957 69.1718 150.477 69.6518 149.792 70.0632C149.175 70.406 148.42 70.6803 147.529 70.8174C146.638 70.9546 145.678 71.0231 144.581 71.0231C143.141 71.0231 141.769 70.886 140.398 70.6803C139.027 70.4746 137.93 70.0632 137.107 69.4461L118.525 48.7388H127.645L140.672 62.8636C141.015 63.1379 141.358 63.4122 141.701 63.6179C142.044 63.8236 142.455 63.9607 142.935 63.9607C143.278 63.9607 143.552 63.8921 143.826 63.6864C144.101 63.4807 144.169 63.3436 144.169 63.1379V48.7388H151.849V65.9492C151.849 66.9777 151.643 67.869 151.3 68.4861Z" fill="#1AA94A"/>
<path d="M178.59 72.2573V68.5546H166.248L162.751 72.2573H151.917L171.596 50.3843L171.665 50.3157C172.145 49.9729 172.693 49.6986 173.31 49.4929C173.928 49.2872 174.613 49.0815 175.299 48.9444C175.985 48.8073 176.739 48.7387 177.493 48.6701C178.247 48.6016 179.002 48.6016 179.687 48.6016C180.784 48.6016 181.881 48.6701 182.773 48.8758C183.733 49.0815 184.556 49.3558 185.31 49.7672C186.064 50.2472 186.613 50.7957 187.024 51.55C187.435 52.3042 187.641 53.2641 187.641 54.2926V72.1887H178.59V72.2573ZM178.59 61.8351V56.8296C178.59 56.8296 178.522 56.8296 178.522 56.7611C178.453 56.6925 178.384 56.6239 178.179 56.6239C177.904 56.6239 177.63 56.6925 177.356 56.8982C177.013 57.1725 176.602 57.4467 176.327 57.721L172.351 61.7665H178.59V61.8351Z" fill="url(#paint5_linear)"/>
<path d="M186.338 70.9546H178.659V67.2519H165.288L161.791 70.9546H152.809L171.459 50.3158C171.871 50.0415 172.351 49.7673 172.968 49.5616C173.516 49.3559 174.202 49.2187 174.819 49.0816C175.505 48.9445 176.19 48.8759 176.945 48.8073C177.699 48.7388 178.384 48.7388 179.139 48.7388C180.236 48.7388 181.196 48.8073 182.087 49.013C182.978 49.1502 183.733 49.4244 184.35 49.8358C184.967 50.2472 185.447 50.7272 185.858 51.4129C186.201 52.03 186.407 52.8528 186.407 53.8127V70.9546H186.338ZM178.384 55.5955C178.179 55.3898 177.904 55.3212 177.562 55.3212C177.15 55.3212 176.739 55.4584 176.327 55.7326C175.916 56.0069 175.573 56.3497 175.23 56.624L170.088 61.9037H178.727V56.144C178.727 55.9383 178.59 55.8012 178.384 55.5955Z" fill="#1AA94A"/>
<path d="M201.766 72.2573V56.0068H189.561V48.6016H223.022V56.0068H210.817V72.2573H201.766Z" fill="url(#paint6_linear)"/>
<path d="M189.63 48.7388H221.651V54.7041H209.446V70.9546H201.766V54.7041H189.561V48.7388H189.63Z" fill="#1AA94A"/>
<path d="M229.878 72.2573C229.261 72.2573 228.713 72.1201 228.096 71.9144C227.547 71.7087 226.999 71.3659 226.519 70.9545C226.039 70.5431 225.627 70.1317 225.353 69.5832C225.01 69.0346 224.873 68.4861 224.873 67.9375V52.8527C224.873 52.3042 225.01 51.7557 225.353 51.2071C225.627 50.7272 226.039 50.2472 226.519 49.8358C226.999 49.4244 227.479 49.1501 228.096 48.9444C228.713 48.6701 229.261 48.6016 229.878 48.6016H254.426C255.043 48.6016 255.591 48.7387 256.208 48.9444C256.825 49.1501 257.305 49.4929 257.785 49.9043C258.265 50.3157 258.608 50.7272 258.882 51.2071C259.225 51.7557 259.362 52.3042 259.362 52.8527V67.9375C259.362 68.4861 259.225 69.0346 258.882 69.5832C258.608 70.0631 258.197 70.5431 257.785 70.8859C257.305 71.2973 256.825 71.5716 256.208 71.8459C255.591 72.0516 255.043 72.1887 254.426 72.1887H229.878V72.2573ZM250.311 64.9206V56.0068H233.924V64.9206H250.311Z" fill="url(#paint7_linear)"/>
<path d="M255.317 49.0128C255.866 49.2185 256.277 49.4927 256.688 49.8356C257.1 50.1784 257.443 50.5898 257.648 51.0012C257.923 51.4126 257.991 51.8926 257.991 52.304V67.3888C257.991 67.8002 257.854 68.2802 257.648 68.6916C257.374 69.103 257.1 69.5144 256.688 69.8572C256.277 70.2 255.866 70.4743 255.317 70.68C254.768 70.8857 254.288 71.0229 253.809 71.0229H229.261C228.781 71.0229 228.233 70.9543 227.753 70.68C227.273 70.4743 226.793 70.2 226.382 69.8572C225.97 69.5144 225.627 69.103 225.353 68.6916C225.079 68.2802 225.01 67.8002 225.01 67.3888V52.304C225.01 51.8926 225.147 51.4126 225.353 51.0012C225.627 50.5898 225.902 50.1784 226.382 49.8356C226.793 49.4927 227.273 49.2185 227.753 49.0128C228.233 48.8071 228.781 48.6699 229.261 48.6699H253.809C254.288 48.7385 254.837 48.8071 255.317 49.0128ZM232.621 54.7038V64.9889H250.38V54.7038H232.621Z" fill="#1AA94A"/>
<path d="M292.617 81.1025L277.121 63.8921H270.333V72.3258H261.282V57.0353H284.595V56.0068H261.282V48.6016H288.709C289.326 48.6016 289.875 48.7387 290.492 48.9444C291.109 49.1501 291.589 49.4929 292.069 49.9043C292.549 50.3157 292.892 50.7272 293.166 51.2071C293.509 51.7557 293.646 52.3042 293.646 52.8527V59.5038C293.646 60.0523 293.509 60.6008 293.166 61.1494C292.892 61.6293 292.48 62.1093 292.069 62.4522C291.589 62.8636 291.109 63.1378 290.492 63.4121C289.875 63.6178 289.326 63.7549 288.709 63.7549H288.092L303.108 80.9653H292.617V81.1025Z" fill="url(#paint8_linear)"/>
<path d="M284.664 57.104V54.7041H261.351V48.7388H288.092C288.572 48.7388 289.121 48.8759 289.6 49.0816C290.149 49.2873 290.56 49.5616 290.972 49.9044C291.383 50.2472 291.726 50.6587 291.932 51.0701C292.206 51.4815 292.275 51.9614 292.275 52.3728V59.0239C292.275 59.4353 292.137 59.9152 291.932 60.3266C291.658 60.738 291.383 61.1494 290.972 61.4923C290.56 61.8351 290.149 62.1094 289.6 62.3151C289.052 62.5208 288.572 62.6579 288.092 62.6579H285.898L300.914 79.8683H292.275L276.778 62.6579H268.962V71.0917H261.282V57.104H284.664Z" fill="#1AA94A"/>
<path d="M102.001 44.8303L82.8017 23.5058H74.1622V33.9281H63.26V15.4149H92.1268V13.8379H63.26V4.99268H97.0637C97.7494 4.99268 98.5036 5.12981 99.1893 5.40408C99.8749 5.67835 100.561 6.08975 101.109 6.50116C101.658 6.98113 102.138 7.52967 102.48 8.0782C102.823 8.69531 103.029 9.38098 103.029 10.0667V18.2947C103.029 18.9804 102.823 19.5975 102.48 20.2832C102.138 20.9003 101.658 21.4488 101.109 21.8602C100.561 22.3402 99.9435 22.683 99.1893 22.9573C98.5036 23.2316 97.7494 23.3687 97.0637 23.3687H95.9666L114.548 44.6931H102.001V44.8303Z" fill="url(#paint9_linear)"/>
<path d="M92.1952 15.4152V12.3982H63.3284V5.06152H96.3778C96.9949 5.06152 97.612 5.19866 98.2977 5.47293C98.9148 5.7472 99.5319 6.09003 100.012 6.50144C100.492 6.91284 100.903 7.39281 101.246 7.94135C101.589 8.48989 101.726 9.03843 101.726 9.58696V17.815C101.726 18.3636 101.589 18.9121 101.246 19.4607C100.903 20.0092 100.56 20.4892 100.012 20.9006C99.5319 21.312 98.9833 21.6548 98.2977 21.9291C97.6806 22.2033 97.0635 22.3405 96.3778 22.3405H93.7037L112.285 43.6649H101.589L82.3901 22.3405H72.7221V32.7627H63.3284V15.6209H92.1952V15.4152Z" fill="#1AA94A"/>
<path d="M150.272 36.0536V17.5404H176.602V15.9633H150.272V7.11816H181.47C182.156 7.11816 182.91 7.2553 183.595 7.52957C184.281 7.80384 184.967 8.21524 185.515 8.62664C186.064 9.10661 186.544 9.65515 186.887 10.2037C187.229 10.8208 187.435 11.5065 187.435 12.1921V17.609C187.915 17.7461 188.327 17.8832 188.738 18.0889C189.355 18.3632 189.904 18.7746 190.384 19.186C190.864 19.666 191.275 20.1459 191.618 20.6945C191.961 21.3116 192.098 21.9287 192.098 22.5458V30.7739C192.098 31.4595 191.892 32.0766 191.549 32.7623C191.206 33.3794 190.726 33.928 190.178 34.3394C189.629 34.8193 189.012 35.1622 188.327 35.4364C187.641 35.7107 186.887 35.8478 186.201 35.8478H150.272V36.0536ZM181.264 27.2084V25.6313H161.105V27.2084H181.264Z" fill="url(#paint10_linear)"/>
<path d="M176.67 14.5923H150.34V7.18701H180.853C181.47 7.18701 182.087 7.32415 182.773 7.59841C183.39 7.87268 184.007 8.21552 184.487 8.62692C184.967 9.03833 185.378 9.5183 185.721 10.0668C186.064 10.6154 186.201 11.1639 186.201 11.7125V17.7464C186.818 17.8149 187.367 18.0206 187.915 18.2949C188.464 18.5692 189.012 18.912 189.424 19.3234C189.835 19.7348 190.247 20.1462 190.521 20.6948C190.795 21.1747 190.932 21.6547 190.932 22.2032V30.4313C190.932 30.9799 190.795 31.5284 190.452 32.0769C190.109 32.6255 189.767 33.1054 189.218 33.5168C188.738 33.9282 188.121 34.2711 187.504 34.5454C186.887 34.8196 186.27 34.9568 185.653 34.9568H150.409V17.6092H176.739V14.5923H176.67ZM159.803 24.3288V27.3458H181.333V24.3288H159.803Z" fill="#1AA94A"/>
<path d="M8.4747 54.7046H0.795166V48.7393H8.4747V54.7046V54.7046ZM0.795166 57.173H8.4747V70.9551H0.795166V57.173Z" fill="#1AA94A"/>
<path d="M17.937 48.7385C18.5541 48.8071 19.3083 49.0813 20.2682 49.6299C21.2282 50.1784 22.3938 51.0012 23.9023 52.0983C25.4108 53.1954 27.1935 54.6353 29.3877 56.3495C31.5818 58.0636 34.1874 60.1207 37.2044 62.5891V48.7385H44.8839V68.2116C44.8839 68.5544 44.7468 68.8973 44.5411 69.2401C44.3354 69.5829 43.9925 69.8572 43.5811 70.1315C43.1697 70.4057 42.7583 70.6115 42.2098 70.7486C41.6612 70.8857 41.1127 71.0229 40.5642 71.0229H39.1243C38.9871 71.0229 38.9185 71.0229 38.85 70.9543C38.3014 70.8857 37.5472 70.6115 36.5187 69.9943C35.5588 69.4458 34.3245 68.623 32.7475 67.4574C31.239 66.3603 29.3877 64.9204 27.1935 63.2062C24.9994 61.492 22.4624 59.435 19.4454 57.0351V70.9543H11.8345V51.4812C11.8345 51.1383 11.9716 50.7955 12.1773 50.4527C12.383 50.1098 12.7258 49.8356 13.1373 49.5613C13.5487 49.287 14.0286 49.0813 14.5086 48.9442C15.0571 48.8071 15.6057 48.6699 16.2228 48.6699H17.6627C17.7998 48.7385 17.8684 48.7385 17.937 48.7385Z" fill="#1AA94A"/>
<path d="M54.2775 48.7385C54.8946 48.8071 55.6489 49.0813 56.6088 49.6299C57.5688 50.1784 58.7344 51.0012 60.2429 52.0983C61.7514 53.1954 63.5341 54.6353 65.7283 56.3495C67.9224 58.0636 70.528 60.1207 73.5449 62.5891V48.7385H81.2245V68.2116C81.2245 68.5544 81.0874 68.8973 80.8816 69.2401C80.6759 69.5829 80.3331 69.8572 79.9217 70.1315C79.5103 70.4057 79.0989 70.6115 78.5504 70.7486C78.0018 70.8857 77.4533 71.0229 76.9047 71.0229H75.4648C75.3277 71.0229 75.2591 71.0229 75.1906 70.9543C74.642 70.8857 73.8878 70.6115 72.8593 69.9943C71.8993 69.4458 70.6651 68.623 69.0881 67.4574C67.5796 66.3603 65.7283 64.9204 63.5341 63.2062C61.34 61.492 58.803 59.435 55.786 57.0351V70.9543H48.175V51.4812C48.175 51.1383 48.3122 50.7955 48.5179 50.4527C48.7236 50.1098 49.0664 49.8356 49.4778 49.5613C49.8892 49.287 50.3692 49.0813 50.8492 48.9442C51.3977 48.8071 51.9463 48.6699 52.5634 48.6699H54.0033C54.1404 48.7385 54.209 48.7385 54.2775 48.7385Z" fill="#1AA94A"/>
<path d="M114.823 49.0128C115.371 49.2185 115.783 49.4927 116.194 49.8356C116.605 50.1784 116.948 50.5898 117.154 51.0012C117.428 51.4126 117.497 51.8926 117.497 52.304V67.3888C117.497 67.8002 117.36 68.2802 117.154 68.6916C116.88 69.103 116.605 69.5144 116.194 69.8572C115.783 70.2 115.371 70.4743 114.823 70.68C114.274 70.8857 113.794 71.0229 113.314 71.0229H88.767C88.2871 71.0229 87.7385 70.9543 87.2586 70.68C86.7786 70.4743 86.2986 70.2 85.8872 69.8572C85.4758 69.5144 85.133 69.103 84.8587 68.6916C84.5844 68.2802 84.5159 67.8002 84.5159 67.3888V52.304C84.5159 51.8926 84.653 51.4126 84.8587 51.0012C85.133 50.5898 85.4072 50.1784 85.8872 49.8356C86.2986 49.4927 86.7786 49.2185 87.2586 49.0128C87.7385 48.8071 88.2871 48.6699 88.767 48.6699H113.314C113.794 48.7385 114.343 48.8071 114.823 49.0128ZM92.1268 54.7038V64.9889H109.886V54.7038H92.1268Z" fill="#1AA94A"/>
<path d="M151.3 68.4857C150.957 69.1713 150.477 69.6513 149.792 70.0627C149.175 70.4055 148.42 70.6798 147.529 70.8169C146.638 70.9541 145.678 71.0226 144.581 71.0226C143.141 71.0226 141.769 70.8855 140.398 70.6798C139.027 70.4741 137.93 70.0627 137.107 69.4456L118.525 48.7383H127.645L140.672 62.8631C141.015 63.1374 141.358 63.4117 141.701 63.6174C142.044 63.8231 142.455 63.9602 142.935 63.9602C143.278 63.9602 143.552 63.8916 143.826 63.6859C144.101 63.4802 144.169 63.3431 144.169 63.1374V48.7383H151.849V65.9487C151.849 66.9772 151.643 67.8685 151.3 68.4857Z" fill="#1AA94A"/>
<path d="M186.338 70.9541H178.659V67.2514H165.288L161.791 70.9541H152.809L171.459 50.3153C171.871 50.0411 172.351 49.7668 172.968 49.5611C173.516 49.3554 174.202 49.2183 174.819 49.0811C175.505 48.944 176.19 48.8754 176.945 48.8068C177.699 48.7383 178.384 48.7383 179.139 48.7383C180.236 48.7383 181.196 48.8068 182.087 49.0126C182.978 49.1497 183.733 49.424 184.35 49.8354C184.967 50.2468 185.447 50.7267 185.858 51.4124C186.201 52.0295 186.407 52.8523 186.407 53.8123V70.9541H186.338ZM178.384 55.595C178.179 55.3893 177.904 55.3207 177.562 55.3207C177.15 55.3207 176.739 55.4579 176.327 55.7321C175.916 56.0064 175.573 56.3492 175.23 56.6235L170.088 61.9032H178.727V56.1435C178.727 55.9378 178.59 55.8007 178.384 55.595Z" fill="#1AA94A"/>
<path d="M189.63 48.7383H221.651V54.7036H209.446V70.9541H201.766V54.7036H189.561V48.7383H189.63Z" fill="#1AA94A"/>
<path d="M255.317 49.0128C255.866 49.2185 256.277 49.4927 256.688 49.8356C257.1 50.1784 257.443 50.5898 257.648 51.0012C257.923 51.4126 257.991 51.8926 257.991 52.304V67.3888C257.991 67.8002 257.854 68.2802 257.648 68.6916C257.374 69.103 257.1 69.5144 256.688 69.8572C256.277 70.2 255.866 70.4743 255.317 70.68C254.768 70.8857 254.288 71.0229 253.809 71.0229H229.261C228.781 71.0229 228.233 70.9543 227.753 70.68C227.273 70.4743 226.793 70.2 226.382 69.8572C225.97 69.5144 225.627 69.103 225.353 68.6916C225.079 68.2802 225.01 67.8002 225.01 67.3888V52.304C225.01 51.8926 225.147 51.4126 225.353 51.0012C225.627 50.5898 225.902 50.1784 226.382 49.8356C226.793 49.4927 227.273 49.2185 227.753 49.0128C228.233 48.8071 228.781 48.6699 229.261 48.6699H253.809C254.288 48.7385 254.837 48.8071 255.317 49.0128ZM232.621 54.7038V64.9889H250.38V54.7038H232.621Z" fill="#1AA94A"/>
<path d="M284.664 57.1035V54.7036H261.351V48.7383H288.092C288.572 48.7383 289.121 48.8754 289.6 49.0811C290.149 49.2868 290.56 49.5611 290.972 49.9039C291.383 50.2468 291.726 50.6582 291.932 51.0696C292.206 51.481 292.275 51.9609 292.275 52.3723V59.0234C292.275 59.4348 292.137 59.9148 291.932 60.3262C291.658 60.7376 291.383 61.149 290.972 61.4918C290.56 61.8346 290.149 62.1089 289.6 62.3146C289.052 62.5203 288.572 62.6574 288.092 62.6574H285.898L300.914 79.8678H292.275L276.778 62.6574H268.962V71.0912H261.282V57.1035H284.664Z" fill="#1AA94A"/>
</g>
<defs>
<linearGradient id="paint0_linear" x1="0.726562" y1="60.4589" x2="9.83326" y2="60.4589" gradientUnits="userSpaceOnUse">
<stop stop-color="white"/>
<stop offset="1"/>
</linearGradient>
<linearGradient id="paint1_linear" x1="11.7344" y1="60.4589" x2="46.2167" y2="60.4589" gradientUnits="userSpaceOnUse">
<stop stop-color="white"/>
<stop offset="1"/>
</linearGradient>
<linearGradient id="paint2_linear" x1="48.0734" y1="60.4589" x2="82.556" y2="60.4589" gradientUnits="userSpaceOnUse">
<stop stop-color="white"/>
<stop offset="1"/>
</linearGradient>
<linearGradient id="paint3_linear" x1="84.4129" y1="60.4589" x2="118.896" y2="60.4589" gradientUnits="userSpaceOnUse">
<stop stop-color="white"/>
<stop offset="1"/>
</linearGradient>
<linearGradient id="paint4_linear" x1="117.62" y1="60.4811" x2="153.157" y2="60.4811" gradientUnits="userSpaceOnUse">
<stop stop-color="white"/>
<stop offset="1"/>
</linearGradient>
<linearGradient id="paint5_linear" x1="151.923" y1="60.4589" x2="187.684" y2="60.4589" gradientUnits="userSpaceOnUse">
<stop stop-color="white"/>
<stop offset="1"/>
</linearGradient>
<linearGradient id="paint6_linear" x1="189.542" y1="60.4589" x2="223.007" y2="60.4589" gradientUnits="userSpaceOnUse">
<stop stop-color="white"/>
<stop offset="1"/>
</linearGradient>
<linearGradient id="paint7_linear" x1="224.908" y1="60.4589" x2="259.39" y2="60.4589" gradientUnits="userSpaceOnUse">
<stop stop-color="white"/>
<stop offset="1"/>
</linearGradient>
<linearGradient id="paint8_linear" x1="261.248" y1="64.8799" x2="303.12" y2="64.8799" gradientUnits="userSpaceOnUse">
<stop stop-color="white"/>
<stop offset="1"/>
</linearGradient>
<linearGradient id="paint9_linear" x1="63.2584" y1="24.8892" x2="114.512" y2="24.8892" gradientUnits="userSpaceOnUse">
<stop stop-color="white"/>
<stop offset="1"/>
</linearGradient>
<linearGradient id="paint10_linear" x1="150.255" y1="21.5752" x2="192.131" y2="21.5752" gradientUnits="userSpaceOnUse">
<stop stop-color="white"/>
<stop offset="1"/>
</linearGradient>
<clipPath id="clip0">
<rect x="0.726562" y="0.467285" width="302.382" height="91.0574" fill="white"/>
</clipPath>
</defs>
</svg>
