<svg width="317" height="43" viewBox="0 0 317 43" fill="none" xmlns="http://www.w3.org/2000/svg">
<path d="M152.743 13.0355C152.645 13.0109 152.596 13.0642 152.743 13.0355V13.0355Z" fill="#2CB44E"/>
<path d="M229.763 11.7657C229.791 11.7698 229.808 11.7616 229.836 11.7657C229.897 11.6024 229.95 11.4636 230.004 11.3574L229.763 11.7657Z" fill="#2CB44E"/>
<path d="M242.141 13.2233C242.169 13.2397 242.19 13.252 242.214 13.2684C242.21 13.1742 242.231 13.0759 242.141 13.2233Z" fill="#2CB44E"/>
<path d="M201.17 12.8069C201.063 12.7987 201.002 12.8315 200.957 12.8847C201.022 12.852 201.084 12.8192 201.17 12.8069Z" fill="#2CB44E"/>
<path d="M130.122 14.6399C130.122 14.6399 130.155 14.6317 130.175 14.6235C130.13 14.5907 130.085 14.5703 130.04 14.5293L130.122 14.6399Z" fill="#2CB44E"/>
<path d="M130.359 14.3501C130.636 14.4603 130.293 14.5828 130.175 14.6236C130.485 14.8318 130.787 14.84 131.085 14.7257C131.073 14.4726 130.501 14.5338 130.359 14.3501Z" fill="#2CB44E"/>
<path d="M89.1013 17.3713L89.2201 17.2607C89.1709 17.2935 89.1341 17.3304 89.1013 17.3713Z" fill="#2CB44E"/>
<path d="M202.317 25.1846C202.255 25.2091 202.186 25.2173 202.132 25.246C202.227 25.2542 202.28 25.2255 202.317 25.1846Z" fill="#2CB44E"/>
<path d="M95.5965 17.2362L95.6455 16.832C95.5925 16.9994 95.5843 17.126 95.5965 17.2362Z" fill="#2CB44E"/>
<path d="M230.007 11.3539L230.102 11.1982C230.069 11.2351 230.04 11.2924 230.007 11.3539Z" fill="#2CB44E"/>
<path d="M253.591 14.0684C253.587 14.1908 253.608 14.2888 253.636 14.3745C253.653 14.3745 253.661 14.3786 253.669 14.3786L253.591 14.0684Z" fill="#2CB44E"/>
<path d="M310.158 26.9893C310.162 26.9403 310.166 26.8872 310.158 26.8301L309.876 27.0669C310.003 27.0628 310.093 27.0383 310.158 26.9893Z" fill="#2CB44E"/>
<path d="M269.183 16.885C269.199 16.8401 269.24 16.7993 269.248 16.7503C268.991 16.5952 268.284 16.5135 267.378 16.4604L267.284 16.9463L269.183 16.885Z" fill="#2CB44E"/>
<path d="M284.99 29.9572L283.475 28.7937C284.798 28.8304 285.937 28.9243 286.966 29.0672C287.995 29.2223 288.917 29.4019 289.82 29.5693C291.62 29.9122 293.343 30.1572 295.617 30.1041L295.339 30.2756C295.645 30.4389 295.968 29.9898 297.058 29.9735C297.605 29.9653 298.34 30.0674 299.356 30.4062C299.866 30.5777 300.442 30.8063 301.103 31.1125C301.434 31.2676 301.781 31.4391 302.153 31.631C302.52 31.831 302.908 32.0596 303.316 32.3087L303.3 32.4066C303.545 32.4352 303.582 32.2433 304.018 32.5944L302.912 31.7698C303.684 31.6636 304.406 31.3207 305.39 31.4391C305.578 31.5861 305.611 31.7983 305.602 31.9576L308.015 32.2474L308.619 33.0108C309.415 32.8108 309.366 31.4146 311.134 32.5903C310.603 31.5126 312.212 32.2597 312.077 31.7412C312.151 31.8759 312.334 32.0964 312.477 32.2923C313.649 32.4475 315.874 32.6842 316.527 32.3413C316.527 32.3413 315.519 31.6106 314.372 30.7165C313.224 29.8224 311.934 28.7692 311.42 28.1405C313.016 28.7651 311.881 28.1282 311.62 27.7445L311.461 27.9486C310.518 27.4995 310.636 26.9198 310.167 26.6667C310.158 26.7116 310.162 26.7728 310.162 26.8341L310.244 26.7688C310.269 26.879 310.228 26.9443 310.162 26.9933C310.15 27.1198 310.085 27.2097 309.815 27.1198L309.881 27.0709C309.444 27.0749 308.742 26.8463 308.436 26.7483L308.525 26.2625C308.064 26.6504 306.884 26.0625 305.688 25.3481C304.492 24.6295 303.271 23.7886 302.765 23.7069C301.855 22.9312 300.467 23.4987 299.25 22.9884C297.254 22.5107 298.348 22.1188 297.397 21.535C296.172 21.0288 297.568 22.1433 297.054 22.0943C297.054 22.0943 296.699 21.8657 296.343 21.633C295.988 21.4003 295.629 21.1799 295.629 21.1799C296.523 21.2452 296.086 20.8859 295.951 20.6696C294.645 20.4124 292.677 19.2366 292.142 20.1552C290.424 19.4489 290.465 19.0611 289.705 18.91C289.938 19.1223 290.428 19.3509 290.407 19.5469C289.746 19.0202 290.052 19.6081 290.334 19.7428C289.762 19.8898 288.407 19.2325 287.141 18.7263C285.876 18.216 284.704 17.7996 284.529 18.3221L284.549 18.1262C284.206 18.8978 284.521 19.7183 283.712 20.0735L283.247 19.6612L282.447 19.9184C281.965 19.5999 282.238 19.4162 282.247 19.3183C280.961 19.555 279.275 18.8978 277.772 18.6651L279.148 20.9961C277.931 20.3674 275.735 19.1386 275.417 19.8163L274.723 19.0121C272.298 17.375 272.886 19.4571 271.906 18.9386L270.693 18.02L271.967 18.1507C270.726 17.6281 270.236 17.3138 269.26 16.7218C269.26 16.73 269.248 16.7341 269.248 16.7422C269.317 16.779 269.358 16.8239 269.362 16.8729L269.183 16.8769C268.995 17.2648 268.305 17.4852 267.407 17.3913C266.137 17.1831 265.092 17.6934 263.112 16.6932L262.545 17.473L261.046 16.8688L261.091 16.2156C262.59 16.3666 265.439 16.3381 267.374 16.4524L267.431 16.1584C266.284 16.0727 264.957 16.2605 264.206 16.138C263.847 15.9788 262.949 15.2317 263.667 14.8439L262.912 15.4277C259.075 15.2154 259.054 15.2807 255.098 14.2846L255.425 14.6316C254.621 14.7745 253.82 14.9133 253.629 14.3703C251.232 14.1009 248.77 13.5987 247.248 12.6843L246.868 13.4354C246.362 13.366 245.655 12.1699 245.357 13.2313L244.259 13.5171C243.569 13.4232 243.124 13.8437 242.353 13.3619C242.353 13.3579 242.349 13.3579 242.349 13.3579C242.3 13.3293 242.251 13.2966 242.202 13.2599C242.202 13.2844 242.206 13.3048 242.206 13.3252C240.65 12.9251 242.194 14.0151 240.414 13.5048C239.858 12.9374 239.736 14.456 238.87 14.2478L238.034 13.1129C236.47 12.4189 236.16 13.5171 233.861 13.4313C232.771 12.9986 232.269 12.0351 233.028 11.2268C231.987 12.2025 232.551 11.8718 231.199 12.3168C231.008 11.8963 231.15 11.8106 231.457 11.4473C230.285 10.9288 230.714 11.8024 229.82 11.7535C229.538 12.5291 229.203 13.7702 228.909 13.811L229.248 14.0641C228.293 14.456 227.256 14.6234 226.17 14.1988L226.223 13.8069L225.051 13.9743L225.01 13.4763L223.341 13.5865L223.565 13.7294C223.173 13.7824 221.883 13.9294 221.153 13.6559L221.185 13.3783C219.128 12.4679 217.397 13.5783 214.968 13.6273L215.294 13.0598C214.478 12.476 215.053 13.9335 214.074 13.6314L214.037 12.9292C213.155 13.8355 212.918 12.7128 212.322 12.3577L212.588 13.2803L211.465 13.0762C210.228 12.7577 210.718 11.9045 210.906 11.4269L210.052 12.1413L209.897 11.3289C209.268 12.2678 209.281 11.1697 208.191 11.6677C208.105 11.3615 208.379 11.186 208.015 11.0513L206.219 12.178L207.301 11.68L207.158 12.8639C206.031 13.7539 205.643 12.7169 204.839 13.0435L205.394 12.6965C204.088 12.97 204.018 12.4638 203.284 12.1944C203.512 12.4148 203.859 12.7496 203.329 12.8965C202.941 12.9619 203.12 12.4801 202.753 12.3454C202.659 13.1374 201.724 13.5538 200.875 13.1782C200.887 13.0639 200.904 12.9578 200.961 12.8843C200.744 13.0109 200.63 13.215 200.254 13.0231L200.479 12.1454L199.748 12.9782C199.266 12.7373 198.556 13.3701 198.621 12.7782L198.899 12.6026L195.233 12.3822L195.184 11.68C194.821 12.6475 193.184 11.3085 193.306 12.5169C192.612 11.8596 190.583 12.9945 190.987 11.631C188.574 11.5371 187.28 12.8516 184.349 12.2025C183.3 11.0554 180.442 11.4595 178.56 11.3575C174.89 11.8718 172.522 12.3495 168.779 12.7822C166.492 11.1982 163.161 13.4395 160.716 12.5822L160.067 13.2354C158.43 12.2474 155.996 13.5497 153.706 12.6189C153.159 12.9129 152.869 13.0109 152.743 13.0353C152.845 13.0639 153.004 13.1823 153.065 13.5865C152.412 13.317 151.114 13.709 151.183 12.8965L151.346 12.8067C151.42 11.9902 149.395 13.2395 148.656 12.5536L149.077 13.415L147.848 13.3007L148.17 13.1252C142.916 15.2235 140.422 12.525 135.494 14.4724C136.123 13.5007 134.527 15.0072 134.425 13.9702C133.118 12.7128 132.102 14.3336 131.085 14.7214C131.085 14.7704 131.077 14.8316 131.02 14.9133L129.211 14.8602C130.236 13.5048 127.954 15.9992 128.901 14.8439C124.161 14.0437 118.066 15.3052 112.604 15.1133L112.857 15.4399C111.473 15.4399 109.779 15.9339 108.705 15.4481C107.631 14.9623 106.46 16.4197 106.056 16.4932C104.937 17.1301 103.835 16.036 104.333 16.0645C103.112 16.2891 102.026 17.5506 100.295 17.126C99.6503 16.0441 95.7148 18.4773 95.5923 17.228L95.5801 17.3342C93.3469 16.5789 91.3833 18.1997 88.9828 17.5506C88.9828 17.5506 89.0236 17.4567 89.0971 17.3668L84.5737 21.4779L86.2108 25.5644L90.5341 28.6957C90.5341 28.6957 93.3061 28.3446 96.0781 27.9935C98.8542 27.6546 101.63 27.3158 101.63 27.3158L110.599 28.1854C110.599 28.1854 116.009 27.822 121.422 27.4628C126.835 27.128 132.249 26.7973 132.249 26.7973L133.763 25.7971C138.083 27.2872 143.48 25.2133 148.109 26.2544L148.183 25.4379C149.477 25.3562 149.403 25.8624 149.726 25.9931C161.753 25.4705 174.139 24.1764 184.978 25.1276C186.023 25.6624 189.199 25.3317 190.02 25.8951C193.531 24.8745 197.258 24.9071 200.777 25.0174L200.642 25.1072L202.3 24.9561C202.369 25.0215 202.377 25.1194 202.324 25.1807C204.198 24.4662 207.137 25.2174 209.424 25.5318L209.289 25.6175C222.618 25.9237 235.061 24.7438 248.199 26.5483C254.249 28.1731 261.475 26.8177 268.387 28.4793C268.999 28.912 272.832 29.3407 276.678 29.5897C277.642 29.6469 278.601 29.7122 279.507 29.7816C280.418 29.8428 281.275 29.8918 282.034 29.9286C283.549 30.0021 284.672 30.0184 284.99 29.9572Z" fill="#2CB44E"/>
<path d="M305.602 31.9577L305.549 31.9536C305.488 32.2894 305.59 32.1748 305.602 31.9577Z" fill="#2CB44E"/>
<path d="M277.678 18.6528C277.711 18.6569 277.739 18.6651 277.772 18.6692L277.466 18.1548L277.678 18.6528Z" fill="#2CB44E"/>
<path d="M296.744 20.6779C295.907 20.433 295.854 20.5187 295.956 20.6697C296.258 20.7351 296.531 20.7555 296.744 20.6779Z" fill="#2CB44E"/>
<path d="M312.375 32.6841C312.791 32.8066 312.677 32.5698 312.477 32.2922C312.036 32.2309 311.73 32.186 311.73 32.186C311.946 32.3167 312.146 32.5494 312.375 32.6841Z" fill="#2CB44E"/>
<path d="M311.616 27.7451L311.812 27.5034C311.542 27.5116 311.53 27.6099 311.616 27.7451Z" fill="#2CB44E"/>
<path d="M87.4224 17.1175C87.3241 17.093 87.275 17.1462 87.4224 17.1175V17.1175Z" fill="#2CB44E"/>
<path d="M164.442 15.8482C164.47 15.8523 164.487 15.8441 164.515 15.8482C164.577 15.6849 164.63 15.5461 164.683 15.4399L164.442 15.8482Z" fill="#2CB44E"/>
<path d="M176.82 17.3059C176.848 17.3222 176.869 17.3345 176.894 17.3509C176.889 17.2567 176.91 17.1584 176.82 17.3059Z" fill="#2CB44E"/>
<path d="M135.849 16.8889C135.743 16.8808 135.681 16.9135 135.636 16.9668C135.702 16.934 135.763 16.9012 135.849 16.8889Z" fill="#2CB44E"/>
<path d="M64.8014 18.7224C64.8014 18.7224 64.8342 18.7142 64.8546 18.706C64.8096 18.6732 64.7645 18.6528 64.7195 18.6118L64.8014 18.7224Z" fill="#2CB44E"/>
<path d="M65.038 18.4321C65.3156 18.5424 64.9726 18.6648 64.8542 18.7057C65.1645 18.9139 65.4666 18.922 65.7646 18.8077C65.7524 18.5546 65.1808 18.6158 65.038 18.4321Z" fill="#2CB44E"/>
<path d="M23.7808 21.4534L23.8995 21.3428C23.8504 21.3755 23.8135 21.4124 23.7808 21.4534Z" fill="#2CB44E"/>
<path d="M136.996 29.2671C136.935 29.2917 136.865 29.2999 136.812 29.3285C136.906 29.3367 136.959 29.308 136.996 29.2671Z" fill="#2CB44E"/>
<path d="M30.276 21.3187L30.325 20.9146C30.2719 21.0819 30.2637 21.2085 30.276 21.3187Z" fill="#2CB44E"/>
<path d="M164.687 15.4364L164.781 15.2808C164.748 15.3176 164.72 15.375 164.687 15.4364Z" fill="#2CB44E"/>
<path d="M188.271 18.1504C188.267 18.2729 188.287 18.3708 188.316 18.4566C188.332 18.4566 188.34 18.4607 188.349 18.4607L188.271 18.1504Z" fill="#2CB44E"/>
<path d="M244.838 31.0713C244.842 31.0223 244.846 30.9693 244.838 30.9121L244.556 31.1489C244.683 31.1448 244.773 31.1203 244.838 31.0713Z" fill="#2CB44E"/>
<path d="M203.862 20.9675C203.879 20.9226 203.919 20.8818 203.928 20.8328C203.67 20.6777 202.964 20.596 202.058 20.543L201.964 21.0288L203.862 20.9675Z" fill="#2CB44E"/>
<path d="M219.669 34.0397L218.155 32.8762C219.478 32.9129 220.617 33.0068 221.645 33.1497C222.674 33.3048 223.597 33.4845 224.499 33.6518C226.299 33.9948 228.022 34.2397 230.296 34.1866L230.019 34.3581C230.325 34.5214 230.647 34.0723 231.737 34.056C232.284 34.0478 233.019 34.1499 234.036 34.4887C234.546 34.6602 235.122 34.8888 235.783 35.195C236.114 35.3501 236.461 35.5216 236.832 35.7135C237.2 35.9135 237.587 36.1421 237.996 36.3912L237.979 36.4892C238.224 36.5177 238.261 36.3259 238.698 36.6769L237.591 35.8523C238.363 35.7461 239.086 35.4032 240.07 35.5216C240.257 35.6686 240.29 35.8809 240.282 36.0401L242.695 36.3299L243.299 37.0934C244.095 36.8933 244.046 35.4971 245.814 36.6729C245.283 35.5951 246.891 36.3422 246.757 35.8237C246.83 35.9584 247.014 36.1789 247.157 36.3748C248.328 36.53 250.553 36.7668 251.206 36.4238C251.206 36.4238 250.198 35.6931 249.051 34.799C247.904 33.905 246.614 32.8517 246.099 32.223C247.696 32.8476 246.561 32.2107 246.299 31.827L246.14 32.0311C245.197 31.582 245.315 31.0023 244.846 30.7492C244.838 30.7941 244.842 30.8554 244.842 30.9166L244.924 30.8513C244.948 30.9615 244.907 31.0268 244.842 31.0758C244.83 31.2024 244.764 31.2922 244.495 31.2024L244.56 31.1534C244.123 31.1575 243.421 30.9288 243.115 30.8309L243.205 30.345C242.744 30.7329 241.564 30.145 240.368 29.4306C239.171 28.7121 237.951 27.8711 237.445 27.7894C236.534 27.0138 235.146 27.5812 233.929 27.0709C231.933 26.5933 233.027 26.2013 232.076 25.6176C230.851 25.1113 232.248 26.2258 231.733 26.1769C231.733 26.1769 231.378 25.9482 231.023 25.7155C230.668 25.4828 230.308 25.2624 230.308 25.2624C231.202 25.3277 230.766 24.9684 230.631 24.7521C229.324 24.4949 227.357 23.3191 226.822 24.2377C225.103 23.5314 225.144 23.1436 224.385 22.9925C224.617 23.2048 225.107 23.4334 225.087 23.6294C224.426 23.1028 224.732 23.6906 225.013 23.8254C224.442 23.9723 223.086 23.315 221.821 22.8088C220.555 22.2985 219.384 21.8821 219.208 22.4047L219.229 22.2087C218.886 22.9803 219.2 23.8009 218.392 24.156L217.926 23.7437L217.126 24.0009C216.644 23.6825 216.918 23.4988 216.926 23.4008C215.64 23.6376 213.954 22.9803 212.452 22.7476L213.827 25.0787C212.611 24.45 210.415 23.2211 210.096 23.8988L209.402 23.0946C206.977 21.4575 207.565 23.5396 206.585 23.0211L205.373 22.1026L206.646 22.2332C205.405 21.7106 204.915 21.3963 203.94 20.8043C203.94 20.8125 203.927 20.8166 203.927 20.8247C203.997 20.8615 204.038 20.9064 204.042 20.9554L203.862 20.9595C203.674 21.3473 202.984 21.5677 202.086 21.4739C200.817 21.2656 199.772 21.776 197.792 20.7758L197.224 21.5555L195.726 20.9513L195.771 20.2981C197.269 20.4492 200.119 20.4206 202.054 20.5349L202.111 20.241C200.964 20.1552 199.637 20.343 198.886 20.2205C198.526 20.0613 197.628 19.3142 198.347 18.9264L197.591 19.5102C193.754 19.2979 193.734 19.3632 189.778 18.3671L190.104 18.7141C189.3 18.857 188.5 18.9958 188.308 18.4528C185.912 18.1834 183.45 17.6812 181.927 16.7668L181.547 17.5179C181.041 17.4485 180.335 16.2524 180.037 17.3138L178.939 17.5996C178.249 17.5057 177.804 17.9262 177.032 17.4445C177.032 17.4404 177.028 17.4404 177.028 17.4404C176.979 17.4118 176.93 17.3791 176.881 17.3424C176.881 17.3669 176.885 17.3873 176.885 17.4077C175.33 17.0076 176.873 18.0977 175.093 17.5874C174.538 17.0199 174.415 18.5386 173.55 18.3304L172.713 17.1954C171.149 16.5014 170.839 17.5996 168.541 17.5139C167.451 17.0811 166.949 16.1177 167.708 15.3093C166.667 16.285 167.23 15.9544 165.879 16.3994C165.687 15.9789 165.83 15.8931 166.136 15.5298C164.964 15.0113 165.393 15.885 164.499 15.836C164.217 16.6116 163.883 17.8527 163.589 17.8935L163.928 18.1466C162.972 18.5386 161.935 18.7059 160.849 18.2814L160.902 17.8895L159.731 18.0568L159.69 17.5588L158.02 17.669L158.245 17.8119C157.853 17.865 156.563 18.0119 155.832 17.7384L155.865 17.4608C153.807 16.5504 152.076 17.6608 149.647 17.7098L149.974 17.1424C149.157 16.5586 149.733 18.016 148.753 17.7139L148.716 17.0117C147.834 17.918 147.598 16.7954 147.002 16.4402L147.267 17.3628L146.144 17.1587C144.907 16.8403 145.397 15.987 145.585 15.5094L144.732 16.2238L144.577 15.4114C143.948 16.3504 143.96 15.2522 142.87 15.7502C142.784 15.4441 143.058 15.2685 142.695 15.1338L140.898 16.2605L141.98 15.7625L141.837 16.9464C140.711 17.8364 140.323 16.7994 139.518 17.126L140.074 16.779C138.767 17.0525 138.698 16.5463 137.963 16.2769C138.192 16.4973 138.539 16.8321 138.008 16.9791C137.62 17.0444 137.8 16.5627 137.432 16.4279C137.338 17.2199 136.404 17.6363 135.554 17.2608C135.567 17.1464 135.583 17.0403 135.64 16.9668C135.424 17.0934 135.309 17.2975 134.934 17.1056L135.158 16.2279L134.428 17.0607C133.946 16.8198 133.236 17.4526 133.301 16.8607L133.578 16.6851L129.912 16.4647L129.863 15.7625C129.5 16.73 127.863 15.391 127.985 16.5994C127.291 15.9421 125.262 17.077 125.667 15.7135C123.254 15.6196 121.96 16.9342 119.029 16.285C117.979 15.1379 115.122 15.542 113.24 15.44C109.57 15.9544 107.202 16.432 103.458 16.8648C101.172 15.2808 97.8406 17.522 95.3952 16.6647L94.7461 17.3179C93.109 16.33 90.6759 17.6323 88.3856 16.7015C87.8386 16.9954 87.5487 17.0934 87.4221 17.1179C87.5242 17.1464 87.6834 17.2648 87.7447 17.669C87.0915 17.3996 85.7932 17.7915 85.8626 16.9791L86.0259 16.8892C86.0994 16.0728 84.0745 17.322 83.3356 16.6361L83.7561 17.4975L82.5273 17.3832L82.8498 17.2077C77.5957 19.3061 75.1013 16.6076 70.1737 18.5549C70.8024 17.5833 69.2062 19.0897 69.1041 18.0528C67.7977 16.7954 66.7812 18.4161 65.7647 18.8039C65.7647 18.8529 65.7565 18.9141 65.6994 18.9958L63.8908 18.9427C64.9155 17.5873 62.6334 20.0817 63.5806 18.9264C58.8408 18.1262 52.7457 19.3877 47.2834 19.1958L47.5365 19.5224C46.1525 19.5224 44.4583 20.0164 43.3846 19.5306C42.3109 19.0448 41.1393 20.5022 40.7351 20.5757C39.6165 21.2126 38.5142 20.1185 39.0123 20.1471C37.7916 20.3716 36.7057 21.6331 34.9747 21.2085C34.3338 20.1348 30.3983 22.568 30.2758 21.3187L30.2636 21.4249C28.0305 20.6696 26.0668 22.2903 23.6704 21.6372C23.6704 21.6372 23.7112 21.5433 23.7847 21.4534L19.2532 25.5604L20.8902 29.6469L25.2136 32.7782C25.2136 32.7782 27.9856 32.4271 30.7576 32.076C33.5336 31.7372 36.3097 31.3983 36.3097 31.3983L45.2789 32.2679C45.2789 32.2679 50.6881 31.9045 56.1015 31.5453C61.5148 31.2105 66.9282 30.8798 66.9282 30.8798L68.4428 29.8796C72.762 31.3697 78.159 29.2959 82.7885 30.3369L82.862 29.5204C84.1562 29.4387 84.0827 29.945 84.4052 30.0756C96.4321 29.553 108.818 28.2589 119.657 29.2101C120.702 29.7449 123.879 29.4142 124.699 29.9776C128.21 28.957 131.937 28.9897 135.456 29.0999L135.322 29.1897L136.979 29.0387C137.049 29.104 137.057 29.202 137.004 29.2632C138.878 28.5488 141.817 29.2999 144.103 29.6143L143.968 29.7C157.298 30.0062 169.741 28.8264 182.878 30.6308C188.928 32.2556 196.154 30.9003 203.066 32.5618C203.678 32.9946 207.512 33.4232 211.358 33.6723C212.321 33.7294 213.28 33.7947 214.187 33.8641C215.097 33.9254 215.954 33.9744 216.714 34.0111C218.228 34.0846 219.351 34.1009 219.669 34.0397Z" fill="#2CB44E"/>
<path d="M240.282 36.0397L240.228 36.0356C240.167 36.3715 240.269 36.2568 240.282 36.0397Z" fill="#2CB44E"/>
<path d="M212.358 22.7354C212.39 22.7394 212.419 22.7476 212.452 22.7517L212.146 22.2373L212.358 22.7354Z" fill="#2CB44E"/>
<path d="M231.423 24.7599C230.586 24.515 230.533 24.6007 230.635 24.7518C230.937 24.8171 231.21 24.8375 231.423 24.7599Z" fill="#2CB44E"/>
<path d="M247.055 36.7666C247.471 36.8891 247.357 36.6523 247.157 36.3747C246.716 36.3135 246.41 36.2686 246.41 36.2686C246.626 36.3992 246.826 36.6319 247.055 36.7666Z" fill="#2CB44E"/>
<path d="M246.295 31.8276L246.492 31.5859C246.222 31.5941 246.209 31.6924 246.295 31.8276Z" fill="#2CB44E"/>
<path d="M107.846 2.67209C107.721 2.63899 107.658 2.7107 107.846 2.67209V2.67209Z" fill="#2CB44E"/>
<path d="M206.097 0.962395C206.133 0.967893 206.154 0.956897 206.19 0.962395C206.269 0.742476 206.336 0.555545 206.404 0.412598L206.097 0.962395Z" fill="#2CB44E"/>
<path d="M221.887 2.92526C221.923 2.94732 221.949 2.96387 221.981 2.98593C221.976 2.85907 222.002 2.7267 221.887 2.92526Z" fill="#2CB44E"/>
<path d="M169.622 2.36399C169.486 2.35296 169.408 2.39708 169.351 2.46878C169.434 2.42466 169.513 2.38053 169.622 2.36399Z" fill="#2CB44E"/>
<path d="M78.99 4.833C78.99 4.833 79.0318 4.82197 79.0579 4.81094C79.0004 4.76681 78.943 4.73924 78.8855 4.68408L78.99 4.833Z" fill="#2CB44E"/>
<path d="M79.2917 4.44238C79.6459 4.59083 79.2084 4.75577 79.0574 4.81075C79.4532 5.09114 79.8385 5.10214 80.2187 4.9482C80.2031 4.60732 79.474 4.68979 79.2917 4.44238Z" fill="#2CB44E"/>
<path d="M26.6619 8.51122L26.8134 8.3623C26.7507 8.40643 26.7037 8.45607 26.6619 8.51122Z" fill="#2CB44E"/>
<path d="M171.085 19.0342C171.007 19.0673 170.918 19.0783 170.85 19.1169C170.97 19.1279 171.038 19.0893 171.085 19.0342Z" fill="#2CB44E"/>
<path d="M34.9475 8.32946L35.01 7.78516C34.9423 8.01057 34.9319 8.18101 34.9475 8.32946Z" fill="#2CB44E"/>
<path d="M206.409 0.407344L206.529 0.197754C206.487 0.247394 206.45 0.324611 206.409 0.407344Z" fill="#2CB44E"/>
<path d="M236.494 4.06299C236.489 4.22793 236.515 4.35988 236.551 4.47534C236.572 4.47534 236.582 4.48083 236.593 4.48083L236.494 4.06299Z" fill="#2CB44E"/>
<path d="M308.653 21.4639C308.658 21.398 308.664 21.3265 308.653 21.2495L308.294 21.5684C308.455 21.5629 308.57 21.5299 308.653 21.4639Z" fill="#2CB44E"/>
<path d="M256.383 7.85646C256.403 7.79598 256.455 7.741 256.466 7.67502C256.138 7.4661 255.237 7.35614 254.081 7.28467L253.961 7.93893L256.383 7.85646Z" fill="#2CB44E"/>
<path d="M276.548 25.4611L274.615 23.8942C276.303 23.9437 277.756 24.0701 279.068 24.2626C280.381 24.4715 281.557 24.7134 282.708 24.9388C285.005 25.4007 287.203 25.7305 290.103 25.6591L289.749 25.89C290.14 26.1099 290.551 25.5051 291.942 25.4831C292.64 25.4721 293.577 25.6096 294.874 26.0659C295.525 26.2968 296.259 26.6047 297.103 27.0171C297.525 27.226 297.967 27.4569 298.441 27.7153C298.91 27.9847 299.405 28.2926 299.925 28.628L299.905 28.7599C300.217 28.7984 300.264 28.54 300.821 29.0128L299.41 27.9022C300.394 27.7593 301.316 27.2975 302.571 27.4569C302.811 27.6548 302.852 27.9407 302.842 28.1551L305.92 28.5455L306.69 29.5736C307.706 29.3042 307.643 27.4239 309.898 29.0073C309.221 27.5559 311.273 28.562 311.101 27.8637C311.195 28.0452 311.429 28.3421 311.612 28.606C313.106 28.8149 315.945 29.1338 316.778 28.672C316.778 28.672 315.491 27.6878 314.028 26.4838C312.565 25.2797 310.919 23.8612 310.263 23.0145C312.299 23.8557 310.851 22.998 310.518 22.4812L310.315 22.7561C309.112 22.1513 309.263 21.3706 308.664 21.0298C308.654 21.0902 308.659 21.1727 308.659 21.2552L308.763 21.1672C308.794 21.3157 308.742 21.4036 308.659 21.4696C308.643 21.64 308.56 21.761 308.216 21.64L308.3 21.5741C307.742 21.5796 306.847 21.2717 306.456 21.1397L306.571 20.4855C305.982 21.0078 304.477 20.2161 302.951 19.2539C301.425 18.2863 299.868 17.1537 299.222 17.0437C298.061 15.9991 296.29 16.7633 294.738 16.0761C292.192 15.4328 293.587 14.905 292.374 14.1188C290.812 13.4371 292.593 14.938 291.937 14.872C291.937 14.872 291.484 14.5641 291.03 14.2508C290.577 13.9374 290.119 13.6405 290.119 13.6405C291.26 13.7284 290.702 13.2446 290.531 12.9532C288.864 12.6069 286.354 11.0234 285.672 12.2605C283.479 11.3093 283.531 10.787 282.563 10.5836C282.859 10.8695 283.484 11.1774 283.458 11.4413C282.615 10.7321 283.005 11.5238 283.365 11.7052C282.635 11.9031 280.906 11.0179 279.292 10.3362C277.678 9.64895 276.183 9.08816 275.959 9.7919L275.985 9.528C275.548 10.5671 275.949 11.6722 274.918 12.1505L274.324 11.5952L273.303 11.9416C272.689 11.5128 273.038 11.2654 273.048 11.1334C271.407 11.4523 269.257 10.5671 267.34 10.2537L269.095 13.3931C267.543 12.5464 264.741 10.8915 264.335 11.8042L263.45 10.7211C260.357 8.51637 261.106 11.3203 259.857 10.6221L258.31 9.38505L259.935 9.56098C258.352 8.85724 257.727 8.4339 256.482 7.63669C256.482 7.64769 256.466 7.65318 256.466 7.66418C256.555 7.71366 256.607 7.77414 256.612 7.84012L256.383 7.84561C256.143 8.36792 255.263 8.66481 254.118 8.53836C252.498 8.25796 251.165 8.94521 248.639 7.5982L247.915 8.64832L246.004 7.83462L246.061 6.95494C247.972 7.15837 251.607 7.11988 254.076 7.27382L254.149 6.87797C252.685 6.76251 250.993 7.01542 250.035 6.85048C249.576 6.63606 248.431 5.62993 249.347 5.10762L248.384 5.89383C243.488 5.60794 243.462 5.6959 238.416 4.3544L238.833 4.82173C237.807 5.01416 236.786 5.20109 236.541 4.46986C233.484 4.10699 230.344 3.43074 228.401 2.19919L227.917 3.21082C227.271 3.11735 226.37 1.50645 225.99 2.93592L224.589 3.32078C223.709 3.19433 223.142 3.76062 222.157 3.11185C222.157 3.10636 222.152 3.10636 222.152 3.10636C222.09 3.06787 222.027 3.02389 221.965 2.97441C221.965 3.00739 221.97 3.03488 221.97 3.06237C219.986 2.52357 221.954 3.99153 219.684 3.30428C218.975 2.54007 218.819 4.58531 217.715 4.30492L216.647 2.77648C214.653 1.84182 214.257 3.32078 211.325 3.20532C209.935 2.62254 209.294 1.32501 210.263 0.236413C208.935 1.55043 209.653 1.10509 207.93 1.70437C207.685 1.13808 207.867 1.02262 208.258 0.533304C206.763 -0.164939 207.31 1.01163 206.169 0.945653C205.81 1.99027 205.383 3.66165 205.008 3.71663L205.44 4.05751C204.222 4.58531 202.899 4.81073 201.514 4.23894L201.581 3.71113L200.087 3.93655L200.035 3.2658L197.905 3.41424L198.191 3.60667C197.691 3.67815 196.045 3.87607 195.113 3.50771L195.155 3.13385C192.53 1.9078 190.322 3.40325 187.223 3.46922L187.64 2.705C186.598 1.91879 187.333 3.88157 186.083 3.47472L186.036 2.52907C184.911 3.74962 184.609 2.23768 183.849 1.75935L184.187 3.0019L182.755 2.727C181.177 2.29816 181.802 1.14908 182.042 0.505814L180.953 1.46796L180.755 0.373863C179.953 1.6384 179.969 0.159441 178.578 0.830195C178.469 0.417846 178.818 0.181433 178.354 0L176.063 1.51744L177.443 0.846689L177.261 2.4411C175.823 3.63966 175.329 2.24318 174.303 2.68301L175.011 2.21569C173.345 2.58405 173.256 1.9023 172.319 1.53943C172.61 1.83633 173.053 2.28716 172.376 2.48509C171.881 2.57305 172.11 1.92429 171.642 1.74286C171.522 2.80947 170.329 3.37026 169.246 2.86445C169.262 2.7105 169.282 2.56756 169.355 2.46859C169.079 2.63903 168.934 2.91393 168.454 2.65552L168.741 1.47346L167.809 2.59505C167.194 2.27067 166.288 3.12285 166.371 2.32564L166.725 2.08923L162.049 1.79234L161.986 0.846689C161.523 2.14971 159.435 0.346373 159.591 1.97377C158.705 1.0886 156.117 2.61704 156.633 0.780713C153.555 0.654259 151.904 2.42461 148.165 1.55043C146.826 0.00549784 143.181 0.549798 140.78 0.412348C136.098 1.10509 133.078 1.74836 128.302 2.33114C125.386 0.197927 121.136 3.21632 118.017 2.06174L117.189 2.94142C115.101 1.61091 111.997 3.36476 109.075 2.11122C108.377 2.50708 108.008 2.63903 107.846 2.67202C107.976 2.7105 108.179 2.86994 108.257 3.41424C107.424 3.05138 105.768 3.57918 105.857 2.48509L106.065 2.36413C106.159 1.26454 103.576 2.94692 102.633 2.02326L103.169 3.18333L101.602 3.02939L102.013 2.79297C95.3109 5.61893 92.1289 1.98477 85.8431 4.60731C86.6451 3.29879 84.6089 5.32754 84.4787 3.93105C82.8122 2.23768 81.5154 4.42037 80.2187 4.94268C80.2187 5.00866 80.2083 5.09113 80.1354 5.20109L77.8283 5.12961C79.1355 3.30429 76.2243 6.66355 77.4325 5.10762C71.3863 4.03002 63.611 5.72889 56.643 5.47049L56.9659 5.91033C55.2004 5.91033 53.0392 6.57558 51.6695 5.92132C50.2999 5.26706 48.8052 7.22984 48.2897 7.3288C46.8627 8.18649 45.4566 6.71303 46.092 6.75152C44.5348 7.0539 43.1496 8.75278 40.9415 8.18099C40.1186 6.72403 35.0983 10.0008 34.9421 8.31844L34.9265 8.46139C32.0778 7.44426 29.5728 9.62696 26.5107 8.75278C26.5107 8.75278 26.5627 8.62633 26.6565 8.50537L20.8862 14.0418L22.9746 19.5453L28.4896 23.7623C28.4896 23.7623 32.0257 23.2894 35.5618 22.8166C39.1031 22.3603 42.6444 21.9039 42.6444 21.9039L54.086 23.075C54.086 23.075 60.9863 22.5857 67.8918 22.1019C74.7974 21.651 81.7029 21.2057 81.7029 21.2057L83.635 19.8587C89.1449 21.8655 96.0296 19.0725 101.935 20.4745L102.029 19.3749C103.68 19.2649 103.586 19.9467 103.998 20.1226C119.34 19.4189 135.14 17.676 148.967 18.957C150.3 19.6773 154.352 19.2319 155.399 19.9906C159.877 18.6162 164.632 18.6601 169.121 18.8086L168.949 18.9295L171.064 18.7261C171.152 18.8141 171.163 18.946 171.095 19.0285C173.485 18.0664 177.235 19.078 180.151 19.5013L179.979 19.6168C196.983 20.0291 212.856 18.4402 229.615 20.8703C237.333 23.0585 246.551 21.2332 255.367 23.4709C256.149 24.0537 261.039 24.6309 265.944 24.9663C267.174 25.0433 268.397 25.1313 269.553 25.2247C270.715 25.3072 271.808 25.3732 272.777 25.4226C274.709 25.5216 276.141 25.5436 276.548 25.4611Z" fill="#2CB44E"/>
<path d="M302.842 28.1549L302.774 28.1494C302.696 28.6017 302.827 28.4473 302.842 28.1549Z" fill="#2CB44E"/>
<path d="M267.221 10.2372C267.262 10.2427 267.299 10.2537 267.34 10.2592L266.95 9.56641L267.221 10.2372Z" fill="#2CB44E"/>
<path d="M291.541 12.9642C290.473 12.6343 290.406 12.7498 290.536 12.9532C290.921 13.0412 291.27 13.0687 291.541 12.9642Z" fill="#2CB44E"/>
<path d="M311.482 29.1336C312.013 29.2986 311.867 28.9797 311.612 28.6058C311.049 28.5234 310.659 28.4629 310.659 28.4629C310.935 28.6388 311.19 28.9522 311.482 29.1336Z" fill="#2CB44E"/>
<path d="M310.513 22.4822L310.764 22.1567C310.419 22.1678 310.403 22.3001 310.513 22.4822Z" fill="#2CB44E"/>
<path d="M80.5339 15.9542C80.4181 15.9216 80.3602 15.9922 80.5339 15.9542V15.9542Z" fill="#2CB44E"/>
<path d="M171.272 14.2692C171.306 14.2746 171.325 14.2638 171.359 14.2692C171.431 14.0525 171.494 13.8684 171.556 13.7275L171.272 14.2692Z" fill="#2CB44E"/>
<path d="M185.855 16.2035C185.889 16.2253 185.913 16.2416 185.942 16.2633C185.937 16.1383 185.961 16.0079 185.855 16.2035Z" fill="#2CB44E"/>
<path d="M137.587 15.6506C137.461 15.6397 137.389 15.6832 137.336 15.7538C137.413 15.7104 137.485 15.6669 137.587 15.6506Z" fill="#2CB44E"/>
<path d="M53.8839 18.0832C53.8839 18.0832 53.9225 18.0724 53.9466 18.0615C53.8935 18.018 53.8404 17.9909 53.7874 17.9365L53.8839 18.0832Z" fill="#2CB44E"/>
<path d="M54.1622 17.6982C54.4893 17.8445 54.0853 18.007 53.9458 18.0612C54.3113 18.3374 54.6672 18.3483 55.0184 18.1966C55.0039 17.8607 54.3306 17.942 54.1622 17.6982Z" fill="#2CB44E"/>
<path d="M5.55615 21.7073L5.69608 21.5605C5.63818 21.604 5.59475 21.6529 5.55615 21.7073Z" fill="#2CB44E"/>
<path d="M138.938 32.0747C138.865 32.1073 138.783 32.1182 138.721 32.1562C138.832 32.1671 138.894 32.129 138.938 32.0747Z" fill="#2CB44E"/>
<path d="M13.2085 21.528L13.2662 20.9917C13.2037 21.2138 13.1941 21.3817 13.2085 21.528Z" fill="#2CB44E"/>
<path d="M171.561 13.7231L171.672 13.5166C171.633 13.5655 171.599 13.6416 171.561 13.7231Z" fill="#2CB44E"/>
<path d="M199.346 17.3247C199.341 17.4872 199.365 17.6172 199.399 17.731C199.418 17.731 199.428 17.7364 199.437 17.7364L199.346 17.3247Z" fill="#2CB44E"/>
<path d="M265.989 34.4691C265.993 34.4041 265.998 34.3336 265.989 34.2578L265.657 34.572C265.806 34.5666 265.912 34.5341 265.989 34.4691Z" fill="#2CB44E"/>
<path d="M217.714 21.0624C217.733 21.0028 217.781 20.9486 217.791 20.8836C217.488 20.6778 216.656 20.5694 215.588 20.499L215.478 21.1436L217.714 21.0624Z" fill="#2CB44E"/>
<path d="M236.337 38.4071L234.553 36.8633C236.111 36.9121 237.453 37.0367 238.665 37.2263C239.877 37.4321 240.964 37.6705 242.027 37.8925C244.148 38.3476 246.178 38.6726 248.857 38.6021L248.529 38.8297C248.89 39.0463 249.27 38.4505 250.554 38.4288C251.199 38.418 252.065 38.5534 253.262 39.003C253.863 39.2305 254.542 39.5338 255.321 39.9401C255.71 40.1459 256.119 40.3735 256.557 40.628C256.99 40.8935 257.447 41.1968 257.927 41.5272L257.908 41.6572C258.197 41.6952 258.24 41.4406 258.755 41.9064L257.451 40.8122C258.36 40.6714 259.212 40.2164 260.371 40.3735C260.592 40.5685 260.63 40.8501 260.621 41.0614L263.463 41.446L264.175 42.4589C265.113 42.1935 265.055 40.341 267.138 41.901C266.513 40.471 268.408 41.4622 268.249 40.7743C268.336 40.9531 268.552 41.2456 268.72 41.5056C270.101 41.7114 272.722 42.0256 273.491 41.5706C273.491 41.5706 272.304 40.601 270.952 39.4147C269.6 38.2284 268.081 36.8308 267.475 35.9967C269.355 36.8254 268.018 35.9804 267.71 35.4712L267.523 35.7421C266.412 35.1462 266.551 34.377 265.998 34.0412C265.988 34.1008 265.993 34.182 265.993 34.2633L266.089 34.1766C266.118 34.3228 266.07 34.4095 265.993 34.4745C265.979 34.6424 265.902 34.7616 265.584 34.6424L265.661 34.5774C265.147 34.5829 264.319 34.2795 263.959 34.1495L264.065 33.5049C263.521 34.0195 262.131 33.2395 260.722 32.2915C259.313 31.3382 257.875 30.2223 257.278 30.114C256.206 29.0848 254.57 29.8377 253.137 29.1606C250.785 28.5268 252.074 28.0068 250.954 27.2322C249.511 26.5605 251.156 28.0393 250.549 27.9743C250.549 27.9743 250.131 27.671 249.713 27.3622C249.294 27.0535 248.871 26.7609 248.871 26.7609C249.924 26.8476 249.41 26.3709 249.251 26.0838C247.712 25.7426 245.394 24.1825 244.764 25.4013C242.739 24.4642 242.787 23.9496 241.892 23.7492C242.166 24.0309 242.743 24.3342 242.719 24.5942C241.94 23.8954 242.301 24.6755 242.633 24.8542C241.959 25.0492 240.363 24.1771 238.872 23.5054C237.381 22.8283 236 22.2758 235.794 22.9692L235.818 22.7092C235.414 23.7329 235.784 24.8217 234.832 25.293L234.283 24.7459L233.341 25.0871C232.773 24.6646 233.095 24.4209 233.105 24.2909C231.59 24.605 229.604 23.7329 227.834 23.4242L229.454 26.5172C228.021 25.683 225.434 24.0525 225.058 24.9517L224.241 23.8846C221.384 21.7125 222.076 24.475 220.922 23.7871L219.494 22.5683L220.994 22.7417C219.532 22.0483 218.955 21.6312 217.805 20.8458C217.805 20.8566 217.791 20.862 217.791 20.8728C217.873 20.9216 217.921 20.9812 217.926 21.0462L217.714 21.0516C217.493 21.5662 216.68 21.8587 215.622 21.7341C214.126 21.4579 212.895 22.135 210.562 20.8078L209.894 21.8425L208.128 21.0408L208.181 20.1741C209.947 20.3745 213.304 20.3366 215.583 20.4883L215.651 20.0982C214.299 19.9845 212.736 20.2337 211.851 20.0712C211.428 19.8599 210.37 18.8686 211.216 18.354L210.326 19.1286C205.805 18.847 205.781 18.9336 201.121 17.6119L201.506 18.0723C200.558 18.2619 199.615 18.4461 199.389 17.7257C196.566 17.3682 193.666 16.7019 191.872 15.4885L191.425 16.4852C190.828 16.3931 189.996 14.806 189.645 16.2144L188.351 16.5935C187.538 16.469 187.014 17.0269 186.105 16.3877C186.105 16.3823 186.1 16.3823 186.1 16.3823C186.043 16.3444 185.985 16.301 185.927 16.2523C185.927 16.2848 185.932 16.3119 185.932 16.339C184.1 15.8081 185.918 17.2544 183.821 16.5773C183.166 15.8244 183.022 17.8394 182.003 17.5632L181.017 16.0573C179.174 15.1364 178.809 16.5935 176.101 16.4798C174.817 15.9056 174.225 14.6272 175.12 13.5547C173.893 14.8493 174.557 14.4106 172.965 15.001C172.739 14.4431 172.907 14.3293 173.268 13.8472C171.888 13.1593 172.393 14.3185 171.34 14.2535C171.008 15.2827 170.613 16.9294 170.267 16.9836L170.666 17.3194C169.541 17.8394 168.319 18.0615 167.04 17.4982L167.102 16.9781L165.722 17.2002L165.674 16.5394L163.707 16.6856L163.971 16.8752C163.509 16.9456 161.99 17.1406 161.129 16.7777L161.167 16.4094C158.743 15.2014 156.704 16.6748 153.842 16.7398L154.227 15.9869C153.265 15.2123 153.943 17.1461 152.789 16.7452L152.745 15.8135C151.707 17.0161 151.428 15.5264 150.725 15.0552L151.038 16.2794L149.715 16.0085C148.258 15.586 148.835 14.4539 149.056 13.8201L148.051 14.7681L147.869 13.6901C147.128 14.936 147.142 13.4789 145.858 14.1397C145.757 13.7335 146.079 13.5005 145.651 13.3218L143.535 14.8168L144.81 14.156L144.641 15.7269C143.314 16.9077 142.857 15.5318 141.909 15.9652L142.563 15.5048C141.024 15.8677 140.943 15.196 140.077 14.8385C140.346 15.131 140.755 15.5752 140.13 15.7702C139.673 15.8569 139.885 15.2177 139.452 15.0389C139.341 16.0898 138.24 16.6423 137.239 16.1439C137.254 15.9923 137.273 15.8514 137.34 15.7539C137.085 15.9219 136.951 16.1927 136.508 15.9381L136.773 14.7735L135.912 15.8785C135.344 15.5589 134.507 16.3985 134.584 15.6131L134.911 15.3802L130.592 15.0877L130.535 14.156C130.106 15.4398 128.178 13.663 128.322 15.2664C127.504 14.3943 125.114 15.9002 125.59 14.091C122.748 13.9664 121.223 15.7106 117.77 14.8493C116.534 13.3272 113.167 13.8635 110.95 13.728C106.626 14.4106 103.836 15.0443 99.4258 15.6185C96.7324 13.5168 92.8077 16.4906 89.9268 15.3531L89.162 16.2198C87.2334 14.9089 84.3668 16.6369 81.6686 15.4018C81.0241 15.7919 80.6826 15.9219 80.5335 15.9544C80.6538 15.9923 80.8414 16.1494 80.9135 16.6856C80.144 16.3281 78.6145 16.8481 78.6963 15.7702L78.8886 15.651C78.9752 14.5676 76.5896 16.2252 75.7191 15.3152L76.2145 16.4581L74.7668 16.3065L75.1467 16.0735C68.9567 18.8578 66.018 15.2773 60.2128 17.8611C60.9535 16.5719 59.0729 18.5707 58.9527 17.1948C57.4136 15.5264 56.216 17.6769 55.0184 18.1915C55.0184 18.2565 55.0088 18.3378 54.9414 18.4461L52.8108 18.3757C54.018 16.5773 51.3294 19.887 52.4452 18.354C46.8612 17.2923 39.6805 18.9661 33.2452 18.7115L33.5434 19.1449C31.9129 19.1449 29.9169 19.8003 28.652 19.1557C27.387 18.5111 26.0066 20.4449 25.5305 20.5424C24.2127 21.3874 22.9141 19.9357 23.5008 19.9737C22.0627 20.2716 20.7834 21.9454 18.7441 21.382C17.989 19.9574 13.3525 23.1858 13.2082 21.5283L13.1938 21.6691C10.5629 20.667 8.24946 22.8175 5.4262 21.9508C5.4262 21.9508 5.4743 21.8262 5.56087 21.707L0.222168 27.1564L2.15083 32.5786L7.24424 36.7333C7.24424 36.7333 10.51 36.2675 13.7757 35.8016C17.0463 35.352 20.3168 34.9025 20.3168 34.9025L30.8836 36.0562C30.8836 36.0562 37.2564 35.5741 43.634 35.0975C50.0116 34.6533 56.3891 34.2145 56.3891 34.2145L58.1735 32.8874C63.2621 34.8645 69.6205 32.1128 75.0746 33.4941L75.1612 32.4107C76.6858 32.3024 76.5993 32.9741 76.9792 33.1474C91.1484 32.454 105.741 30.7369 118.51 31.999C119.742 32.7086 123.484 32.2699 124.45 33.0174C128.587 31.6632 132.978 31.7065 137.124 31.8528L136.965 31.9719L138.918 31.7715C139 31.8582 139.009 31.9882 138.947 32.0694C141.154 31.1215 144.617 32.1182 147.311 32.5353L147.152 32.649C162.855 33.0553 177.515 31.4898 192.993 33.8841C200.12 36.04 208.633 34.2416 216.776 36.4462C217.498 37.0204 222.014 37.5892 226.545 37.9196C227.68 37.9955 228.81 38.0821 229.878 38.1742C230.95 38.2555 231.96 38.3205 232.855 38.3692C234.639 38.4667 235.962 38.4884 236.337 38.4071Z" fill="#2CB44E"/>
<path d="M260.621 41.0611L260.559 41.0557C260.486 41.5013 260.607 41.3491 260.621 41.0611Z" fill="#2CB44E"/>
<path d="M227.723 23.4074C227.761 23.4129 227.795 23.4237 227.833 23.4291L227.473 22.7466L227.723 23.4074Z" fill="#2CB44E"/>
<path d="M250.184 26.0944C249.198 25.7694 249.135 25.8832 249.255 26.0836C249.611 26.1703 249.934 26.1974 250.184 26.0944Z" fill="#2CB44E"/>
<path d="M268.6 42.0251C269.091 42.1876 268.956 41.8734 268.721 41.5051C268.201 41.4238 267.84 41.3643 267.84 41.3643C268.095 41.5376 268.331 41.8464 268.6 42.0251Z" fill="#2CB44E"/>
<path d="M267.706 35.472L267.937 35.1514C267.619 35.1622 267.604 35.2927 267.706 35.472Z" fill="#2CB44E"/>
<path d="M72.6604 7.5934C71.8847 7.22866 70.9806 7.03857 69.9736 7.03857C68.4633 7.03857 67.1379 7.36736 66.0231 8.01466L66.208 7.13618H58.3839L57.0739 13.2958C56.7246 13.003 56.3444 12.741 55.918 12.5201C54.9625 12.032 53.8579 11.7854 52.6404 11.7854C50.8835 11.7854 49.3577 12.145 48.0836 12.8489L48.808 9.44797L47.3593 8.67223C46.6555 8.29721 45.89 8.0198 45.0732 7.85027C44.318 7.69101 43.4498 7.61395 42.4942 7.61395C40.4599 7.61395 38.7183 8.10713 37.3056 9.07808C35.7952 10.121 34.8397 11.5286 34.4647 13.2701L34.4544 13.3318C34.3671 13.8095 34.3208 14.2205 34.3208 14.5904C34.3208 15.4946 34.5571 16.3525 35.0041 17.1077L33.7403 16.373L32.1323 23.8889L33.4783 24.6903C34.1718 25.1013 35.0144 25.4044 36.0624 25.615C36.9922 25.8 37.9632 25.8976 38.9392 25.8976C41.3075 25.8976 43.1261 25.4404 44.5029 24.4951C44.8214 24.2742 45.1143 24.0276 45.3865 23.7605C45.6229 24.0173 45.8797 24.2639 46.1726 24.4797C47.4312 25.4198 49.0597 25.8976 51.0068 25.8976C51.8595 25.8976 52.7226 25.8257 53.5703 25.687C53.8888 25.6356 54.1867 25.5739 54.4693 25.5123L54.4487 25.6099H60.033H62.2677H67.8571L69.3058 18.7824H71.4224L72.1621 15.325L72.6604 15.6024L74.217 8.34859L72.6604 7.5934Z" fill="white"/>
<path d="M137.766 11.7907C135.706 11.7907 133.928 12.4072 132.49 13.6196C132.397 13.6966 132.31 13.7839 132.223 13.8661C132.069 13.6504 131.904 13.4449 131.714 13.2497C131.057 12.5818 129.86 11.7907 127.892 11.7907C127.209 11.7907 126.525 11.8883 125.852 12.0784H122.364C122.395 11.9808 122.426 11.8831 122.452 11.7804L122.472 11.6879L122.487 11.5955C122.529 11.2975 122.549 11.1023 122.549 10.9276C122.549 9.91556 122.174 9.02681 121.46 8.34355C120.777 7.69111 119.893 7.35205 118.897 7.35205C118.126 7.35205 117.391 7.55241 116.713 7.94798C116.066 8.32814 115.537 8.84187 115.146 9.47889C114.73 10.157 114.52 10.9019 114.52 11.6931C114.52 11.8266 114.525 11.9551 114.54 12.0835H114.458H110.076L109.249 13.4552L109.007 12.0835H105.267C105.298 11.9859 105.329 11.8883 105.355 11.7855L105.375 11.6931L105.391 11.6006C105.432 11.3026 105.452 11.1074 105.452 10.9327C105.452 9.9207 105.077 9.03195 104.363 8.34869C103.68 7.69625 102.796 7.35719 101.8 7.35719C101.029 7.35719 100.294 7.55754 99.6163 7.95312C98.969 8.33328 98.4398 8.847 98.0494 9.48403C97.6333 10.1622 97.4226 10.9071 97.4226 11.6982C97.4226 11.7958 97.4278 11.8883 97.438 11.9808C97.1041 12.0013 96.7753 12.0321 96.4517 12.0886H90.8983C90.7904 11.8677 90.6722 11.6468 90.5387 11.4362C89.8194 10.2957 88.8074 9.40697 87.5385 8.79049C86.3415 8.20998 84.9647 7.91202 83.4595 7.91202H76.9043L73.1592 25.61H80.8703C83.1718 25.61 85.1753 25.1014 86.8449 24.1099L86.5264 25.61H94.3505L95.6862 19.25C95.7325 19.2243 95.7992 19.1987 95.8609 19.1781L94.4944 25.6151H102.318L103.197 21.4796L104.05 25.6151H110.22L112.3 22.3221L111.602 25.6151H116.785H119.421H130.147L129.551 28.4047L131.092 29.1496C131.663 29.427 132.325 29.6325 133.122 29.7866C133.851 29.9253 134.601 29.9973 135.346 29.9973C137.165 29.9973 138.655 29.7455 139.898 29.2267C141.233 28.6667 142.297 27.8499 143.047 26.7864C143.73 25.8258 144.229 24.6391 144.537 23.2468L146.91 12.0835H139.826C139.22 11.8986 138.547 11.7907 137.766 11.7907ZM82.5604 18.1096L83.1975 15.1094C83.4954 15.1145 83.6804 15.1402 83.7882 15.1659C83.7934 15.2121 83.7985 15.2738 83.7985 15.3611C83.7985 15.5152 83.778 15.7926 83.6958 16.2036C83.5262 16.9639 83.2386 17.5239 82.8173 17.9092C82.7505 17.976 82.6683 18.0428 82.5604 18.1096Z" fill="white"/>
<path d="M182.999 12.0781H178.787H175.941H171.764C171.122 11.888 170.418 11.7904 169.663 11.7904C168.553 11.7904 167.5 12.0062 166.519 12.412L167.022 10.0643L165.897 9.22688C165.132 8.65664 164.248 8.23538 163.272 7.97338C162.378 7.73193 161.346 7.61377 160.21 7.61377C158.371 7.61377 156.686 7.96311 155.191 8.65664C153.66 9.36559 152.371 10.4033 151.369 11.739C150.393 13.0388 149.71 14.5697 149.34 16.3009C149.196 16.9842 149.119 17.6572 149.119 18.3045C149.119 19.8148 149.499 21.1762 150.244 22.3475C150.984 23.5137 152.006 24.4127 153.28 25.0241C154.477 25.5943 155.813 25.8871 157.256 25.8871C159.594 25.8871 161.628 25.3837 163.318 24.3973C164.433 25.3837 165.872 25.8871 167.587 25.8871C168.332 25.8871 169.046 25.7895 169.73 25.5994H173.069H175.915H180.898L182.234 19.2395C182.301 19.2035 182.383 19.1675 182.486 19.1316C182.953 18.9723 183.487 18.8901 184.078 18.8901H185.845L187.335 11.9496H184.633C184.073 11.9445 183.528 11.9856 182.999 12.0781ZM161.803 17.4414C161.269 17.7908 160.714 18.0425 160.159 18.2017C159.584 18.361 158.936 18.4432 158.222 18.4432C157.462 18.4432 157.092 18.3456 156.964 18.3045C156.958 18.2737 156.958 18.2274 156.958 18.1658C156.958 17.8986 157 17.5853 157.082 17.2102C157.231 16.5064 157.518 16.0081 157.976 15.6382C158.438 15.2683 159.054 15.0885 159.861 15.0885C160.555 15.0885 161.135 15.1605 161.582 15.2992C161.911 15.4019 162.173 15.5458 162.378 15.7512L162.558 15.9259C162.301 16.3831 162.08 16.866 161.906 17.3746L161.803 17.4414Z" fill="white"/>
<path d="M199.1 12.0576H191.959L191.502 14.1896H189.442L187.978 21.0787H190.032L189.575 23.2107H196.711L197.168 21.0787H199.233L200.692 14.1896H198.637L199.1 12.0576Z" fill="white"/>
<path d="M279.724 13.8764L278.574 13.0442C277.962 12.6024 277.228 12.2839 276.318 12.0681C275.537 11.8831 274.674 11.7907 273.745 11.7907C272.08 11.7907 270.595 12.1143 269.321 12.7513L269.347 12.6332C269.475 12.3609 269.573 12.0732 269.64 11.7804L269.66 11.6931L269.676 11.6006C269.717 11.3026 269.737 11.1074 269.737 10.9276C269.737 9.91556 269.362 9.02167 268.648 8.34355C267.965 7.69111 267.076 7.35205 266.085 7.35205C265.314 7.35205 264.58 7.55241 263.901 7.94798C263.306 8.29731 262.818 8.76994 262.437 9.33505H255.271L254.701 12.0784H253.411L253.401 12.1297C253.283 12.104 253.175 12.0732 253.051 12.0475C252.214 11.878 251.382 11.7958 250.586 11.7958C249.332 11.7958 248.3 11.9602 247.436 12.2325C247.488 12.0886 247.529 11.9345 247.565 11.7855L247.585 11.6982L247.601 11.6057C247.642 11.3078 247.662 11.1126 247.662 10.9327C247.662 9.9207 247.287 9.02681 246.573 8.34869C245.89 7.69625 245.001 7.35719 244.01 7.35719C243.239 7.35719 242.505 7.55754 241.827 7.95312C241.179 8.33328 240.65 8.847 240.26 9.48403C239.844 10.1622 239.628 10.9071 239.628 11.6982C239.628 11.8318 239.633 11.9602 239.648 12.0886H239.566H235.117C234.532 11.9088 233.859 11.8009 233.083 11.8009C231.023 11.8009 229.245 12.4174 227.807 13.6298C227.617 13.7891 227.442 13.9535 227.267 14.1281C227.041 13.8507 226.785 13.5887 226.497 13.3473C225.264 12.3198 223.625 11.8009 221.622 11.8009C219.31 11.8009 217.358 12.3969 215.816 13.5733C214.239 14.7754 213.232 16.3937 212.811 18.3972H210.992L213.222 7.91202H205.377L201.632 25.61H215.277L215.426 24.8856C216.546 25.5535 217.923 25.8977 219.541 25.8977C221.837 25.8977 223.789 25.3018 225.336 24.1253C225.516 23.9866 225.685 23.8479 225.85 23.6989L224.848 28.3996L226.389 29.1445C226.959 29.4219 227.622 29.6274 228.418 29.7815C229.148 29.9202 229.898 29.9921 230.643 29.9921C232.461 29.9921 233.951 29.7404 235.194 29.2215C236.53 28.6616 237.593 27.8447 238.343 26.7813C238.6 26.4217 238.821 26.021 239.022 25.6049H244.518L244.58 25.3223C244.945 25.4456 245.34 25.5535 245.782 25.6357C246.681 25.8052 247.58 25.8926 248.449 25.8926C250.406 25.8926 251.932 25.5381 253.118 24.8034C253.406 24.6288 253.663 24.4284 253.904 24.2178C254.038 24.3873 254.177 24.5363 254.31 24.6596C255.189 25.4764 256.391 25.8926 257.886 25.8926C258.564 25.8926 259.149 25.8463 259.679 25.7538C259.889 25.7179 260.095 25.6614 260.3 25.6049H266.593L266.855 24.3616C266.902 24.4027 266.948 24.4438 266.999 24.4849C268.212 25.4199 269.779 25.8926 271.649 25.8926C273.616 25.8926 275.332 25.5124 276.74 24.7572L277.633 24.2794L279.406 15.9724L279.267 16.0495L279.724 13.8764ZM274.068 18.7774C273.75 18.8596 273.426 18.9058 273.082 18.9161C273.282 18.8185 273.534 18.7723 273.858 18.7723C273.929 18.7723 274.001 18.7723 274.068 18.7774Z" fill="white"/>
<path d="M36.4992 23.4572C35.7029 23.2979 35.071 23.077 34.6035 22.7996L35.2508 19.7686C35.8622 20.1231 36.5197 20.3902 37.2235 20.57C37.9273 20.7498 38.6157 20.8372 39.2939 20.8372C39.9823 20.8372 40.5114 20.719 40.8864 20.4827C41.2615 20.2464 41.4515 19.9227 41.4515 19.5015C41.4515 19.183 41.2974 18.9158 40.9943 18.7001C40.6912 18.4843 40.1158 18.1863 39.2785 17.8062C38.3229 17.3746 37.6242 16.902 37.1824 16.3831C36.7355 15.8694 36.5146 15.2683 36.5146 14.58C36.5146 14.3488 36.5454 14.0662 36.6122 13.722C36.8639 12.5404 37.5164 11.59 38.5592 10.8708C39.6021 10.1516 40.9173 9.79199 42.5047 9.79199C43.3164 9.79199 44.0305 9.85364 44.6418 9.98207C45.2531 10.1105 45.8182 10.3109 46.3371 10.5934L45.7052 13.5474C44.724 12.9617 43.6657 12.6689 42.5201 12.6689C41.9088 12.6689 41.4053 12.7665 41.0046 12.9668C40.6039 13.1621 40.3573 13.4446 40.27 13.8145C40.2597 13.8659 40.2494 13.9378 40.2494 14.0251C40.2494 14.318 40.4138 14.5697 40.7374 14.7854C41.0611 15.0012 41.6416 15.2889 42.4841 15.6434C43.4756 16.0903 44.1897 16.5475 44.6212 17.0253C45.0528 17.5031 45.2685 18.0836 45.2685 18.772C45.2685 19.0648 45.2326 19.3936 45.1555 19.7635C44.8987 21.0221 44.277 21.9931 43.2856 22.6712C42.2941 23.3493 40.8505 23.6935 38.9599 23.6935C38.1123 23.6987 37.2955 23.6165 36.4992 23.4572Z" fill="url(#paint0_linear)"/>
<path d="M47.4926 22.7175C46.6142 22.0651 46.1775 21.1455 46.1775 19.964C46.1775 19.6198 46.2135 19.2601 46.2905 18.8748C46.6193 17.3388 47.318 16.1367 48.3763 15.2736C49.4397 14.4105 50.8576 13.979 52.6351 13.979C53.5136 13.979 54.2739 14.1434 54.9212 14.4722C55.5685 14.801 56.0668 15.2531 56.4058 15.8284C56.7449 16.4038 56.9196 17.0408 56.9196 17.7549C56.9196 18.058 56.8836 18.3817 56.8066 18.7259L56.5394 19.964H49.2393C49.2753 20.9298 50.1846 21.4127 51.9672 21.4127C52.5632 21.4127 53.1899 21.3613 53.8372 21.2586C54.4845 21.1558 55.0599 21.0171 55.5531 20.8373L55.0958 23.0515C54.5872 23.2415 53.9656 23.3957 53.2259 23.519C52.4861 23.6371 51.7515 23.6988 51.0117 23.6988C49.5424 23.6988 48.366 23.37 47.4926 22.7175ZM53.8218 17.8628C53.8321 17.7857 53.8423 17.683 53.8423 17.5597C53.8423 17.1384 53.7088 16.8199 53.4416 16.6042C53.1745 16.3884 52.7224 16.2805 52.0905 16.2805C51.4792 16.2805 50.9654 16.4244 50.5442 16.7069C50.1229 16.9895 49.8404 17.3799 49.6863 17.8628H53.8218V17.8628Z" fill="url(#paint1_linear)"/>
<path d="M60.1513 9.31934H63.5059L60.5109 23.4109H57.1562L60.1513 9.31934Z" fill="url(#paint2_linear)"/>
<path d="M64.1941 16.5888H62.9149L63.4081 14.2616H64.6873L64.9184 13.116C65.1959 11.8471 65.7712 10.8813 66.6343 10.2185C67.4974 9.55584 68.6122 9.22705 69.9684 9.22705C70.6568 9.22705 71.2373 9.34007 71.7202 9.57125L71.15 12.2426C70.8315 12.0628 70.4513 11.9755 70.0044 11.9755C69.4444 11.9755 69.0334 12.0834 68.7663 12.2992C68.4991 12.5149 68.3142 12.8848 68.2114 13.4037L68.0419 14.2616H70.1585L69.6653 16.5888H67.5487L66.1 23.4163H62.7454L64.1941 16.5888Z" fill="url(#paint3_linear)"/>
<path d="M78.6609 10.085H83.4489C84.6305 10.085 85.6733 10.3059 86.5775 10.7425C87.4817 11.1792 88.1804 11.7957 88.6838 12.592C89.1873 13.3882 89.439 14.3027 89.439 15.3456C89.439 15.8028 89.3927 16.2497 89.3054 16.6812C88.8585 18.916 87.9081 20.601 86.4542 21.7261C85.0004 22.8511 83.1355 23.4111 80.8597 23.4111H75.8457L78.6609 10.085ZM81.4094 20.5702C82.5653 20.5702 83.526 20.226 84.2863 19.5324C85.0466 18.8389 85.5655 17.8885 85.8326 16.6812C85.9354 16.1727 85.9867 15.736 85.9867 15.3661C85.9867 14.5904 85.7658 13.9893 85.3292 13.5629C84.8925 13.1365 84.163 12.9259 83.1458 12.9259H81.4299L79.8117 20.5702H81.4094Z" fill="url(#paint4_linear)"/>
<path d="M91.1497 14.2615H94.3913L94.1447 15.4071C94.5917 15.0013 95.1568 14.6879 95.8503 14.4619C96.5438 14.2409 97.2836 14.1279 98.0696 14.1279L97.5148 16.7017C96.6774 16.7017 95.9068 16.825 95.2081 17.0665C94.5095 17.3079 93.9957 17.6727 93.6618 18.1556L92.5573 23.4162H89.2026L91.1497 14.2615Z" fill="url(#paint5_linear)"/>
<path d="M99.1231 14.2617H102.478L100.531 23.4112H97.176L99.1231 14.2617ZM99.9964 12.6692C99.7293 12.4226 99.5957 12.0938 99.5957 11.6879C99.5957 11.3078 99.6984 10.9533 99.8988 10.6194C100.104 10.2906 100.371 10.0235 100.71 9.82824C101.05 9.63302 101.404 9.53027 101.789 9.53027C102.221 9.53027 102.575 9.6587 102.848 9.92071C103.12 10.1827 103.259 10.5166 103.259 10.9225C103.259 10.9841 103.248 11.1074 103.223 11.2872C103.11 11.7804 102.842 12.2017 102.421 12.5356C102 12.8747 101.543 13.039 101.05 13.039C100.613 13.039 100.264 12.9158 99.9964 12.6692Z" fill="url(#paint6_linear)"/>
<path d="M103.926 14.2617H107.168L108.103 19.5788L111.308 14.2617H114.776L108.997 23.4112H105.811L103.926 14.2617Z" fill="url(#paint7_linear)"/>
<path d="M116.225 14.2617H119.58L117.632 23.4112H114.278L116.225 14.2617ZM117.098 12.6692C116.831 12.4226 116.697 12.0938 116.697 11.6879C116.697 11.3078 116.8 10.9533 117.001 10.6194C117.206 10.2906 117.473 10.0235 117.812 9.82824C118.151 9.63302 118.506 9.53027 118.891 9.53027C119.323 9.53027 119.677 9.6587 119.949 9.92071C120.222 10.1827 120.36 10.5166 120.36 10.9225C120.36 10.9841 120.35 11.1074 120.324 11.2872C120.211 11.7804 119.944 12.2017 119.523 12.5356C119.102 12.8747 118.645 13.039 118.151 13.039C117.715 13.039 117.365 12.9158 117.098 12.6692Z" fill="url(#paint8_linear)"/>
<path d="M121.408 14.2616H124.65L124.419 15.2736C124.912 14.8421 125.462 14.5184 126.068 14.3027C126.669 14.0869 127.28 13.979 127.887 13.979C128.868 13.979 129.623 14.2513 130.157 14.7907C130.692 15.3301 130.959 16.0134 130.959 16.8405C130.959 17.0973 130.928 17.3799 130.861 17.6984L129.664 23.4111H126.309L127.414 18.1299C127.465 17.9244 127.491 17.7241 127.491 17.5186C127.491 17.2155 127.404 16.9843 127.224 16.8251C127.044 16.6658 126.751 16.5887 126.345 16.5887C125.914 16.5887 125.498 16.6915 125.097 16.8918C124.696 17.0973 124.332 17.3953 124.003 17.7857L122.821 23.4111H119.467L121.408 14.2616Z" fill="url(#paint9_linear)"/>
<path d="M133.517 27.6239C132.921 27.5109 132.423 27.3568 132.027 27.1667L132.52 24.8395C133.424 25.271 134.513 25.4868 135.798 25.4868C136.728 25.4868 137.437 25.2967 137.935 24.9166C138.428 24.5364 138.757 23.9764 138.906 23.2367L139.039 22.6818C138.592 23.0004 138.084 23.2469 137.503 23.4267C136.923 23.6066 136.332 23.6939 135.721 23.6939C134.945 23.6939 134.257 23.5398 133.65 23.2367C133.044 22.9336 132.577 22.4969 132.238 21.9318C131.899 21.3667 131.734 20.7143 131.734 19.9796C131.734 19.584 131.78 19.2039 131.868 18.834C132.171 17.3493 132.849 16.1626 133.887 15.2893C134.93 14.4108 136.219 13.9741 137.755 13.9741C139.05 13.9741 140.041 14.3748 140.73 15.1762L140.94 14.2618H144.182L142.368 22.7846C142.127 23.8788 141.747 24.7881 141.233 25.5125C140.719 26.2368 139.98 26.7968 139.019 27.1975C138.058 27.5982 136.825 27.7986 135.31 27.7986C134.719 27.7986 134.113 27.7421 133.517 27.6239ZM138.598 20.704C139.06 20.4368 139.425 20.0824 139.692 19.6354L140.015 18.0326C139.928 17.5856 139.712 17.2363 139.368 16.9743C139.024 16.7123 138.598 16.5839 138.089 16.5839C137.401 16.5839 136.805 16.7842 136.296 17.1849C135.787 17.5856 135.464 18.1302 135.325 18.8135C135.263 19.1063 135.228 19.3477 135.228 19.5378C135.228 20.5807 135.854 21.0996 137.113 21.0996C137.642 21.1047 138.135 20.9711 138.598 20.704Z" fill="url(#paint10_linear)"/>
<path d="M154.22 23.0516C153.316 22.6201 152.607 21.9933 152.083 21.1713C151.559 20.3494 151.302 19.3938 151.302 18.2996C151.302 17.8064 151.359 17.2875 151.472 16.7533C151.775 15.3302 152.325 14.0921 153.111 13.0441C153.897 11.9961 154.899 11.1896 156.106 10.6347C157.313 10.0748 158.68 9.79736 160.205 9.79736C161.161 9.79736 161.993 9.89497 162.702 10.0851C163.411 10.2751 164.043 10.5731 164.588 10.9789L163.899 14.1795C163.442 13.7325 162.882 13.4089 162.219 13.2085C161.557 13.003 160.771 12.9054 159.856 12.9054C158.546 12.9054 157.462 13.2496 156.604 13.9329C155.746 14.6213 155.191 15.5614 154.935 16.7533C154.822 17.2619 154.765 17.7345 154.765 18.166C154.765 18.9777 155.027 19.5942 155.556 20.0052C156.085 20.4162 156.969 20.6268 158.217 20.6268C159.132 20.6268 159.974 20.5189 160.745 20.3031C161.515 20.0874 162.26 19.7432 162.985 19.2757L162.296 22.4608C160.925 23.2879 159.24 23.6989 157.246 23.6989C156.137 23.6989 155.125 23.4831 154.22 23.0516Z" fill="url(#paint11_linear)"/>
<path d="M164.7 22.7073C163.981 22.0446 163.622 21.1507 163.622 20.0205C163.622 19.7174 163.668 19.3269 163.755 18.8594C163.961 17.9039 164.341 17.0562 164.911 16.3165C165.476 15.5716 166.17 14.9962 166.987 14.5903C167.808 14.1845 168.697 13.979 169.663 13.979C170.3 13.979 170.865 14.0663 171.358 14.2461C171.852 14.4259 172.252 14.6777 172.56 15.0065L172.73 14.2616H176.085L174.138 23.4111H170.896L171.086 22.4966C170.059 23.2981 168.887 23.6988 167.577 23.6988C166.38 23.6988 165.415 23.37 164.7 22.7073ZM170.475 20.714C170.937 20.452 171.307 20.1027 171.569 19.6557L171.913 18.0375C171.836 17.5905 171.625 17.2412 171.276 16.9792C170.927 16.7172 170.495 16.5887 169.987 16.5887C169.298 16.5887 168.702 16.7942 168.194 17.2001C167.685 17.6059 167.356 18.1608 167.202 18.8594C167.151 19.0752 167.125 19.3115 167.125 19.5632C167.125 20.5907 167.752 21.1096 169.011 21.1096C169.524 21.1044 170.012 20.976 170.475 20.714Z" fill="url(#paint12_linear)"/>
<path d="M177.713 14.2615H180.955L180.708 15.4071C181.155 15.0013 181.72 14.6879 182.414 14.4619C183.107 14.2409 183.847 14.1279 184.633 14.1279L184.078 16.7017C183.241 16.7017 182.47 16.825 181.772 17.0665C181.073 17.3079 180.559 17.6727 180.225 18.1556L179.121 23.4162H175.766L177.713 14.2615Z" fill="url(#paint13_linear)"/>
<path d="M192.734 18.8956H190.674L191.209 16.3783H193.269L193.726 14.2412H196.397L195.94 16.3783H198L197.466 18.8956H195.406L194.949 21.0327H192.277L192.734 18.8956Z" fill="url(#paint14_linear)"/>
<path d="M207.149 10.085H210.525L208.295 20.5702H214.09L213.499 23.4111H204.329L207.149 10.085Z" fill="url(#paint15_linear)"/>
<path d="M216.079 22.6767C215.247 21.9986 214.831 21.079 214.831 19.9231C214.831 19.5789 214.867 19.2193 214.944 18.834C215.247 17.3596 215.981 16.1832 217.137 15.2995C218.293 14.4159 219.788 13.9741 221.617 13.9741C223.107 13.9741 224.263 14.3183 225.095 15.0119C225.927 15.7054 226.343 16.6301 226.343 17.786C226.343 18.1148 226.307 18.4641 226.23 18.834C225.912 20.3084 225.172 21.49 224.011 22.3685C222.85 23.2521 221.355 23.6939 219.541 23.6939C218.067 23.699 216.911 23.36 216.079 22.6767ZM221.838 20.4831C222.326 20.0824 222.65 19.5327 222.799 18.834C222.85 18.6182 222.876 18.3819 222.876 18.1302C222.876 17.1027 222.269 16.5839 221.062 16.5839C220.389 16.5839 219.809 16.7842 219.315 17.1849C218.827 17.5856 218.509 18.1353 218.37 18.834C218.309 19.1268 218.273 19.3734 218.273 19.5789C218.273 20.5858 218.874 21.0841 220.086 21.0841C220.769 21.0841 221.35 20.8838 221.838 20.4831Z" fill="url(#paint16_linear)"/>
<path d="M228.824 27.6239C228.228 27.5109 227.73 27.3568 227.339 27.1667L227.832 24.8395C228.737 25.271 229.826 25.4868 231.11 25.4868C232.04 25.4868 232.749 25.2967 233.247 24.9166C233.74 24.5364 234.069 23.9764 234.218 23.2367L234.352 22.6818C233.905 23.0004 233.396 23.2469 232.816 23.4267C232.235 23.6066 231.644 23.6939 231.033 23.6939C230.257 23.6939 229.569 23.5398 228.963 23.2367C228.362 22.9336 227.889 22.4969 227.55 21.9318C227.211 21.3667 227.046 20.7143 227.046 19.9796C227.046 19.584 227.093 19.2039 227.18 18.834C227.483 17.3493 228.161 16.1626 229.199 15.2893C230.242 14.4108 231.531 13.9741 233.067 13.9741C234.362 13.9741 235.353 14.3748 236.042 15.1762L236.252 14.2618H239.494L237.681 22.7846C237.439 23.8788 237.059 24.7881 236.545 25.5125C236.032 26.2368 235.292 26.7968 234.336 27.1975C233.376 27.5982 232.143 27.7986 230.627 27.7986C230.026 27.7986 229.425 27.7421 228.824 27.6239ZM233.905 20.704C234.367 20.4368 234.737 20.0824 234.999 19.6354L235.323 18.0326C235.235 17.5856 235.019 17.2363 234.675 16.9743C234.331 16.7123 233.905 16.5839 233.396 16.5839C232.708 16.5839 232.112 16.7842 231.603 17.1849C231.095 17.5856 230.771 18.1302 230.632 18.8135C230.571 19.1063 230.535 19.3477 230.535 19.5378C230.535 20.5807 231.161 21.0996 232.42 21.0996C232.949 21.1047 233.442 20.9711 233.905 20.704Z" fill="url(#paint17_linear)"/>
<path d="M241.334 14.2617H244.688L242.741 23.4112H239.387L241.334 14.2617ZM242.212 12.6692C241.945 12.4226 241.812 12.0938 241.812 11.6879C241.812 11.3078 241.914 10.9533 242.115 10.6194C242.32 10.2906 242.587 10.0235 242.926 9.82824C243.265 9.63302 243.62 9.53027 244.005 9.53027C244.437 9.53027 244.791 9.6587 245.063 9.92071C245.336 10.1827 245.474 10.5166 245.474 10.9225C245.474 10.9841 245.464 11.1074 245.438 11.2872C245.325 11.7804 245.058 12.2017 244.637 12.5356C244.216 12.8747 243.759 13.039 243.265 13.039C242.829 13.039 242.479 12.9158 242.212 12.6692Z" fill="url(#paint18_linear)"/>
<path d="M246.188 23.4779C245.417 23.334 244.832 23.1234 244.426 22.8563L244.94 20.3955C245.397 20.6986 245.967 20.9503 246.655 21.1507C247.344 21.3459 247.991 21.4486 248.602 21.4486C249.049 21.4486 249.378 21.4178 249.594 21.351C249.81 21.2894 249.943 21.1609 249.995 20.9709C250.02 20.8167 249.974 20.6934 249.861 20.601C249.748 20.5085 249.527 20.4058 249.203 20.2979C248.88 20.19 248.5 20.0718 248.068 19.9434C247.154 19.6506 246.496 19.3372 246.095 19.0084C245.695 18.6796 245.494 18.2275 245.494 17.6573C245.494 17.4159 245.52 17.1744 245.571 16.9329C245.993 14.9654 247.662 13.979 250.585 13.979C251.248 13.979 251.926 14.0509 252.625 14.1896C253.324 14.3283 253.832 14.5133 254.151 14.7445L253.637 17.1641C253.308 16.9124 252.846 16.7018 252.255 16.5374C251.664 16.373 251.094 16.2908 250.549 16.2908C250.118 16.2908 249.774 16.3319 249.522 16.4141C249.265 16.4963 249.116 16.6401 249.065 16.8405C249.029 17.0306 249.116 17.1795 249.342 17.2771C249.563 17.3799 249.969 17.5083 250.555 17.6573C250.616 17.6676 250.693 17.6881 250.775 17.7138C250.858 17.7395 250.945 17.7652 251.032 17.7909C251.972 18.058 252.635 18.3611 253.015 18.7053C253.395 19.0495 253.586 19.4913 253.586 20.041C253.586 20.2311 253.555 20.4982 253.488 20.8424C253.298 21.7312 252.794 22.4299 251.972 22.9384C251.151 23.447 249.979 23.6988 248.453 23.6988C247.709 23.6988 246.953 23.6268 246.188 23.4779Z" fill="url(#paint19_linear)"/>
<path d="M255.795 23.0513C255.333 22.6198 255.101 22.0084 255.101 21.2224C255.101 20.9039 255.137 20.5546 255.214 20.1744L255.975 16.5886H254.68L255.173 14.2614H256.468L257.038 11.5181H260.393L259.823 14.2614H261.919L261.42 16.5886H259.324L258.656 19.7172C258.605 19.9227 258.579 20.123 258.579 20.3285C258.579 20.5957 258.656 20.7909 258.811 20.9193C258.965 21.0477 259.216 21.1094 259.571 21.1094C260.028 21.1094 260.485 20.9964 260.943 20.7652L260.408 23.2619C260.054 23.416 259.679 23.5239 259.283 23.5958C258.888 23.6678 258.42 23.6986 257.87 23.6986C256.956 23.6986 256.257 23.4828 255.795 23.0513Z" fill="url(#paint20_linear)"/>
<path d="M263.414 14.2617H266.768L264.821 23.4112H261.467L263.414 14.2617ZM264.287 12.6692C264.02 12.4226 263.886 12.0938 263.886 11.6879C263.886 11.3078 263.989 10.9533 264.19 10.6194C264.395 10.2906 264.662 10.0235 265.001 9.82824C265.34 9.63302 265.695 9.53027 266.08 9.53027C266.512 9.53027 266.866 9.6587 267.138 9.92071C267.411 10.1827 267.549 10.5166 267.549 10.9225C267.549 10.9841 267.539 11.1074 267.513 11.2872C267.4 11.7804 267.133 12.2017 266.712 12.5356C266.291 12.8747 265.834 13.039 265.34 13.039C264.904 13.039 264.554 12.9158 264.287 12.6692Z" fill="url(#paint21_linear)"/>
<path d="M268.33 22.7435C267.503 22.1065 267.092 21.1972 267.092 20.0156C267.092 19.6354 267.138 19.245 267.225 18.8546C267.57 17.2774 268.304 16.0701 269.44 15.2328C270.57 14.3954 272.008 13.9741 273.75 13.9741C274.515 13.9741 275.204 14.046 275.82 14.195C276.437 14.3389 276.93 14.5495 277.3 14.8166L276.745 17.4264C276.416 17.149 276 16.9383 275.496 16.7945C274.993 16.6558 274.448 16.5839 273.868 16.5839C273.056 16.5839 272.363 16.7739 271.792 17.1438C271.222 17.5189 270.852 18.0891 270.688 18.8494C270.637 19.0652 270.611 19.2964 270.611 19.5378C270.611 20.0824 270.796 20.4831 271.171 20.7297C271.546 20.9763 272.116 21.0996 272.876 21.0996C274.099 21.0996 275.229 20.8067 276.272 20.2211L275.717 22.8154C274.623 23.4011 273.272 23.6939 271.654 23.6939C270.262 23.699 269.157 23.3805 268.33 22.7435Z" fill="url(#paint22_linear)"/>
<defs>
<linearGradient id="paint0_linear" x1="40.3488" y1="28.2562" x2="40.6913" y2="-5.64995" gradientUnits="userSpaceOnUse">
<stop stop-color="#FFB400"/>
<stop offset="0.3045" stop-color="#EC7400"/>
<stop offset="0.6333" stop-color="#D83600"/>
<stop offset="0.8744" stop-color="#CD0F00"/>
<stop offset="1" stop-color="#C80000"/>
</linearGradient>
<linearGradient id="paint1_linear" x1="51.4556" y1="28.3685" x2="51.7981" y2="-5.53763" gradientUnits="userSpaceOnUse">
<stop stop-color="#FFB400"/>
<stop offset="0.3045" stop-color="#EC7400"/>
<stop offset="0.6333" stop-color="#D83600"/>
<stop offset="0.8744" stop-color="#CD0F00"/>
<stop offset="1" stop-color="#C80000"/>
</linearGradient>
<linearGradient id="paint2_linear" x1="60.2098" y1="28.4568" x2="60.5523" y2="-5.44936" gradientUnits="userSpaceOnUse">
<stop stop-color="#FFB400"/>
<stop offset="0.3045" stop-color="#EC7400"/>
<stop offset="0.6333" stop-color="#D83600"/>
<stop offset="0.8744" stop-color="#CD0F00"/>
<stop offset="1" stop-color="#C80000"/>
</linearGradient>
<linearGradient id="paint3_linear" x1="67.1119" y1="28.5267" x2="67.4544" y2="-5.37946" gradientUnits="userSpaceOnUse">
<stop stop-color="#FFB400"/>
<stop offset="0.3045" stop-color="#EC7400"/>
<stop offset="0.6333" stop-color="#D83600"/>
<stop offset="0.8744" stop-color="#CD0F00"/>
<stop offset="1" stop-color="#C80000"/>
</linearGradient>
<linearGradient id="paint4_linear" x1="82.5449" y1="28.6826" x2="82.8874" y2="-5.22357" gradientUnits="userSpaceOnUse">
<stop stop-color="#FFB400"/>
<stop offset="0.3045" stop-color="#EC7400"/>
<stop offset="0.6333" stop-color="#D83600"/>
<stop offset="0.8744" stop-color="#CD0F00"/>
<stop offset="1" stop-color="#C80000"/>
</linearGradient>
<linearGradient id="paint5_linear" x1="93.5386" y1="28.7935" x2="93.8811" y2="-5.11264" gradientUnits="userSpaceOnUse">
<stop stop-color="#FFB400"/>
<stop offset="0.3045" stop-color="#EC7400"/>
<stop offset="0.6333" stop-color="#D83600"/>
<stop offset="0.8744" stop-color="#CD0F00"/>
<stop offset="1" stop-color="#C80000"/>
</linearGradient>
<linearGradient id="paint6_linear" x1="100.099" y1="28.86" x2="100.442" y2="-5.04614" gradientUnits="userSpaceOnUse">
<stop stop-color="#FFB400"/>
<stop offset="0.3045" stop-color="#EC7400"/>
<stop offset="0.6333" stop-color="#D83600"/>
<stop offset="0.8744" stop-color="#CD0F00"/>
<stop offset="1" stop-color="#C80000"/>
</linearGradient>
<linearGradient id="paint7_linear" x1="109.201" y1="28.952" x2="109.544" y2="-4.95418" gradientUnits="userSpaceOnUse">
<stop stop-color="#FFB400"/>
<stop offset="0.3045" stop-color="#EC7400"/>
<stop offset="0.6333" stop-color="#D83600"/>
<stop offset="0.8744" stop-color="#CD0F00"/>
<stop offset="1" stop-color="#C80000"/>
</linearGradient>
<linearGradient id="paint8_linear" x1="117.2" y1="29.0328" x2="117.542" y2="-4.87342" gradientUnits="userSpaceOnUse">
<stop stop-color="#FFB400"/>
<stop offset="0.3045" stop-color="#EC7400"/>
<stop offset="0.6333" stop-color="#D83600"/>
<stop offset="0.8744" stop-color="#CD0F00"/>
<stop offset="1" stop-color="#C80000"/>
</linearGradient>
<linearGradient id="paint9_linear" x1="125.122" y1="29.1126" x2="125.465" y2="-4.79355" gradientUnits="userSpaceOnUse">
<stop stop-color="#FFB400"/>
<stop offset="0.3045" stop-color="#EC7400"/>
<stop offset="0.6333" stop-color="#D83600"/>
<stop offset="0.8744" stop-color="#CD0F00"/>
<stop offset="1" stop-color="#C80000"/>
</linearGradient>
<linearGradient id="paint10_linear" x1="137.845" y1="29.2414" x2="138.188" y2="-4.66476" gradientUnits="userSpaceOnUse">
<stop stop-color="#FFB400"/>
<stop offset="0.3045" stop-color="#EC7400"/>
<stop offset="0.6333" stop-color="#D83600"/>
<stop offset="0.8744" stop-color="#CD0F00"/>
<stop offset="1" stop-color="#C80000"/>
</linearGradient>
<linearGradient id="paint11_linear" x1="157.8" y1="29.4428" x2="158.142" y2="-4.46336" gradientUnits="userSpaceOnUse">
<stop stop-color="#FFB400"/>
<stop offset="0.3045" stop-color="#EC7400"/>
<stop offset="0.6333" stop-color="#D83600"/>
<stop offset="0.8744" stop-color="#CD0F00"/>
<stop offset="1" stop-color="#C80000"/>
</linearGradient>
<linearGradient id="paint12_linear" x1="169.73" y1="29.5632" x2="170.072" y2="-4.34295" gradientUnits="userSpaceOnUse">
<stop stop-color="#FFB400"/>
<stop offset="0.3045" stop-color="#EC7400"/>
<stop offset="0.6333" stop-color="#D83600"/>
<stop offset="0.8744" stop-color="#CD0F00"/>
<stop offset="1" stop-color="#C80000"/>
</linearGradient>
<linearGradient id="paint13_linear" x1="180.089" y1="29.6678" x2="180.431" y2="-4.23837" gradientUnits="userSpaceOnUse">
<stop stop-color="#FFB400"/>
<stop offset="0.3045" stop-color="#EC7400"/>
<stop offset="0.6333" stop-color="#D83600"/>
<stop offset="0.8744" stop-color="#CD0F00"/>
<stop offset="1" stop-color="#C80000"/>
</linearGradient>
<linearGradient id="paint14_linear" x1="194.213" y1="29.8107" x2="194.555" y2="-4.09545" gradientUnits="userSpaceOnUse">
<stop stop-color="#FFB400"/>
<stop offset="0.3045" stop-color="#EC7400"/>
<stop offset="0.6333" stop-color="#D83600"/>
<stop offset="0.8744" stop-color="#CD0F00"/>
<stop offset="1" stop-color="#C80000"/>
</linearGradient>
<linearGradient id="paint15_linear" x1="209.126" y1="29.9612" x2="209.469" y2="-3.945" gradientUnits="userSpaceOnUse">
<stop stop-color="#FFB400"/>
<stop offset="0.3045" stop-color="#EC7400"/>
<stop offset="0.6333" stop-color="#D83600"/>
<stop offset="0.8744" stop-color="#CD0F00"/>
<stop offset="1" stop-color="#C80000"/>
</linearGradient>
<linearGradient id="paint16_linear" x1="220.477" y1="30.0761" x2="220.819" y2="-3.8301" gradientUnits="userSpaceOnUse">
<stop stop-color="#FFB400"/>
<stop offset="0.3045" stop-color="#EC7400"/>
<stop offset="0.6333" stop-color="#D83600"/>
<stop offset="0.8744" stop-color="#CD0F00"/>
<stop offset="1" stop-color="#C80000"/>
</linearGradient>
<linearGradient id="paint17_linear" x1="233.146" y1="30.204" x2="233.488" y2="-3.70213" gradientUnits="userSpaceOnUse">
<stop stop-color="#FFB400"/>
<stop offset="0.3045" stop-color="#EC7400"/>
<stop offset="0.6333" stop-color="#D83600"/>
<stop offset="0.8744" stop-color="#CD0F00"/>
<stop offset="1" stop-color="#C80000"/>
</linearGradient>
<linearGradient id="paint18_linear" x1="242.298" y1="30.2964" x2="242.64" y2="-3.6098" gradientUnits="userSpaceOnUse">
<stop stop-color="#FFB400"/>
<stop offset="0.3045" stop-color="#EC7400"/>
<stop offset="0.6333" stop-color="#D83600"/>
<stop offset="0.8744" stop-color="#CD0F00"/>
<stop offset="1" stop-color="#C80000"/>
</linearGradient>
<linearGradient id="paint19_linear" x1="249.167" y1="30.3656" x2="249.509" y2="-3.54056" gradientUnits="userSpaceOnUse">
<stop stop-color="#FFB400"/>
<stop offset="0.3045" stop-color="#EC7400"/>
<stop offset="0.6333" stop-color="#D83600"/>
<stop offset="0.8744" stop-color="#CD0F00"/>
<stop offset="1" stop-color="#C80000"/>
</linearGradient>
<linearGradient id="paint20_linear" x1="258.151" y1="30.4561" x2="258.493" y2="-3.45001" gradientUnits="userSpaceOnUse">
<stop stop-color="#FFB400"/>
<stop offset="0.3045" stop-color="#EC7400"/>
<stop offset="0.6333" stop-color="#D83600"/>
<stop offset="0.8744" stop-color="#CD0F00"/>
<stop offset="1" stop-color="#C80000"/>
</linearGradient>
<linearGradient id="paint21_linear" x1="264.374" y1="30.5194" x2="264.716" y2="-3.38679" gradientUnits="userSpaceOnUse">
<stop stop-color="#FFB400"/>
<stop offset="0.3045" stop-color="#EC7400"/>
<stop offset="0.6333" stop-color="#D83600"/>
<stop offset="0.8744" stop-color="#CD0F00"/>
<stop offset="1" stop-color="#C80000"/>
</linearGradient>
<linearGradient id="paint22_linear" x1="272.058" y1="30.5971" x2="272.401" y2="-3.30908" gradientUnits="userSpaceOnUse">
<stop stop-color="#FFB400"/>
<stop offset="0.3045" stop-color="#EC7400"/>
<stop offset="0.6333" stop-color="#D83600"/>
<stop offset="0.8744" stop-color="#CD0F00"/>
<stop offset="1" stop-color="#C80000"/>
</linearGradient>
</defs>
</svg>
