<svg width="189" height="19" viewBox="0 0 189 19" fill="none" xmlns="http://www.w3.org/2000/svg">
<path d="M2.29829 13.4736C1.69347 13.2316 1.27009 12.9292 0.907199 12.5663C0.604787 12.143 0.42334 11.7196 0.42334 11.2357C0.42334 11.1148 0.42334 10.9333 0.483822 10.7519L0.544305 10.3285C0.604787 9.9051 0.725752 9.54221 0.967682 9.30028C1.14913 8.99787 1.39106 8.69545 1.69347 8.33256C1.87492 8.15111 1.99588 7.96967 2.05637 7.84871C2.11685 7.72774 2.23781 7.60677 2.23781 7.48581V7.36485C2.23781 7.1834 2.11685 7.06243 1.87492 7.06243H1.14913L1.57251 5.00603H4.47566C4.89904 5.00603 5.26193 5.12699 5.50386 5.30844C5.74579 5.48988 5.86676 5.7923 5.86676 6.1552C5.86676 6.27616 5.86676 6.39712 5.80627 6.51809C5.74579 6.88098 5.62483 7.12292 5.44338 7.36485C5.26193 7.60678 5.08049 7.90918 4.77807 8.2116C4.53614 8.51401 4.29421 8.75594 4.17325 8.99787C4.05228 9.17932 3.93132 9.42124 3.87084 9.72366L3.81036 10.0261C3.74987 10.2075 3.74987 10.3285 3.74987 10.5099C3.74987 10.8123 3.81036 10.9938 3.9918 11.1148C4.17325 11.2357 4.47566 11.2962 4.83856 11.2962C5.32242 11.2962 5.74579 11.1752 5.98772 10.9333C6.22965 10.6914 6.4111 10.3285 6.53206 9.78414C6.59255 9.48173 6.65303 9.2398 6.65303 8.99787C6.65303 8.69546 6.59255 8.45352 6.4111 8.33256C6.29013 8.21159 6.0482 8.09063 5.74579 8.09063L6.0482 6.69954L7.86268 4.70361H11.2497L9.01184 7.1834C9.25377 7.42533 9.4957 7.66726 9.61667 7.96967C9.73763 8.27208 9.79811 8.57449 9.79811 8.93738C9.79811 9.17931 9.73763 9.48172 9.67715 9.84462C9.13281 12.4454 7.31834 13.776 4.29421 13.776C3.56843 13.8365 2.90312 13.7155 2.29829 13.4736Z" fill="#106634"/>
<path d="M3.5684 2.16309H11.4311L11.0077 4.15901H3.14502L3.5684 2.16309Z" fill="#106634"/>
<path d="M11.8545 6.09434H14.9996L15.423 11.2958C15.9673 11.2958 16.4512 11.1144 16.8745 10.691C17.2979 10.2676 17.5398 9.72329 17.7213 8.9975C17.7818 8.75557 17.7818 8.51364 17.7818 8.27171C17.7818 7.9693 17.7213 7.72737 17.5398 7.54593C17.3584 7.36448 17.1165 7.30399 16.8141 7.30399C16.5116 7.30399 16.2092 7.36448 15.9068 7.48544L16.3907 5.06614C16.6326 5.00566 16.8745 4.94518 17.2374 4.8847C17.5398 4.82421 17.8423 4.82422 18.1447 4.82422C19.1729 4.82422 19.9591 5.06615 20.443 5.55001C20.9873 6.03387 21.2293 6.75965 21.2293 7.66689C21.2293 8.09027 21.1688 8.57413 21.0478 9.05799C20.7454 10.57 20.0801 11.7192 19.1124 12.5055C18.1447 13.2918 16.8745 13.7151 15.302 13.7151H12.5198L11.8545 6.09434Z" fill="#106634"/>
<path d="M22.076 13.171C21.7736 12.9291 21.6526 12.5057 21.6526 12.0823C21.6526 11.8404 21.6526 11.6589 21.7131 11.4775L23.1042 5.00586H26.3097L25.1001 10.7517C25.1001 10.8727 25.0396 10.9331 25.0396 10.9936C25.0396 11.1146 25.1001 11.2356 25.1606 11.296C25.2211 11.3565 25.4025 11.3565 25.5839 11.3565H26.1283L25.6444 13.5339H23.3461C22.8018 13.5944 22.3784 13.4129 22.076 13.171Z" fill="#106634"/>
<path d="M28.0032 6.09434H31.1483L31.5716 11.2958C32.116 11.2958 32.5998 11.1144 33.0232 10.691C33.4466 10.2676 33.6885 9.72329 33.87 8.9975C33.9305 8.75557 33.9305 8.51364 33.9305 8.27171C33.9305 7.9693 33.87 7.72737 33.6885 7.54593C33.5071 7.36448 33.2651 7.30399 32.9627 7.30399C32.6603 7.30399 32.3579 7.36448 32.0555 7.48544L32.5394 5.06614C32.7813 5.00566 33.0232 4.94518 33.3861 4.8847C33.6885 4.82421 33.9909 4.82422 34.2933 4.82422C35.3215 4.82422 36.1078 5.06615 36.5917 5.55001C37.136 6.03387 37.3779 6.75965 37.3779 7.66689C37.3779 8.09027 37.3175 8.57413 37.1965 9.05799C36.8941 10.57 36.2288 11.7192 35.2611 12.5055C34.2933 13.2918 33.0232 13.7151 31.4507 13.7151H28.6685L28.0032 6.09434Z" fill="#106634"/>
<path d="M30.4226 2.16309H38.2854L37.862 4.15901H29.9993L30.4226 2.16309Z" fill="#106634"/>
<path d="M38.7692 13.05C38.2854 12.5662 38.0435 11.9009 38.0435 11.1751C38.0435 10.8727 38.0435 10.5702 38.1039 10.3888L39.2531 5.00586H42.4587L41.37 10.2074C41.3095 10.3283 41.3095 10.4493 41.3095 10.5702C41.3095 10.8122 41.37 11.0541 41.5514 11.1751C41.7329 11.296 41.9748 11.3565 42.2772 11.3565C42.6401 11.3565 42.9425 11.296 43.1845 11.1146C43.4264 10.9936 43.6683 10.7517 43.9103 10.4493L45.0594 5.00586H48.265L46.4505 13.5944H43.4264L43.6078 12.8081C43.2449 13.1105 42.7611 13.4129 42.2167 13.5944C41.6724 13.7758 41.1885 13.8968 40.6442 13.8968C39.8579 13.8363 39.2531 13.5944 38.7692 13.05Z" fill="#106634"/>
<path d="M49.4745 13.6546C48.8092 13.5337 48.3253 13.3522 47.9624 13.1103L48.4463 10.7515C48.8696 10.9934 49.293 11.2354 49.8978 11.4168C50.4422 11.5982 50.9865 11.6587 51.4099 11.6587C52.3171 11.6587 52.801 11.4773 52.801 11.1749C52.801 11.0539 52.68 10.9329 52.4986 10.812C52.3171 10.691 51.9542 10.57 51.4704 10.4491L51.047 10.3281C50.3212 10.0862 49.7769 9.78378 49.4745 9.48136C49.1721 9.17895 48.9906 8.75557 48.9906 8.27172C48.9906 8.09027 48.9906 7.84833 49.0511 7.6064C49.2325 6.69917 49.7164 6.03387 50.5027 5.55001C51.2889 5.06615 52.2567 4.82422 53.5268 4.82422C54.1921 4.82422 54.8574 4.88469 55.4622 5.00566C56.067 5.12662 56.5509 5.30807 56.8533 5.48952L56.3695 7.84834C56.067 7.60641 55.7042 7.42496 55.2203 7.24352C54.7364 7.06207 54.2526 7.00158 53.7687 7.00158C52.922 7.00158 52.4986 7.18303 52.4381 7.48544C52.3776 7.66689 52.4986 7.78786 52.68 7.84834C52.8615 7.9693 53.2244 8.09026 53.6478 8.21123L54.2526 8.39268C54.9784 8.63461 55.5227 8.93702 55.8251 9.23943C56.1275 9.54184 56.309 9.96522 56.309 10.3886C56.309 10.6305 56.2485 10.8725 56.188 11.1749C56.0066 12.0216 55.5832 12.6264 54.8574 13.0498C54.1316 13.4732 53.0429 13.7151 51.5913 13.7151C50.8051 13.8361 50.1398 13.7756 49.4745 13.6546Z" fill="#106634"/>
<path d="M59.9985 8.51407C60.059 8.33262 60.059 8.15118 60.059 7.96973C60.059 7.7278 59.9985 7.54635 59.8171 7.42538C59.6356 7.30442 59.3937 7.24394 58.9703 7.24394C58.4865 7.24394 57.9421 7.3649 57.4583 7.60683L57.9421 5.24802C58.184 5.12706 58.6074 5.00609 59.0308 4.88512C59.5147 4.76416 59.938 4.76416 60.3614 4.76416C61.3896 4.76416 62.1154 5.00609 62.6597 5.42947C63.1436 5.85285 63.446 6.51815 63.446 7.30442C63.446 7.66731 63.3855 7.96972 63.325 8.33262L62.2364 13.5946H59.0308L59.9985 8.51407Z" fill="#106634"/>
<path d="M64.958 6.09434H68.1031L68.5265 11.2958C69.0708 11.2958 69.5547 11.1144 69.9781 10.691C70.4014 10.2676 70.6434 9.72329 70.8248 8.9975C70.8853 8.75557 70.8853 8.51364 70.8853 8.27171C70.8853 7.9693 70.8248 7.72737 70.6434 7.54593C70.4619 7.36448 70.22 7.30399 69.9176 7.30399C69.6152 7.30399 69.3127 7.36448 69.0103 7.48544L69.4942 5.06614C69.7361 5.00566 69.978 4.94518 70.3409 4.8847C70.6434 4.82421 70.9458 4.82422 71.2482 4.82422C72.2764 4.82422 73.0627 5.06615 73.5465 5.55001C74.0304 6.03387 74.3328 6.75965 74.3328 7.66689C74.3328 8.09027 74.2723 8.57413 74.1513 9.05799C73.8489 10.57 73.1836 11.7192 72.2159 12.5055C71.2482 13.2918 69.9781 13.7151 68.4055 13.7151H65.6233L64.958 6.09434Z" fill="#106634"/>
<path d="M75.4214 13.6546C74.8771 13.5337 74.4537 13.3522 74.0908 13.1103L74.6352 10.6305C75.24 11.1144 76.0263 11.3563 77.1149 11.3563C77.8407 11.3563 78.4456 11.1749 78.9294 10.8725C79.4133 10.57 79.7157 10.0257 79.8971 9.3604C79.9576 9.05799 79.9576 8.81606 79.9576 8.69509C79.9576 8.21123 79.7762 7.90882 79.4738 7.66689C79.1713 7.42496 78.6875 7.36448 77.9617 7.36448C76.9335 7.36448 76.0263 7.6064 75.24 8.02978L75.7843 5.55001C76.2077 5.30808 76.752 5.12662 77.3569 5.00566C77.9617 4.88469 78.5665 4.82422 79.2318 4.82422C80.502 4.82422 81.5302 5.12663 82.2559 5.73146C82.9817 6.33628 83.3446 7.12255 83.3446 8.21123C83.3446 8.63461 83.2841 8.99751 83.2237 9.3604C82.9212 10.812 82.2559 11.9611 81.3487 12.7474C80.381 13.5337 79.0504 13.8966 77.3569 13.8966C76.6311 13.8361 76.0263 13.7756 75.4214 13.6546Z" fill="#106634"/>
<path d="M79.1714 3.00995C79.1714 2.88899 79.1714 2.70753 79.2319 2.58657L79.5948 0.893066H82.4374L82.256 1.8003C82.256 1.86079 82.256 1.86078 82.256 1.92127C82.256 2.04223 82.377 2.10271 82.5584 2.10271H85.8849L85.4616 4.09863H80.6834C79.6552 4.09863 79.1714 3.73574 79.1714 3.00995Z" fill="#106634"/>
<path d="M84.4335 13.2317C83.9496 12.8688 83.6472 12.264 83.6472 11.5987C83.6472 11.4172 83.6472 11.2358 83.7077 10.9334C83.8891 10.0261 84.373 9.30034 85.0988 8.81648C85.8246 8.33262 86.7318 8.09069 87.881 8.09069C88.3044 8.09069 88.7882 8.15117 89.2116 8.21166C89.6955 8.27214 90.0583 8.3931 90.3608 8.51407L90.4212 8.33262C90.4212 8.21165 90.4817 8.09069 90.4817 8.03021C90.4817 7.72779 90.3003 7.48587 89.9979 7.30442C89.6955 7.12297 89.1511 7.06249 88.4253 7.06249C87.881 7.06249 87.3971 7.12298 86.8528 7.24394C86.3084 7.36491 85.8246 7.48587 85.4012 7.72779L85.8851 5.42947C86.3084 5.24802 86.8528 5.06657 87.5181 4.94561C88.1834 4.82464 88.9092 4.76416 89.635 4.76416C90.4817 4.76416 91.2075 4.88513 91.8123 5.12706C92.4172 5.36899 92.901 5.73188 93.2034 6.15526C93.5058 6.57863 93.6873 7.12298 93.6873 7.66732C93.6873 7.90925 93.6873 8.15117 93.6268 8.33262L92.5381 13.5341H89.3326L89.9374 10.5705C89.7559 10.4495 89.514 10.389 89.2116 10.2681C88.9092 10.2076 88.6673 10.1471 88.3648 10.1471C87.9415 10.1471 87.639 10.2076 87.4576 10.3285C87.2762 10.4495 87.1552 10.631 87.0947 10.9334C87.0947 11.0543 87.0342 11.1148 87.0342 11.1753C87.0342 11.3567 87.0947 11.4777 87.2762 11.5987C87.4576 11.7196 87.6391 11.7196 87.9415 11.7196C88.2439 11.7196 88.4858 11.6592 88.7882 11.5382L88.3648 13.4736C87.8205 13.6551 87.2157 13.7156 86.4294 13.7156C85.5826 13.8365 84.9173 13.5946 84.4335 13.2317Z" fill="#106634"/>
<path d="M95.4413 13.6546C94.776 13.5337 94.2921 13.3522 93.9292 13.1103L94.4131 10.7515C94.8364 10.9934 95.2598 11.2354 95.8646 11.4168C96.409 11.5982 96.9533 11.6587 97.3767 11.6587C98.2839 11.6587 98.7678 11.4773 98.7678 11.1749C98.7678 11.0539 98.6468 10.9329 98.4654 10.812C98.2839 10.691 97.921 10.57 97.4372 10.4491L97.0138 10.3281C96.288 10.0862 95.7437 9.78378 95.4413 9.48136C95.1388 9.17895 94.9574 8.75557 94.9574 8.27172C94.9574 8.09027 94.9574 7.84833 95.0179 7.6064C95.1993 6.69917 95.6832 6.03387 96.4695 5.55001C97.2557 5.06615 98.2234 4.82422 99.4936 4.82422C100.159 4.82422 100.824 4.88469 101.429 5.00566C102.034 5.12662 102.518 5.30807 102.82 5.48952L102.336 7.84834C102.034 7.60641 101.671 7.42496 101.187 7.24352C100.703 7.06207 100.219 7.00158 99.7355 7.00158C98.8888 7.00158 98.4654 7.18303 98.4049 7.48544C98.3444 7.66689 98.4654 7.78786 98.6468 7.84834C98.8283 7.9693 99.1912 8.09026 99.6145 8.21123L100.219 8.39268C100.945 8.63461 101.49 8.93702 101.792 9.23943C102.094 9.54184 102.276 9.96522 102.276 10.3886C102.276 10.6305 102.215 10.8725 102.155 11.1749C101.973 12.0216 101.55 12.6264 100.824 13.0498C100.098 13.4732 99.0097 13.7151 97.5581 13.7151C96.7719 13.8361 96.1066 13.7756 95.4413 13.6546Z" fill="#106634"/>
<path d="M103.909 13.6546C103.364 13.5337 102.941 13.3522 102.578 13.1103L103.122 10.6305C103.727 11.1144 104.514 11.3563 105.602 11.3563C106.328 11.3563 106.933 11.1749 107.417 10.8725C107.901 10.57 108.203 10.0257 108.384 9.3604C108.445 9.05799 108.445 8.81606 108.445 8.69509C108.445 8.21123 108.263 7.90882 107.961 7.66689C107.659 7.42496 107.175 7.36448 106.449 7.36448C105.421 7.36448 104.514 7.6064 103.727 8.02978L104.272 5.55001C104.695 5.30808 105.239 5.12662 105.844 5.00566C106.449 4.88469 107.054 4.82422 107.719 4.82422C108.989 4.82422 110.017 5.12663 110.743 5.73146C111.469 6.33628 111.832 7.12255 111.832 8.21123C111.832 8.63461 111.771 8.99751 111.711 9.3604C111.409 10.812 110.743 11.9611 109.836 12.7474C108.868 13.5337 107.538 13.8966 105.844 13.8966C105.058 13.8361 104.453 13.7756 103.909 13.6546Z" fill="#106634"/>
<path d="M116.187 13.5338C115.764 13.3524 115.401 13.1104 115.159 12.7475L114.977 13.5338H111.953L113.768 4.94531H116.973L115.824 10.3887C115.945 10.6911 116.066 10.8726 116.247 11.054C116.429 11.175 116.731 11.296 117.094 11.296C117.518 11.296 117.88 11.175 118.062 10.9936C118.304 10.8121 118.425 10.5097 118.546 10.1468L119.634 4.94531H122.84L121.691 10.3282C121.449 11.3564 121.025 12.2032 120.36 12.808C119.695 13.4129 118.788 13.7757 117.578 13.7757C117.094 13.8362 116.61 13.7153 116.187 13.5338Z" fill="#106634"/>
<path d="M126.771 13.5338C126.348 13.3524 125.985 13.1104 125.743 12.7475L125.562 13.5338H122.538L124.352 4.94531H127.558L126.408 10.3887C126.529 10.6911 126.65 10.8726 126.832 11.054C127.013 11.2355 127.316 11.296 127.679 11.296C128.102 11.296 128.465 11.175 128.646 10.9936C128.888 10.8121 129.009 10.5097 129.13 10.1468L130.219 4.94531H133.424L132.275 10.3282C132.033 11.3564 131.61 12.2032 130.945 12.808C130.279 13.4129 129.372 13.7757 128.162 13.7757C127.679 13.8362 127.255 13.7153 126.771 13.5338Z" fill="#106634"/>
<path d="M126.106 17.7676C125.682 17.4652 125.44 17.1023 125.44 16.6185C125.44 16.558 125.44 16.4975 125.501 16.316L125.561 16.0136L125.622 15.8322C125.622 15.7112 125.501 15.6507 125.319 15.6507H124.835L125.198 14.1387H127.436C127.739 14.1387 127.92 14.1992 128.041 14.3201C128.162 14.4411 128.222 14.5621 128.222 14.804C128.222 14.9249 128.222 15.0459 128.162 15.1669L127.981 16.0136C127.981 16.0741 127.981 16.0741 127.981 16.1346C127.981 16.316 128.102 16.437 128.343 16.437C128.646 16.437 128.767 16.316 128.827 16.0136L129.251 14.1992H131.549L131.126 16.316C130.823 17.6467 129.855 18.2515 128.102 18.2515C127.194 18.191 126.589 18.07 126.106 17.7676Z" fill="#106634"/>
<path d="M134.089 13.2317C133.606 12.8688 133.303 12.264 133.303 11.5987C133.303 11.4172 133.303 11.2358 133.364 10.9334C133.545 10.0261 134.029 9.30034 134.755 8.81648C135.481 8.33262 136.388 8.09069 137.537 8.09069C137.96 8.09069 138.444 8.15117 138.868 8.21166C139.351 8.27214 139.714 8.3931 140.017 8.51407L140.077 8.33262C140.077 8.21165 140.138 8.09069 140.138 8.03021C140.138 7.72779 139.956 7.48587 139.654 7.30442C139.351 7.12297 138.807 7.06249 138.081 7.06249C137.537 7.06249 137.053 7.12298 136.509 7.24394C135.964 7.36491 135.481 7.48587 135.057 7.72779L135.541 5.42947C135.964 5.24802 136.509 5.06657 137.174 4.94561C137.839 4.82464 138.565 4.76416 139.291 4.76416C140.138 4.76416 140.864 4.88513 141.468 5.12706C142.073 5.36899 142.557 5.73188 142.859 6.15526C143.162 6.57863 143.343 7.12298 143.343 7.66732C143.343 7.90925 143.343 8.15117 143.283 8.33262L142.194 13.5341H138.928L139.533 10.5705C139.351 10.4495 139.11 10.389 138.807 10.2681C138.505 10.2076 138.263 10.1471 137.96 10.1471C137.537 10.1471 137.235 10.2076 137.053 10.3285C136.872 10.4495 136.751 10.631 136.69 10.9334C136.69 11.0543 136.63 11.1148 136.63 11.1753C136.63 11.3567 136.69 11.4777 136.872 11.5987C136.993 11.6592 137.235 11.7196 137.537 11.7196C137.839 11.7196 138.081 11.6592 138.384 11.5382L137.96 13.4736C137.416 13.6551 136.811 13.7156 136.025 13.7156C135.239 13.8365 134.573 13.5946 134.089 13.2317Z" fill="#106634"/>
<path d="M144.734 8.51407C144.976 7.24394 145.581 6.3367 146.549 5.6714C147.456 5.06657 148.726 4.76416 150.238 4.76416C151.508 4.76416 152.476 5.00609 153.202 5.55043C153.928 6.03429 154.29 6.76008 154.29 7.72779C154.29 7.96972 154.23 8.27214 154.169 8.57455L153.081 13.6551H149.875L150.903 8.81648C150.964 8.63503 150.964 8.51407 150.964 8.33262C150.964 7.66731 150.54 7.30442 149.754 7.30442C149.21 7.30442 148.787 7.42539 148.545 7.66732C148.242 7.90925 148.061 8.27214 147.94 8.81648L147.758 9.54227C147.879 9.4213 148.061 9.36082 148.303 9.23986C148.484 9.17937 148.726 9.11889 148.968 9.11889H150.117L149.633 11.2963H148.363C148.061 11.2963 147.819 11.3567 147.577 11.5382C147.395 11.7196 147.214 11.9616 147.153 12.264L146.851 13.5946H143.646L144.734 8.51407Z" fill="#106634"/>
<path d="M152.536 1.07471H155.742L155.077 4.09883H151.871L152.536 1.07471Z" fill="#106634"/>
<path d="M157.799 8.51407C157.859 8.33262 157.859 8.15118 157.859 7.96973C157.859 7.7278 157.799 7.54635 157.617 7.42538C157.436 7.30442 157.194 7.24394 156.77 7.24394C156.287 7.24394 155.742 7.3649 155.258 7.60683L155.742 5.24802C155.984 5.12706 156.407 5.00609 156.831 4.88512C157.315 4.76416 157.738 4.76416 158.161 4.76416C159.19 4.76416 159.915 5.00609 160.46 5.42947C160.944 5.85285 161.246 6.51815 161.246 7.30442C161.246 7.66731 161.186 7.96972 161.125 8.33262L160.036 13.5946H156.831L157.799 8.51407Z" fill="#106634"/>
<path d="M162.94 8.69552L162.456 7.24394C164.149 5.55044 166.085 4.76416 168.141 4.76416C169.351 4.76416 170.319 5.00609 171.044 5.55043C171.71 6.09478 172.073 6.76008 172.073 7.60683C172.073 7.84876 172.073 8.09069 172.012 8.33262L170.923 13.5341H167.718L168.746 8.57455C168.807 8.39311 168.807 8.21165 168.807 8.03021C168.807 7.7278 168.686 7.54635 168.504 7.42538C168.323 7.30442 168.02 7.24394 167.597 7.24394C166.932 7.24394 166.327 7.42538 165.843 7.7278L166.206 8.69552L165.178 13.5341H161.912L162.94 8.69552Z" fill="#106634"/>
<path d="M173.463 13.6546C172.919 13.5337 172.496 13.3522 172.133 13.1103L172.677 10.6305C173.282 11.1144 174.068 11.3563 175.157 11.3563C175.883 11.3563 176.488 11.1749 176.971 10.8725C177.455 10.57 177.758 10.0257 177.939 9.3604C178 9.05799 178 8.81606 178 8.69509C178 8.21123 177.818 7.90882 177.516 7.66689C177.213 7.42496 176.729 7.36448 176.004 7.36448C174.915 7.36448 174.068 7.6064 173.282 8.02978L173.826 5.55001C174.25 5.30808 174.794 5.12662 175.399 5.00566C176.004 4.88469 176.609 4.82422 177.274 4.82422C178.544 4.82422 179.572 5.12663 180.298 5.73146C181.024 6.33628 181.387 7.12255 181.387 8.21123C181.387 8.63461 181.326 8.99751 181.266 9.3604C180.963 10.812 180.298 11.9611 179.391 12.7474C178.423 13.5337 177.092 13.8966 175.399 13.8966C174.613 13.8361 174.008 13.7756 173.463 13.6546Z" fill="#106634"/>
<path d="M179.451 1.07471H182.657L181.992 4.09883H178.786L179.451 1.07471Z" fill="#106634"/>
<path d="M184.713 8.51407C184.774 8.33262 184.774 8.15118 184.774 7.96973C184.774 7.7278 184.713 7.54635 184.532 7.42538C184.35 7.30442 184.108 7.24394 183.685 7.24394C183.201 7.24394 182.657 7.3649 182.173 7.60683L182.657 5.24802C182.899 5.12706 183.322 5.00609 183.745 4.88512C184.229 4.76416 184.653 4.76416 185.076 4.76416C186.104 4.76416 186.83 5.00609 187.374 5.42947C187.858 5.85285 188.161 6.51815 188.161 7.30442C188.161 7.66731 188.1 7.96972 188.04 8.33262L186.951 13.5946H183.745L184.713 8.51407Z" fill="#106634"/>
</svg>
